<svg width="109" height="26" viewBox="0 0 109 26" fill="none" xmlns="http://www.w3.org/2000/svg">
<g clip-path="url(#clip0_1804_22012)">
<path d="M62.208 16.8217V24.4836H57.3242V10.1389H62.208L62.186 13.0544C62.7047 11.6932 63.5575 9.83594 67.0038 9.83594C69.9622 9.83594 71.004 12.927 71.004 12.927C71.6458 11.5966 72.3491 9.84033 75.7735 9.84033C77.4527 9.84033 78.9121 10.2223 79.7385 12.7119C79.7781 12.8348 79.844 13.1554 79.844 13.2783V24.4836H74.9031V15.4825C74.9031 15.4825 75.0833 13.6603 73.7294 13.6603C72.4986 13.6603 71.0348 15.0741 71.0348 16.9534V24.4792H66.1071V15.1444C66.1071 15.1444 66.1906 13.1861 64.2257 13.7657C64.2257 13.7657 62.4366 14.376 62.208 16.8173V16.8217Z" fill="black"/>
<path d="M23.5829 9.39844C19.1431 9.39844 15.543 12.8189 15.543 17.0384C15.543 21.2579 19.1431 24.6784 23.5829 24.6784C28.0227 24.6784 31.6229 21.2579 31.6229 17.0384C31.6229 12.8189 28.0227 9.39844 23.5829 9.39844ZM23.5829 21.9341C22.0664 21.9341 20.8355 19.7431 20.8355 17.0384C20.8355 14.3337 22.0664 12.1427 23.5829 12.1427C25.0995 12.1427 26.3303 14.3337 26.3303 17.0384C26.3303 19.7431 25.0995 21.9341 23.5829 21.9341Z" fill="black"/>
<path d="M13.0637 9.97548V13.0359C13.0637 13.0359 10.9888 12.3641 8.81289 12.1489C8.12275 12.1489 5.94682 12.1972 6.29409 13.6769C6.29409 13.6769 6.44355 14.2697 7.52931 14.6121C8.61508 14.959 11.9251 15.9952 13.2615 17.2773C14.1011 18.4102 15.1385 20.1401 13.3098 22.5068C12.3208 23.4947 11.1383 24.5265 8.36891 24.6758C6.93588 24.6758 2.04773 24.4782 0.8125 23.7362V20.5792C0.8125 20.5792 3.77528 21.712 5.50724 21.9096C6.79082 21.8613 8.57112 22.2038 8.71618 20.4782C8.71618 20.4782 8.56673 19.7362 7.52931 19.3937C6.29409 18.9019 1.15537 17.273 1.05867 14.4585C1.05867 14.4585 0.663042 12.0435 2.58841 10.6121C3.62582 10.0677 4.46543 9.37833 8.41727 9.27734C9.25687 9.37394 12.1713 9.67251 13.0593 9.9667L13.0637 9.97548Z" fill="black"/>
<path d="M39.2579 12.8709H43.2493V10.1266H39.2974V8.63378C39.2974 8.63378 39.2491 6.91699 40.6557 6.60085C41.9525 6.31106 43.2976 6.46913 44.3614 7.38241V4.37473C44.3614 4.37473 39.126 2.24959 35.8731 5.17385C34.4049 6.52182 34.4049 8.73038 34.4049 10.0257H32.418V12.8226H34.4269V24.4889H39.2623V12.8709H39.2579Z" fill="black"/>
<path d="M53.2363 21.5789C53.2363 21.5789 51.5439 21.6316 51.3857 19.8884V12.7666H54.3968V9.96965H51.3857V7.02344L46.5239 7.75231V9.96965H45.0469V12.7666H46.5239V20.7885C46.5239 20.7885 46.2074 24.165 50.0098 24.5866C50.0098 24.5866 53.0736 24.7973 54.5023 24.2704V21.5789H53.2363Z" fill="black"/>
<path d="M88.3207 10.3125H83.5645V24.4859H88.3207V10.3125Z" fill="black"/>
<path d="M98.2856 0.8125H93.4238V24.4832H98.2856V0.8125Z" fill="black"/>
<path d="M107.375 0.8125H102.514V24.4832H107.375V0.8125Z" fill="black"/>
<path d="M83.5645 0.816406H92.6682L83.5645 9.677V0.816406Z" fill="black"/>
</g>
<defs>
<clipPath id="clip0_1804_22012">
<rect width="106.559" height="23.8639" fill="white" transform="translate(0.8125 0.8125)"/>
</clipPath>
</defs>
</svg>
