<svg width="26" height="26" viewBox="0 0 26 26" fill="none" xmlns="http://www.w3.org/2000/svg">
<path d="M12.6526 23.2222H14.0117C16.8064 23.2222 19.0702 20.9653 19.0702 18.1792V9.04308C19.0702 6.25696 16.8064 4 14.0117 4H12.2184C9.42372 4 7.15987 6.25696 7.15987 9.04308V18.1391C7.15987 18.2954 7.0312 18.4237 6.87437 18.4237H5.98974C4.83168 18.4237 3.89478 17.5137 3.89478 16.3952V14.455C3.89478 13.3365 4.83168 12.4265 5.98974 12.4265H7.10357" stroke="white" stroke-width="1.3" stroke-miterlimit="10"/>
<path d="M19.0702 18.1638H20.1237C21.2191 18.1638 22.1053 17.2427 22.1053 16.1107V14.1468C22.1053 13.0147 21.2191 12.0936 20.1237 12.0936H19.0702" stroke="white" stroke-width="1.3" stroke-miterlimit="10"/>
<path d="M13.8237 21.1989H12.1762C12.0724 21.1989 11.9883 21.283 11.9883 21.3868V23.0343C11.9883 23.1381 12.0724 23.2222 12.1762 23.2222H13.8237C13.9275 23.2222 14.0117 23.1381 14.0117 23.0343V21.3868C14.0117 21.283 13.9275 21.1989 13.8237 21.1989Z" stroke="white" stroke-width="1.3" stroke-miterlimit="10"/>
</svg>
