<svg width="140" height="140" viewBox="0 0 140 140" fill="none" xmlns="http://www.w3.org/2000/svg">
<g style="mix-blend-mode:multiply">
<circle cx="73" cy="71" r="65" stroke="black" stroke-linecap="round" stroke-linejoin="round" stroke-dasharray="2 4"/>
</g>
<circle cx="73" cy="71" r="26" fill="#FF5F00"/>
<path d="M46.5 26.9959C46.5 36.6585 38.6651 44.4918 29 44.4918C19.3349 44.4918 11.5 36.6585 11.5 26.9959C11.5 17.3333 19.3349 9.5 29 9.5C38.6651 9.5 46.5 17.3333 46.5 26.9959Z" fill="white" stroke="black"/>
<path d="M134.5 26.9959C134.5 36.6585 126.665 44.4918 117 44.4918C107.335 44.4918 99.5 36.6585 99.5 26.9959C99.5 17.3333 107.335 9.5 117 9.5C126.665 9.5 134.5 17.3333 134.5 26.9959Z" fill="white" stroke="black"/>
<path d="M46.5 114.988C46.5 124.65 38.6651 132.483 29 132.483C19.3349 132.483 11.5 124.65 11.5 114.988C11.5 105.325 19.3349 97.4917 29 97.4917C38.6651 97.4917 46.5 105.325 46.5 114.988Z" fill="white" stroke="black"/>
<path d="M134.5 114.988C134.5 124.65 126.665 132.483 117 132.483C107.335 132.483 99.5 124.65 99.5 114.988C99.5 105.325 107.335 97.4917 117 97.4917C126.665 97.4917 134.5 105.325 134.5 114.988Z" fill="white" stroke="black"/>
</svg>
