<svg width="211" height="149" viewBox="0 0 211 149" fill="none" xmlns="http://www.w3.org/2000/svg">
<g filter="url(#filter0_d_630_23597)">
<rect x="8" y="4" width="195" height="70" rx="10" fill="white"/>
<path d="M47.6641 30.1602H45.8867V37.0938H43.6211V30.5117H41.9219V46.7617H43.6211V38.6172H45.8867V47.6602H47.6641V30.1602ZM33.2305 43.4609H34.4023C36.9512 43.4414 38.7676 43.373 40.8672 42.9336L40.7305 41.4102C38.8555 41.7715 37.2344 41.8691 35.0859 41.8789V33.7734H39.793V32.2695H33.2305V43.4609ZM57.6984 42.2305C53.802 42.2305 51.6242 43.1582 51.6242 44.9453C51.6242 46.7227 53.802 47.6504 57.6984 47.6602C61.5461 47.6504 63.7238 46.7227 63.7336 44.9453C63.7238 43.1582 61.5461 42.2305 57.6984 42.2305ZM49.7297 41.1758H65.6867V39.7305H49.7297V41.1758ZM50.55 33.0117H64.7883V31.6055H58.6359V29.9258H56.7805V31.6055H50.55V33.0117ZM51.9562 36.1953C51.9465 37.8359 54.0266 38.7051 57.6984 38.6953C61.3898 38.7051 63.4504 37.8359 63.4406 36.1953C63.4504 34.5352 61.3898 33.6465 57.6984 33.6562C54.0266 33.6465 51.9465 34.5352 51.9562 36.1953ZM53.5187 44.9453C53.5187 44.0566 54.9738 43.5879 57.6984 43.5781C60.4035 43.5879 61.8586 44.0566 61.8586 44.9453C61.8586 45.8242 60.4035 46.2832 57.6984 46.2734C54.9738 46.2832 53.5187 45.8242 53.5187 44.9453ZM53.9289 36.1953C53.9191 35.3652 55.257 34.916 57.6984 34.9258C60.1594 34.916 61.468 35.3652 61.468 36.1953C61.468 36.9863 60.1594 37.3965 57.6984 37.4062C55.257 37.3965 53.9191 36.9863 53.9289 36.1953ZM87.5133 43.9102H80.3453V39.75H78.5094V43.9102H71.4977V45.4336H87.5133V43.9102ZM72.0445 38.5391L72.8648 40.0625C75.6871 39.5059 78.2652 37.7383 79.4176 35.3555C80.5699 37.748 83.1676 39.5059 86.0094 40.0625L86.8102 38.5391C83.4313 37.9727 80.3844 35.375 80.3844 32.6016V31.2734H78.4313V32.6016C78.4215 35.375 75.4137 37.9727 72.0445 38.5391ZM104.598 43.9102H88.5828V45.4727H104.598V43.9102ZM89.95 33.3633H92.6063V39.2031H89.9891V40.6875H103.075V39.2031H100.458V33.3633H103.134V31.8398H89.95V33.3633ZM94.4422 39.2031V33.3633H98.6414V39.2031H94.4422ZM119.867 39.4766H109.555V36.9375H119.32V35.4727H109.555V33.1094H119.691V31.6055H107.68V40.9609H119.867V39.4766ZM105.668 45.4531H121.684V43.9297H105.668V45.4531ZM131.991 31.0977H123.671V38.3047H131.991V31.0977ZM125.488 36.8594V32.6016H130.155V36.8594H125.488ZM125.761 41.4102H135.429V42.9727H125.8V47.4844H137.812V46H127.616V44.3203H137.245V39.9648H125.761V41.4102ZM135.409 39.125H137.245V30.1602H135.409V39.125ZM148.447 30.8242H146.611V37.8945H151.572V39.6133H144.521V41.1367H160.478V39.6133H153.408V37.8945H158.408V30.8242H156.552V32.8945H148.447V30.8242ZM146.533 47.2891H158.681V45.7852H148.408V42.3867H146.533V47.2891ZM148.447 36.3906V34.3398H156.552V36.3906H148.447ZM167.68 34.6133V31.625H165.825V34.6133C165.815 37.8164 163.999 41.1758 161.313 42.4648L162.466 43.9688C164.458 42.9336 165.991 40.834 166.772 38.3535C167.544 40.6875 169.018 42.6406 170.923 43.6367L172.075 42.1523C169.468 40.8828 167.661 37.709 167.68 34.6133ZM173.384 47.6602H175.239V38.7148H178.052V37.1328H175.239V30.1602H173.384V47.6602Z" fill="#222222"/>
<path d="M114.5 74H96.5L105.5 86L114.5 74Z" fill="white"/>
</g>
<path d="M123.5 121.679C123.5 134.656 105.5 149 105.5 149C105.5 149 87.5 134.656 87.5 121.679C87.5 111.915 95.5589 104 105.5 104C115.441 104 123.5 111.915 123.5 121.679Z" fill="#FF5C00"/>
<defs>
<filter id="filter0_d_630_23597" x="0" y="0" width="211" height="98" filterUnits="userSpaceOnUse" color-interpolation-filters="sRGB">
<feFlood flood-opacity="0" result="BackgroundImageFix"/>
<feColorMatrix in="SourceAlpha" type="matrix" values="0 0 0 0 0 0 0 0 0 0 0 0 0 0 0 0 0 0 127 0" result="hardAlpha"/>
<feOffset dy="4"/>
<feGaussianBlur stdDeviation="4"/>
<feComposite in2="hardAlpha" operator="out"/>
<feColorMatrix type="matrix" values="0 0 0 0 0 0 0 0 0 0 0 0 0 0 0 0 0 0 0.12 0"/>
<feBlend mode="normal" in2="BackgroundImageFix" result="effect1_dropShadow_630_23597"/>
<feBlend mode="normal" in="SourceGraphic" in2="effect1_dropShadow_630_23597" result="shape"/>
</filter>
</defs>
</svg>
