<svg width="644" height="230" viewBox="0 0 644 230" fill="none" xmlns="http://www.w3.org/2000/svg">
<path fill-rule="evenodd" clip-rule="evenodd" d="M217.946 164.032C199.614 202.452 160.408 229 115 229C52.0395 229 1 177.96 1 115C1 52.0395 52.0395 1 115 1C160.408 1 199.614 27.5477 217.946 65.9685C210.926 80.8415 207 97.4623 207 115C207 132.538 210.926 149.158 217.946 164.032ZM218.5 165.187C199.862 203.553 160.519 230 115 230C51.4873 230 0 178.513 0 115C0 51.4873 51.4873 0 115 0C160.519 0 199.862 26.4466 218.5 64.8126C237.138 26.4466 276.481 0 322 0C367.519 0 406.862 26.4466 425.5 64.8126C444.138 26.4466 483.481 0 529 0C592.513 0 644 51.4873 644 115C644 178.513 592.513 230 529 230C483.481 230 444.138 203.553 425.5 165.187C406.862 203.553 367.519 230 322 230C276.481 230 237.138 203.553 218.5 165.187ZM219.054 65.9685C237.386 27.5477 276.592 1 322 1C367.408 1 406.614 27.5477 424.946 65.9685C417.926 80.8415 414 97.4623 414 115C414 132.538 417.926 149.158 424.946 164.032C406.614 202.452 367.408 229 322 229C276.592 229 237.386 202.452 219.054 164.032C226.074 149.158 230 132.538 230 115C230 97.4623 226.074 80.8415 219.054 65.9685ZM218.5 67.146C225.239 81.6973 229 97.9095 229 115C229 132.091 225.239 148.303 218.5 162.854C211.761 148.303 208 132.091 208 115C208 97.9095 211.761 81.6973 218.5 67.146ZM529 1C483.592 1 444.386 27.5477 426.054 65.9685C433.074 80.8415 437 97.4623 437 115C437 132.538 433.074 149.158 426.054 164.032C444.386 202.452 483.592 229 529 229C591.96 229 643 177.96 643 115C643 52.0395 591.96 1 529 1ZM436 115C436 97.9095 432.239 81.6973 425.5 67.146C418.761 81.6973 415 97.9095 415 115C415 132.091 418.761 148.303 425.5 162.854C432.239 148.303 436 132.091 436 115Z" fill="#4A4A4A"/>
<circle cx="460.5" cy="206.5" r="3.5" fill="#4A4A4A"/>
<circle cx="360.5" cy="7.5" r="3.5" fill="#4A4A4A"/>
<circle cx="187.5" cy="203.5" r="3.5" fill="#4A4A4A"/>
<path d="M74.9252 108.91H73.4408V119.16H74.9252V108.91ZM63.3939 116.004L64.1908 117.176C65.8314 116.543 67.0423 115.246 67.6595 113.621C68.2845 115.137 69.4798 116.324 71.097 116.926L71.8627 115.738C69.6986 114.988 68.4017 113.113 68.4095 111.066V109.676H66.8939V111.066C66.8861 113.176 65.5892 115.191 63.3939 116.004ZM65.7689 122.598H75.347V121.395H67.2689V118.191H65.7689V122.598ZM88.9995 108.895H87.5777V122.895H88.9995V108.895ZM76.7808 119.035L77.687 120.145C79.0542 119.293 80.0073 117.73 80.5073 115.902C80.9995 117.59 81.9136 119.02 83.2495 119.816L84.1402 118.723C82.1714 117.59 81.2027 115.191 81.2027 112.801V111.676H83.6089V110.473H77.2027V111.676H79.7808V112.801C79.773 115.293 78.7652 117.84 76.7808 119.035ZM82.5777 115.066H84.7495V122.191H86.1558V109.191H84.7495V113.848H82.5777V115.066ZM103.418 115.598H90.652V116.785H96.2927V118.285H92.1833V122.723H101.855V118.285H97.7614V116.785H103.418V115.598ZM91.8239 110.535H93.8708V113.207H91.8864V114.41H102.152V113.207H100.183V110.535H102.215V109.332H91.8239V110.535ZM93.652 121.52V119.457H100.418V121.52H93.652ZM95.3395 113.207V110.535H98.6989V113.207H95.3395ZM119.738 108.91H118.254V111.02H114.762C114.105 110.238 113.098 109.762 111.941 109.754C109.832 109.77 108.262 111.246 108.27 113.316C108.262 115.371 109.832 116.848 111.941 116.848C113.105 116.848 114.121 116.371 114.777 115.582H118.254V119.223H119.738V108.91ZM109.691 113.316C109.684 111.996 110.629 111.09 111.941 111.082C113.199 111.09 114.16 111.996 114.16 113.316C114.16 114.637 113.199 115.543 111.941 115.535C110.629 115.543 109.684 114.637 109.691 113.316ZM110.645 122.598H120.113V121.395H112.129V118.145H110.645V122.598ZM115.418 112.223H118.254V114.379H115.426C115.527 114.051 115.582 113.691 115.582 113.316C115.582 112.926 115.527 112.566 115.418 112.223ZM132.875 109.77H123.297V110.988H131.406V111.004C131.399 112.309 131.399 113.77 130.985 115.77H121.735V116.988H127.328V122.91H128.828V116.988H134.5V115.77H132.485C132.875 113.777 132.875 112.332 132.875 111.004V109.77ZM151.133 108.895H149.711V114.426H147.977V109.27H146.586V122.223H147.977V115.629H149.711V122.895H151.133V108.895ZM139.102 118.895L139.961 119.926C143.969 117.668 145.188 114.355 145.196 110.676H139.696V111.895H143.75C143.516 114.746 142.211 117.129 139.102 118.895ZM154.817 109.488H153.364V115.598H159.958V109.488H158.489V111.395H154.817V109.488ZM154.77 117.879H162.348V119.145H154.801V122.754H164.301V121.566H156.255V120.238H163.817V116.707H154.77V117.879ZM154.817 114.41V112.535H158.489V114.41H154.817ZM162.333 116.098H163.817V113.035H165.848V111.832H163.817V108.895H162.333V116.098Z" fill="white"/>
<path d="M276.302 112.457V110.066H274.802V112.457C274.802 115.129 273.255 117.809 271.052 118.785L271.958 120.035C273.638 119.215 274.927 117.527 275.576 115.473C276.232 117.387 277.505 118.957 279.115 119.723L280.005 118.551C277.833 117.59 276.286 115.012 276.302 112.457ZM281.271 122.926H282.755V108.895H281.271V122.926ZM296.845 108.895H295.423V122.895H296.845V108.895ZM284.626 119.035L285.533 120.145C286.9 119.293 287.853 117.73 288.353 115.902C288.845 117.59 289.759 119.02 291.095 119.816L291.986 118.723C290.017 117.59 289.048 115.191 289.048 112.801V111.676H291.455V110.473H285.048V111.676H287.626V112.801C287.619 115.293 286.611 117.84 284.626 119.035ZM290.423 115.066H292.595V122.191H294.001V109.191H292.595V113.848H290.423V115.066ZM311.263 115.598H298.498V116.785H304.138V118.285H300.029V122.723H309.701V118.285H305.607V116.785H311.263V115.598ZM299.67 110.535H301.716V113.207H299.732V114.41H309.998V113.207H308.029V110.535H310.06V109.332H299.67V110.535ZM301.498 121.52V119.457H308.263V121.52H301.498ZM303.185 113.207V110.535H306.545V113.207H303.185ZM320.881 110.988V109.676H319.412V111.051C319.396 113.152 318.1 115.02 315.865 115.785L316.662 116.973C318.357 116.363 319.576 115.105 320.178 113.504C320.787 114.91 321.92 115.988 323.459 116.551L324.271 115.395C322.146 114.699 320.873 112.949 320.881 110.988ZM318.162 120.223C318.154 121.91 319.951 122.871 322.896 122.863C325.826 122.871 327.623 121.91 327.631 120.223C327.623 118.527 325.826 117.543 322.896 117.551C319.951 117.543 318.154 118.527 318.162 120.223ZM319.631 120.223C319.623 119.262 320.842 118.707 322.896 118.707C324.936 118.707 326.154 119.262 326.162 120.223C326.154 121.152 324.936 121.699 322.896 121.691C320.842 121.699 319.623 121.152 319.631 120.223ZM323.146 112.957H326.1V117.16H327.584V108.895H326.1V111.738H323.146V112.957ZM340.893 112.676H332.752V109.145H331.283V113.879H340.893V112.676ZM329.58 116.582H342.361V115.363H329.58V116.582ZM331.096 120.27C331.096 121.91 332.916 122.832 335.955 122.832C338.971 122.832 340.776 121.91 340.783 120.27C340.776 118.637 338.971 117.715 335.955 117.723C332.916 117.715 331.096 118.637 331.096 120.27ZM332.596 120.27C332.588 119.363 333.815 118.887 335.955 118.879C338.065 118.887 339.299 119.363 339.299 120.27C339.299 121.168 338.065 121.684 335.955 121.691C333.815 121.684 332.588 121.168 332.596 120.27ZM352.135 112.457V110.066H350.635V112.457C350.635 115.129 349.088 117.809 346.885 118.785L347.791 120.035C349.471 119.215 350.76 117.527 351.409 115.473C352.065 117.387 353.338 118.957 354.948 119.723L355.838 118.551C353.666 117.59 352.12 115.012 352.135 112.457ZM357.104 122.926H358.588V108.895H357.104V122.926ZM372.335 108.895H370.85V113.098H368.663V114.332H370.85V117.379H372.335V108.895ZM360.678 111.473H368.881V110.285H365.522V108.77H364.053V110.285H360.678V111.473ZM361.491 114.613C361.491 116.121 362.866 117.121 364.788 117.129C366.71 117.121 368.069 116.121 368.069 114.613C368.069 113.145 366.71 112.113 364.788 112.113C362.866 112.113 361.491 113.145 361.491 114.613ZM362.913 114.613C362.913 113.793 363.671 113.246 364.788 113.254C365.889 113.246 366.647 113.793 366.647 114.613C366.647 115.465 365.889 115.996 364.788 116.004C363.671 115.996 362.913 115.465 362.913 114.613ZM363.1 122.723H372.335V118.066H363.1V122.723ZM364.569 121.52V119.238H370.881V121.52H364.569Z" fill="white"/>
<path d="M485.202 105.328H479.468V102H477.999V105.328H472.39V106.547H485.202V105.328ZM472.827 101.031L473.484 102.25C475.742 101.805 477.804 100.391 478.726 98.4844C479.648 100.398 481.726 101.805 483.999 102.25L484.64 101.031C481.937 100.578 479.499 98.5 479.499 96.2812V95.2188H477.937V96.2812C477.929 98.5 475.523 100.578 472.827 101.031ZM497.652 94.3281H496.167V108.359H497.652V94.3281ZM486.839 105H493.558V95.5H492.089V99.0938H488.324V95.5H486.839V105ZM488.324 103.781V100.266H492.089V103.781H488.324ZM504.601 98.4531V96.9688H507.648V95.7344H499.976V96.9688H503.132V98.4531C503.125 100.82 501.586 103.461 499.461 104.484L500.336 105.656C501.929 104.859 503.242 103.133 503.882 101.141C504.515 102.969 505.765 104.547 507.336 105.297L508.179 104.141C506.054 103.133 504.593 100.664 504.601 98.4531ZM509.148 108.328H510.632V101.125H512.882V99.875H510.632V94.3281H509.148V108.328ZM522 97.8906V95.5H520.516V97.8906C520.508 100.453 519.055 103.141 516.906 104.172L517.828 105.375C519.422 104.547 520.648 102.867 521.273 100.883C521.891 102.75 523.07 104.312 524.594 105.109L525.516 103.922C523.43 102.906 521.984 100.367 522 97.8906ZM526.562 108.328H528.047V101.172H530.297V99.9062H528.047V94.3281H526.562V108.328ZM543.574 101.156H540.481V99.2812C541.567 98.8359 542.176 98.1328 542.184 97.2031C542.176 95.5391 540.254 94.5703 537.184 94.5781C534.106 94.5703 532.176 95.5391 532.184 97.2031C532.176 98.1328 532.785 98.8359 533.871 99.2734V101.156H530.809V102.359H543.574V101.156ZM532.324 105.797C532.324 107.414 534.137 108.297 537.184 108.297C540.192 108.297 542.004 107.414 542.012 105.797C542.004 104.195 540.192 103.312 537.184 103.312C534.137 103.312 532.324 104.195 532.324 105.797ZM533.715 97.2031C533.707 96.2656 535.004 95.7266 537.184 95.7188C539.348 95.7266 540.66 96.2656 540.652 97.2031C540.66 98.1406 539.348 98.6641 537.184 98.6719C535.004 98.6641 533.707 98.1406 533.715 97.2031ZM533.824 105.797C533.817 104.938 535.043 104.453 537.184 104.453C539.293 104.453 540.527 104.938 540.527 105.797C540.527 106.672 539.293 107.172 537.184 107.156C535.043 107.172 533.817 106.672 533.824 105.797ZM535.371 101.156V99.6719C535.918 99.75 536.527 99.7969 537.184 99.7969C537.848 99.7969 538.465 99.75 539.012 99.6641V101.156H535.371ZM556.149 94.3281H554.664V96.9219H552.477V98.1406H554.664V99.6094H552.477V100.859H554.664V104.719H556.149V94.3281ZM544.493 101.484L544.68 102.734C546.922 102.727 550.078 102.672 552.758 102.25L552.696 101.156C552.141 101.219 551.571 101.266 550.977 101.312V96.625H552.321V95.4219H544.883V96.625H546.196V101.477C545.594 101.477 545.016 101.484 544.493 101.484ZM547.024 108.031H556.508V106.828H548.524V103.875H547.024V108.031ZM547.633 101.453V96.625H549.555V101.391C548.907 101.414 548.266 101.438 547.633 101.453ZM562.707 95.3281C560.504 95.3203 558.887 96.6875 558.895 98.6562C558.887 100.625 560.504 101.992 562.707 102C564.918 101.992 566.512 100.625 566.52 98.6562C566.512 96.6875 564.918 95.3203 562.707 95.3281ZM558.223 104.109L558.411 105.344C560.911 105.344 564.309 105.328 567.473 104.719L567.364 103.641C564.301 104.086 560.77 104.109 558.223 104.109ZM560.364 98.6562C560.348 97.4297 561.348 96.6094 562.707 96.6094C564.067 96.6094 565.067 97.4297 565.067 98.6562C565.067 99.8984 564.067 100.703 562.707 100.703C561.348 100.703 560.348 99.8984 560.364 98.6562ZM568.239 108.359H569.723V94.3281H568.239V108.359ZM576.782 96.4219V95.1094H575.313V96.4844C575.298 98.5859 574.001 100.453 571.766 101.219L572.563 102.406C574.258 101.797 575.477 100.539 576.079 98.9375C576.688 100.344 577.821 101.422 579.36 101.984L580.173 100.828C578.048 100.133 576.774 98.3828 576.782 96.4219ZM574.063 105.656C574.055 107.344 575.852 108.305 578.798 108.297C581.727 108.305 583.524 107.344 583.532 105.656C583.524 103.961 581.727 102.977 578.798 102.984C575.852 102.977 574.055 103.961 574.063 105.656ZM575.532 105.656C575.524 104.695 576.743 104.141 578.798 104.141C580.837 104.141 582.055 104.695 582.063 105.656C582.055 106.586 580.837 107.133 578.798 107.125C576.743 107.133 575.524 106.586 575.532 105.656ZM579.048 98.3906H582.001V102.594H583.485V94.3281H582.001V97.1719H579.048V98.3906ZM490.968 133H492.687V128.062H497.484V126.594H492.687V123.172H497.984V121.688H490.968V133ZM502.636 133.172C504.503 133.172 505.808 132.25 506.183 130.875H504.496C504.214 131.391 503.597 131.797 502.652 131.797C501.261 131.797 500.308 130.883 500.261 129.266H506.292V128.672C506.292 125.602 504.457 124.406 502.527 124.406C500.16 124.406 498.597 126.203 498.605 128.812C498.597 131.445 500.136 133.172 502.636 133.172ZM500.269 128.016C500.339 126.82 501.207 125.773 502.542 125.781C503.816 125.773 504.652 126.727 504.652 128.016H500.269ZM511.445 133.172C513.312 133.172 514.617 132.25 514.992 130.875H513.304C513.023 131.391 512.406 131.797 511.461 131.797C510.07 131.797 509.117 130.883 509.07 129.266H515.101V128.672C515.101 125.602 513.265 124.406 511.336 124.406C508.968 124.406 507.406 126.203 507.414 128.812C507.406 131.445 508.945 133.172 511.445 133.172ZM509.078 128.016C509.148 126.82 510.015 125.773 511.351 125.781C512.625 125.773 513.461 126.727 513.461 128.016H509.078ZM519.769 133.172C521.316 133.164 521.926 132.227 522.238 131.672H522.363V133H523.988V121.688H522.316V125.891H522.238C521.933 125.359 521.363 124.406 519.785 124.406C517.746 124.406 516.222 126.016 516.222 128.781C516.222 131.516 517.722 133.164 519.769 133.172ZM517.926 128.75C517.918 127.078 518.668 125.82 520.144 125.828C521.582 125.82 522.363 126.984 522.363 128.75C522.363 130.531 521.566 131.742 520.144 131.75C518.683 131.742 517.918 130.453 517.926 128.75ZM531 127.5H525.984V128.938H531V127.5ZM532.996 133H537.324C539.965 133 541.152 131.688 541.152 129.953C541.152 128.203 539.934 127.219 538.809 127.156V127.047C539.848 126.781 540.715 126.07 540.715 124.656C540.715 122.977 539.551 121.688 537.137 121.688H532.996V133ZM534.715 131.531V127.922H537.231C538.59 127.922 539.449 128.789 539.449 129.875C539.449 130.812 538.793 131.523 537.168 131.531H534.715ZM534.715 126.578V123.156H537.027C538.379 123.156 539.027 123.859 539.027 124.797C539.027 125.883 538.137 126.57 536.996 126.578H534.715ZM542.305 130.609C542.297 132.266 543.555 133.188 545.164 133.188C546.571 133.188 547.352 132.477 547.68 131.844H547.743V133H549.368V127.359C549.36 124.898 547.391 124.406 546.039 124.406C544.032 124.406 542.719 125.422 542.571 126.828H544.227C544.399 126.203 544.993 125.75 545.977 125.75C547.11 125.75 547.703 126.305 547.696 127.266L547.703 127.945C547.313 127.961 546.039 128.031 545.477 128.062C543.946 128.172 542.297 128.672 542.305 130.609ZM543.93 130.625C543.93 129.789 544.618 129.375 545.711 129.297C546.11 129.273 547.321 129.188 547.703 129.164L547.711 129.938C547.711 130.945 546.899 131.852 545.539 131.859C544.602 131.852 543.93 131.438 543.93 130.625ZM554.817 133.172C556.817 133.172 558.122 131.961 558.301 130.312H556.676C556.465 131.227 555.762 131.758 554.817 131.75C553.418 131.758 552.52 130.609 552.52 128.75C552.52 126.945 553.442 125.805 554.817 125.797C555.872 125.805 556.504 126.469 556.676 127.266H558.301C558.122 125.547 556.723 124.406 554.786 124.406C552.395 124.406 550.84 126.211 550.848 128.797C550.84 131.352 552.34 133.172 554.817 133.172ZM559.719 133H561.391V129.984L562.196 129.188L565.079 133H567.126L563.462 128.156L566.891 124.516H564.891L561.532 128.094H561.391V121.688H559.719V133Z" fill="white"/>
</svg>
