<svg width="200" height="200" viewBox="0 0 200 200" fill="none" xmlns="http://www.w3.org/2000/svg">
<path d="M122.5 107.138C122.5 115.618 115.565 122.5 107 122.5C98.4355 122.5 91.5 115.618 91.5 107.138C91.5 104.185 92.4701 100.849 93.9574 97.4796C95.4419 94.1168 97.4256 90.7572 99.4162 87.7672C101.406 84.7785 103.397 82.1682 104.89 80.3047C105.637 79.3732 106.259 78.629 106.693 78.1182C106.809 77.982 106.912 77.8623 107 77.7602C107.088 77.8623 107.191 77.982 107.307 78.1182C107.741 78.629 108.363 79.3732 109.11 80.3047C110.603 82.1682 112.594 84.7785 114.584 87.7672C116.574 90.7572 118.558 94.1168 120.043 97.4796C121.53 100.849 122.5 104.185 122.5 107.138Z" stroke="#222222"/>
<path d="M119 106C119 112.627 113.627 118 107 118" stroke="#222222"/>
<mask id="path-3-inside-1_578_27201" fill="white">
<path fill-rule="evenodd" clip-rule="evenodd" d="M89.5 74C86.4624 74 84 76.4624 84 79.5V101.272C79.854 103.307 77 107.57 77 112.5C77 119.404 82.5964 125 89.5 125C96.4036 125 102 119.404 102 112.5C102 107.57 99.146 103.307 95 101.272V79.5C95 76.4624 92.5376 74 89.5 74Z"/>
</mask>
<path fill-rule="evenodd" clip-rule="evenodd" d="M89.5 74C86.4624 74 84 76.4624 84 79.5V101.272C79.854 103.307 77 107.57 77 112.5C77 119.404 82.5964 125 89.5 125C96.4036 125 102 119.404 102 112.5C102 107.57 99.146 103.307 95 101.272V79.5C95 76.4624 92.5376 74 89.5 74Z" fill="white"/>
<path d="M84 101.272L84.4406 102.17L85 101.895V101.272H84ZM95 101.272H94V101.895L94.5594 102.17L95 101.272ZM85 79.5C85 77.0147 87.0147 75 89.5 75V73C85.9101 73 83 75.9101 83 79.5H85ZM85 101.272V79.5H83V101.272H85ZM78 112.5C78 107.966 80.6239 104.043 84.4406 102.17L83.5594 100.374C79.0842 102.57 76 107.174 76 112.5H78ZM89.5 124C83.1487 124 78 118.851 78 112.5H76C76 119.956 82.0442 126 89.5 126V124ZM101 112.5C101 118.851 95.8513 124 89.5 124V126C96.9558 126 103 119.956 103 112.5H101ZM94.5594 102.17C98.3761 104.043 101 107.966 101 112.5H103C103 107.174 99.9158 102.57 95.4406 100.374L94.5594 102.17ZM94 79.5V101.272H96V79.5H94ZM89.5 75C91.9853 75 94 77.0147 94 79.5H96C96 75.9101 93.0899 73 89.5 73V75Z" fill="#222222" mask="url(#path-3-inside-1_578_27201)"/>
<mask id="path-5-inside-2_578_27201" fill="white">
<path fill-rule="evenodd" clip-rule="evenodd" d="M89.5 119C93.0899 119 96 116.09 96 112.5C96 108.91 93.0899 106 89.5 106C85.9101 106 83 108.91 83 112.5C83 116.09 85.9101 119 89.5 119ZM89.5 120C93.6421 120 97 116.642 97 112.5C97 108.358 93.6421 105 89.5 105C85.3579 105 82 108.358 82 112.5C82 116.642 85.3579 120 89.5 120Z"/>
</mask>
<path fill-rule="evenodd" clip-rule="evenodd" d="M89.5 119C93.0899 119 96 116.09 96 112.5C96 108.91 93.0899 106 89.5 106C85.9101 106 83 108.91 83 112.5C83 116.09 85.9101 119 89.5 119ZM89.5 120C93.6421 120 97 116.642 97 112.5C97 108.358 93.6421 105 89.5 105C85.3579 105 82 108.358 82 112.5C82 116.642 85.3579 120 89.5 120Z" fill="white"/>
<path d="M95 112.5C95 115.538 92.5376 118 89.5 118V120C93.6421 120 97 116.642 97 112.5H95ZM89.5 107C92.5376 107 95 109.462 95 112.5H97C97 108.358 93.6421 105 89.5 105V107ZM84 112.5C84 109.462 86.4624 107 89.5 107V105C85.3579 105 82 108.358 82 112.5H84ZM89.5 118C86.4624 118 84 115.538 84 112.5H82C82 116.642 85.3579 120 89.5 120V118ZM96 112.5C96 116.09 93.0899 119 89.5 119V121C94.1944 121 98 117.194 98 112.5H96ZM89.5 106C93.0899 106 96 108.91 96 112.5H98C98 107.806 94.1944 104 89.5 104V106ZM83 112.5C83 108.91 85.9101 106 89.5 106V104C84.8056 104 81 107.806 81 112.5H83ZM89.5 119C85.9101 119 83 116.09 83 112.5H81C81 117.194 84.8056 121 89.5 121V119Z" fill="#222222" mask="url(#path-5-inside-2_578_27201)"/>
<path d="M89.5 105.5V91" stroke="#222222" stroke-linecap="round"/>
<path d="M58.4973 156.064C58.224 156.103 58.0341 156.356 58.0732 156.63L58.7104 161.084C58.7495 161.358 59.0028 161.548 59.2761 161.508C59.5495 161.469 59.7394 161.216 59.7003 160.943L59.1339 156.983L63.0936 156.417C63.3669 156.377 63.5568 156.124 63.5177 155.851C63.4786 155.577 63.2253 155.388 62.952 155.427L58.4973 156.064ZM156.16 58.8663C176.569 86.0883 174.395 124.878 149.637 149.635L150.344 150.343C175.459 125.228 177.664 85.8809 156.961 58.2665L156.16 58.8663ZM149.637 149.635C124.88 174.393 86.0901 176.568 58.8681 156.159L58.2682 156.959C85.8826 177.662 125.23 175.457 150.344 150.343L149.637 149.635Z" fill="#222222"/>
<path d="M142.913 44.355C142.952 44.6283 142.762 44.8816 142.489 44.9207L138.034 45.5579C137.761 45.597 137.507 45.4071 137.468 45.1338C137.429 44.8604 137.619 44.6071 137.893 44.568L141.852 44.0016L141.286 40.0419C141.247 39.7686 141.437 39.5153 141.71 39.4762C141.983 39.4371 142.237 39.627 142.276 39.9003L142.913 44.355ZM142.118 44.8258C114.896 24.4169 76.1064 26.5916 51.3489 51.3491L50.6418 50.642C75.7561 25.5277 115.103 23.3226 142.718 44.0257L142.118 44.8258ZM51.3489 51.3491C26.5914 76.1066 24.4167 114.896 44.8256 142.118L44.0255 142.718C23.3223 115.104 25.5275 75.7564 50.6418 50.642L51.3489 51.3491Z" fill="#222222"/>
</svg>
