<svg width="870" height="358" viewBox="0 0 870 358" fill="none" xmlns="http://www.w3.org/2000/svg">
<g clip-path="url(#clip0_1114_9112)">
<path d="M41.1953 30.4199H39.8965V32.5938C38.6729 32.6348 37.5039 32.6416 36.5195 32.6484L36.6836 33.7148C38.8711 33.7148 41.8447 33.6943 44.6133 33.1816L44.5176 32.2246C43.4512 32.3818 42.3164 32.4775 41.1953 32.5391V30.4199ZM36.8477 29.832L37.4629 30.8164C38.9326 30.3994 40.0127 29.4629 40.5459 28.2393C41.0996 29.4014 42.1934 30.29 43.6562 30.707L44.2578 29.6953C42.4258 29.2031 41.2637 27.9658 41.1953 26.5234H43.9434V25.4707H41.1953V24.0078H39.8965V25.4707H37.1758V26.5234H39.8828C39.8145 28.0273 38.6729 29.3057 36.8477 29.832ZM45.2832 36.1895H46.582V23.9121H45.2832V36.1895ZM58.9245 23.9121H57.6803V28.7656H56.0944V24.1582H54.9049V35.5332H56.0944V29.832H57.6803V36.1621H58.9245V23.9121ZM48.8209 33.2227H49.6412C51.4254 33.209 52.6969 33.1611 54.1666 32.8535L54.0709 31.7871C52.7584 32.04 51.6237 32.1084 50.1198 32.1152V26.4414H53.4147V25.3887H48.8209V33.2227ZM63.8534 33.0723H68.6659V35H70.0878V33.0723H71.4413V31.8008H70.0878V25.1016H68.2284L63.8534 31.8555V33.0723ZM65.4394 31.8008V31.7188L68.5566 26.8926H68.6659V31.8008H65.4394ZM76.2642 35.1367C78.5543 35.1367 79.8941 33.291 79.9009 30.0508C79.8941 26.8311 78.5337 24.9648 76.2642 24.9648C73.9879 24.9648 72.6275 26.8311 72.6275 30.0508C72.6275 33.291 73.9742 35.1367 76.2642 35.1367ZM74.1314 30.0508C74.1314 27.5898 74.9312 26.2432 76.2642 26.2363C77.5904 26.2432 78.397 27.5898 78.397 30.0508C78.397 32.5186 77.5972 33.8379 76.2642 33.8379C74.9244 33.8379 74.1246 32.5186 74.1314 30.0508ZM83.466 29.5723C84.7238 29.5791 85.7424 28.5605 85.7355 27.3027C85.7424 26.0449 84.7238 25.0264 83.466 25.0195C82.2082 25.0264 81.1896 26.0449 81.1965 27.3027C81.1896 28.5605 82.2082 29.5791 83.466 29.5723ZM82.2902 27.3027C82.2971 26.6533 82.8166 26.1338 83.466 26.1406C84.1154 26.1338 84.635 26.6533 84.6281 27.3027C84.635 27.9453 84.1154 28.4717 83.466 28.4785C82.8166 28.4717 82.2971 27.9453 82.2902 27.3027ZM86.9934 30.0508C86.9934 33.2158 88.8732 35.1367 91.4504 35.1367C93.6311 35.1367 95.2238 33.7695 95.5383 31.8145L94.0207 31.8008C93.7609 33.0654 92.7082 33.7627 91.4641 33.7559C89.7619 33.7627 88.4904 32.4639 88.4836 30.0508C88.4904 27.6514 89.7551 26.3389 91.4641 26.3457C92.7219 26.3389 93.7814 27.0498 94.0207 28.3281H95.5383C95.2033 26.2021 93.5422 24.9648 91.4504 24.9648C88.8869 24.9648 86.9934 26.8857 86.9934 30.0508Z" fill="black"/>
<path d="M41.1953 321.42H39.8965V323.594C38.6729 323.635 37.5039 323.642 36.5195 323.648L36.6836 324.715C38.8711 324.715 41.8447 324.694 44.6133 324.182L44.5176 323.225C43.4512 323.382 42.3164 323.478 41.1953 323.539V321.42ZM36.8477 320.832L37.4629 321.816C38.9326 321.399 40.0127 320.463 40.5459 319.239C41.0996 320.401 42.1934 321.29 43.6562 321.707L44.2578 320.695C42.4258 320.203 41.2637 318.966 41.1953 317.523H43.9434V316.471H41.1953V315.008H39.8965V316.471H37.1758V317.523H39.8828C39.8145 319.027 38.6729 320.306 36.8477 320.832ZM45.2832 327.189H46.582V314.912H45.2832V327.189ZM59.6217 324.537H54.6041V321.625H53.319V324.537H48.4108V325.604H59.6217V324.537ZM48.7936 320.777L49.3678 321.844C51.3434 321.454 53.1481 320.217 53.9547 318.549C54.7614 320.224 56.5797 321.454 58.569 321.844L59.1295 320.777C56.7643 320.381 54.6315 318.562 54.6315 316.621V315.691H53.2643V316.621C53.2575 318.562 51.152 320.381 48.7936 320.777ZM68.4609 321.188H64.0722V322.445H68.4609V321.188ZM73.8306 316.102H72.3541L69.8931 317.715V319.15L72.2584 317.605H72.313V326H73.8306V316.102ZM79.6516 326.137C81.9416 326.137 83.2814 324.291 83.2883 321.051C83.2814 317.831 81.9211 315.965 79.6516 315.965C77.3752 315.965 76.0148 317.831 76.0148 321.051C76.0148 324.291 77.3615 326.137 79.6516 326.137ZM77.5187 321.051C77.5187 318.59 78.3186 317.243 79.6516 317.236C80.9777 317.243 81.7844 318.59 81.7844 321.051C81.7844 323.519 80.9846 324.838 79.6516 324.838C78.3117 324.838 77.5119 323.519 77.5187 321.051ZM86.8534 320.572C88.1112 320.579 89.1297 319.561 89.1229 318.303C89.1297 317.045 88.1112 316.026 86.8534 316.02C85.5955 316.026 84.577 317.045 84.5838 318.303C84.577 319.561 85.5955 320.579 86.8534 320.572ZM85.6776 318.303C85.6844 317.653 86.2039 317.134 86.8534 317.141C87.5028 317.134 88.0223 317.653 88.0155 318.303C88.0223 318.945 87.5028 319.472 86.8534 319.479C86.2039 319.472 85.6844 318.945 85.6776 318.303ZM90.3807 321.051C90.3807 324.216 92.2606 326.137 94.8377 326.137C97.0184 326.137 98.6112 324.77 98.9256 322.814L97.408 322.801C97.1483 324.065 96.0955 324.763 94.8514 324.756C93.1493 324.763 91.8778 323.464 91.8709 321.051C91.8778 318.651 93.1424 317.339 94.8514 317.346C96.1092 317.339 97.1688 318.05 97.408 319.328H98.9256C98.5907 317.202 96.9295 315.965 94.8377 315.965C92.2743 315.965 90.3807 317.886 90.3807 321.051Z" fill="black"/>
<path d="M106.318 16.4826C106.123 16.2875 105.807 16.2875 105.612 16.4826L102.432 19.6623C102.237 19.8574 102.237 20.1737 102.432 20.3688C102.627 20.5639 102.943 20.5639 103.139 20.3688L105.965 17.5425L108.791 20.3688C108.986 20.5639 109.303 20.5639 109.498 20.3688C109.693 20.1737 109.693 19.8574 109.498 19.6623L106.318 16.4826ZM105.612 335.189C105.807 335.384 106.123 335.384 106.318 335.189L109.498 332.01C109.693 331.815 109.693 331.498 109.498 331.303C109.303 331.108 108.986 331.108 108.791 331.303L105.965 334.129L103.139 331.303C102.943 331.108 102.627 331.108 102.432 331.303C102.237 331.498 102.237 331.815 102.432 332.01L105.612 335.189ZM105.465 16.8359L105.465 334.836L106.464 334.836L106.464 16.8359L105.465 16.8359Z" fill="#313131"/>
<path d="M283 -6.62357L283 357.602" stroke="url(#paint0_linear_1114_9112)" stroke-width="0.999252"/>
<path d="M629.318 -6.62357L629.318 357.602" stroke="url(#paint1_linear_1114_9112)" stroke-width="0.999252"/>
<path d="M456.047 -6.62357L456.047 357.602" stroke="url(#paint2_linear_1114_9112)" stroke-width="0.999252"/>
<path d="M802.592 -6.62357L802.592 357.602" stroke="url(#paint3_linear_1114_9112)" stroke-width="0.999252"/>
<path d="M2001 144L106 144" stroke="#4A4A4A" stroke-width="0.999252" stroke-dasharray="3 4"/>
<path d="M2001 206L106 206" stroke="#4A4A4A" stroke-width="0.999252" stroke-dasharray="3 4"/>
<path d="M2036.71 175.68L105.469 175.68" stroke="#313131" stroke-width="0.999252"/>
<path d="M190.335 144.506C190.335 145.978 191.528 147.171 193 147.171C194.472 147.171 195.665 145.978 195.665 144.506C195.665 143.035 194.472 141.842 193 141.842C191.528 141.842 190.335 143.035 190.335 144.506ZM193.5 144.506V96H192.5V144.506H193.5Z" fill="#FF5F00"/>
<path d="M149.281 83.7026H143.625V82.3511C146.234 82.1948 147.883 81.1714 147.891 79.5308C147.883 77.7886 145.922 76.7261 142.891 76.7183C139.844 76.7261 137.883 77.7886 137.891 79.5308C137.883 81.1714 139.531 82.1948 142.156 82.3511V83.7026H136.516V84.9214H149.281V83.7026ZM138.125 90.0308H147.844V88.8276H139.625V85.9683H138.125V90.0308ZM139.422 79.5308C139.414 78.5308 140.742 77.9136 142.891 77.9214C145.031 77.9136 146.367 78.5308 146.359 79.5308C146.367 80.5854 145.031 81.1636 142.891 81.1714C140.742 81.1636 139.414 80.5854 139.422 79.5308ZM161.528 82.7808H153.262V78.6089H161.403V77.4058H151.778V83.9683H155.824V87.3901H150.184V88.6089H162.996V87.3901H157.293V83.9683H161.528V82.7808ZM179.27 76.3276H177.786V78.9214H175.598V80.1401H177.786V81.6089H175.598V82.8589H177.786V86.7183H179.27V76.3276ZM167.614 83.4839L167.801 84.7339C170.043 84.7261 173.2 84.6714 175.879 84.2495L175.817 83.1558C175.262 83.2183 174.692 83.2651 174.098 83.312V78.6245H175.442V77.4214H168.004V78.6245H169.317V83.4761C168.715 83.4761 168.137 83.4839 167.614 83.4839ZM170.145 90.0308H179.629V88.8276H171.645V85.8745H170.145V90.0308ZM170.754 83.4526V78.6245H172.676V83.3901C172.028 83.4136 171.387 83.437 170.754 83.4526ZM186.063 80.8276V79.9058H189.141V78.7183H186.094V76.6089H184.594V78.7183H181.516V79.9058H184.61V80.8276C184.602 83.1323 183.227 85.5229 181.094 86.4995L181.923 87.6401C183.524 86.8979 184.743 85.3511 185.36 83.4995C185.954 85.2104 187.102 86.6714 188.626 87.3901L189.469 86.2651C187.383 85.2651 186.063 82.9839 186.063 80.8276ZM190.688 90.3276H192.173V83.2183H194.423V81.9683H192.173V76.3276H190.688V90.3276ZM199.587 88.4995H206.931V87.0464H199.587V88.4995ZM199.587 83.9995H202.509V86.1401H204.009V83.9995H206.931V82.562H204.009V80.4214H202.509V82.562H199.587V83.9995ZM213.114 89.1558C215.732 89.1558 217.263 87.0464 217.271 83.3433C217.263 79.6636 215.708 77.5308 213.114 77.5308C210.513 77.5308 208.958 79.6636 208.958 83.3433C208.958 87.0464 210.497 89.1558 213.114 89.1558ZM210.677 83.3433C210.677 80.5308 211.591 78.9917 213.114 78.9839C214.63 78.9917 215.552 80.5308 215.552 83.3433C215.552 86.1636 214.638 87.6714 213.114 87.6714C211.583 87.6714 210.669 86.1636 210.677 83.3433ZM219.579 89.1089C220.181 89.1011 220.681 88.6089 220.689 87.9995C220.681 87.3901 220.181 86.8901 219.579 86.8901C218.97 86.8901 218.462 87.3901 218.47 87.9995C218.462 88.6089 218.97 89.1011 219.579 89.1089ZM226.185 89.1558C228.544 89.1558 230.216 87.5542 230.216 85.3276C230.216 83.1479 228.646 81.5698 226.513 81.562C225.654 81.5698 224.857 81.8745 224.388 82.3276H224.279L224.654 79.1558H229.638V77.687H223.232L222.497 83.9839H224.122C224.505 83.2886 225.201 82.9839 226.107 82.9839C227.529 82.9995 228.544 83.9995 228.544 85.3745C228.544 86.7183 227.56 87.7104 226.185 87.7183C225.044 87.7104 224.122 87.0073 224.029 86.0464H222.357C222.435 87.8511 224.044 89.1558 226.185 89.1558ZM234.338 82.7964C235.775 82.8042 236.939 81.6401 236.931 80.2026C236.939 78.7651 235.775 77.6011 234.338 77.5933C232.9 77.6011 231.736 78.7651 231.744 80.2026C231.736 81.6401 232.9 82.8042 234.338 82.7964ZM232.994 80.2026C233.002 79.4604 233.595 78.8667 234.338 78.8745C235.08 78.8667 235.673 79.4604 235.666 80.2026C235.673 80.937 235.08 81.5386 234.338 81.5464C233.595 81.5386 233.002 80.937 232.994 80.2026ZM238.369 83.3433C238.369 86.9604 240.517 89.1558 243.463 89.1558C245.955 89.1558 247.775 87.5933 248.134 85.3589L246.4 85.3433C246.103 86.7886 244.9 87.5854 243.478 87.5776C241.533 87.5854 240.08 86.1011 240.072 83.3433C240.08 80.6011 241.525 79.1011 243.478 79.1089C244.916 79.1011 246.127 79.9136 246.4 81.3745H248.134C247.752 78.9448 245.853 77.5308 243.463 77.5308C240.533 77.5308 238.369 79.7261 238.369 83.3433Z" fill="#FF5F00"/>
<path d="M870 173.997C870 173.997 852.209 144 835.242 144C818.274 144 800.484 173.997 800.484 173.997C800.484 173.997 782.693 203.994 765.725 203.994C748.758 203.994 730.967 173.997 730.967 173.997C730.967 173.997 713.176 144 696.209 144C679.241 144 661.451 173.997 661.451 173.997C661.451 173.997 644.254 203.533 627.561 203.994C610.326 204.471 591.934 173.997 591.934 173.997C591.934 173.997 574.143 144 557.176 144C540.209 144 522.418 173.997 522.418 173.997C522.418 173.997 504.627 203.994 487.66 203.994C470.692 203.994 452.901 173.997 452.901 173.997C452.901 173.997 435.111 144 418.143 144C401.176 144 383.385 173.997 383.385 173.997C383.385 173.997 365.594 203.994 348.627 203.994C331.659 203.994 313.868 173.997 313.868 173.997C313.868 173.997 296.078 144 279.11 144C262.143 144 244.352 173.997 244.352 173.997C244.352 173.997 226.261 204.231 209.159 203.994C192.328 203.762 174.836 173.997 174.836 173.997C174.836 173.997 157.045 144 140.077 144C125.066 144 109.41 167.479 106 172.893" stroke="url(#paint4_linear_1114_9112)" stroke-width="2" stroke-linecap="square"/>
<rect x="702" y="-20" width="284" height="391" fill="url(#paint5_linear_1114_9112)"/>
</g>
<defs>
<linearGradient id="paint0_linear_1114_9112" x1="283" y1="332.298" x2="283" y2="6.61211" gradientUnits="userSpaceOnUse">
<stop stop-color="#BBBBBB" stop-opacity="0"/>
<stop offset="0.175076" stop-color="#BBBBBB" stop-opacity="0.7"/>
<stop offset="0.479167" stop-color="#BBBBBB"/>
<stop offset="0.787373" stop-color="#BBBBBB" stop-opacity="0.7"/>
<stop offset="1" stop-color="#BBBBBB" stop-opacity="0"/>
</linearGradient>
<linearGradient id="paint1_linear_1114_9112" x1="629.318" y1="332.298" x2="629.318" y2="6.61211" gradientUnits="userSpaceOnUse">
<stop stop-color="#BBBBBB" stop-opacity="0"/>
<stop offset="0.175076" stop-color="#BBBBBB" stop-opacity="0.7"/>
<stop offset="0.479167" stop-color="#BBBBBB"/>
<stop offset="0.787373" stop-color="#BBBBBB" stop-opacity="0.7"/>
<stop offset="1" stop-color="#BBBBBB" stop-opacity="0"/>
</linearGradient>
<linearGradient id="paint2_linear_1114_9112" x1="456.047" y1="332.298" x2="456.047" y2="6.61211" gradientUnits="userSpaceOnUse">
<stop stop-color="#BBBBBB" stop-opacity="0"/>
<stop offset="0.175076" stop-color="#BBBBBB" stop-opacity="0.7"/>
<stop offset="0.479167" stop-color="#BBBBBB"/>
<stop offset="0.787373" stop-color="#BBBBBB" stop-opacity="0.7"/>
<stop offset="1" stop-color="#BBBBBB" stop-opacity="0"/>
</linearGradient>
<linearGradient id="paint3_linear_1114_9112" x1="802.592" y1="332.298" x2="802.592" y2="6.61211" gradientUnits="userSpaceOnUse">
<stop stop-color="#BBBBBB" stop-opacity="0"/>
<stop offset="0.175076" stop-color="#BBBBBB" stop-opacity="0.7"/>
<stop offset="0.479167" stop-color="#BBBBBB"/>
<stop offset="0.787373" stop-color="#BBBBBB" stop-opacity="0.7"/>
<stop offset="1" stop-color="#BBBBBB" stop-opacity="0"/>
</linearGradient>
<linearGradient id="paint4_linear_1114_9112" x1="488" y1="144" x2="488" y2="204" gradientUnits="userSpaceOnUse">
<stop stop-color="#FF7C33"/>
<stop offset="1" stop-color="#A5A5A5"/>
</linearGradient>
<linearGradient id="paint5_linear_1114_9112" x1="878.574" y1="170.252" x2="686.191" y2="170.252" gradientUnits="userSpaceOnUse">
<stop stop-color="white"/>
<stop offset="1" stop-color="white" stop-opacity="0"/>
</linearGradient>
<clipPath id="clip0_1114_9112">
<rect width="870" height="358" fill="white"/>
</clipPath>
</defs>
</svg>
