<svg width="200" height="200" viewBox="0 0 200 200" fill="none" xmlns="http://www.w3.org/2000/svg">
<path d="M58.0032 155.572C57.7298 155.611 57.5399 155.864 57.579 156.137L58.2162 160.592C58.2553 160.865 58.5086 161.055 58.782 161.016C59.0553 160.977 59.2452 160.724 59.2061 160.45L58.6397 156.491L62.5994 155.924C62.8728 155.885 63.0627 155.632 63.0236 155.359C62.9845 155.085 62.7312 154.895 62.4578 154.934L58.0032 155.572ZM155.666 58.3741C176.075 85.5962 173.901 124.386 149.143 149.143L149.85 149.85C174.964 124.736 177.17 85.3887 156.466 57.7743L155.666 58.3741ZM149.143 149.143C124.386 173.901 85.5959 176.076 58.3739 155.667L57.7741 156.467C85.3885 177.17 124.736 174.965 149.85 149.85L149.143 149.143Z" fill="#222222"/>
<path d="M142.419 43.8628C142.458 44.1362 142.268 44.3895 141.995 44.4286L137.54 45.0657C137.267 45.1048 137.013 44.9149 136.974 44.6416C136.935 44.3682 137.125 44.1149 137.398 44.0758L141.358 43.5094L140.792 39.5497C140.753 39.2764 140.942 39.0231 141.216 38.984C141.489 38.9449 141.742 39.1348 141.782 39.4081L142.419 43.8628ZM141.624 44.3336C114.402 23.9247 75.6123 26.0995 50.8548 50.857L50.1477 50.1499C75.262 25.0355 114.609 22.8304 142.224 43.5335L141.624 44.3336ZM50.8548 50.857C26.0973 75.6145 23.9225 114.404 44.3315 141.626L43.5314 142.226C22.8282 114.611 25.0333 75.2642 50.1477 50.1499L50.8548 50.857Z" fill="#222222"/>
<mask id="path-3-inside-1_578_28146" fill="white">
<path fill-rule="evenodd" clip-rule="evenodd" d="M100 71C96.134 71 93 74.134 93 78V107.044C89.3917 109.354 87 113.398 87 118C87 125.18 92.8203 131 100 131C107.18 131 113 125.18 113 118C113 113.398 110.608 109.354 107 107.044V78C107 74.134 103.866 71 100 71Z"/>
</mask>
<path fill-rule="evenodd" clip-rule="evenodd" d="M100 71C96.134 71 93 74.134 93 78V107.044C89.3917 109.354 87 113.398 87 118C87 125.18 92.8203 131 100 131C107.18 131 113 125.18 113 118C113 113.398 110.608 109.354 107 107.044V78C107 74.134 103.866 71 100 71Z" fill="white"/>
<path d="M93 107.044L93.5392 107.886L94 107.591V107.044H93ZM107 107.044H106V107.591L106.461 107.886L107 107.044ZM94 78C94 74.6863 96.6863 72 100 72V70C95.5817 70 92 73.5817 92 78H94ZM94 107.044V78H92V107.044H94ZM88 118C88 113.753 90.2059 110.02 93.5392 107.886L92.4608 106.201C88.5775 108.688 86 113.042 86 118H88ZM100 130C93.3726 130 88 124.627 88 118H86C86 125.732 92.268 132 100 132V130ZM112 118C112 124.627 106.627 130 100 130V132C107.732 132 114 125.732 114 118H112ZM106.461 107.886C109.794 110.02 112 113.753 112 118H114C114 113.042 111.422 108.688 107.539 106.201L106.461 107.886ZM106 78V107.044H108V78H106ZM100 72C103.314 72 106 74.6863 106 78H108C108 73.5817 104.418 70 100 70V72Z" fill="black" mask="url(#path-3-inside-1_578_28146)"/>
<rect x="100.5" y="88" width="23" height="0.999999" rx="0.499999" transform="rotate(90 100.5 88)" fill="#FF5F00"/>
<circle cx="100" cy="118" r="7.5" stroke="#FF5F00"/>
<circle cx="110.754" cy="70.5" r="2" stroke="black"/>
</svg>
