<svg width="104" height="24" viewBox="0 0 104 24" fill="none" xmlns="http://www.w3.org/2000/svg">
<g clip-path="url(#clip0_1804_19051)">
<path d="M59.355 15.5265V22.599H54.6953V9.35778H59.355L59.3341 12.049C59.829 10.7926 60.6427 9.07812 63.9309 9.07812C66.7536 9.07812 67.7476 11.9315 67.7476 11.9315C68.3599 10.7034 69.031 9.08218 72.2983 9.08218C73.9004 9.08218 75.2929 9.43479 76.0814 11.7329C76.1192 11.8463 76.1821 12.1422 76.1821 12.2557V22.599H71.4678V14.2903C71.4678 14.2903 71.6398 12.6083 70.348 12.6083C69.1736 12.6083 67.7769 13.9134 67.7769 15.6481V22.595H63.0753V13.9782C63.0753 13.9782 63.155 12.1706 61.2802 12.7056C61.2802 12.7056 59.5731 13.269 59.355 15.5224V15.5265Z" fill="#4A4A4A"/>
<path d="M22.5012 8.67578C18.2651 8.67578 14.8301 11.8331 14.8301 15.728C14.8301 19.623 18.2651 22.7803 22.5012 22.7803C26.7373 22.7803 30.1724 19.623 30.1724 15.728C30.1724 11.8331 26.7373 8.67578 22.5012 8.67578ZM22.5012 20.2472C21.0542 20.2472 19.8799 18.2247 19.8799 15.728C19.8799 13.2314 21.0542 11.2089 22.5012 11.2089C23.9482 11.2089 25.1226 13.2314 25.1226 15.728C25.1226 18.2247 23.9482 20.2472 22.5012 20.2472Z" fill="#4A4A4A"/>
<path d="M12.4646 9.20693V12.0319C12.4646 12.0319 10.4849 11.4118 8.40879 11.2132C7.75031 11.2132 5.67419 11.2578 6.00553 12.6236C6.00553 12.6236 6.14813 13.1708 7.18409 13.4869C8.22005 13.8071 11.3783 14.7636 12.6533 15.9471C13.4544 16.9928 14.4442 18.5897 12.6994 20.7743C11.7557 21.6862 10.6275 22.6387 7.98518 22.7765C6.61788 22.7765 1.95395 22.5941 0.775391 21.9091V18.995C0.775391 18.995 3.60227 20.0407 5.25477 20.2231C6.47947 20.1785 8.17811 20.4946 8.31652 18.9018C8.31652 18.9018 8.17392 18.2168 7.18409 17.9007C6.00553 17.4467 1.10254 15.9431 1.01026 13.3451C1.01026 13.3451 0.632789 11.1159 2.46984 9.79462C3.45966 9.29204 4.26075 8.65572 8.03132 8.5625C8.8324 8.65167 11.6131 8.92727 12.4604 9.19883L12.4646 9.20693Z" fill="#4A4A4A"/>
<path d="M37.4578 11.8826H41.2661V9.34948H37.4955V7.97145C37.4955 7.97145 37.4494 6.38671 38.7915 6.0949C40.0288 5.8274 41.3122 5.9733 42.3272 6.81633V4.04001C42.3272 4.04001 37.332 2.07835 34.2283 4.77766C32.8274 6.02194 32.8274 8.06061 32.8274 9.25626H30.9316V11.838H32.8484V22.6069H37.462V11.8826H37.4578Z" fill="#4A4A4A"/>
<path d="M50.7942 19.9202C50.7942 19.9202 49.1795 19.9688 49.0285 18.3597V11.7857H51.9015V9.20396H49.0285V6.48438L44.3897 7.15718V9.20396H42.9805V11.7857H44.3897V19.1906C44.3897 19.1906 44.0877 22.3074 47.7157 22.6965C47.7157 22.6965 50.639 22.891 52.0021 22.4047V19.9202H50.7942Z" fill="#4A4A4A"/>
<path d="M84.2686 9.51953H79.7305V22.6027H84.2686V9.51953Z" fill="#4A4A4A"/>
<path d="M93.7755 0.75H89.1367V22.5999H93.7755V0.75Z" fill="#4A4A4A"/>
<path d="M102.449 0.75H97.8105V22.5999H102.449V0.75Z" fill="#4A4A4A"/>
<path d="M79.7305 0.753906H88.4166L79.7305 8.93291V0.753906Z" fill="#4A4A4A"/>
</g>
<defs>
<clipPath id="clip0_1804_19051">
<rect width="101.671" height="22.0282" fill="white" transform="translate(0.775391 0.75)"/>
</clipPath>
</defs>
</svg>
