<svg width="69" height="16" viewBox="0 0 69 16" fill="none" xmlns="http://www.w3.org/2000/svg">
<g clip-path="url(#clip0_1631_3319)">
<path d="M39.9508 10.3512V15.0662H36.8145V6.23869H39.9508L39.9367 8.03283C40.2698 7.1952 40.8175 6.05225 43.0307 6.05225C44.9306 6.05225 45.5996 7.95447 45.5996 7.95447C46.0118 7.13576 46.4635 6.05495 48.6626 6.05495C49.741 6.05495 50.6782 6.29002 51.209 7.82207C51.2344 7.89772 51.2767 8.09497 51.2767 8.17063V15.0662H48.1036V9.52704C48.1036 9.52704 48.2194 8.4057 47.3499 8.4057C46.5595 8.4057 45.6194 9.27575 45.6194 10.4322V15.0635H42.4548V9.31899C42.4548 9.31899 42.5085 8.11389 41.2466 8.47055C41.2466 8.47055 40.0976 8.84613 39.9508 10.3485V10.3512Z" fill="#6F6F6F"/>
<path d="M15.1462 5.78369C12.295 5.78369 9.98291 7.88856 9.98291 10.4852C9.98291 13.0818 12.295 15.1867 15.1462 15.1867C17.9974 15.1867 20.3095 13.0818 20.3095 10.4852C20.3095 7.88856 17.9974 5.78369 15.1462 5.78369ZM15.1462 13.498C14.1722 13.498 13.3818 12.1496 13.3818 10.4852C13.3818 8.82076 14.1722 7.47245 15.1462 7.47245C16.1201 7.47245 16.9106 8.82076 16.9106 10.4852C16.9106 12.1496 16.1201 13.498 15.1462 13.498Z" fill="#6F6F6F"/>
<path d="M8.39017 6.13861V8.02191C8.39017 8.02191 7.05771 7.6085 5.66033 7.4761C5.21712 7.4761 3.81973 7.50583 4.04275 8.41641C4.04275 8.41641 4.13873 8.78118 4.83601 8.99194C5.53329 9.20539 7.65901 9.84307 8.51721 10.6321C9.0564 11.3292 9.72263 12.3938 8.54826 13.8502C7.91308 14.4581 7.1537 15.0931 5.3752 15.185C4.45491 15.185 1.31572 15.0634 0.522461 14.6067V12.664C0.522461 12.664 2.42517 13.3611 3.53743 13.4827C4.36175 13.453 5.50506 13.6637 5.59822 12.6018C5.59822 12.6018 5.50224 12.1452 4.83601 11.9344C4.04275 11.6318 0.742655 10.6294 0.680549 8.89736C0.680549 8.89736 0.426479 7.41126 1.66295 6.5304C2.32918 6.19535 2.86838 5.77113 5.40626 5.70898C5.94545 5.76843 7.8171 5.95217 8.38735 6.1332L8.39017 6.13861Z" fill="#6F6F6F"/>
<path d="M25.2124 7.92126H27.7757V6.2325H25.2378V5.31381C25.2378 5.31381 25.2068 4.25732 26.1101 4.06278C26.9429 3.88444 27.8068 3.98171 28.4899 4.54373V2.69285C28.4899 2.69285 25.1277 1.38508 23.0387 3.18462C22.0958 4.01414 22.0958 5.37325 22.0958 6.17035H20.8198V7.89153H22.1099V15.0708H25.2152V7.92126H25.2124Z" fill="#6F6F6F"/>
<path d="M34.1582 13.2648C34.1582 13.2648 33.0713 13.2972 32.9697 12.2245V7.84186H34.9035V6.12067H32.9697V4.30762L29.8475 4.75615V6.12067H28.8989V7.84186H29.8475V12.7784C29.8475 12.7784 29.6442 14.8563 32.0861 15.1157C32.0861 15.1157 34.0537 15.2454 34.9712 14.9211V13.2648H34.1582Z" fill="#6F6F6F"/>
<path d="M56.72 6.34644H53.6655V15.0685H56.72V6.34644Z" fill="#6F6F6F"/>
<path d="M63.1193 0.5H59.9971V15.0666H63.1193V0.5Z" fill="#6F6F6F"/>
<path d="M68.9567 0.5H65.8345V15.0666H68.9567V0.5Z" fill="#6F6F6F"/>
<path d="M53.6655 0.502197H59.512L53.6655 5.95487V0.502197Z" fill="#6F6F6F"/>
</g>
<defs>
<clipPath id="clip0_1631_3319">
<rect width="68.4324" height="14.6855" fill="white" transform="translate(0.522461 0.5)"/>
</clipPath>
</defs>
</svg>
