<svg width="140" height="141" viewBox="0 0 140 141" fill="none" xmlns="http://www.w3.org/2000/svg">
<path fill-rule="evenodd" clip-rule="evenodd" d="M78.9387 48.4629C88.2868 44.869 94.9211 35.8058 94.9211 25.1933C94.9211 21.589 94.1559 18.1635 92.779 15.0702C89.6149 16.2839 86.6484 18.1661 84.0974 20.7168C76.5942 28.2189 74.8746 39.314 78.9387 48.4629Z" fill="#FF5F00"/>
<path fill-rule="evenodd" clip-rule="evenodd" d="M91.5938 78.9977C95.1877 88.3453 104.253 94.9794 114.867 94.9794C118.475 94.9794 121.904 94.213 125 92.8342C123.786 89.6699 121.903 86.7032 119.352 84.1521C111.846 76.6478 100.746 74.9297 91.5938 78.9977Z" fill="#FF5F00"/>
<path fill-rule="evenodd" clip-rule="evenodd" d="M61.0512 91.6483C65.1172 100.798 63.3981 111.895 55.8941 119.398C53.3434 121.948 50.3774 123.83 47.2139 125.044C45.8361 121.95 45.0703 118.523 45.0703 114.917C45.0703 104.305 51.7039 95.2426 61.0512 91.6483Z" fill="#FF5F00"/>
<path fill-rule="evenodd" clip-rule="evenodd" d="M48.4061 61.1151C39.2543 65.1831 28.1535 63.4649 20.6482 55.9607C18.0966 53.4095 16.2139 50.4428 15 47.2785C18.0958 45.8996 21.5246 45.1332 25.1324 45.1332C35.7471 45.1332 44.8121 51.7674 48.4061 61.1151Z" fill="#FF5F00"/>
<path fill-rule="evenodd" clip-rule="evenodd" d="M91.5938 61.1147C100.746 65.1827 111.846 63.4645 119.352 55.9603C121.903 53.4092 123.786 50.4425 125 47.2782C121.904 45.8993 118.475 45.1329 114.867 45.1329C104.253 45.1329 95.1877 51.7671 91.5938 61.1147Z" fill="#FF5F00"/>
<path fill-rule="evenodd" clip-rule="evenodd" d="M78.9402 91.6483C74.8742 100.798 76.5933 111.895 84.0974 119.398C86.648 121.948 89.614 123.83 92.7775 125.044C94.1553 121.95 94.9211 118.523 94.9211 114.917C94.9211 104.305 88.2875 95.2426 78.9402 91.6483Z" fill="#FF5F00"/>
<path fill-rule="evenodd" clip-rule="evenodd" d="M48.4063 78.9976C44.8124 88.3454 35.7473 94.9796 25.1325 94.9796C21.5247 94.9796 18.0958 94.2132 15 92.8343C16.2139 89.6699 18.0966 86.7032 20.6482 84.152C28.1536 76.6477 39.2545 74.9296 48.4063 78.9976Z" fill="#FF5F00"/>
<g style="mix-blend-mode:multiply">
<path fill-rule="evenodd" clip-rule="evenodd" d="M61.0527 48.4669C51.7046 44.8729 45.0703 35.8097 45.0703 25.1972C45.0703 21.593 45.8355 18.1674 47.2124 15.0741C50.3765 16.2878 53.343 18.17 55.8941 20.7207C63.3972 28.2228 65.1168 39.3179 61.0527 48.4669Z" fill="#FF5F00"/>
</g>
<mask id="path-9-inside-1_1688_28167" fill="white">
<path fill-rule="evenodd" clip-rule="evenodd" d="M78.5058 48.5767C75.8508 49.537 72.9865 50.0606 70 50.0606C66.8386 50.0606 63.8142 49.4739 61.0299 48.4035C59.8181 51.1301 58.0939 53.6843 55.8574 55.9203C53.6221 58.155 51.0689 59.8781 48.3432 61.0895C49.4134 63.8726 50 66.8956 50 70.0555C50 73.2154 49.4135 76.2383 48.3433 79.0214C51.0689 80.2328 53.6221 81.9559 55.8574 84.1906C58.0939 86.4266 59.8181 88.9808 61.0299 91.7075C63.8143 90.6371 66.8386 90.0505 70 90.0505C73.1614 90.0505 76.1857 90.6371 78.9701 91.7075C80.1819 88.9808 81.9061 86.4266 84.1426 84.1906C86.3779 81.9559 88.9311 80.2328 91.6567 79.0214C90.5865 76.2383 90 73.2154 90 70.0555C90 67.0169 90.5424 64.1049 91.5357 61.411C88.681 60.1935 86.0068 58.4206 83.6778 56.0922C81.4416 53.8566 79.7177 51.3028 78.5058 48.5767ZM14.8371 47.2134C6.09467 51.1069 0 59.8697 0 70.0555C0 80.2413 6.09466 89.004 14.8371 92.8976C11.4097 101.831 13.298 112.335 20.502 119.537C27.7065 126.74 38.2142 128.627 47.15 125.2C51.0435 133.942 59.8098 140.038 70 140.038C80.1902 140.038 88.9565 133.942 92.85 125.2C101.786 128.627 112.293 126.74 119.498 119.537C126.702 112.335 128.59 101.831 125.163 92.8976C133.905 89.004 140 80.2413 140 70.0555C140 59.7366 133.745 50.8783 124.819 47.0633C128.079 38.2007 126.151 27.8616 119.033 20.7458C111.953 13.6675 101.683 11.7223 92.8495 14.9102C88.9558 6.16803 80.1898 0.0732422 70 0.0732422C59.8098 0.0732422 51.0436 6.16849 47.1501 14.9111C38.2142 11.4836 27.7065 13.3712 20.502 20.5739C13.298 27.7761 11.4097 38.2802 14.8371 47.2134Z"/>
</mask>
<path d="M78.5058 48.5767L79.4196 48.1705L79.0414 47.3196L78.1657 47.6363L78.5058 48.5767ZM61.0299 48.4035L61.3887 47.4701L60.5019 47.1292L60.1161 47.9974L61.0299 48.4035ZM55.8574 55.9203L56.5644 56.6275L55.8574 55.9203ZM48.3432 61.0895L47.9371 60.1757L47.0689 60.5616L47.4099 61.4484L48.3432 61.0895ZM48.3433 79.0214L47.4099 78.6625L47.0689 79.5493L47.9371 79.9352L48.3433 79.0214ZM55.8574 84.1906L55.1503 84.8978L55.8574 84.1906ZM61.0299 91.7075L60.1161 92.1136L60.502 92.9818L61.3888 92.6409L61.0299 91.7075ZM78.9701 91.7075L78.6112 92.6409L79.498 92.9818L79.8839 92.1136L78.9701 91.7075ZM84.1426 84.1906L83.4356 83.4834L84.1426 84.1906ZM91.6567 79.0214L92.0629 79.9352L92.9311 79.5493L92.5901 78.6625L91.6567 79.0214ZM91.5357 61.411L92.4739 61.757L92.803 60.8644L91.928 60.4912L91.5357 61.411ZM83.6778 56.0922L84.3848 55.385L83.6778 56.0922ZM14.8371 47.2134L15.2439 48.1269L16.1106 47.7409L15.7707 46.8552L14.8371 47.2134ZM14.8371 92.8976L15.7707 93.2558L16.1105 92.3701L15.2439 91.9841L14.8371 92.8976ZM20.502 119.537L21.209 118.83L20.502 119.537ZM47.15 125.2L48.0635 124.793L47.6776 123.926L46.7919 124.266L47.15 125.2ZM92.85 125.2L93.2081 124.266L92.3224 123.926L91.9365 124.793L92.85 125.2ZM119.498 119.537L118.791 118.83L119.498 119.537ZM125.163 92.8976L124.756 91.9841L123.889 92.3701L124.229 93.2558L125.163 92.8976ZM124.819 47.0633L123.881 46.7181L123.553 47.6096L124.426 47.9829L124.819 47.0633ZM119.033 20.7458L118.326 21.453L119.033 20.7458ZM92.8495 14.9102L91.936 15.317L92.3143 16.1664L93.189 15.8508L92.8495 14.9102ZM47.1501 14.9111L46.7919 15.8448L47.6776 16.1845L48.0636 15.318L47.1501 14.9111ZM20.502 20.5739L19.795 19.8667L20.502 20.5739ZM70 51.0606C73.1042 51.0606 76.0834 50.5163 78.846 49.5171L78.1657 47.6363C75.6181 48.5577 72.8689 49.0606 70 49.0606V51.0606ZM60.6711 49.3369C63.5681 50.4506 66.714 51.0606 70 51.0606V49.0606C66.9632 49.0606 64.0603 48.4972 61.3887 47.4701L60.6711 49.3369ZM60.1161 47.9974C58.9533 50.6136 57.2987 53.0653 55.1503 55.2131L56.5644 56.6275C58.8891 54.3034 60.6828 51.6467 61.9437 48.8097L60.1161 47.9974ZM55.1503 55.2131C53.0032 57.3597 50.5524 59.0133 47.9371 60.1757L48.7494 62.0033C51.5853 60.7428 54.241 58.9503 56.5644 56.6275L55.1503 55.2131ZM51 70.0555C51 66.7709 50.3902 63.6264 49.2766 60.7306L47.4099 61.4484C48.4367 64.1188 49 67.0202 49 70.0555H51ZM49.2766 79.3803C50.3902 76.4845 51 73.34 51 70.0555H49C49 73.0908 48.4367 75.9921 47.4099 78.6625L49.2766 79.3803ZM56.5644 83.4834C54.241 81.1606 51.5854 79.3681 48.7494 78.1076L47.9371 79.9352C50.5524 81.0976 53.0032 82.7512 55.1503 84.8978L56.5644 83.4834ZM61.9438 91.3013C60.6828 88.4642 58.8891 85.8075 56.5644 83.4834L55.1503 84.8978C57.2987 87.0456 58.9534 89.4974 60.1161 92.1136L61.9438 91.3013ZM70 89.0505C66.714 89.0505 63.5681 89.6604 60.6711 90.7741L61.3888 92.6409C64.0604 91.6138 66.9632 91.0505 70 91.0505V89.0505ZM79.3289 90.7741C76.4319 89.6604 73.286 89.0505 70 89.0505V91.0505C73.0368 91.0505 75.9396 91.6138 78.6112 92.6409L79.3289 90.7741ZM83.4356 83.4834C81.1109 85.8075 79.3172 88.4642 78.0562 91.3013L79.8839 92.1136C81.0466 89.4974 82.7013 87.0456 84.8497 84.8978L83.4356 83.4834ZM91.2506 78.1076C88.4146 79.3681 85.759 81.1606 83.4356 83.4834L84.8497 84.8978C86.9968 82.7512 89.4476 81.0976 92.0629 79.9352L91.2506 78.1076ZM89 70.0555C89 73.34 89.6098 76.4845 90.7234 79.3803L92.5901 78.6625C91.5633 75.9921 91 73.0908 91 70.0555H89ZM90.5974 61.0651C89.5639 63.8681 89 66.8971 89 70.0555H91C91 67.1367 91.5209 64.3417 92.4739 61.757L90.5974 61.0651ZM82.9708 56.7994C85.3916 59.2196 88.1731 61.0641 91.1434 62.3309L91.928 60.4912C89.1888 59.323 86.6219 57.6215 84.3848 55.385L82.9708 56.7994ZM77.5921 48.9829C78.853 51.8194 80.6465 54.4756 82.9708 56.7994L84.3848 55.385C82.2368 53.2375 80.5824 50.7862 79.4196 48.1705L77.5921 48.9829ZM14.4303 46.2999C5.34035 50.3482 -1 59.4604 -1 70.0555H1C1 60.2789 6.849 51.8657 15.2439 48.1269L14.4303 46.2999ZM-1 70.0555C-1 80.6506 5.34033 89.7628 14.4302 93.8111L15.2439 91.9841C6.84898 88.2453 1 79.8321 1 70.0555H-1ZM13.9034 92.5394C10.3397 101.828 12.3017 112.753 19.795 120.244L21.209 118.83C14.2944 111.917 12.4797 101.834 15.7707 93.2558L13.9034 92.5394ZM19.795 120.244C27.2888 127.736 38.2172 129.697 47.5081 126.133L46.7919 124.266C38.2112 127.557 28.1242 125.743 21.209 118.83L19.795 120.244ZM46.2365 125.607C50.2849 134.697 59.4007 141.038 70 141.038V139.038C60.2188 139.038 51.8022 133.188 48.0635 124.793L46.2365 125.607ZM70 141.038C80.5993 141.038 89.7151 134.697 93.7635 125.607L91.9365 124.793C88.1978 133.188 79.7812 139.038 70 139.038V141.038ZM92.4919 126.133C101.783 129.697 112.711 127.736 120.205 120.244L118.791 118.83C111.876 125.743 101.789 127.557 93.2081 124.266L92.4919 126.133ZM120.205 120.244C127.698 112.753 129.66 101.828 126.097 92.5394L124.229 93.2558C127.52 101.834 125.706 111.917 118.791 118.83L120.205 120.244ZM125.57 93.8111C134.66 89.7628 141 80.6506 141 70.0555H139C139 79.8321 133.151 88.2453 124.756 91.9841L125.57 93.8111ZM141 70.0555C141 59.3221 134.493 50.1105 125.212 46.1438L124.426 47.9829C132.997 51.6461 139 60.1512 139 70.0555H141ZM125.758 47.4086C129.148 38.1936 127.144 27.4402 119.74 20.0386L118.326 21.453C125.158 28.2831 127.011 38.2078 123.881 46.7181L125.758 47.4086ZM119.74 20.0386C112.376 12.6761 101.694 10.6551 92.51 13.9695L93.189 15.8508C101.672 12.7895 111.53 14.6589 118.326 21.453L119.74 20.0386ZM93.763 14.5033C89.7144 5.41348 80.5988 -0.926758 70 -0.926758V1.07324C79.7808 1.07324 88.1971 6.92258 91.936 15.317L93.763 14.5033ZM70 -0.926758C59.4008 -0.926758 50.2849 5.41395 46.2366 14.5043L48.0636 15.318C51.8022 6.92302 60.2188 1.07324 70 1.07324V-0.926758ZM21.209 21.2811C28.1243 14.3677 38.2112 12.5535 46.7919 15.8448L47.5082 13.9775C38.2172 10.4138 27.2888 12.3748 19.795 19.8667L21.209 21.2811ZM15.7707 46.8552C12.4797 38.2773 14.2943 28.1941 21.209 21.2811L19.795 19.8667C12.3017 27.3581 10.3397 38.2831 13.9035 47.5716L15.7707 46.8552Z" fill="black" mask="url(#path-9-inside-1_1688_28167)"/>
</svg>
