<svg width="117" height="90" viewBox="0 0 117 90" fill="none" xmlns="http://www.w3.org/2000/svg">
<g filter="url(#filter0_d_190_12030)">
<rect x="4" y="2" width="109" height="36" rx="4" fill="white"/>
<path d="M25.3984 14.4961H24.332V18.6562H22.9727V14.707H21.9531V24.457H22.9727V19.5703H24.332V24.9961H25.3984V14.4961ZM16.7383 22.4766H17.4414C18.9707 22.4648 20.0605 22.4238 21.3203 22.1602L21.2383 21.2461C20.1133 21.4629 19.1406 21.5215 17.8516 21.5273V16.6641H20.6758V15.7617H16.7383V22.4766ZM31.4191 21.7383C29.0812 21.7383 27.7745 22.2949 27.7745 23.3672C27.7745 24.4336 29.0812 24.9902 31.4191 24.9961C33.7277 24.9902 35.0343 24.4336 35.0402 23.3672C35.0343 22.2949 33.7277 21.7383 31.4191 21.7383ZM26.6378 21.1055H36.212V20.2383H26.6378V21.1055ZM27.13 16.207H35.673V15.3633H31.9816V14.3555H30.8683V15.3633H27.13V16.207ZM27.9738 18.1172C27.9679 19.1016 29.2159 19.623 31.4191 19.6172C33.6339 19.623 34.8702 19.1016 34.8644 18.1172C34.8702 17.1211 33.6339 16.5879 31.4191 16.5938C29.2159 16.5879 27.9679 17.1211 27.9738 18.1172ZM28.9113 23.3672C28.9113 22.834 29.7843 22.5527 31.4191 22.5469C33.0421 22.5527 33.9152 22.834 33.9152 23.3672C33.9152 23.8945 33.0421 24.1699 31.4191 24.1641C29.7843 24.1699 28.9113 23.8945 28.9113 23.3672ZM29.1573 18.1172C29.1515 17.6191 29.9542 17.3496 31.4191 17.3555C32.8956 17.3496 33.6808 17.6191 33.6808 18.1172C33.6808 18.5918 32.8956 18.8379 31.4191 18.8438C29.9542 18.8379 29.1515 18.5918 29.1573 18.1172ZM46.4983 22.7461H42.1975V20.25H41.0959V22.7461H36.8889V23.6602H46.4983V22.7461ZM37.217 19.5234L37.7092 20.4375C39.4026 20.1035 40.9495 19.043 41.6409 17.6133C42.3323 19.0488 43.8909 20.1035 45.5959 20.4375L46.0764 19.5234C44.0491 19.1836 42.2209 17.625 42.2209 15.9609V15.1641H41.0491V15.9609C41.0432 17.625 39.2385 19.1836 37.217 19.5234ZM56.7494 22.7461H47.14V23.6836H56.7494V22.7461ZM47.9603 16.418H49.5541V19.9219H47.9837V20.8125H55.8353V19.9219H54.265V16.418H55.8705V15.5039H47.9603V16.418ZM50.6556 19.9219V16.418H53.1752V19.9219H50.6556ZM65.9106 20.0859H59.7231V18.5625H65.5825V17.6836H59.7231V16.2656H65.8052V15.3633H58.5981V20.9766H65.9106V20.0859ZM57.3911 23.6719H67.0005V22.7578H57.3911V23.6719ZM73.1852 15.0586H68.193V19.3828H73.1852V15.0586ZM69.2828 18.5156V15.9609H72.0836V18.5156H69.2828ZM69.4469 21.2461H75.2477V22.1836H69.4703V24.8906H76.6773V24H70.5602V22.9922H76.3375V20.3789H69.4469V21.2461ZM75.2359 19.875H76.3375V14.4961H75.2359V19.875ZM83.0584 14.8945H81.9569V19.1367H84.9334V20.168H80.703V21.082H90.2772V20.168H86.035V19.1367H89.035V14.8945H87.9217V16.1367H83.0584V14.8945ZM81.91 24.7734H89.1991V23.8711H83.035V21.832H81.91V24.7734ZM83.0584 18.2344V17.0039H87.9217V18.2344H83.0584ZM94.5986 17.168V15.375H93.4853V17.168C93.4795 19.0898 92.3896 21.1055 90.7783 21.8789L91.4697 22.7812C92.665 22.1602 93.5849 20.9004 94.0537 19.4121C94.5166 20.8125 95.4013 21.9844 96.5439 22.582L97.2353 21.6914C95.6709 20.9297 94.5869 19.0254 94.5986 17.168ZM98.0205 24.9961H99.1338V19.6289H100.821V18.6797H99.1338V14.4961H98.0205V24.9961Z" fill="black"/>
<path d="M63.5 38H53.5L58.5 44L63.5 38Z" fill="white"/>
</g>
<path d="M71.5 66.9286C71.5 77.8877 57.5 90 57.5 90C57.5 90 43.5 77.8877 43.5 66.9286C43.5 58.6837 49.768 52 57.5 52C65.232 52 71.5 58.6837 71.5 66.9286Z" fill="#FF5F00"/>
<defs>
<filter id="filter0_d_190_12030" x="0" y="0" width="117" height="50" filterUnits="userSpaceOnUse" color-interpolation-filters="sRGB">
<feFlood flood-opacity="0" result="BackgroundImageFix"/>
<feColorMatrix in="SourceAlpha" type="matrix" values="0 0 0 0 0 0 0 0 0 0 0 0 0 0 0 0 0 0 127 0" result="hardAlpha"/>
<feOffset dy="2"/>
<feGaussianBlur stdDeviation="2"/>
<feComposite in2="hardAlpha" operator="out"/>
<feColorMatrix type="matrix" values="0 0 0 0 0 0 0 0 0 0 0 0 0 0 0 0 0 0 0.12 0"/>
<feBlend mode="normal" in2="BackgroundImageFix" result="effect1_dropShadow_190_12030"/>
<feBlend mode="normal" in="SourceGraphic" in2="effect1_dropShadow_190_12030" result="shape"/>
</filter>
</defs>
</svg>
