<svg width="360" height="320" viewBox="0 0 360 320" fill="none" xmlns="http://www.w3.org/2000/svg">
<g clip-path="url(#clip0_418_9017)">
<path d="M41.3181 0.646711C41.123 0.451595 40.8067 0.451595 40.6115 0.646711L37.4319 3.82631C37.2368 4.02143 37.2368 4.33777 37.4319 4.53289C37.6271 4.728 37.9434 4.728 38.1385 4.53289L40.9648 1.70658L43.7911 4.53289C43.9863 4.728 44.3026 4.728 44.4977 4.53289C44.6928 4.33777 44.6928 4.02143 44.4977 3.82631L41.3181 0.646711ZM40.6116 319.353C40.8067 319.548 41.123 319.548 41.3181 319.353L44.4977 316.174C44.6928 315.979 44.6928 315.662 44.4977 315.467C44.3026 315.272 43.9863 315.272 43.7912 315.467L40.9648 318.293L38.1385 315.467C37.9434 315.272 37.6271 315.272 37.432 315.467C37.2368 315.662 37.2368 315.979 37.432 316.174L40.6116 319.353ZM40.4652 1L40.4652 319L41.4645 319L41.4645 1L40.4652 1Z" fill="#313131"/>
<path d="M218 -21.6236L218 342.602" stroke="url(#paint0_linear_418_9017)" stroke-width="0.999252"/>
<path d="M1936 129L41 129" stroke="#4A4A4A" stroke-width="0.999252" stroke-dasharray="3 4"/>
<path d="M1936 191L41 191" stroke="#4A4A4A" stroke-width="0.999252" stroke-dasharray="3 4"/>
<path d="M292 160H40" stroke="#313131" stroke-width="0.999252"/>
<path d="M143.335 129.506C143.335 130.978 144.528 132.171 146 132.171C147.472 132.171 148.665 130.978 148.665 129.506C148.665 128.035 147.472 126.842 146 126.842C144.528 126.842 143.335 128.035 143.335 129.506ZM146.5 129.506V81H145.5V129.506H146.5Z" fill="#FF5F00"/>
<path d="M111.791 72.6963H107.195V71.5981C109.315 71.4712 110.655 70.6396 110.661 69.3066C110.655 67.8911 109.062 67.0278 106.599 67.0215C104.123 67.0278 102.53 67.8911 102.536 69.3066C102.53 70.6396 103.869 71.4712 106.002 71.5981V72.6963H101.419V73.6865H111.791V72.6963ZM102.727 77.8379H110.623V76.8604H103.945V74.5371H102.727V77.8379ZM103.78 69.3066C103.774 68.4941 104.853 67.9927 106.599 67.999C108.338 67.9927 109.423 68.4941 109.417 69.3066C109.423 70.1636 108.338 70.6333 106.599 70.6396C104.853 70.6333 103.774 70.1636 103.78 69.3066ZM121.481 71.9473H114.765V68.5576H121.38V67.5801H113.559V72.9121H116.847V75.6924H112.264V76.6826H122.674V75.6924H118.041V72.9121H121.481V71.9473ZM135.377 66.7041H134.171V68.8115H132.393V69.8018H134.171V70.9951H132.393V72.0107H134.171V75.1465H135.377V66.7041ZM125.906 72.5186L126.059 73.5342C127.88 73.5278 130.445 73.4834 132.622 73.1406L132.571 72.252C132.121 72.3027 131.657 72.3408 131.175 72.3789V68.5703H132.267V67.5928H126.224V68.5703H127.29V72.5122C126.801 72.5122 126.331 72.5186 125.906 72.5186ZM127.963 77.8379H135.669V76.8604H129.182V74.4609H127.963V77.8379ZM128.458 72.4932V68.5703H130.019V72.4424C129.493 72.4614 128.972 72.4805 128.458 72.4932ZM140.636 70.3604V69.6113H143.137V68.6465H140.662V66.9326H139.443V68.6465H136.942V69.6113H139.456V70.3604C139.449 72.2329 138.332 74.1753 136.599 74.9688L137.272 75.8955C138.573 75.2925 139.564 74.0356 140.065 72.5312C140.547 73.9214 141.481 75.1084 142.718 75.6924L143.404 74.7783C141.709 73.9658 140.636 72.1123 140.636 70.3604ZM144.394 78.0791H145.6V72.3027H147.428V71.2871H145.6V66.7041H144.394V78.0791ZM151.104 76.5938H157.071V75.4131H151.104V76.5938ZM151.104 72.9375H153.478V74.6768H154.697V72.9375H157.071V71.7695H154.697V70.0303H153.478V71.7695H151.104V72.9375ZM161.835 77.127C163.962 77.127 165.206 75.4131 165.212 72.4043C165.206 69.4146 163.943 67.6816 161.835 67.6816C159.722 67.6816 158.458 69.4146 158.458 72.4043C158.458 75.4131 159.709 77.127 161.835 77.127ZM159.855 72.4043C159.855 70.1191 160.598 68.8687 161.835 68.8623C163.067 68.8687 163.816 70.1191 163.816 72.4043C163.816 74.6958 163.073 75.9209 161.835 75.9209C160.591 75.9209 159.849 74.6958 159.855 72.4043ZM166.828 77.0889C167.317 77.0825 167.723 76.6826 167.73 76.1875C167.723 75.6924 167.317 75.2861 166.828 75.2861C166.333 75.2861 165.921 75.6924 165.927 76.1875C165.921 76.6826 166.333 77.0825 166.828 77.0889ZM171.935 77.127C173.852 77.127 175.211 75.8257 175.211 74.0166C175.211 72.2456 173.935 70.9634 172.202 70.957C171.504 70.9634 170.856 71.2109 170.475 71.5791H170.386L170.691 69.002H174.741V67.8086H169.536L168.939 72.9248H170.26C170.571 72.3599 171.136 72.1123 171.872 72.1123C173.027 72.125 173.852 72.9375 173.852 74.0547C173.852 75.1465 173.052 75.9526 171.935 75.959C171.009 75.9526 170.26 75.3813 170.183 74.6006H168.825C168.888 76.0669 170.196 77.127 171.935 77.127ZM178.299 71.96C179.467 71.9663 180.413 71.0205 180.407 69.8525C180.413 68.6846 179.467 67.7388 178.299 67.7324C177.131 67.7388 176.185 68.6846 176.192 69.8525C176.185 71.0205 177.131 71.9663 178.299 71.96ZM177.207 69.8525C177.214 69.2495 177.696 68.7671 178.299 68.7734C178.902 68.7671 179.385 69.2495 179.378 69.8525C179.385 70.4492 178.902 70.938 178.299 70.9443C177.696 70.938 177.214 70.4492 177.207 69.8525ZM181.575 72.4043C181.575 75.3433 183.32 77.127 185.713 77.127C187.738 77.127 189.217 75.8574 189.509 74.042L188.1 74.0293C187.859 75.2036 186.881 75.8511 185.726 75.8447C184.145 75.8511 182.965 74.645 182.958 72.4043C182.965 70.1763 184.139 68.9575 185.726 68.9639C186.894 68.9575 187.878 69.6177 188.1 70.8047H189.509C189.198 68.8306 187.656 67.6816 185.713 67.6816C183.333 67.6816 181.575 69.4653 181.575 72.4043Z" fill="#FF5F00"/>
<path d="M805 158.997C805 158.997 787.209 129 770.242 129C753.274 129 735.484 158.997 735.484 158.997C735.484 158.997 717.693 188.994 700.725 188.994C683.758 188.994 665.967 158.997 665.967 158.997C665.967 158.997 648.176 129 631.209 129C614.241 129 596.451 158.997 596.451 158.997C596.451 158.997 579.254 188.533 562.561 188.994C545.326 189.471 526.934 158.997 526.934 158.997C526.934 158.997 509.143 129 492.176 129C475.209 129 457.418 158.997 457.418 158.997C457.418 158.997 439.627 188.994 422.66 188.994C405.692 188.994 387.901 158.997 387.901 158.997C387.901 158.997 370.111 129 353.143 129C336.176 129 318.385 158.997 318.385 158.997C318.385 158.997 300.594 188.994 283.627 188.994C266.659 188.994 248.868 158.997 248.868 158.997C248.868 158.997 231.078 129 214.11 129C197.143 129 179.352 158.997 179.352 158.997C179.352 158.997 161.261 189.231 144.159 188.994C127.328 188.762 109.836 158.997 109.836 158.997C109.836 158.997 92.0447 129 75.0773 129C60.0661 129 44.4105 152.479 41 157.893" stroke="url(#paint1_linear_418_9017)" stroke-width="2" stroke-linecap="square"/>
<rect x="187" y="1" width="204" height="318" fill="url(#paint2_linear_418_9017)"/>
<path d="M64.9375 13.7656H63.4531V16.25C62.0547 16.2969 60.7188 16.3047 59.5938 16.3125L59.7812 17.5312C62.2812 17.5312 65.6797 17.5078 68.8438 16.9219L68.7344 15.8281C67.5156 16.0078 66.2188 16.1172 64.9375 16.1875V13.7656ZM59.9688 13.0938L60.6719 14.2188C62.3516 13.7422 63.5859 12.6719 64.1953 11.2734C64.8281 12.6016 66.0781 13.6172 67.75 14.0938L68.4375 12.9375C66.3438 12.375 65.0156 10.9609 64.9375 9.3125H68.0781V8.10938H64.9375V6.4375H63.4531V8.10938H60.3438V9.3125H63.4375C63.3594 11.0312 62.0547 12.4922 59.9688 13.0938ZM69.6094 20.3594H71.0938V6.32812H69.6094V20.3594ZM85.1994 6.32812H83.7775V11.875H81.965V6.60938H80.6056V19.6094H81.965V13.0938H83.7775V20.3281H85.1994V6.32812ZM73.6525 16.9688H74.59C76.6291 16.9531 78.0822 16.8984 79.7619 16.5469L79.6525 15.3281C78.1525 15.6172 76.8556 15.6953 75.1369 15.7031V9.21875H78.9025V8.01562H73.6525V16.9688ZM90.8325 16.7969H96.3325V19H97.9575V16.7969H99.5044V15.3438H97.9575V7.6875H95.8325L90.8325 15.4062V16.7969ZM92.645 15.3438V15.25L96.2075 9.73438H96.3325V15.3438H92.645ZM105.016 19.1562C107.633 19.1562 109.165 17.0469 109.173 13.3438C109.165 9.66406 107.61 7.53125 105.016 7.53125C102.415 7.53125 100.86 9.66406 100.86 13.3438C100.86 17.0469 102.399 19.1562 105.016 19.1562ZM102.579 13.3438C102.579 10.5312 103.493 8.99219 105.016 8.98438C106.532 8.99219 107.454 10.5312 107.454 13.3438C107.454 16.1641 106.54 17.6719 105.016 17.6719C103.485 17.6719 102.571 16.1641 102.579 13.3438ZM113.247 12.7969C114.684 12.8047 115.848 11.6406 115.841 10.2031C115.848 8.76562 114.684 7.60156 113.247 7.59375C111.809 7.60156 110.645 8.76562 110.653 10.2031C110.645 11.6406 111.809 12.8047 113.247 12.7969ZM111.903 10.2031C111.911 9.46094 112.505 8.86719 113.247 8.875C113.989 8.86719 114.583 9.46094 114.575 10.2031C114.583 10.9375 113.989 11.5391 113.247 11.5469C112.505 11.5391 111.911 10.9375 111.903 10.2031ZM117.278 13.3438C117.278 16.9609 119.427 19.1562 122.372 19.1562C124.864 19.1562 126.684 17.5938 127.044 15.3594L125.309 15.3438C125.013 16.7891 123.809 17.5859 122.388 17.5781C120.442 17.5859 118.989 16.1016 118.981 13.3438C118.989 10.6016 120.434 9.10156 122.388 9.10938C123.825 9.10156 125.036 9.91406 125.309 11.375H127.044C126.661 8.94531 124.763 7.53125 122.372 7.53125C119.442 7.53125 117.278 9.72656 117.278 13.3438Z" fill="black"/>
<path d="M62.9375 312.766H61.4531V315.25C60.0547 315.297 58.7188 315.305 57.5938 315.312L57.7812 316.531C60.2812 316.531 63.6797 316.508 66.8438 315.922L66.7344 314.828C65.5156 315.008 64.2188 315.117 62.9375 315.188V312.766ZM57.9688 312.094L58.6719 313.219C60.3516 312.742 61.5859 311.672 62.1953 310.273C62.8281 311.602 64.0781 312.617 65.75 313.094L66.4375 311.938C64.3438 311.375 63.0156 309.961 62.9375 308.312H66.0781V307.109H62.9375V305.438H61.4531V307.109H58.3438V308.312H61.4375C61.3594 310.031 60.0547 311.492 57.9688 312.094ZM67.6094 319.359H69.0938V305.328H67.6094V319.359ZM83.9963 316.328H78.2619V313H76.7931V316.328H71.1838V317.547H83.9963V316.328ZM71.6213 312.031L72.2775 313.25C74.5353 312.805 76.5978 311.391 77.5197 309.484C78.4416 311.398 80.5197 312.805 82.7931 313.25L83.4338 312.031C80.7306 311.578 78.2931 309.5 78.2931 307.281V306.219H76.7306V307.281C76.7228 309.5 74.3166 311.578 71.6213 312.031ZM94.0981 312.5H89.0825V313.938H94.0981V312.5ZM100.235 306.688H98.5475L95.735 308.531V310.172L98.4381 308.406H98.5006V318H100.235V306.688ZM106.888 318.156C109.505 318.156 111.036 316.047 111.044 312.344C111.036 308.664 109.481 306.531 106.888 306.531C104.286 306.531 102.731 308.664 102.731 312.344C102.731 316.047 104.27 318.156 106.888 318.156ZM104.45 312.344C104.45 309.531 105.364 307.992 106.888 307.984C108.403 307.992 109.325 309.531 109.325 312.344C109.325 315.164 108.411 316.672 106.888 316.672C105.356 316.672 104.442 315.164 104.45 312.344ZM115.118 311.797C116.556 311.805 117.72 310.641 117.712 309.203C117.72 307.766 116.556 306.602 115.118 306.594C113.681 306.602 112.517 307.766 112.524 309.203C112.517 310.641 113.681 311.805 115.118 311.797ZM113.774 309.203C113.782 308.461 114.376 307.867 115.118 307.875C115.86 307.867 116.454 308.461 116.446 309.203C116.454 309.938 115.86 310.539 115.118 310.547C114.376 310.539 113.782 309.938 113.774 309.203ZM119.149 312.344C119.149 315.961 121.298 318.156 124.243 318.156C126.735 318.156 128.556 316.594 128.915 314.359L127.181 314.344C126.884 315.789 125.681 316.586 124.259 316.578C122.313 316.586 120.86 315.102 120.853 312.344C120.86 309.602 122.306 308.102 124.259 308.109C125.696 308.102 126.907 308.914 127.181 310.375H128.915C128.532 307.945 126.634 306.531 124.243 306.531C121.313 306.531 119.149 308.727 119.149 312.344Z" fill="black"/>
</g>
<defs>
<linearGradient id="paint0_linear_418_9017" x1="218" y1="317.298" x2="218" y2="-8.38789" gradientUnits="userSpaceOnUse">
<stop stop-color="#BBBBBB" stop-opacity="0"/>
<stop offset="0.175076" stop-color="#BBBBBB" stop-opacity="0.7"/>
<stop offset="0.479167" stop-color="#BBBBBB"/>
<stop offset="0.787373" stop-color="#BBBBBB" stop-opacity="0.7"/>
<stop offset="1" stop-color="#BBBBBB" stop-opacity="0"/>
</linearGradient>
<linearGradient id="paint1_linear_418_9017" x1="423" y1="129" x2="423" y2="189" gradientUnits="userSpaceOnUse">
<stop stop-color="#FF7C33"/>
<stop offset="1" stop-color="#A5A5A5"/>
</linearGradient>
<linearGradient id="paint2_linear_418_9017" x1="313.835" y1="155.732" x2="175.644" y2="155.732" gradientUnits="userSpaceOnUse">
<stop stop-color="white"/>
<stop offset="1" stop-color="white" stop-opacity="0"/>
</linearGradient>
<clipPath id="clip0_418_9017">
<rect width="320" height="320" fill="white" transform="translate(20)"/>
</clipPath>
</defs>
</svg>
