<svg width="200" height="200" viewBox="0 0 200 200" fill="none" xmlns="http://www.w3.org/2000/svg">
<path d="M100 74L100 126" stroke="#222222" stroke-linecap="round"/>
<path d="M122.516 87L77.4824 113" stroke="#222222" stroke-linecap="round"/>
<path d="M122.516 113L77.4824 87" stroke="#222222" stroke-linecap="round"/>
<path d="M91 76L100 86L109 76" stroke="#222222" stroke-linecap="round"/>
<path d="M115.66 80L111.5 92.7942L124.66 95.5885" stroke="#222222" stroke-linecap="round"/>
<path d="M124.66 104L111.5 106.794L115.66 119.588" stroke="#222222" stroke-linecap="round"/>
<path d="M109 124L100 114L91 124" stroke="#222222" stroke-linecap="round"/>
<path d="M84 119.586L88.1603 106.792L75 103.997" stroke="#222222" stroke-linecap="round"/>
<path d="M75 96L88.1603 93.2058L84 80.4115" stroke="#222222" stroke-linecap="round"/>
<path d="M58.4973 156.064C58.224 156.103 58.0341 156.356 58.0732 156.63L58.7104 161.084C58.7495 161.358 59.0028 161.548 59.2761 161.508C59.5495 161.469 59.7394 161.216 59.7003 160.943L59.1339 156.983L63.0936 156.417C63.3669 156.377 63.5568 156.124 63.5177 155.851C63.4786 155.577 63.2253 155.388 62.952 155.427L58.4973 156.064ZM156.16 58.8663C176.569 86.0883 174.395 124.878 149.637 149.635L150.344 150.343C175.459 125.228 177.664 85.8809 156.961 58.2665L156.16 58.8663ZM149.637 149.635C124.88 174.393 86.0901 176.568 58.8681 156.159L58.2682 156.959C85.8826 177.662 125.23 175.457 150.344 150.343L149.637 149.635Z" fill="#222222"/>
<path d="M142.913 44.355C142.952 44.6283 142.762 44.8816 142.489 44.9207L138.034 45.5579C137.761 45.597 137.507 45.4071 137.468 45.1338C137.429 44.8604 137.619 44.6071 137.893 44.568L141.852 44.0016L141.286 40.0419C141.247 39.7686 141.437 39.5153 141.71 39.4762C141.983 39.4371 142.237 39.627 142.276 39.9003L142.913 44.355ZM142.118 44.8258C114.896 24.4169 76.1064 26.5916 51.3489 51.3491L50.6418 50.642C75.7561 25.5277 115.103 23.3226 142.718 44.0257L142.118 44.8258ZM51.3489 51.3491C26.5914 76.1066 24.4167 114.896 44.8256 142.118L44.0255 142.718C23.3223 115.104 25.5275 75.7564 50.6418 50.642L51.3489 51.3491Z" fill="#222222"/>
</svg>
