<svg width="870" height="800" viewBox="0 0 870 800" fill="none" xmlns="http://www.w3.org/2000/svg">
<path d="M1 400L6 402.887V397.113L1 400ZM870 400L865 397.113V402.887L870 400ZM5.5 400.5H865.5V399.5H5.5V400.5Z" fill="#BBBBBB"/>
<path d="M435 0L432.113 5L437.887 5L435 0ZM435 800L437.887 795L432.113 795L435 800ZM434.5 4.5L434.5 795.5L435.5 795.5L435.5 4.5L434.5 4.5Z" fill="#BBBBBB"/>
<circle cx="435" cy="400" r="219" stroke="black" stroke-width="2" stroke-linecap="round" stroke-dasharray="0.1 8"/>
<circle cx="435" cy="400" r="117" fill="white"/>
<circle cx="435" cy="400" r="360" stroke="black" stroke-width="2" stroke-linecap="round" stroke-dasharray="0.1 8"/>
<circle cx="435" cy="181" r="102" fill="#F9F9F9"/>
<circle cx="216" cy="400" r="102" fill="#F9F9F9"/>
<circle cx="654" cy="400" r="102" fill="#F9F9F9"/>
<circle cx="435" cy="619" r="102" fill="#F9F9F9"/>
<path d="M404.939 390.592H402.654V405.547H411.515V398.945H414.536V410.066H416.847V388.865H414.536V396.939H411.515V390.592H409.306V396.051H404.939V390.592ZM404.939 403.541V398.006H409.306V403.541H404.939ZM419.157 411.158H421.468V388.408H419.157V411.158ZM442.942 388.408H440.53V411.209H442.942V388.408ZM424.89 398.082C424.89 402.995 427.34 406.093 430.78 406.08C434.157 406.093 436.646 402.995 436.646 398.082C436.646 393.22 434.157 390.122 430.78 390.109C427.34 390.122 424.89 393.22 424.89 398.082ZM427.226 398.082C427.213 394.515 428.66 392.28 430.78 392.268C432.862 392.28 434.31 394.515 434.31 398.082C434.31 401.7 432.862 403.922 430.78 403.922C428.66 403.922 427.213 401.7 427.226 398.082ZM458.475 389.906H447.913V391.836H455.911C455.835 392.636 455.657 393.41 455.365 394.134L446.77 394.477L447.151 396.432L454.4 395.873C452.991 397.777 450.592 399.301 446.897 400.342L447.786 402.271C455.225 400.101 458.475 395.886 458.475 389.906ZM449.817 406.74C449.817 409.521 452.775 411.107 457.587 411.107C462.309 411.107 465.293 409.521 465.28 406.74C465.293 403.947 462.309 402.335 457.587 402.322C452.775 402.335 449.817 403.947 449.817 406.74ZM452.229 406.74C452.242 405.153 454.197 404.239 457.587 404.227C460.887 404.239 462.893 405.153 462.893 406.74C462.893 408.302 460.887 409.229 457.587 409.229C454.197 409.229 452.242 408.302 452.229 406.74ZM462.766 402.018H465.178V388.434H462.766V402.018Z" fill="black"/>
<path d="M433.219 172.598H431.286V177.496H428.837V172.941H426.946V183.512H428.837V179.172H431.286V184.199H433.219V172.598ZM417.708 182.588H418.975C421.296 182.588 423.39 182.48 425.893 181.986L425.7 180.311C423.53 180.74 421.682 180.869 419.749 180.891V174.102H417.708V182.588ZM420.264 188.131C420.243 190.419 422.767 191.794 426.774 191.783C430.77 191.794 433.316 190.419 433.327 188.131C433.316 185.832 430.77 184.457 426.774 184.457C422.767 184.457 420.243 185.832 420.264 188.131ZM422.284 188.131C422.262 186.82 423.981 186.058 426.774 186.047C429.567 186.058 431.275 186.82 431.286 188.131C431.275 189.431 429.567 190.183 426.774 190.172C423.981 190.183 422.262 189.431 422.284 188.131ZM453.173 181.943H445.374V179.902H451.132V178.27H439.81V175.068H451.003V173.457H437.79V179.902H443.398V181.943H435.599V183.576H453.173V181.943ZM437.683 188.324C437.683 190.559 440.186 191.815 444.365 191.826C448.511 191.815 450.993 190.559 451.003 188.324C450.993 186.09 448.511 184.833 444.365 184.822C440.186 184.833 437.683 186.09 437.683 188.324ZM439.745 188.324C439.735 187.11 441.421 186.412 444.365 186.412C447.265 186.412 448.962 187.11 448.962 188.324C448.962 189.56 447.265 190.236 444.365 190.215C441.421 190.236 439.735 189.56 439.745 188.324Z" fill="#4A4A4A"/>
<path d="M632.588 393.424H618.859V395.078H630.547V395.314C630.536 397.624 630.536 400.353 629.795 404.08L631.857 404.295C632.577 400.353 632.577 397.688 632.588 395.314V393.424ZM617.012 408.227H634.564V406.529H625.713V399.74H623.693V406.529H617.012V408.227ZM653.358 401.717H645.581V399.858C649.169 399.644 651.435 398.236 651.446 395.98C651.435 393.585 648.739 392.124 644.571 392.113C640.381 392.124 637.685 393.585 637.696 395.98C637.685 398.236 639.952 399.644 643.561 399.858V401.717H635.805V403.393H653.358V401.717ZM638.018 410.418H651.381V408.764H640.081V404.832H638.018V410.418ZM639.801 395.98C639.791 394.605 641.617 393.757 644.571 393.768C647.514 393.757 649.351 394.605 649.34 395.98C649.351 397.431 647.514 398.226 644.571 398.236C641.617 398.226 639.791 397.431 639.801 395.98ZM657.349 392.393H655.351V400.793H664.417V392.393H662.398V395.014H657.349V392.393ZM657.285 403.93H667.704V405.67H657.328V410.633H670.39V409H659.326V407.174H669.724V402.318H657.285V403.93ZM657.349 399.16V396.582H662.398V399.16H657.349ZM667.683 401.48H669.724V397.27H672.517V395.615H669.724V391.576H667.683V401.48ZM690.065 394.305H683.168V391.855H681.149V394.305H674.231V395.959H690.065V394.305ZM673.393 408.699H691.01V407.045H686.391V403.607C687.787 402.995 688.571 402.007 688.561 400.707C688.571 398.408 686.101 397.055 682.158 397.076C678.184 397.055 675.724 398.408 675.734 400.707C675.724 402.007 676.508 402.995 677.904 403.607V407.045H673.393V408.699ZM677.818 400.707C677.797 399.396 679.408 398.655 682.158 398.645C684.865 398.655 686.487 399.396 686.477 400.707C686.487 402.007 684.865 402.748 682.158 402.748C679.408 402.748 677.797 402.007 677.818 400.707ZM679.945 407.045V404.177C680.611 404.284 681.353 404.338 682.158 404.338C682.964 404.338 683.716 404.284 684.393 404.177V407.045H679.945Z" fill="#4A4A4A"/>
<path d="M426.323 613.756H422.563V611.135H420.544V613.756H416.762V615.41H426.323V613.756ZM417.385 620.996C417.375 623.628 419.136 625.476 421.553 625.465C423.992 625.476 425.732 623.628 425.743 620.996C425.732 618.407 423.992 616.57 421.553 616.57C419.136 616.57 417.375 618.407 417.385 620.996ZM419.19 620.996C419.179 619.396 420.168 618.278 421.553 618.268C422.939 618.278 423.938 619.396 423.938 620.996C423.938 622.629 422.939 623.725 421.553 623.725C420.168 623.725 419.179 622.629 419.19 620.996ZM427.204 628.924H429.137V620.266H431.35V629.826H433.284V610.576H431.35V618.59H429.137V611.006H427.204V628.924ZM453.173 619.943H445.374V617.902H451.132V616.27H439.81V613.068H451.003V611.457H437.79V617.902H443.398V619.943H435.599V621.576H453.173V619.943ZM437.683 626.324C437.683 628.559 440.186 629.815 444.365 629.826C448.511 629.815 450.993 628.559 451.003 626.324C450.993 624.09 448.511 622.833 444.365 622.822C440.186 622.833 437.683 624.09 437.683 626.324ZM439.745 626.324C439.735 625.11 441.421 624.412 444.365 624.412C447.265 624.412 448.962 625.11 448.962 626.324C448.962 627.56 447.265 628.236 444.365 628.215C441.421 628.236 439.735 627.56 439.745 626.324Z" fill="#4A4A4A"/>
<path d="M195.082 391.576H193.041V398.494H189.066V400.17H193.041V410.869H195.082V391.576ZM178.797 405.498L180.043 407.088C182.267 405.949 184.018 403.554 184.877 400.761C185.736 403.382 187.444 405.627 189.668 406.701L190.893 405.068C187.938 403.758 185.887 400.245 185.887 396.99V395.186H190.162V393.51H179.57V395.186H183.824V396.99C183.813 400.449 181.74 404.091 178.797 405.498ZM215.358 401.717H207.581V399.858C211.169 399.644 213.435 398.236 213.446 395.98C213.435 393.585 210.739 392.124 206.571 392.113C202.381 392.124 199.685 393.585 199.696 395.98C199.685 398.236 201.952 399.644 205.561 399.858V401.717H197.805V403.393H215.358V401.717ZM200.018 410.418H213.381V408.764H202.081V404.832H200.018V410.418ZM201.801 395.98C201.791 394.605 203.617 393.757 206.571 393.768C209.514 393.757 211.351 394.605 211.34 395.98C211.351 397.431 209.514 398.226 206.571 398.236C203.617 398.226 201.791 397.431 201.801 395.98ZM219.349 392.393H217.351V400.793H226.417V392.393H224.398V395.014H219.349V392.393ZM219.285 403.93H229.704V405.67H219.328V410.633H232.39V409H221.326V407.174H231.724V402.318H219.285V403.93ZM219.349 399.16V396.582H224.398V399.16H219.349ZM229.683 401.48H231.724V397.27H234.517V395.615H231.724V391.576H229.683V401.48ZM252.065 394.305H245.168V391.855H243.149V394.305H236.231V395.959H252.065V394.305ZM235.393 408.699H253.01V407.045H248.391V403.607C249.787 402.995 250.571 402.007 250.561 400.707C250.571 398.408 248.101 397.055 244.158 397.076C240.184 397.055 237.724 398.408 237.734 400.707C237.724 402.007 238.508 402.995 239.904 403.607V407.045H235.393V408.699ZM239.818 400.707C239.797 399.396 241.408 398.655 244.158 398.645C246.865 398.655 248.487 399.396 248.477 400.707C248.487 402.007 246.865 402.748 244.158 402.748C241.408 402.748 239.797 402.007 239.818 400.707ZM241.945 407.045V404.177C242.611 404.284 243.353 404.338 244.158 404.338C244.964 404.338 245.716 404.284 246.393 404.177V407.045H241.945Z" fill="#4A4A4A"/>
<circle opacity="0.4" cx="437" cy="283" r="12" fill="#FF5F00"/>
<circle opacity="0.2" cx="437" cy="283" r="24" fill="#FF5F00"/>
<circle opacity="0.2" cx="437" cy="283" r="36" fill="#FF5F00"/>
<circle opacity="0.4" cx="554" cy="400" r="12" fill="#FF5F00"/>
<circle opacity="0.2" cx="554" cy="400" r="24" fill="#FF5F00"/>
<circle opacity="0.2" cx="554" cy="400" r="36" fill="#FF5F00"/>
<circle opacity="0.4" cx="437" cy="517" r="12" fill="#FF5F00"/>
<circle opacity="0.2" cx="437" cy="517" r="24" fill="#FF5F00"/>
<circle opacity="0.2" cx="437" cy="517" r="36" fill="#FF5F00"/>
<circle opacity="0.4" cx="320" cy="400" r="12" fill="#FF5F00"/>
<circle opacity="0.2" cx="320" cy="400" r="24" fill="#FF5F00"/>
<circle opacity="0.2" cx="320" cy="400" r="36" fill="#FF5F00"/>
<path d="M434.333 517C434.333 518.473 435.527 519.667 437 519.667C438.473 519.667 439.667 518.473 439.667 517C439.667 515.527 438.473 514.333 437 514.333C435.527 514.333 434.333 515.527 434.333 517ZM320 397.113L317.113 400L320 402.887L322.887 400L320 397.113ZM437 516.5C372.659 516.5 320.5 464.341 320.5 400H319.5C319.5 464.893 372.107 517.5 437 517.5V516.5Z" fill="black"/>
<path d="M434.113 517L437 514.113L439.887 517L437 519.887L434.113 517ZM556.667 400C556.667 401.473 555.473 402.667 554 402.667C552.527 402.667 551.333 401.473 551.333 400C551.333 398.527 552.527 397.333 554 397.333C555.473 397.333 556.667 398.527 556.667 400ZM437 516.5C501.341 516.5 553.5 464.341 553.5 400H554.5C554.5 464.893 501.893 517.5 437 517.5V516.5Z" fill="black"/>
<path d="M434.113 283L437 285.887L439.887 283L437 280.113L434.113 283ZM556.667 400C556.667 398.527 555.473 397.333 554 397.333C552.527 397.333 551.333 398.527 551.333 400C551.333 401.473 552.527 402.667 554 402.667C555.473 402.667 556.667 401.473 556.667 400ZM437 283.5C501.341 283.5 553.5 335.659 553.5 400H554.5C554.5 335.107 501.893 282.5 437 282.5V283.5Z" fill="black"/>
<path d="M434.333 283C434.333 281.527 435.527 280.333 437 280.333C438.473 280.333 439.667 281.527 439.667 283C439.667 284.473 438.473 285.667 437 285.667C435.527 285.667 434.333 284.473 434.333 283ZM317.333 400C317.333 398.527 318.527 397.333 320 397.333C321.473 397.333 322.667 398.527 322.667 400C322.667 401.473 321.473 402.667 320 402.667C318.527 402.667 317.333 401.473 317.333 400ZM437 283.5C372.659 283.5 320.5 335.659 320.5 400H319.5C319.5 335.107 372.107 282.5 437 282.5V283.5Z" fill="black"/>
</svg>
