<svg width="26" height="26" viewBox="0 0 26 26" fill="none" xmlns="http://www.w3.org/2000/svg">
<path d="M12.6524 23.2222H14.0115C16.8061 23.2222 19.07 20.9653 19.07 18.1792V9.04308C19.07 6.25696 16.8061 4 14.0115 4H12.2181C9.42348 4 7.15962 6.25696 7.15962 9.04308V18.1391C7.15962 18.2954 7.03095 18.4237 6.87413 18.4237H5.9895C4.83144 18.4237 3.89453 17.5137 3.89453 16.3952V14.455C3.89453 13.3365 4.83144 12.4265 5.9895 12.4265H7.10333" stroke="black" stroke-width="1.3" stroke-miterlimit="10"/>
<path d="M19.0703 18.1639H20.1238C21.2192 18.1639 22.1054 17.2429 22.1054 16.1108V14.1469C22.1054 13.0148 21.2192 12.0938 20.1238 12.0938H19.0703" stroke="black" stroke-width="1.3" stroke-miterlimit="10"/>
<path d="M13.8237 21.1992H12.1762C12.0724 21.1992 11.9883 21.2834 11.9883 21.3872V23.0346C11.9883 23.1385 12.0724 23.2226 12.1762 23.2226H13.8237C13.9275 23.2226 14.0117 23.1385 14.0117 23.0346V21.3872C14.0117 21.2834 13.9275 21.1992 13.8237 21.1992Z" stroke="black" stroke-width="1.3" stroke-miterlimit="10"/>
</svg>
