<svg width="470" height="66" viewBox="0 0 470 66" fill="none" xmlns="http://www.w3.org/2000/svg">
<g clip-path="url(#clip0_976_26681)">
<path d="M5.65573 55.43C5.09139 55.43 4.47902 55.2103 3.81862 54.7709C3.14621 54.3314 2.58187 53.8676 2.10158 53.3916C1.62129 52.9399 1.21304 52.415 0.852826 51.8047C0.492609 51.1944 0.3125 50.6451 0.3125 50.1691V24.1328H11.2991C13.4725 24.1328 15.4296 24.5112 17.1707 25.2558C18.9117 26.0126 20.3766 27.0623 21.5773 28.4173C22.7781 29.7722 23.6906 31.42 24.339 33.3486C24.9754 35.2773 25.2996 37.4134 25.2996 39.757C25.2996 42.1006 24.9754 44.2856 24.339 46.2142C23.7026 48.1428 22.7781 49.7785 21.5773 51.1456C20.3766 52.5005 18.9117 53.5624 17.1707 54.307C15.4296 55.0516 13.4725 55.43 11.2991 55.43H5.65573ZM11.4672 50.2423C12.8841 50.2423 14.1088 49.9738 15.1174 49.4367C16.1381 48.8996 16.9666 48.155 17.627 47.2029C18.2754 46.2508 18.7556 45.14 19.0678 43.8706C19.368 42.6011 19.5241 41.2218 19.5241 39.757C19.5241 38.2922 19.368 36.9495 19.0678 35.6801C18.7556 34.4106 18.2754 33.2998 17.627 32.3721C16.9666 31.4322 16.1381 30.6999 15.1174 30.1384C14.0968 29.5891 12.8841 29.3083 11.4672 29.3083H6.07598V49.4367C6.07598 49.9738 6.34014 50.2423 6.86846 50.2423H11.4672Z" fill="black"/>
<path d="M30.1403 37.511C29.576 37.511 29.1797 37.3157 28.9516 36.9129C28.7115 36.5223 28.5914 35.8631 28.5914 34.9598C28.5914 34.0566 28.7115 33.4462 28.9516 33.0678C29.1918 32.6894 29.588 32.4941 30.1403 32.4941H37.3207C40.1904 32.4941 42.2677 33.1289 43.5524 34.3861C44.8252 35.6434 45.4736 37.7307 45.4736 40.648V54.3192C45.4736 54.8807 45.2214 55.2713 44.7411 55.491C44.2488 55.6985 43.6005 55.8084 42.796 55.8084C41.4392 55.8084 40.5506 55.5276 40.1664 54.9539C39.1938 55.3445 38.1372 55.6619 37.0085 55.8938C35.8798 56.1135 34.8472 56.2356 33.8986 56.2356C32.8179 56.2356 31.7853 56.0769 30.8247 55.7717C29.8642 55.4544 29.0116 54.9905 28.2792 54.3436C27.5468 53.7089 26.9584 52.9032 26.5502 51.9267C26.1299 50.9502 25.9258 49.7784 25.9258 48.4235C25.9258 47.0686 26.1419 45.9212 26.5982 44.9203C27.0425 43.9193 27.6668 43.0771 28.4593 42.3935C29.2518 41.71 30.2004 41.1973 31.293 40.8677C32.3977 40.526 33.5864 40.3551 34.8712 40.3551C35.7837 40.3551 36.6963 40.4283 37.5848 40.5626C38.4734 40.709 39.2778 40.8921 40.0103 41.1119V40.4771C40.0103 39.464 39.7822 38.7072 39.3259 38.2311C38.8696 37.7551 38.1252 37.511 37.0925 37.511H30.1643H30.1403ZM35.0633 45.2376C33.8626 45.2376 32.962 45.5184 32.3256 46.0677C31.7013 46.6169 31.3891 47.3859 31.3891 48.3869C31.3891 49.2047 31.6412 49.9127 32.1455 50.4864C32.6498 51.0723 33.4063 51.353 34.4389 51.353C35.4715 51.353 36.4201 51.2432 37.3567 51.0357C38.3053 50.8282 39.1818 50.5596 39.9863 50.2544V46.0066C39.2658 45.8113 38.4854 45.6282 37.6449 45.4817C36.8044 45.3231 35.9398 45.2498 35.0513 45.2498L35.0633 45.2376Z" fill="black"/>
<path d="M59.7493 55.9797C57.9962 55.9797 56.3512 55.7112 54.8263 55.1985C53.3014 54.6736 51.9686 53.9046 50.8519 52.8793C49.7352 51.8662 48.8587 50.6089 48.2223 49.1197C47.5859 47.6305 47.2617 45.9338 47.2617 44.0052C47.2617 42.0766 47.5259 40.4898 48.0542 38.9884C48.5825 37.487 49.315 36.2176 50.2635 35.1678C51.2121 34.118 52.3408 33.3124 53.6496 32.7509C54.9584 32.1894 56.3992 31.8965 57.9602 31.8965C59.7132 31.8965 61.2622 32.2505 62.595 32.9584C63.9278 33.6664 65.0565 34.5941 65.981 35.7415C66.9056 36.8889 67.59 38.2072 68.0463 39.6964C68.5026 41.1856 68.7307 42.6991 68.7307 44.2616C68.7307 45.055 68.5386 45.6165 68.1664 45.9461C67.7821 46.2756 67.3138 46.4343 66.7255 46.4343H52.8931C53.0372 47.2033 53.3134 47.8747 53.7336 48.4484C54.1539 49.0343 54.6702 49.5103 55.2826 49.8887C55.8949 50.2671 56.5553 50.5601 57.2878 50.7554C58.0082 50.9507 58.7647 51.0483 59.5451 51.0483C60.3256 51.0483 61.2262 50.9385 62.1747 50.7065C63.1233 50.4746 63.9518 50.2549 64.6842 50.023C65.1525 49.8277 65.5488 49.8399 65.873 50.084C66.1972 50.3281 66.5093 50.8286 66.8095 51.5976C67.1697 52.5009 67.3258 53.1234 67.2898 53.4652C67.2538 53.807 66.9776 54.1365 66.4733 54.4417C66.1131 54.6614 65.6688 54.8689 65.1525 55.0642C64.6362 55.2473 64.0839 55.406 63.4835 55.5281C62.8832 55.6501 62.2588 55.76 61.6224 55.8454C60.974 55.9309 60.3496 55.9675 59.7373 55.9675L59.7493 55.9797ZM63.1713 41.5395C63.0873 40.856 62.8952 40.2335 62.607 39.6475C62.3188 39.0738 61.9346 38.5612 61.4783 38.1462C61.022 37.7189 60.4937 37.3894 59.9174 37.1452C59.329 36.9011 58.6926 36.779 57.9962 36.779C57.2157 36.779 56.5313 36.9133 55.955 37.1819C55.3666 37.4504 54.8623 37.8166 54.4301 38.2682C53.9978 38.7199 53.6496 39.2325 53.4094 39.794C53.1573 40.3555 52.9772 40.9414 52.8691 41.5395H63.1833H63.1713Z" fill="black"/>
<path d="M84.6535 39.9278C84.6535 38.9391 84.2333 38.1701 83.3807 37.633C82.5282 37.0959 81.4956 36.8274 80.2709 36.8274C79.7666 36.8274 79.2502 36.9006 78.7219 37.0349C78.1936 37.1814 77.7133 37.3523 77.3051 37.572C76.8848 37.7795 76.5486 38.0236 76.2845 38.2922C76.0203 38.5607 75.8882 38.8415 75.8882 39.1222V54.5389C75.8882 54.9661 75.6961 55.2835 75.3239 55.491C74.9517 55.6985 74.2312 55.8084 73.1746 55.8084C72.1179 55.8084 71.3975 55.6985 71.0253 55.491C70.641 55.2713 70.4609 54.9539 70.4609 54.5389V22.8145H75.8882V33.6415C76.5606 33.1655 77.4011 32.7505 78.4338 32.4087C79.4664 32.0669 80.5951 31.896 81.8198 31.896C83.1526 31.896 84.3413 32.1279 85.3739 32.5796C86.4066 33.0312 87.2711 33.6415 87.9675 34.4105C88.6639 35.1795 89.1923 36.0706 89.5525 37.0837C89.9127 38.0969 90.0928 39.1588 90.0928 40.2696V54.5389C90.0928 54.9661 89.9007 55.2835 89.5044 55.491C89.1082 55.6985 88.3878 55.8084 87.3311 55.8084C86.2745 55.8084 85.5661 55.6985 85.2058 55.491C84.8456 55.2713 84.6655 54.9539 84.6655 54.5389V39.9278H84.6535Z" fill="black"/>
<path d="M106.708 53.6849C105.928 54.3685 105.027 54.9178 104.019 55.345C102.998 55.7722 101.905 55.9797 100.741 55.9797C99.516 55.9797 98.4113 55.7844 97.4147 55.406C96.4301 55.0276 95.5776 54.4784 94.8692 53.7704C94.1608 53.0624 93.6084 52.2202 93.2362 51.2192C92.852 50.2305 92.6719 49.1197 92.6719 47.9113V32.4946H98.0992V48.2043C98.0992 48.8024 98.2192 49.2784 98.4594 49.6446C98.6875 50.0108 98.9997 50.3038 99.3839 50.5113C99.7562 50.7188 100.188 50.8775 100.681 50.9629C101.173 51.0484 101.677 51.085 102.206 51.085C103.454 51.085 104.499 50.8897 105.316 50.5113C106.132 50.1329 106.552 49.608 106.552 48.9611V32.4824H111.98V54.5272C111.98 54.9544 111.787 55.2718 111.415 55.4793C111.043 55.6868 110.323 55.7966 109.266 55.7966C108.209 55.7966 107.513 55.6868 107.201 55.4793C106.876 55.2596 106.72 54.9422 106.72 54.5272V53.6727L106.708 53.6849Z" fill="black"/>
<path d="M128.803 39.8907C128.803 38.8165 128.383 38.0353 127.53 37.5593C126.678 37.0832 125.633 36.8391 124.372 36.8391C123.844 36.8391 123.316 36.9001 122.811 37.0344C122.295 37.1565 121.827 37.3274 121.418 37.5471C120.998 37.7546 120.662 38.0109 120.398 38.2917C120.134 38.5724 120.002 38.8532 120.002 39.1461V54.5628C120.002 54.99 119.809 55.3074 119.437 55.5149C119.065 55.7224 118.344 55.8323 117.288 55.8323C116.231 55.8323 115.511 55.7224 115.139 55.5149C114.754 55.2952 114.574 54.9778 114.574 54.5628V32.5058H119.881V33.995C120.518 33.3725 121.334 32.872 122.331 32.4936C123.316 32.1152 124.516 31.9199 125.945 31.9199C127.17 31.9199 128.287 32.1152 129.307 32.518C130.328 32.9208 131.204 33.4701 131.937 34.1903C132.669 34.9105 133.246 35.7771 133.654 36.7781C134.062 37.779 134.266 38.8898 134.266 40.1104V54.5506C134.266 54.9778 134.074 55.2952 133.702 55.5027C133.33 55.7102 132.609 55.8201 131.552 55.8201C130.496 55.8201 129.775 55.7102 129.403 55.5027C129.031 55.283 128.839 54.9656 128.839 54.5506V39.9029L128.803 39.8907Z" fill="black"/>
<path d="M147.103 61.0815C148.136 61.0815 149 60.8984 149.709 60.5322C150.417 60.166 150.993 59.6656 151.426 59.0186C151.858 58.3839 152.182 57.6393 152.386 56.7848C152.59 55.9304 152.722 55.0149 152.783 54.0262C152.002 54.6731 151.065 55.1614 149.961 55.491C148.856 55.8205 147.8 55.9792 146.767 55.9792C145.038 55.9792 143.513 55.6497 142.168 55.0027C140.835 54.3558 139.707 53.4769 138.782 52.3661C137.87 51.2676 137.173 49.9859 136.693 48.5455C136.225 47.1052 135.984 45.5794 135.984 43.9559C135.984 42.1982 136.237 40.587 136.753 39.1222C137.269 37.6452 137.99 36.3757 138.902 35.3016C139.815 34.2274 140.907 33.3852 142.156 32.7993C143.405 32.2012 144.762 31.9082 146.203 31.9082C147.643 31.9082 148.832 32.1401 149.925 32.604C151.005 33.0678 151.954 33.7392 152.771 34.618V32.4941H158.246V54.3192C158.246 55.906 158.042 57.3952 157.633 58.7989C157.225 60.2026 156.589 61.4355 155.736 62.5219C154.872 63.596 153.779 64.4505 152.434 65.073C151.102 65.6955 149.493 66.0129 147.631 66.0129H141.196C140.727 66.0129 140.379 65.8542 140.151 65.5246C139.935 65.1951 139.815 64.5359 139.815 63.5472C139.815 62.5585 139.923 61.8993 140.151 61.5698C140.367 61.2402 140.727 61.0815 141.196 61.0815H147.091H147.103ZM152.831 43.7606C152.831 42.7109 152.686 41.771 152.398 40.9165C152.098 40.0743 151.702 39.3419 151.186 38.756C150.669 38.1579 150.057 37.7062 149.372 37.3767C148.676 37.0471 147.932 36.8884 147.115 36.8884C146.251 36.8884 145.47 37.0715 144.774 37.4377C144.077 37.8039 143.489 38.3166 143.021 38.9635C142.552 39.6104 142.18 40.3672 141.916 41.2339C141.652 42.1005 141.52 43.016 141.52 43.9681C141.52 44.9202 141.652 45.8479 141.916 46.7024C142.18 47.569 142.552 48.3136 143.045 48.9483C143.525 49.5831 144.125 50.0957 144.822 50.4741C145.518 50.8525 146.287 51.0478 147.115 51.0478C148.76 51.0478 150.129 50.4375 151.21 49.2169C152.29 47.9962 152.843 46.1775 152.843 43.7362L152.831 43.7606Z" fill="black"/>
<path d="M181.142 55.9793C179.389 55.9793 177.672 55.7474 175.979 55.2835C174.298 54.8197 172.893 54.2704 171.776 53.6479C171.212 53.3305 170.924 52.9887 170.876 52.5859C170.84 52.1831 171.008 51.5728 171.392 50.7183C171.836 49.7052 172.209 49.1071 172.497 48.9606C172.785 48.8019 173.169 48.8263 173.638 49.0216C174.082 49.2169 174.61 49.4244 175.198 49.6442C175.799 49.8639 176.435 50.047 177.096 50.2179C177.768 50.3887 178.44 50.5352 179.137 50.6451C179.833 50.7549 180.494 50.816 181.094 50.816C183.183 50.816 184.864 50.4864 186.125 49.815C187.386 49.1559 188.022 48.1428 188.022 46.7757C188.022 46.263 187.866 45.8236 187.566 45.4329C187.266 45.0545 186.846 44.6884 186.317 44.3344C185.789 43.9804 185.152 43.6386 184.396 43.3212C183.64 42.9917 182.835 42.6377 181.971 42.2349C180.554 41.6123 179.209 40.9898 177.936 40.3917C176.675 39.7814 175.487 38.9391 174.406 37.865C172.845 36.3636 172.065 34.4838 172.065 32.2134C172.065 30.6022 172.377 29.2351 173.001 28.1365C173.626 27.0379 174.466 26.1468 175.511 25.4633C176.555 24.7797 177.744 24.2915 179.065 23.9985C180.386 23.7056 181.754 23.5469 183.183 23.5469C184.048 23.5469 184.924 23.6445 185.813 23.8276C186.701 24.0107 187.53 24.2304 188.298 24.4868C189.067 24.7431 189.763 25.0116 190.388 25.2924C191.012 25.5731 191.504 25.8295 191.865 26.0614C192.333 26.3421 192.573 26.6595 192.573 27.0135C192.573 27.3675 192.405 27.9534 192.069 28.7712C191.672 29.7599 191.336 30.3703 191.024 30.6022C190.712 30.8341 190.304 30.8341 189.775 30.6022C189.355 30.4313 188.887 30.236 188.37 30.0041C187.854 29.7843 187.302 29.5768 186.725 29.3937C186.137 29.2106 185.537 29.052 184.9 28.9299C184.276 28.8078 183.652 28.7346 183.039 28.7346C181.454 28.7346 180.181 29.0153 179.233 29.589C178.284 30.1505 177.816 31.0172 177.816 32.1768C177.816 32.9092 178.104 33.5805 178.693 34.1664C179.281 34.7646 179.977 35.2894 180.782 35.7533C181.598 36.2171 182.403 36.6321 183.231 36.9861C184.048 37.3401 184.708 37.6209 185.213 37.8162C186.269 38.2434 187.29 38.6828 188.286 39.1589C189.271 39.6227 190.16 40.1842 190.94 40.8311C191.805 41.5635 192.489 42.4058 193.005 43.3579C193.522 44.31 193.774 45.4452 193.774 46.7757C193.774 48.1061 193.474 49.4733 192.873 50.7061C192.273 51.939 191.348 52.9765 190.099 53.8309C188.034 55.2713 185.032 56.0037 181.07 56.0037L181.142 55.9793Z" fill="black"/>
<path d="M206.369 55.9792C204.616 55.9792 203.043 55.6619 201.651 55.0271C200.258 54.3924 199.069 53.5257 198.084 52.4394C197.1 51.353 196.343 50.0835 195.827 48.6432C195.311 47.2028 195.059 45.6526 195.059 44.017C195.059 42.3813 195.311 40.8555 195.827 39.3907C196.343 37.9138 197.1 36.6321 198.084 35.5213C199.069 34.4227 200.27 33.5439 201.651 32.8847C203.043 32.2378 204.616 31.9082 206.369 31.9082C208.122 31.9082 209.707 32.2378 211.124 32.8847C212.553 33.5317 213.754 34.4105 214.738 35.5213C215.723 36.6199 216.48 37.9138 217.02 39.3907C217.548 40.8677 217.812 42.4057 217.812 44.017C217.812 45.6282 217.548 47.2028 217.02 48.6432C216.492 50.0835 215.735 51.353 214.738 52.4394C213.754 53.5257 212.553 54.3924 211.124 55.0271C209.707 55.6619 208.122 55.9792 206.369 55.9792ZM206.369 51.0967C207.282 51.0967 208.11 50.9014 208.855 50.523C209.587 50.1446 210.224 49.6197 210.74 48.9727C211.256 48.3258 211.653 47.569 211.929 46.7024C212.205 45.8357 212.349 44.9446 212.349 44.0047C212.349 43.0649 212.205 42.1738 211.929 41.3071C211.653 40.4405 211.256 39.6837 210.74 39.0367C210.224 38.3898 209.599 37.8649 208.855 37.4621C208.122 37.0593 207.294 36.864 206.369 36.864C205.445 36.864 204.676 37.0593 203.944 37.4621C203.224 37.8527 202.611 38.3776 202.107 39.0367C201.603 39.6837 201.218 40.4405 200.942 41.3071C200.666 42.1738 200.522 43.0649 200.522 44.0047C200.522 44.9446 200.666 45.8357 200.942 46.7024C201.218 47.569 201.615 48.3258 202.107 48.9727C202.611 49.6197 203.224 50.1446 203.944 50.523C204.664 50.9014 205.481 51.0967 206.369 51.0967Z" fill="black"/>
<path d="M227.849 37.8904V54.5399C227.849 54.9671 227.657 55.2845 227.284 55.492C226.912 55.6995 226.192 55.8093 225.135 55.8093C224.078 55.8093 223.358 55.6995 222.986 55.492C222.614 55.2723 222.421 54.9549 222.421 54.5399V37.8904H218.375V32.9223H222.421V28.8454C222.421 27.1121 222.866 25.7572 223.754 24.7441C224.643 23.7431 225.904 23.2305 227.513 23.2305H231.607C232.075 23.2305 232.411 23.4014 232.604 23.7431C232.796 24.0849 232.892 24.7319 232.892 25.6962C232.892 26.6605 232.796 27.3074 232.604 27.6492C232.411 27.991 232.075 28.1619 231.607 28.1619H228.845C228.449 28.1619 228.185 28.2839 228.053 28.528C227.909 28.7722 227.837 29.2604 227.837 29.9928V32.9223H231.979C232.448 32.9223 232.784 33.0932 232.988 33.435C233.18 33.7768 233.276 34.4237 233.276 35.388C233.276 36.3523 233.18 37.0115 232.988 37.3655C232.796 37.7195 232.46 37.8904 231.979 37.8904H227.837H227.849Z" fill="black"/>
<path d="M248.863 50.51C249.331 50.51 249.667 50.6686 249.847 50.9982C250.027 51.3278 250.123 51.9747 250.123 52.9268C250.123 53.8789 250.039 54.5503 249.847 54.9043C249.667 55.2583 249.343 55.4291 248.863 55.4291H244.432C243.591 55.4291 242.835 55.3193 242.138 55.1118C241.442 54.9043 240.842 54.5625 240.349 54.0986C239.845 53.6348 239.449 53.0245 239.161 52.2921C238.872 51.5597 238.728 50.6442 238.728 49.5701V37.4735H234.262V32.5055H238.728V26.0117H244.156V32.5055H248.995C249.463 32.5055 249.799 32.6764 249.979 33.0182C250.159 33.36 250.255 34.0069 250.255 34.9712C250.255 35.9355 250.171 36.5947 249.979 36.9487C249.799 37.3026 249.463 37.4857 248.995 37.4857H244.156V49.2893C244.156 49.7654 244.264 50.0949 244.468 50.2658C244.684 50.4367 244.996 50.5222 245.404 50.5222H248.875L248.863 50.51Z" fill="black"/>
<path d="M275.758 39.5865C275.758 38.7687 275.446 38.0973 274.822 37.5847C274.198 37.072 273.393 36.8157 272.42 36.8157C271.916 36.8157 271.484 36.9011 271.1 37.072C270.727 37.2429 270.403 37.4748 270.139 37.7556C269.875 38.0363 269.683 38.3415 269.551 38.671C269.431 39.0006 269.359 39.3058 269.359 39.5865V54.5394C269.359 54.9666 269.166 55.2839 268.794 55.4915C268.422 55.699 267.702 55.8088 266.645 55.8088C265.588 55.8088 264.868 55.699 264.496 55.4915C264.123 55.2717 263.931 54.9544 263.931 54.5394V39.672C263.931 38.8541 263.619 38.1828 262.995 37.6579C262.37 37.133 261.554 36.8645 260.545 36.8645C260.041 36.8645 259.609 36.9499 259.236 37.1208C258.852 37.2917 258.528 37.5114 258.252 37.78C257.976 38.0485 257.76 38.3415 257.627 38.6466C257.483 38.964 257.423 39.2569 257.423 39.5377V54.5271C257.423 54.9544 257.231 55.2717 256.859 55.4792C256.487 55.6868 255.766 55.7966 254.71 55.7966C253.653 55.7966 252.933 55.6868 252.56 55.4792C252.176 55.2595 251.996 54.9422 251.996 54.5271V32.5068H257.255V34.1181C257.808 33.4955 258.468 32.9706 259.236 32.5434C259.993 32.1162 261.038 31.9087 262.346 31.9087C263.511 31.9087 264.58 32.1772 265.528 32.6899C266.477 33.2148 267.185 33.8007 267.654 34.4476C268.29 33.7152 269.094 33.1049 270.079 32.6167C271.052 32.1406 272.264 31.8965 273.717 31.8965C275.002 31.8965 276.107 32.1162 277.055 32.5556C278.004 32.9951 278.784 33.5932 279.397 34.3378C280.009 35.0946 280.465 35.949 280.753 36.9255C281.042 37.902 281.186 38.9152 281.186 39.9649V54.5271C281.186 54.9544 280.994 55.2717 280.621 55.4792C280.249 55.6868 279.529 55.7966 278.472 55.7966C277.415 55.7966 276.695 55.6868 276.323 55.4792C275.951 55.2595 275.758 54.9422 275.758 54.5271V39.5743V39.5865Z" fill="black"/>
<path d="M283.914 25.8782C283.914 24.9506 284.238 24.1449 284.899 23.4736C285.547 22.8144 286.352 22.4727 287.3 22.4727C288.249 22.4727 289.053 22.8022 289.702 23.4736C290.35 24.1449 290.686 24.9384 290.686 25.8782C290.686 26.8181 290.362 27.6482 289.702 28.3195C289.041 28.9787 288.249 29.3204 287.3 29.3204C286.352 29.3204 285.559 28.9909 284.899 28.3195C284.25 27.6482 283.914 26.8425 283.914 25.8782ZM284.454 32.0303H290.098V54.5389C290.098 54.9661 289.882 55.2835 289.473 55.491C289.053 55.6985 288.321 55.8083 287.264 55.8083C286.207 55.8083 285.475 55.6985 285.067 55.491C284.659 55.2713 284.466 54.9539 284.466 54.5389V32.0303H284.454Z" fill="black"/>
<path d="M293.43 22.8145H299.073V54.5389C299.073 54.9661 298.869 55.2835 298.449 55.491C298.028 55.6985 297.296 55.8084 296.239 55.8084C295.183 55.8084 294.45 55.6985 294.054 55.491C293.646 55.2713 293.442 54.9539 293.442 54.5389V22.8145H293.43Z" fill="black"/>
<path d="M301.875 22.8145H307.518V54.5389C307.518 54.9661 307.314 55.2835 306.894 55.491C306.474 55.6985 305.741 55.8084 304.685 55.8084C303.628 55.8084 302.896 55.6985 302.499 55.491C302.091 55.2713 301.887 54.9539 301.887 54.5389V22.8145H301.875Z" fill="black"/>
<path d="M335.951 55.9783C333.417 55.9783 331.172 55.5633 329.203 54.7454C327.246 53.9276 325.577 52.7924 324.232 51.3277C322.875 49.8629 321.854 48.154 321.158 46.1644C320.461 44.1869 320.113 42.0264 320.113 39.7072C320.113 37.0218 320.546 34.6537 321.41 32.6397C322.275 30.6134 323.427 28.9289 324.88 27.5862C326.333 26.2435 328.014 25.2304 329.935 24.5468C331.856 23.8633 333.862 23.5215 335.951 23.5215C337.62 23.5215 339.133 23.7046 340.49 24.0708C341.834 24.437 342.999 24.8886 343.984 25.4257C344.452 25.7064 344.74 26.0238 344.836 26.3778C344.932 26.7318 344.776 27.3787 344.356 28.3064C343.936 29.2097 343.587 29.7712 343.287 29.9787C342.999 30.1862 342.603 30.2106 342.099 30.0397C341.042 29.6369 340.057 29.3195 339.133 29.0632C338.22 28.8069 337.176 28.6848 335.999 28.6848C334.498 28.6848 333.117 28.9655 331.88 29.5392C330.644 30.1007 329.575 30.8819 328.686 31.8707C327.798 32.8594 327.101 34.019 326.621 35.3495C326.129 36.68 325.889 38.1203 325.889 39.6828C325.889 41.2452 326.117 42.6611 326.573 44.016C327.029 45.3709 327.69 46.555 328.554 47.5437C329.419 48.5324 330.476 49.3258 331.736 49.8995C332.985 50.4854 334.414 50.7662 335.999 50.7662C337.164 50.7662 338.208 50.6441 339.133 50.3878C340.057 50.1314 341.042 49.8141 342.099 49.4113C342.603 49.1793 343.011 49.1671 343.311 49.3502C343.611 49.5333 343.984 50.1192 344.392 51.1079C344.584 51.6206 344.728 52.0234 344.812 52.3408C344.896 52.6582 344.92 52.9023 344.872 53.0854C344.836 53.2685 344.728 53.4272 344.584 53.5492C344.428 53.6713 344.236 53.8056 343.984 53.952C343.011 54.5135 341.846 54.9896 340.514 55.368C339.181 55.7464 337.656 55.9417 335.963 55.9417L335.951 55.9783Z" fill="black"/>
<path d="M357.299 55.9795C355.546 55.9795 353.973 55.6621 352.58 55.0274C351.187 54.3926 349.999 53.526 349.014 52.4396C348.018 51.3532 347.273 50.0838 346.757 48.6434C346.24 47.2031 345.988 45.6529 345.988 44.0172C345.988 42.3815 346.24 40.8557 346.757 39.391C347.273 37.914 348.018 36.6323 349.014 35.5215C349.999 34.423 351.187 33.5441 352.58 32.885C353.973 32.238 355.546 31.9084 357.299 31.9084C359.052 31.9084 360.637 32.238 362.066 32.885C363.483 33.5319 364.696 34.4108 365.68 35.5215C366.665 36.6201 367.433 37.914 367.962 39.391C368.49 40.8679 368.754 42.406 368.754 44.0172C368.754 45.6284 368.49 47.2031 367.962 48.6434C367.433 50.0838 366.677 51.3532 365.68 52.4396C364.696 53.526 363.483 54.3926 362.066 55.0274C360.649 55.6621 359.064 55.9795 357.299 55.9795ZM357.299 51.0969C358.224 51.0969 359.052 50.9016 359.785 50.5232C360.517 50.1448 361.153 49.6199 361.67 48.973C362.186 48.3261 362.582 47.5693 362.858 46.7026C363.135 45.8359 363.279 44.9449 363.279 44.005C363.279 43.0651 363.135 42.174 362.858 41.3074C362.582 40.4407 362.186 39.6839 361.67 39.037C361.153 38.39 360.529 37.8652 359.785 37.4624C359.052 37.0595 358.224 36.8642 357.299 36.8642C356.375 36.8642 355.606 37.0595 354.874 37.4624C354.153 37.853 353.541 38.3778 353.037 39.037C352.532 39.6839 352.148 40.4407 351.872 41.3074C351.596 42.174 351.452 43.0651 351.452 44.005C351.452 44.9449 351.596 45.8359 351.872 46.7026C352.148 47.5693 352.544 48.3261 353.037 48.973C353.541 49.6199 354.153 50.1448 354.874 50.5232C355.594 50.9016 356.399 51.0969 357.299 51.0969Z" fill="black"/>
<path d="M377.942 55.6868C377.942 56.761 377.606 57.6276 376.946 58.299C376.273 58.9581 375.421 59.2999 374.352 59.2999C373.284 59.2999 372.431 58.9703 371.759 58.299C371.086 57.6276 370.75 56.761 370.75 55.6868C370.75 54.6127 371.086 53.7338 371.759 53.0502C372.431 52.3667 373.296 52.0371 374.352 52.0371C375.409 52.0371 376.273 52.3789 376.946 53.0502C377.618 53.7338 377.942 54.6127 377.942 55.6868Z" fill="black"/>
<path d="M381.277 62.7421C381.697 62.2295 382.117 61.6558 382.549 61.021C382.982 60.3863 383.306 59.8004 383.534 59.2633C382.79 59.1168 382.141 58.7506 381.613 58.1403C381.084 57.53 380.82 56.6877 380.82 55.6136C380.82 54.5394 381.157 53.7094 381.841 53.038C382.525 52.3789 383.354 52.0371 384.326 52.0371C385.443 52.0371 386.332 52.3667 387.004 53.0136C387.676 53.6728 388.013 54.5882 388.013 55.7723C388.013 56.6267 387.857 57.5178 387.556 58.4455C387.256 59.3732 386.872 60.2642 386.428 61.0943C385.983 61.9365 385.515 62.6811 385.035 63.3524C384.543 64.0116 384.134 64.4998 383.798 64.8172C383.57 65.0369 383.354 65.1102 383.126 65.0247C382.898 64.9393 382.537 64.6951 382.033 64.3045C381.565 63.9017 381.265 63.621 381.133 63.4501C381.012 63.2792 381.048 63.0351 381.277 62.7299V62.7421Z" fill="black"/>
<path d="M407.515 55.43C406.951 55.43 406.338 55.2103 405.678 54.7709C405.006 54.3314 404.441 53.8676 403.961 53.3916C403.481 52.9399 403.072 52.415 402.712 51.8047C402.352 51.1944 402.172 50.6451 402.172 50.1691V24.1328H407.935V49.3146C407.935 49.6808 408.007 49.9249 408.163 50.0592C408.32 50.1813 408.572 50.2545 408.932 50.2545H421.588C422.14 50.2545 422.5 50.4864 422.644 50.9381C422.8 51.3897 422.872 52.0244 422.872 52.8545C422.872 53.6845 422.788 54.307 422.644 54.7587C422.488 55.2103 422.14 55.4422 421.588 55.4422H407.515V55.43Z" fill="black"/>
<path d="M435.421 50.51C435.889 50.51 436.226 50.6686 436.406 50.9982C436.586 51.3278 436.682 51.9747 436.682 52.9268C436.682 53.8789 436.598 54.5503 436.406 54.9043C436.226 55.2583 435.901 55.4291 435.421 55.4291H430.99C430.162 55.4291 429.393 55.3193 428.697 55.1118C428.001 54.9043 427.4 54.5625 426.908 54.0986C426.404 53.6348 426.007 53.0245 425.719 52.2921C425.431 51.5597 425.287 50.6442 425.287 49.5701V37.4735H420.82V32.5055H425.287V26.0117H430.714V32.5055H435.553C436.021 32.5055 436.358 32.6764 436.538 33.0182C436.718 33.36 436.814 34.0069 436.814 34.9712C436.814 35.9355 436.718 36.5947 436.538 36.9487C436.358 37.3026 436.033 37.4857 435.553 37.4857H430.714V49.2893C430.714 49.7654 430.822 50.0949 431.026 50.2658C431.243 50.4367 431.543 50.5222 431.963 50.5222H435.433L435.421 50.51Z" fill="black"/>
<path d="M457.259 55.8084C456.118 55.8084 455.386 55.6985 455.049 55.491C454.713 55.2713 454.545 54.9539 454.545 54.5389V53.306C453.705 54.1605 452.744 54.8074 451.639 55.2835C450.535 55.7595 449.238 55.9792 447.737 55.9792C446.236 55.9792 444.951 55.6619 443.727 55.0393C442.502 54.4168 441.445 53.5624 440.557 52.4638C439.668 51.3774 438.972 50.0958 438.467 48.6432C437.963 47.1906 437.711 45.616 437.711 43.9559C437.711 42.3691 437.951 40.8433 438.419 39.3907C438.9 37.9382 439.584 36.6565 440.509 35.5457C441.433 34.4349 442.562 33.5561 443.895 32.8969C445.227 32.2378 446.764 31.896 448.493 31.896C449.046 31.896 449.61 31.957 450.186 32.0913C450.751 32.2134 451.303 32.3965 451.831 32.6284C452.36 32.8603 452.852 33.1167 453.32 33.4096C453.777 33.7026 454.173 34.0321 454.509 34.3617V22.8145H459.984V54.5389C459.984 54.9661 459.816 55.2835 459.48 55.491C459.144 55.6985 458.411 55.8084 457.259 55.8084ZM454.545 44.1756C454.545 42.7597 454.353 41.5879 453.981 40.648C453.609 39.7203 453.128 38.9635 452.564 38.402C452 37.8405 451.375 37.4377 450.703 37.218C450.03 36.9983 449.406 36.8762 448.818 36.8762C447.977 36.8762 447.221 37.0593 446.536 37.4011C445.852 37.7551 445.263 38.2433 444.759 38.8659C444.255 39.4884 443.871 40.233 443.618 41.0996C443.354 41.9663 443.222 42.9184 443.222 43.9681C443.222 45.0179 443.366 46.0188 443.643 46.8733C443.919 47.7399 444.315 48.4845 444.819 49.107C445.324 49.7296 445.912 50.2056 446.596 50.5352C447.281 50.8648 448.025 51.0234 448.83 51.0234C449.334 51.0234 449.91 50.9258 450.571 50.7305C451.219 50.5352 451.843 50.169 452.432 49.6441C453.02 49.1192 453.524 48.4235 453.933 47.5446C454.353 46.6658 454.557 45.555 454.557 44.1879L454.545 44.1756Z" fill="black"/>
<path d="M470.001 55.6868C470.001 56.761 469.665 57.6276 469.004 58.299C468.332 58.9581 467.479 59.2999 466.411 59.2999C465.342 59.2999 464.49 58.9703 463.817 58.299C463.145 57.6276 462.809 56.761 462.809 55.6868C462.809 54.6127 463.145 53.7338 463.817 53.0502C464.49 52.3667 465.354 52.0371 466.411 52.0371C467.467 52.0371 468.332 52.3789 469.004 53.0502C469.677 53.7338 470.001 54.6127 470.001 55.6868Z" fill="black"/>
<path d="M0 8.1285C0 6.95669 0.156094 5.88252 0.492298 4.93043C0.816493 3.96612 1.27277 3.14829 1.86112 2.46473C2.44948 1.78117 3.13389 1.2563 3.93838 0.877901C4.73086 0.499502 5.60739 0.316406 6.54395 0.316406C7.48052 0.316406 8.35705 0.499502 9.16154 0.877901C9.95402 1.2563 10.6504 1.78117 11.2388 2.46473C11.8271 3.14829 12.2834 3.96612 12.6076 4.93043C12.9318 5.89473 13.0879 6.95669 13.0879 8.1285C13.0879 9.30032 12.9318 10.3623 12.6076 11.3266C12.2834 12.2909 11.8271 13.1087 11.2388 13.7923C10.6504 14.4758 9.96602 15.0007 9.16154 15.3791C8.36906 15.7575 7.49253 15.9406 6.54395 15.9406C5.59538 15.9406 4.73086 15.7575 3.93838 15.3791C3.1459 15.0007 2.44948 14.4758 1.86112 13.7923C1.27277 13.1087 0.816493 12.2909 0.492298 11.3266C0.168102 10.3623 0 9.30032 0 8.1285H0ZM10.8906 8.1285C10.8906 7.34729 10.8065 6.61491 10.6264 5.90694C10.4463 5.19897 10.1701 4.58865 9.80993 4.03936C9.44971 3.50228 8.99343 3.07505 8.45311 2.75769C7.91278 2.44032 7.2764 2.29384 6.55596 2.29384C5.83553 2.29384 5.17513 2.45253 4.62279 2.75769C4.07046 3.07505 3.62619 3.50228 3.25397 4.03936C2.89375 4.57644 2.61758 5.19897 2.43747 5.90694C2.24536 6.61491 2.16131 7.34729 2.16131 8.1285C2.16131 8.90971 2.25736 9.6543 2.43747 10.3623C2.61758 11.0702 2.89375 11.6928 3.25397 12.2299C3.61418 12.7547 4.07046 13.182 4.62279 13.4993C5.17513 13.8167 5.81151 13.9754 6.55596 13.9754C7.30041 13.9754 7.91278 13.8167 8.45311 13.4993C8.99343 13.182 9.44971 12.7669 9.80993 12.2299C10.1701 11.6928 10.4463 11.0702 10.6264 10.3623C10.8065 9.6543 10.8906 8.90971 10.8906 8.1285Z" fill="#FF5F00"/>
<path d="M14.3128 4.83373H16.318V5.89568C16.4381 5.7492 16.5822 5.59052 16.7743 5.43184C16.9544 5.27316 17.1825 5.12668 17.4467 4.99241C17.7108 4.85814 18.011 4.74828 18.3472 4.66284C18.6714 4.57739 19.0436 4.54077 19.4399 4.54077C19.9802 4.54077 20.4725 4.63842 20.9168 4.83373C21.361 5.02903 21.7453 5.30977 22.0695 5.66376C22.3937 6.01775 22.6458 6.44497 22.8259 6.93323C23.006 7.42148 23.0901 7.97077 23.0901 8.55668V15.3923C23.0901 15.5631 22.994 15.6852 22.8019 15.7585C22.6098 15.8317 22.3577 15.8683 22.0575 15.8683C21.7573 15.8683 21.4811 15.8317 21.289 15.7585C21.0969 15.6852 21.0008 15.5631 21.0008 15.3923V8.32476C21.0008 7.99518 20.9288 7.71444 20.7967 7.47031C20.6646 7.22618 20.4845 7.03088 20.2684 6.87219C20.0523 6.71351 19.8001 6.60365 19.5359 6.53041C19.2598 6.45718 18.9836 6.43276 18.6834 6.43276C18.3832 6.43276 18.1071 6.46938 17.8309 6.55483C17.5547 6.64027 17.3146 6.75013 17.0985 6.8844C16.8823 7.01867 16.7142 7.17735 16.5822 7.36045C16.4501 7.54355 16.39 7.71444 16.39 7.89753V15.3801C16.39 15.5509 16.294 15.673 16.1019 15.7462C15.9098 15.8195 15.6576 15.8561 15.3574 15.8561C15.0572 15.8561 14.7811 15.8195 14.589 15.7462C14.3968 15.673 14.3008 15.5509 14.3008 15.3801V4.83373H14.3128Z" fill="#FF5F00"/>
<path d="M24.7347 0.158203H26.8119V15.3918C26.8119 15.5627 26.7159 15.6847 26.5237 15.758C26.3316 15.8312 26.0795 15.8678 25.7793 15.8678C25.0709 15.8678 24.7227 15.7092 24.7227 15.3918V0.158203H24.7347Z" fill="#FF5F00"/>
<path d="M28.9515 20.2995C28.6393 20.2995 28.4712 19.9821 28.4712 19.3352C28.4712 18.9812 28.5072 18.7371 28.5792 18.6028C28.6633 18.4685 28.7714 18.3953 28.9395 18.3953H29.4918C30.0321 18.3953 30.5124 18.2366 30.9447 17.9192C31.3769 17.6019 31.6891 17.138 31.8812 16.5399L32.1334 15.7831C31.9173 15.7343 31.7371 15.6244 31.5931 15.4902C31.461 15.3437 31.3289 15.124 31.2328 14.8188L27.8828 4.83398H30.0081L32.0493 11.3034C32.1814 11.7062 32.3015 12.109 32.4336 12.4996C32.5656 12.8902 32.6977 13.3174 32.8298 13.7813H32.8538C33.0099 13.3174 33.142 12.8902 33.2621 12.4996C33.3821 12.109 33.5022 11.7062 33.6343 11.3034L35.6755 4.83398H37.8248L33.8264 16.8451C33.6583 17.3333 33.4542 17.7972 33.202 18.2122C32.9499 18.6394 32.6497 18.9934 32.3015 19.2986C31.9533 19.6037 31.545 19.8479 31.0888 20.0309C30.6325 20.2018 30.1042 20.2995 29.5158 20.2995H28.9274H28.9515Z" fill="#FF5F00"/>
<path d="M43.9219 8.1285C43.9219 6.95669 44.078 5.88252 44.4022 4.93043C44.7264 3.96612 45.1826 3.14829 45.771 2.46473C46.3593 1.78117 47.0438 1.2563 47.8482 0.877901C48.6407 0.499502 49.5173 0.316406 50.4538 0.316406C51.3904 0.316406 52.2669 0.499502 53.0714 0.877901C53.8639 1.2563 54.5603 1.78117 55.1487 2.46473C55.737 3.14829 56.1933 3.96612 56.5175 4.93043C56.8417 5.89473 57.0098 6.95669 57.0098 8.1285C57.0098 9.30032 56.8537 10.3623 56.5175 11.3266C56.1933 12.2909 55.737 13.1087 55.1487 13.7923C54.5603 14.4758 53.8759 15.0007 53.0714 15.3791C52.2789 15.7575 51.4024 15.9406 50.4538 15.9406C49.5052 15.9406 48.6407 15.7575 47.8482 15.3791C47.0558 15.0007 46.3593 14.4758 45.771 13.7923C45.1826 13.1087 44.7264 12.2909 44.4022 11.3266C44.078 10.3623 43.9219 9.30032 43.9219 8.1285ZM54.8125 8.1285C54.8125 7.34729 54.7284 6.61491 54.5483 5.90694C54.3682 5.19897 54.092 4.58865 53.7318 4.03936C53.3716 3.50228 52.9153 3.07505 52.375 2.75769C51.8347 2.44032 51.1983 2.29384 50.4778 2.29384C49.7574 2.29384 49.097 2.45253 48.5447 2.75769C47.9923 3.07505 47.5361 3.50228 47.1758 4.03936C46.8156 4.57644 46.5395 5.19897 46.3593 5.90694C46.1672 6.61491 46.0832 7.34729 46.0832 8.1285C46.0832 8.90971 46.1792 9.6543 46.3593 10.3623C46.5395 11.0702 46.8156 11.6928 47.1758 12.2299C47.5361 12.7547 47.9923 13.182 48.5447 13.4993C49.085 13.8167 49.7334 13.9754 50.4778 13.9754C51.2223 13.9754 51.8347 13.8167 52.375 13.4993C52.9153 13.182 53.3716 12.7669 53.7318 12.2299C54.092 11.6928 54.3682 11.0702 54.5483 10.3623C54.7284 9.6543 54.8125 8.90971 54.8125 8.1285Z" fill="#FF5F00"/>
<path d="M58.235 4.83397H60.2402V5.89593C60.3602 5.74945 60.5043 5.59077 60.6964 5.43208C60.8765 5.2734 61.1047 5.12692 61.3688 4.99265C61.633 4.85838 61.9332 4.74852 62.2694 4.66308C62.5936 4.57763 62.9658 4.54102 63.3621 4.54102C63.9024 4.54102 64.3827 4.63867 64.8389 4.83397C65.2832 5.02927 65.6674 5.31002 65.9916 5.664C66.3158 6.01799 66.568 6.44521 66.7481 6.93347C66.9282 7.42173 67.0123 7.97101 67.0123 8.55692V15.3925C67.0123 15.5634 66.9162 15.6855 66.7241 15.7587C66.532 15.8319 66.2798 15.8686 65.9796 15.8686C65.6674 15.8686 65.4033 15.8319 65.2112 15.7587C65.0191 15.6855 64.923 15.5634 64.923 15.3925V8.325C64.923 7.99543 64.851 7.71468 64.7189 7.47055C64.5868 7.22642 64.4067 7.03112 64.1905 6.87244C63.9744 6.71375 63.7343 6.6039 63.4581 6.53066C63.1819 6.45742 62.9058 6.43301 62.6056 6.43301C62.3054 6.43301 62.0292 6.46963 61.7531 6.55507C61.4769 6.64052 61.2368 6.75037 61.0086 6.88464C60.7925 7.01891 60.6244 7.1776 60.4923 7.36069C60.3602 7.54379 60.3002 7.71468 60.3002 7.89778V15.3803C60.3002 15.5512 60.2041 15.6733 60.012 15.7465C59.8199 15.8197 59.5678 15.8563 59.2676 15.8563C58.9674 15.8563 58.6912 15.8197 58.4991 15.7465C58.307 15.6733 58.2109 15.5512 58.2109 15.3803V4.83397H58.235Z" fill="#FF5F00"/>
<path d="M73.93 15.9403C73.1135 15.9403 72.3571 15.8305 71.6606 15.5985C70.9642 15.3788 70.3639 15.0248 69.8595 14.561C69.3432 14.0972 68.947 13.5113 68.6588 12.7911C68.3707 12.0709 68.2266 11.2287 68.2266 10.2399C68.2266 9.37328 68.3466 8.57987 68.5988 7.8719C68.8509 7.16393 69.1871 6.56581 69.6074 6.06535C70.0397 5.57709 70.544 5.1987 71.1323 4.93015C71.7207 4.66161 72.3691 4.52734 73.0535 4.52734C73.894 4.52734 74.6264 4.68603 75.2388 4.99119C75.8512 5.30855 76.3555 5.73578 76.7397 6.27286C77.1239 6.80994 77.4121 7.44467 77.6042 8.15264C77.7843 8.87282 77.8804 9.62962 77.8804 10.4352C77.8804 10.716 77.8204 10.9357 77.6883 11.0578C77.5562 11.192 77.4001 11.2531 77.196 11.2531H70.3518C70.3879 11.7291 70.5079 12.1441 70.7121 12.4859C70.9162 12.8277 71.1803 13.1206 71.4925 13.3404C71.8167 13.5723 72.177 13.731 72.5852 13.8408C72.9934 13.9507 73.4137 13.9995 73.846 13.9995C74.2782 13.9995 74.7105 13.9385 75.1067 13.8408C75.503 13.731 75.8872 13.6089 76.2474 13.4746C76.4155 13.4014 76.5476 13.4136 76.6557 13.4746C76.7637 13.5479 76.8838 13.7676 77.0279 14.1338C77.172 14.4878 77.22 14.7319 77.196 14.854C77.172 14.976 77.0759 15.0859 76.9078 15.1835C76.7397 15.2934 76.5356 15.391 76.2954 15.4765C76.0553 15.5619 75.7911 15.6352 75.527 15.7084C75.2508 15.7694 74.9746 15.8183 74.6985 15.8549C74.4223 15.8915 74.1581 15.9037 73.918 15.9037L73.93 15.9403ZM75.7431 9.31225C75.6951 8.39677 75.4189 7.6888 74.9386 7.18834C74.4463 6.68788 73.8339 6.44375 73.0655 6.44375C72.6212 6.44375 72.237 6.52919 71.9128 6.68788C71.5886 6.84656 71.3124 7.06628 71.0843 7.33482C70.8562 7.60336 70.688 7.90852 70.556 8.2503C70.4359 8.59207 70.3518 8.94606 70.3278 9.30005H75.7431V9.31225Z" fill="#FF5F00"/>
<path d="M80.0547 15.198C80.0547 14.7952 80.1868 14.4656 80.4389 14.1848C80.7031 13.9041 81.0153 13.7698 81.3875 13.7698C81.7597 13.7698 82.0959 13.9041 82.3481 14.1848C82.6122 14.4656 82.7443 14.7952 82.7443 15.198C82.7443 15.6008 82.6122 15.9548 82.3481 16.2355C82.0839 16.5285 81.7597 16.6627 81.3875 16.6627C81.0153 16.6627 80.7031 16.5163 80.4389 16.2355C80.1748 15.9548 80.0547 15.6008 80.0547 15.198ZM82.216 11.6825C82.216 11.8412 82.1319 11.9633 82.0119 12.0243C81.8918 12.0853 81.6877 12.122 81.4115 12.122C80.8712 12.122 80.583 11.9755 80.583 11.6947L80.2228 0.611328H82.5762L82.216 11.6947V11.6825Z" fill="#FF5F00"/>
<path d="M102.686 12.9876C102.686 13.1829 102.614 13.4271 102.458 13.7322C102.314 14.0374 102.086 14.3547 101.786 14.6599C101.125 15.3313 100.549 15.6608 100.081 15.6608H98.0155C96.9109 15.6608 95.9023 15.4899 94.9897 15.136C94.0892 14.7942 93.3207 14.2815 92.6843 13.6102C92.0479 12.9388 91.5676 12.1332 91.2194 11.1811C90.8712 10.229 90.7031 9.15481 90.7031 7.93418C90.7031 6.71354 90.9072 5.57834 91.3035 4.62624C91.6997 3.67414 92.2521 2.86852 92.9365 2.23379C93.6209 1.59905 94.4254 1.1108 95.3259 0.781225C96.2265 0.451652 97.187 0.292969 98.2077 0.292969C99.0121 0.292969 99.7086 0.354001 100.309 0.488271C100.909 0.610335 101.45 0.793431 101.918 1.02535C102.098 1.1108 102.194 1.20845 102.206 1.34272C102.23 1.47699 102.17 1.70891 102.026 2.0629C101.882 2.4413 101.762 2.66101 101.654 2.73425C101.546 2.79528 101.414 2.79528 101.245 2.73425C100.789 2.58777 100.309 2.46571 99.8166 2.39247C99.3243 2.30702 98.796 2.27041 98.2197 2.27041C97.3672 2.27041 96.5987 2.41688 95.9263 2.72204C95.2539 3.0272 94.6895 3.43001 94.2333 3.94268C93.777 4.45535 93.4288 5.05346 93.1886 5.74923C92.9485 6.43279 92.8404 7.16517 92.8404 7.94638C92.8404 8.78862 92.9605 9.56983 93.1886 10.2656C93.4168 10.9614 93.753 11.5717 94.1972 12.0721C94.6415 12.5726 95.1698 12.9632 95.8182 13.244C96.4546 13.5247 97.175 13.6712 97.9795 13.6712H99.8887C100.129 13.6712 100.297 13.6102 100.381 13.4881C100.465 13.366 100.513 13.1951 100.513 12.9754V9.08158H97.091V7.10414H102.662V12.9754L102.686 12.9876Z" fill="#FF5F00"/>
<path d="M109.625 15.9403C108.809 15.9403 108.052 15.8305 107.356 15.5985C106.66 15.3788 106.059 15.0248 105.555 14.561C105.039 14.0972 104.642 13.5113 104.354 12.7911C104.066 12.0709 103.922 11.2287 103.922 10.2399C103.922 9.37328 104.042 8.57987 104.294 7.8719C104.546 7.16393 104.882 6.56581 105.303 6.06535C105.735 5.57709 106.239 5.1987 106.828 4.93015C107.428 4.66161 108.064 4.52734 108.749 4.52734C109.589 4.52734 110.322 4.68603 110.934 4.99119C111.546 5.30855 112.051 5.73578 112.435 6.27286C112.819 6.80994 113.107 7.44467 113.3 8.15264C113.48 8.87282 113.576 9.62962 113.576 10.4352C113.576 10.716 113.504 10.9357 113.384 11.0578C113.252 11.192 113.095 11.2531 112.891 11.2531H106.047C106.083 11.7291 106.203 12.1441 106.407 12.4859C106.611 12.8277 106.876 13.1206 107.188 13.3404C107.512 13.5723 107.872 13.731 108.281 13.8408C108.689 13.9507 109.109 13.9995 109.541 13.9995C109.974 13.9995 110.406 13.9385 110.802 13.8408C111.198 13.731 111.583 13.6089 111.943 13.4746C112.111 13.4014 112.243 13.4136 112.351 13.4746C112.459 13.5479 112.579 13.7676 112.723 14.1338C112.867 14.4878 112.915 14.7319 112.891 14.854C112.867 14.976 112.771 15.0859 112.603 15.1835C112.435 15.2934 112.231 15.391 111.991 15.4765C111.751 15.5619 111.486 15.6352 111.222 15.7084C110.946 15.7694 110.67 15.8183 110.394 15.8549C110.118 15.8915 109.853 15.9037 109.613 15.9037L109.625 15.9403ZM111.438 9.31225C111.39 8.39677 111.126 7.6888 110.634 7.18834C110.142 6.68788 109.529 6.44375 108.761 6.44375C108.317 6.44375 107.932 6.52919 107.608 6.68788C107.284 6.84656 107.008 7.06628 106.78 7.33482C106.551 7.60336 106.383 7.90852 106.251 8.2503C106.131 8.59207 106.047 8.94606 106.023 9.30005H111.438V9.31225Z" fill="#FF5F00"/>
<path d="M114.789 4.83373H116.795V5.89568C116.915 5.7492 117.059 5.59052 117.251 5.43184C117.431 5.27316 117.659 5.12668 117.923 4.99241C118.187 4.85814 118.488 4.74828 118.824 4.66284C119.148 4.57739 119.52 4.54077 119.916 4.54077C120.457 4.54077 120.949 4.63842 121.393 4.83373C121.838 5.02903 122.222 5.30977 122.546 5.66376C122.87 6.01775 123.122 6.44497 123.303 6.93323C123.483 7.42148 123.567 7.97077 123.567 8.55668V15.3923C123.567 15.5631 123.471 15.6852 123.278 15.7585C123.086 15.8317 122.834 15.8683 122.534 15.8683C122.222 15.8683 121.958 15.8317 121.766 15.7585C121.573 15.6852 121.477 15.5631 121.477 15.3923V8.32476C121.477 7.99518 121.405 7.71444 121.273 7.47031C121.141 7.22618 120.961 7.03088 120.745 6.87219C120.529 6.71351 120.277 6.60365 120.013 6.53041C119.736 6.45718 119.46 6.43276 119.16 6.43276C118.86 6.43276 118.584 6.46938 118.307 6.55483C118.031 6.64027 117.791 6.75013 117.575 6.8844C117.359 7.01867 117.191 7.17735 117.059 7.36045C116.927 7.54355 116.867 7.71444 116.867 7.89753V15.3801C116.867 15.5509 116.771 15.673 116.578 15.7462C116.386 15.8195 116.134 15.8561 115.834 15.8561C115.534 15.8561 115.258 15.8195 115.066 15.7462C114.873 15.673 114.777 15.5509 114.777 15.3801V4.83373H114.789Z" fill="#FF5F00"/>
<path d="M130.485 15.9403C129.668 15.9403 128.912 15.8305 128.215 15.5985C127.519 15.3788 126.919 15.0248 126.414 14.561C125.898 14.0972 125.502 13.5113 125.214 12.7911C124.925 12.0709 124.781 11.2287 124.781 10.2399C124.781 9.37328 124.901 8.57987 125.153 7.8719C125.406 7.16393 125.742 6.56581 126.162 6.06535C126.594 5.57709 127.099 5.1987 127.687 4.93015C128.275 4.66161 128.924 4.52734 129.608 4.52734C130.449 4.52734 131.181 4.68603 131.793 4.99119C132.406 5.30855 132.91 5.73578 133.294 6.27286C133.679 6.80994 133.967 7.44467 134.159 8.15264C134.339 8.87282 134.435 9.62962 134.435 10.4352C134.435 10.716 134.375 10.9357 134.243 11.0578C134.111 11.192 133.943 11.2531 133.751 11.2531H126.907C126.943 11.7291 127.063 12.1441 127.267 12.4859C127.471 12.8277 127.735 13.1206 128.047 13.3404C128.359 13.5723 128.732 13.731 129.14 13.8408C129.548 13.9507 129.968 13.9995 130.401 13.9995C130.833 13.9995 131.265 13.9385 131.661 13.8408C132.058 13.731 132.442 13.6089 132.802 13.4746C132.97 13.4014 133.102 13.4136 133.21 13.4746C133.318 13.5479 133.438 13.7676 133.583 14.1338C133.727 14.4878 133.775 14.7319 133.751 14.854C133.727 14.976 133.631 15.0859 133.462 15.1835C133.294 15.2934 133.09 15.391 132.85 15.4765C132.61 15.5619 132.346 15.6352 132.082 15.7084C131.805 15.7694 131.529 15.8183 131.241 15.8549C130.965 15.8915 130.701 15.9037 130.461 15.9037L130.485 15.9403ZM132.298 9.31225C132.25 8.39677 131.986 7.6888 131.493 7.18834C131.001 6.68788 130.389 6.44375 129.62 6.44375C129.176 6.44375 128.792 6.52919 128.467 6.68788C128.143 6.84656 127.867 7.06628 127.651 7.33482C127.423 7.60336 127.255 7.90852 127.123 8.2503C126.991 8.59207 126.919 8.94606 126.895 9.30005H132.31L132.298 9.31225Z" fill="#FF5F00"/>
<path d="M140.003 6.73867C139.703 6.73867 139.415 6.7997 139.138 6.93397C138.862 7.05604 138.622 7.23913 138.418 7.45885C138.214 7.67856 138.046 7.92269 137.914 8.17902C137.794 8.44757 137.734 8.71611 137.734 8.98465V15.393C137.734 15.5639 137.637 15.686 137.445 15.7592C137.253 15.8324 137.013 15.8691 136.725 15.8691C136.389 15.8691 136.137 15.8324 135.944 15.747C135.752 15.6615 135.656 15.5517 135.656 15.4052V4.83447H137.746V6.34807H137.77C138.01 5.88422 138.334 5.51803 138.742 5.23728C139.15 4.96874 139.631 4.82227 140.171 4.82227H142.068C142.248 4.82227 142.368 4.8833 142.44 5.01757C142.512 5.15184 142.548 5.40817 142.548 5.78657C142.548 6.14056 142.512 6.38468 142.44 6.51896C142.368 6.65323 142.248 6.72646 142.068 6.72646H140.015L140.003 6.73867Z" fill="#FF5F00"/>
<path d="M144.124 6.73818C143.956 6.73818 143.836 6.66494 143.764 6.51847C143.692 6.37199 143.656 6.12786 143.656 5.77388C143.656 5.41989 143.692 5.18797 143.764 5.0537C143.836 4.90722 143.956 4.83398 144.124 4.83398H147.63C148.915 4.83398 149.839 5.12694 150.416 5.70064C150.992 6.27434 151.28 7.26306 151.28 8.65459V15.3925C151.28 15.5634 151.184 15.6855 151.004 15.7587C150.812 15.832 150.572 15.8686 150.272 15.8686C149.563 15.8686 149.203 15.7099 149.203 15.3925V15.3559C148.747 15.5756 148.218 15.7465 147.618 15.8808C147.018 16.015 146.477 16.0761 145.973 16.0761C145.469 16.0761 145.012 16.0028 144.58 15.8564C144.148 15.7099 143.764 15.4902 143.439 15.1972C143.115 14.9043 142.851 14.5259 142.671 14.062C142.479 13.5982 142.383 13.0489 142.383 12.402C142.383 11.8038 142.479 11.2668 142.683 10.7907C142.887 10.3269 143.175 9.92405 143.536 9.59448C143.896 9.26491 144.328 9.02078 144.832 8.84989C145.325 8.679 145.865 8.59356 146.441 8.59356C146.958 8.59356 147.45 8.64238 147.93 8.75224C148.41 8.84989 148.843 8.95975 149.215 9.0696V8.55694C149.215 7.94662 149.083 7.48277 148.819 7.18982C148.555 6.88466 148.122 6.73818 147.51 6.73818H144.148H144.124ZM146.513 10.4978C145.841 10.4978 145.325 10.6564 144.976 10.986C144.628 11.3156 144.448 11.7794 144.448 12.3775C144.448 12.8658 144.592 13.293 144.88 13.6348C145.168 13.9766 145.613 14.1597 146.213 14.1597C146.765 14.1597 147.294 14.0986 147.81 13.9644C148.326 13.8301 148.783 13.6958 149.191 13.5249V10.9494C148.783 10.8273 148.35 10.7175 147.906 10.632C147.462 10.5466 146.994 10.4978 146.513 10.4978Z" fill="#FF5F00"/>
<path d="M152.934 0.158203H155.011V15.3918C155.011 15.5627 154.915 15.6847 154.723 15.758C154.531 15.8312 154.279 15.8678 153.979 15.8678C153.27 15.8678 152.922 15.7092 152.922 15.3918V0.158203H152.934Z" fill="#FF5F00"/>
<path d="M170.372 11.7055C170.228 12.0228 170.047 12.267 169.831 12.4501C169.603 12.6332 169.303 12.7308 168.919 12.7308C168.535 12.7308 168.246 12.6332 168.006 12.4501C167.766 12.267 167.574 12.0106 167.43 11.7055L164.392 4.56474H164.356V15.3918C164.356 15.7092 163.996 15.8679 163.287 15.8679C162.579 15.8679 162.219 15.7092 162.219 15.3918V0.597656H164.872L168.931 10.0698L172.989 0.597656H175.631V15.3918C175.631 15.7092 175.271 15.8679 174.562 15.8679C174.25 15.8679 173.986 15.8312 173.794 15.758C173.602 15.6848 173.506 15.5627 173.506 15.3918V4.56474H173.446L170.384 11.7055H170.372Z" fill="#FF5F00"/>
<path d="M178.44 6.73818C178.272 6.73818 178.152 6.66494 178.08 6.51847C178.008 6.37199 177.972 6.12786 177.972 5.77388C177.972 5.41989 178.008 5.18797 178.08 5.0537C178.152 4.90722 178.272 4.83398 178.44 4.83398H181.946C183.231 4.83398 184.168 5.12694 184.732 5.70064C185.308 6.27434 185.597 7.26306 185.597 8.65459V15.3925C185.597 15.5634 185.501 15.6855 185.32 15.7587C185.14 15.832 184.888 15.8686 184.588 15.8686C183.88 15.8686 183.519 15.7099 183.519 15.3925V15.3559C183.063 15.5756 182.535 15.7465 181.934 15.8808C181.334 16.015 180.794 16.0761 180.289 16.0761C179.785 16.0761 179.329 16.0028 178.897 15.8564C178.464 15.7099 178.08 15.4902 177.756 15.1972C177.432 14.9043 177.167 14.5259 176.987 14.062C176.795 13.5982 176.699 13.0489 176.699 12.402C176.699 11.8038 176.795 11.2668 176.999 10.7907C177.204 10.3269 177.492 9.92405 177.852 9.59448C178.212 9.26491 178.644 9.02078 179.149 8.84989C179.641 8.679 180.181 8.59356 180.758 8.59356C181.274 8.59356 181.766 8.64238 182.247 8.75224C182.727 8.84989 183.159 8.95975 183.531 9.0696V8.55694C183.531 7.94662 183.399 7.48277 183.135 7.18982C182.871 6.88466 182.439 6.73818 181.826 6.73818H178.464H178.44ZM180.83 10.4978C180.157 10.4978 179.641 10.6564 179.293 10.986C178.945 11.3156 178.764 11.7794 178.764 12.3775C178.764 12.8658 178.909 13.293 179.197 13.6348C179.485 13.9766 179.929 14.1597 180.53 14.1597C181.082 14.1597 181.61 14.0986 182.126 13.9644C182.643 13.8301 183.099 13.6958 183.507 13.5249V10.9494C183.099 10.8273 182.679 10.7175 182.223 10.632C181.778 10.5466 181.31 10.4978 180.83 10.4978Z" fill="#FF5F00"/>
<path d="M189.292 15.3918C189.292 15.5627 189.196 15.6847 189.004 15.758C188.812 15.8312 188.56 15.8678 188.26 15.8678C187.551 15.8678 187.203 15.7092 187.203 15.3918V0.158203H189.292V9.00784H190.421L193.399 4.83325H195.788L192.054 9.94773L196.305 15.6725H193.975L190.481 10.8998H189.292V15.3796V15.3918Z" fill="#FF5F00"/>
<path d="M201.469 15.9403C200.653 15.9403 199.896 15.8305 199.2 15.5985C198.503 15.3788 197.903 15.0248 197.399 14.561C196.882 14.0972 196.486 13.5113 196.198 12.7911C195.91 12.0709 195.766 11.2287 195.766 10.2399C195.766 9.37328 195.886 8.57987 196.138 7.8719C196.39 7.16393 196.726 6.56581 197.146 6.06535C197.579 5.57709 198.083 5.1987 198.671 4.93015C199.272 4.66161 199.908 4.52734 200.593 4.52734C201.433 4.52734 202.166 4.68603 202.778 4.99119C203.39 5.30855 203.895 5.73578 204.279 6.27286C204.663 6.80994 204.951 7.44467 205.143 8.15264C205.323 8.87282 205.419 9.62962 205.419 10.4352C205.419 10.716 205.359 10.9357 205.227 11.0578C205.095 11.192 204.927 11.2531 204.735 11.2531H197.891C197.927 11.7291 198.047 12.1441 198.251 12.4859C198.455 12.8277 198.719 13.1206 199.032 13.3404C199.356 13.5723 199.716 13.731 200.124 13.8408C200.533 13.9507 200.953 13.9995 201.385 13.9995C201.817 13.9995 202.25 13.9385 202.646 13.8408C203.042 13.731 203.426 13.6089 203.786 13.4746C203.955 13.4014 204.087 13.4136 204.195 13.4746C204.303 13.5479 204.423 13.7676 204.567 14.1338C204.711 14.4878 204.759 14.7319 204.735 14.854C204.711 14.976 204.615 15.0859 204.447 15.1835C204.279 15.2934 204.075 15.391 203.835 15.4765C203.594 15.5619 203.33 15.6352 203.066 15.7084C202.79 15.7694 202.514 15.8183 202.238 15.8549C201.961 15.8915 201.697 15.9037 201.457 15.9037L201.469 15.9403ZM203.294 9.31225C203.246 8.39677 202.97 7.6888 202.49 7.18834C201.997 6.68788 201.385 6.44375 200.617 6.44375C200.172 6.44375 199.788 6.52919 199.464 6.68788C199.14 6.84656 198.864 7.06628 198.647 7.33482C198.419 7.60336 198.251 7.90852 198.119 8.2503C197.999 8.59207 197.915 8.94606 197.891 9.30005H203.306L203.294 9.31225Z" fill="#FF5F00"/>
<path d="M210.991 6.73867C210.691 6.73867 210.391 6.7997 210.115 6.93397C209.838 7.05604 209.598 7.23913 209.394 7.45885C209.19 7.67856 209.022 7.92269 208.902 8.17902C208.782 8.44757 208.722 8.71611 208.722 8.98465V15.393C208.722 15.5639 208.626 15.686 208.434 15.7592C208.241 15.8324 208.001 15.8691 207.713 15.8691C207.377 15.8691 207.125 15.8324 206.933 15.747C206.741 15.6615 206.645 15.5517 206.645 15.4052V4.83447H208.734V6.34807H208.758C208.998 5.88422 209.322 5.51803 209.73 5.23728C210.139 4.96874 210.619 4.82227 211.159 4.82227H213.056C213.237 4.82227 213.357 4.8833 213.429 5.01757C213.501 5.15184 213.537 5.40817 213.537 5.78657C213.537 6.14056 213.501 6.38468 213.429 6.51896C213.357 6.65323 213.237 6.72646 213.056 6.72646H211.015L210.991 6.73867Z" fill="#FF5F00"/>
<path d="M219.602 8.1285C219.602 6.95669 219.758 5.88252 220.094 4.93043C220.418 3.96612 220.874 3.14829 221.463 2.46473C222.051 1.78117 222.735 1.2563 223.54 0.877901C224.332 0.499502 225.209 0.316406 226.146 0.316406C227.082 0.316406 227.959 0.499502 228.763 0.877901C229.556 1.2563 230.252 1.78117 230.84 2.46473C231.429 3.14829 231.885 3.96612 232.209 4.93043C232.533 5.89473 232.689 6.95669 232.689 8.1285C232.689 9.30032 232.533 10.3623 232.209 11.3266C231.885 12.2909 231.429 13.1087 230.84 13.7923C230.252 14.4758 229.568 15.0007 228.763 15.3791C227.959 15.7575 227.094 15.9406 226.146 15.9406C225.197 15.9406 224.332 15.7575 223.54 15.3791C222.747 15.0007 222.051 14.4758 221.463 13.7923C220.874 13.1087 220.418 12.2909 220.094 11.3266C219.77 10.3623 219.602 9.30032 219.602 8.1285ZM230.492 8.1285C230.492 7.34729 230.408 6.61491 230.228 5.90694C230.048 5.19897 229.772 4.58865 229.411 4.03936C229.051 3.50228 228.595 3.07505 228.055 2.75769C227.514 2.44032 226.878 2.29384 226.158 2.29384C225.437 2.29384 224.777 2.45253 224.224 2.75769C223.684 3.07505 223.228 3.50228 222.856 4.03936C222.495 4.57644 222.219 5.19897 222.039 5.90694C221.859 6.61491 221.763 7.34729 221.763 8.1285C221.763 8.90971 221.859 9.6543 222.039 10.3623C222.219 11.0702 222.495 11.6928 222.856 12.2299C223.216 12.7547 223.672 13.182 224.224 13.4993C224.777 13.8167 225.413 13.9754 226.158 13.9754C226.902 13.9754 227.514 13.8167 228.055 13.4993C228.595 13.182 229.051 12.7669 229.411 12.2299C229.772 11.6928 230.048 11.0702 230.228 10.3623C230.408 9.6543 230.492 8.90971 230.492 8.1285Z" fill="#FF5F00"/>
<path d="M235.508 6.73697H233.539V4.83278H235.508V2.80651C235.508 2.0253 235.712 1.42719 236.121 0.999967C236.529 0.572743 237.081 0.365234 237.766 0.365234H239.579C239.891 0.365234 240.059 0.682601 240.059 1.32954C240.059 1.68353 240.023 1.92765 239.951 2.06192C239.879 2.19619 239.759 2.26943 239.579 2.26943H238.354C238.066 2.26943 237.862 2.37929 237.754 2.61121C237.646 2.84313 237.598 3.11167 237.598 3.41683V4.83278H239.735C240.047 4.83278 240.215 5.16235 240.215 5.80929C240.215 6.16327 240.179 6.4074 240.107 6.54167C240.035 6.67594 239.915 6.73697 239.735 6.73697H237.598V15.3913C237.598 15.5622 237.501 15.6843 237.297 15.7575C237.105 15.8307 236.853 15.8674 236.541 15.8674C236.229 15.8674 235.989 15.8307 235.796 15.7575C235.604 15.6843 235.508 15.5622 235.508 15.3913V6.73697Z" fill="#FF5F00"/>
<path d="M246.977 0.597656H253.184C253.797 0.597656 254.349 0.695307 254.853 0.878403C255.346 1.0615 255.778 1.33004 256.126 1.68403C256.474 2.0258 256.738 2.45303 256.931 2.94129C257.111 3.42954 257.207 3.99104 257.207 4.60136C257.207 5.37036 257.051 6.00509 256.714 6.52997C256.39 7.05484 255.982 7.45765 255.49 7.72619C255.766 7.83605 256.03 7.98253 256.282 8.17783C256.534 8.37313 256.75 8.60505 256.931 8.8858C257.111 9.16655 257.255 9.49612 257.375 9.87452C257.483 10.2529 257.531 10.7046 257.531 11.205C257.531 11.8398 257.435 12.4379 257.255 12.9872C257.075 13.5364 256.799 14.0003 256.438 14.4153C256.078 14.8181 255.634 15.1233 255.105 15.3552C254.589 15.5749 253.977 15.697 253.304 15.697H249.594C249.378 15.697 249.126 15.6115 248.838 15.4528C248.55 15.2942 248.237 15.0378 247.913 14.696C247.613 14.3787 247.373 14.0735 247.217 13.7684C247.061 13.4632 246.977 13.2069 246.977 13.0238V0.597656ZM253.076 6.7741C254.385 6.7741 255.045 6.04171 255.045 4.56474C255.045 3.93 254.841 3.42954 254.445 3.08776C254.049 2.74598 253.545 2.57509 252.932 2.57509H249.126V6.7741H253.076ZM253.04 13.6951C253.797 13.6951 254.385 13.4876 254.781 13.0604C255.178 12.6332 255.37 12.0106 255.37 11.205C255.37 10.3506 255.19 9.72804 254.841 9.33744C254.481 8.95904 253.941 8.76374 253.22 8.76374H249.126V12.9994C249.126 13.2679 249.174 13.451 249.27 13.5486C249.378 13.6463 249.534 13.6951 249.75 13.6951H253.04Z" fill="#FF5F00"/>
<path d="M260.077 6.73818C259.909 6.73818 259.789 6.66494 259.717 6.51847C259.645 6.37199 259.609 6.12786 259.609 5.77388C259.609 5.41989 259.645 5.18797 259.717 5.0537C259.789 4.90722 259.909 4.83398 260.077 4.83398H263.583C264.868 4.83398 265.792 5.12694 266.369 5.70064C266.945 6.27434 267.233 7.26306 267.233 8.65459V15.3925C267.233 15.5634 267.137 15.6855 266.957 15.7587C266.777 15.832 266.525 15.8686 266.225 15.8686C265.516 15.8686 265.156 15.7099 265.156 15.3925V15.3559C264.7 15.5756 264.171 15.7465 263.571 15.8808C262.971 16.015 262.43 16.0761 261.926 16.0761C261.422 16.0761 260.966 16.0028 260.533 15.8564C260.101 15.7099 259.717 15.4902 259.393 15.1972C259.068 14.9043 258.804 14.5259 258.624 14.062C258.432 13.5982 258.336 13.0489 258.336 12.402C258.336 11.8038 258.432 11.2668 258.636 10.7907C258.84 10.3269 259.128 9.92405 259.489 9.59448C259.849 9.26491 260.281 9.02078 260.785 8.84989C261.278 8.679 261.818 8.59356 262.394 8.59356C262.911 8.59356 263.403 8.64238 263.883 8.75224C264.364 8.84989 264.796 8.95975 265.168 9.0696V8.55694C265.168 7.94662 265.036 7.48277 264.772 7.18982C264.508 6.88466 264.075 6.73818 263.463 6.73818H260.101H260.077ZM262.466 10.4978C261.794 10.4978 261.278 10.6564 260.93 10.986C260.581 11.3156 260.401 11.7794 260.401 12.3775C260.401 12.8658 260.545 13.293 260.833 13.6348C261.122 13.9766 261.566 14.1597 262.166 14.1597C262.719 14.1597 263.247 14.0986 263.763 13.9644C264.28 13.8301 264.736 13.6958 265.144 13.5249V10.9494C264.736 10.8273 264.316 10.7175 263.859 10.632C263.415 10.5466 262.947 10.4978 262.466 10.4978Z" fill="#FF5F00"/>
<path d="M270.945 15.3918C270.945 15.5627 270.849 15.6847 270.657 15.758C270.464 15.8312 270.212 15.8678 269.912 15.8678C269.216 15.8678 268.855 15.7092 268.855 15.3918V0.158203H270.945V9.00784H272.073L275.051 4.83325H277.441L273.706 9.94773L277.945 15.6725H275.616L272.121 10.8998H270.933V15.3796L270.945 15.3918Z" fill="#FF5F00"/>
<path d="M283.118 15.9403C282.301 15.9403 281.545 15.8305 280.848 15.5985C280.152 15.3788 279.551 15.0248 279.047 14.561C278.531 14.0972 278.134 13.5113 277.846 12.7911C277.558 12.0709 277.414 11.2287 277.414 10.2399C277.414 9.37328 277.534 8.57987 277.786 7.8719C278.038 7.16393 278.375 6.56581 278.795 6.06535C279.227 5.57709 279.731 5.1987 280.32 4.93015C280.908 4.66161 281.557 4.52734 282.241 4.52734C283.081 4.52734 283.802 4.68603 284.414 4.99119C285.027 5.30855 285.531 5.73578 285.915 6.27286C286.299 6.80994 286.588 7.44467 286.78 8.15264C286.96 8.87282 287.056 9.62962 287.056 10.4352C287.056 10.716 286.996 10.9357 286.864 11.0578C286.732 11.192 286.576 11.2531 286.371 11.2531H279.527C279.563 11.7291 279.683 12.1441 279.888 12.4859C280.092 12.8277 280.356 13.1206 280.668 13.3404C280.98 13.5723 281.352 13.731 281.761 13.8408C282.169 13.9507 282.589 13.9995 283.021 13.9995C283.454 13.9995 283.886 13.9385 284.282 13.8408C284.678 13.731 285.063 13.6089 285.423 13.4746C285.591 13.4014 285.723 13.4136 285.831 13.4746C285.939 13.5479 286.059 13.7676 286.203 14.1338C286.347 14.4878 286.395 14.7319 286.371 14.854C286.347 14.976 286.251 15.0859 286.083 15.1835C285.915 15.2934 285.711 15.391 285.471 15.4765C285.231 15.5619 284.967 15.6352 284.702 15.7084C284.426 15.7694 284.15 15.8183 283.862 15.8549C283.586 15.8915 283.322 15.9037 283.081 15.9037L283.118 15.9403ZM284.931 9.31225C284.883 8.39677 284.618 7.6888 284.126 7.18834C283.634 6.68788 283.021 6.44375 282.253 6.44375C281.809 6.44375 281.424 6.52919 281.1 6.68788C280.776 6.84656 280.5 7.06628 280.272 7.33482C280.056 7.60336 279.876 7.90852 279.743 8.2503C279.623 8.59207 279.539 8.94606 279.515 9.30005H284.931V9.31225Z" fill="#FF5F00"/>
<path d="M292.64 6.73867C292.34 6.73867 292.052 6.7997 291.775 6.93397C291.499 7.05604 291.259 7.23913 291.043 7.45885C290.839 7.67856 290.671 7.92269 290.551 8.17902C290.431 8.44757 290.371 8.71611 290.371 8.98465V15.393C290.371 15.5639 290.274 15.686 290.082 15.7592C289.89 15.8324 289.65 15.8691 289.35 15.8691C289.014 15.8691 288.762 15.8324 288.569 15.747C288.377 15.6615 288.281 15.5517 288.281 15.4052V4.83447H290.371V6.34807H290.383C290.623 5.88422 290.947 5.51803 291.355 5.23728C291.763 4.96874 292.244 4.82227 292.796 4.82227H294.693C294.873 4.82227 294.993 4.8833 295.065 5.01757C295.137 5.15184 295.173 5.40817 295.173 5.78657C295.173 6.14056 295.137 6.38468 295.065 6.51896C294.993 6.65323 294.873 6.72646 294.693 6.72646H292.64V6.73867Z" fill="#FF5F00"/>
<path d="M296.553 20.2995C296.229 20.2995 296.073 19.9821 296.073 19.3352C296.073 18.9812 296.109 18.7371 296.181 18.6028C296.265 18.4685 296.373 18.3953 296.541 18.3953H297.093C297.622 18.3953 298.114 18.2366 298.546 17.9192C298.978 17.6019 299.291 17.138 299.483 16.5399L299.735 15.7831C299.519 15.7343 299.339 15.6244 299.195 15.4902C299.051 15.3437 298.93 15.124 298.834 14.8188L295.484 4.83398H297.61L299.651 11.3034C299.783 11.7062 299.903 12.109 300.035 12.4996C300.167 12.8902 300.299 13.3174 300.431 13.7813H300.455C300.599 13.3174 300.744 12.8902 300.864 12.4996C300.984 12.109 301.104 11.7062 301.236 11.3034L303.277 4.83398H305.426L301.428 16.8451C301.26 17.3333 301.056 17.7972 300.804 18.2122C300.551 18.6394 300.251 18.9934 299.903 19.2986C299.555 19.6037 299.147 19.8479 298.69 20.0309C298.234 20.2018 297.706 20.2995 297.117 20.2995H296.529H296.553Z" fill="#FF5F00"/>
<path d="M320.075 11.7055C319.931 12.0228 319.751 12.267 319.534 12.4501C319.306 12.6332 319.006 12.7308 318.622 12.7308C318.238 12.7308 317.95 12.6332 317.709 12.4501C317.469 12.267 317.277 12.0106 317.133 11.7055L314.095 4.56474H314.059V15.3918C314.059 15.7092 313.699 15.8679 312.991 15.8679C312.282 15.8679 311.922 15.7092 311.922 15.3918V0.597656H314.575L318.634 10.0698L322.692 0.597656H325.334V15.3918C325.334 15.7092 324.974 15.8679 324.265 15.8679C323.953 15.8679 323.689 15.8312 323.497 15.758C323.305 15.6848 323.209 15.5627 323.209 15.3918V4.56474H323.149L320.087 11.7055H320.075Z" fill="#FF5F00"/>
<path d="M328.147 6.73818C327.979 6.73818 327.859 6.66494 327.787 6.51847C327.715 6.37199 327.679 6.12786 327.679 5.77388C327.679 5.41989 327.715 5.18797 327.787 5.0537C327.859 4.90722 327.979 4.83398 328.147 4.83398H331.653C332.938 4.83398 333.863 5.12694 334.439 5.70064C335.015 6.27434 335.304 7.26306 335.304 8.65459V15.3925C335.304 15.5634 335.208 15.6855 335.027 15.7587C334.847 15.832 334.595 15.8686 334.295 15.8686C333.587 15.8686 333.226 15.7099 333.226 15.3925V15.3559C332.77 15.5756 332.242 15.7465 331.641 15.8808C331.041 16.015 330.501 16.0761 329.996 16.0761C329.492 16.0761 329.036 16.0028 328.604 15.8564C328.171 15.7099 327.787 15.4902 327.463 15.1972C327.139 14.9043 326.875 14.5259 326.694 14.062C326.502 13.5982 326.406 13.0489 326.406 12.402C326.406 11.8038 326.502 11.2668 326.706 10.7907C326.911 10.3269 327.199 9.92405 327.559 9.59448C327.919 9.26491 328.351 9.02078 328.856 8.84989C329.348 8.679 329.888 8.59356 330.465 8.59356C330.981 8.59356 331.473 8.64238 331.954 8.75224C332.434 8.84989 332.866 8.95975 333.238 9.0696V8.55694C333.238 7.94662 333.106 7.48277 332.842 7.18982C332.578 6.88466 332.146 6.73818 331.533 6.73818H328.171H328.147ZM330.537 10.4978C329.864 10.4978 329.348 10.6564 329 10.986C328.652 11.3156 328.471 11.7794 328.471 12.3775C328.471 12.8658 328.616 13.293 328.904 13.6348C329.192 13.9766 329.636 14.1597 330.237 14.1597C330.789 14.1597 331.317 14.0986 331.834 13.9644C332.35 13.8301 332.806 13.6958 333.214 13.5249V10.9494C332.806 10.8273 332.386 10.7175 331.93 10.632C331.485 10.5466 331.017 10.4978 330.537 10.4978Z" fill="#FF5F00"/>
<path d="M343.947 6.73914C343.707 6.6659 343.382 6.60487 342.998 6.54384C342.614 6.48281 342.242 6.4584 341.905 6.4584C341.389 6.4584 340.945 6.55605 340.537 6.75135C340.14 6.94665 339.792 7.21519 339.516 7.55697C339.24 7.89875 339.024 8.30156 338.88 8.7532C338.736 9.20484 338.663 9.7053 338.663 10.2424C338.663 10.7795 338.736 11.2677 338.868 11.7194C339.012 12.1832 339.216 12.586 339.492 12.9278C339.768 13.2696 340.104 13.5503 340.501 13.7456C340.897 13.9409 341.353 14.0386 341.869 14.0386C342.302 14.0386 342.722 13.9897 343.142 13.9165C343.562 13.8311 343.935 13.7456 344.259 13.6358C344.415 13.5747 344.547 13.5869 344.655 13.6358C344.775 13.6968 344.895 13.9165 345.039 14.3071C345.099 14.5146 345.147 14.6733 345.171 14.7954C345.195 14.9174 345.207 15.0151 345.195 15.0761C345.195 15.1494 345.159 15.1982 345.111 15.2348C345.063 15.2714 345.003 15.3202 344.931 15.3569C344.775 15.4545 344.571 15.5278 344.331 15.601C344.079 15.6742 343.815 15.7231 343.526 15.7719C343.238 15.8207 342.95 15.8573 342.662 15.8817C342.374 15.9061 342.098 15.9184 341.857 15.9184C341.065 15.9184 340.345 15.7841 339.708 15.5278C339.06 15.2714 338.507 14.893 338.039 14.4048C337.571 13.9165 337.211 13.3184 336.958 12.6104C336.706 11.9025 336.574 11.109 336.574 10.2302C336.574 9.35131 336.706 8.49686 336.97 7.78889C337.235 7.06872 337.607 6.4706 338.087 5.99455C338.567 5.5185 339.132 5.15231 339.78 4.89598C340.429 4.63964 341.125 4.51758 341.881 4.51758C342.374 4.51758 342.89 4.5664 343.406 4.65185C343.923 4.73729 344.331 4.85936 344.619 5.00583C344.787 5.07907 344.883 5.16452 344.907 5.29879C344.931 5.43306 344.871 5.67719 344.739 6.04338C344.595 6.40957 344.475 6.62928 344.367 6.70252C344.259 6.77576 344.115 6.77576 343.959 6.70252L343.947 6.73914Z" fill="#FF5F00"/>
<path d="M353.05 8.26325C353.05 7.66514 352.822 7.2135 352.366 6.90834C351.909 6.60318 351.357 6.4445 350.697 6.4445C350.408 6.4445 350.132 6.48112 349.856 6.56656C349.568 6.65201 349.328 6.74966 349.1 6.88393C348.871 7.0182 348.691 7.16468 348.547 7.33557C348.403 7.50646 348.343 7.67735 348.343 7.86044V15.3918C348.343 15.5627 348.247 15.6847 348.055 15.758C347.863 15.8312 347.611 15.8678 347.311 15.8678C347.01 15.8678 346.734 15.8312 346.542 15.758C346.35 15.6847 346.254 15.5627 346.254 15.3918V0.158203H348.343V5.78535C348.463 5.62667 348.619 5.45578 348.835 5.2971C349.052 5.13841 349.292 5.00414 349.568 4.89429C349.844 4.78443 350.144 4.69898 350.468 4.62575C350.793 4.55251 351.105 4.52809 351.441 4.52809C352.029 4.52809 352.546 4.63795 353.002 4.84546C353.458 5.05297 353.842 5.34592 354.167 5.69991C354.479 6.0661 354.731 6.48112 354.899 6.95717C355.067 7.43322 355.151 7.93368 355.151 8.47076V15.3674C355.151 15.5383 355.055 15.6603 354.863 15.7336C354.671 15.8068 354.419 15.8434 354.119 15.8434C353.794 15.8434 353.542 15.8068 353.35 15.7336C353.158 15.6603 353.062 15.5383 353.062 15.3674V8.26325H353.05Z" fill="#FF5F00"/>
<path d="M356.785 1.42815C356.785 1.03754 356.917 0.695765 357.181 0.415018C357.446 0.13427 357.758 0 358.13 0C358.502 0 358.838 0.146477 359.103 0.415018C359.367 0.695765 359.487 1.03754 359.487 1.42815C359.487 1.81875 359.355 2.16053 359.103 2.45349C358.838 2.73423 358.514 2.88071 358.13 2.88071C357.746 2.88071 357.446 2.73423 357.181 2.45349C356.917 2.17274 356.785 1.83096 356.785 1.42815ZM357.073 4.60181H359.163V15.3923C359.163 15.5632 359.079 15.6852 358.886 15.7585C358.706 15.8317 358.454 15.8683 358.142 15.8683C357.83 15.8683 357.566 15.8317 357.374 15.7585C357.181 15.6852 357.073 15.5632 357.073 15.3923V4.60181Z" fill="#FF5F00"/>
<path d="M361.117 4.83397H363.122V5.89593C363.23 5.74945 363.387 5.59077 363.579 5.43208C363.759 5.2734 363.987 5.12692 364.251 4.99265C364.515 4.85838 364.815 4.74852 365.152 4.66308C365.476 4.57763 365.848 4.54102 366.232 4.54102C366.773 4.54102 367.265 4.63867 367.709 4.83397C368.153 5.02927 368.55 5.31002 368.874 5.664C369.198 6.01799 369.45 6.44521 369.63 6.93347C369.81 7.42173 369.894 7.97101 369.894 8.55692V15.3925C369.894 15.5634 369.798 15.6855 369.606 15.7587C369.414 15.8319 369.162 15.8686 368.862 15.8686C368.538 15.8686 368.286 15.8319 368.093 15.7587C367.901 15.6855 367.805 15.5634 367.805 15.3925V8.325C367.805 7.99543 367.733 7.71468 367.601 7.47055C367.469 7.22642 367.289 7.03112 367.073 6.87244C366.857 6.71375 366.605 6.6039 366.34 6.53066C366.064 6.45742 365.788 6.43301 365.488 6.43301C365.188 6.43301 364.911 6.46963 364.635 6.55507C364.359 6.64052 364.119 6.75037 363.903 6.88464C363.687 7.01891 363.519 7.1776 363.387 7.36069C363.254 7.54379 363.194 7.71468 363.194 7.89778V15.3803C363.194 15.5512 363.098 15.6733 362.906 15.7465C362.714 15.8197 362.462 15.8563 362.162 15.8563C361.862 15.8563 361.585 15.8197 361.405 15.7465C361.213 15.6733 361.117 15.5512 361.117 15.3803V4.83397Z" fill="#FF5F00"/>
<path d="M376.825 15.9403C376.008 15.9403 375.252 15.8305 374.555 15.5985C373.859 15.3788 373.258 15.0248 372.754 14.561C372.238 14.0972 371.842 13.5113 371.553 12.7911C371.265 12.0709 371.121 11.2287 371.121 10.2399C371.121 9.37328 371.241 8.57987 371.493 7.8719C371.746 7.16393 372.082 6.56581 372.502 6.06535C372.922 5.57709 373.439 5.1987 374.027 4.93015C374.615 4.66161 375.264 4.52734 375.948 4.52734C376.789 4.52734 377.521 4.68603 378.121 4.99119C378.734 5.30855 379.238 5.73578 379.622 6.27286C380.018 6.80994 380.295 7.44467 380.487 8.15264C380.667 8.87282 380.763 9.62962 380.763 10.4352C380.763 10.716 380.703 10.9357 380.571 11.0578C380.439 11.192 380.271 11.2531 380.067 11.2531H373.222C373.258 11.7291 373.378 12.1441 373.583 12.4859C373.787 12.8277 374.051 13.1206 374.363 13.3404C374.687 13.5723 375.047 13.731 375.456 13.8408C375.864 13.9507 376.284 13.9995 376.716 13.9995C377.149 13.9995 377.581 13.9385 377.977 13.8408C378.374 13.731 378.758 13.6089 379.118 13.4746C379.286 13.4014 379.418 13.4136 379.526 13.4746C379.634 13.5479 379.754 13.7676 379.898 14.1338C380.043 14.4878 380.091 14.7319 380.067 14.854C380.042 14.976 379.946 15.0859 379.778 15.1835C379.61 15.2934 379.406 15.391 379.166 15.4765C378.926 15.5619 378.662 15.6352 378.398 15.7084C378.121 15.7694 377.845 15.8183 377.569 15.8549C377.293 15.8915 377.029 15.9037 376.789 15.9037L376.825 15.9403ZM378.638 9.31225C378.59 8.39677 378.313 7.6888 377.833 7.18834C377.341 6.68788 376.728 6.44375 375.96 6.44375C375.516 6.44375 375.132 6.52919 374.807 6.68788C374.483 6.84656 374.207 7.06628 373.979 7.33482C373.751 7.60336 373.583 7.90852 373.451 8.2503C373.33 8.59207 373.246 8.94606 373.222 9.30005H378.638V9.31225Z" fill="#FF5F00"/>
<path d="M387.512 15.6726V13.6951H389.289V2.57509H387.512V0.597656H392.867C393.035 0.597656 393.143 0.670895 393.215 0.817371C393.287 0.963848 393.323 1.22018 393.323 1.57417C393.323 2.24552 393.167 2.57509 392.867 2.57509H391.426V13.6951H392.867C393.035 13.6951 393.143 13.7684 393.215 13.9148C393.287 14.0613 393.323 14.3176 393.323 14.6716C393.323 15.343 393.167 15.6726 392.867 15.6726H387.512Z" fill="#FF5F00"/>
<path d="M394.75 4.83397H396.755V5.89593C396.875 5.74945 397.019 5.59077 397.211 5.43208C397.392 5.2734 397.62 5.12692 397.884 4.99265C398.148 4.85838 398.448 4.74852 398.784 4.66308C399.109 4.57763 399.481 4.54102 399.877 4.54102C400.417 4.54102 400.91 4.63867 401.354 4.83397C401.798 5.02927 402.195 5.31002 402.519 5.664C402.843 6.01799 403.095 6.44521 403.275 6.93347C403.455 7.42173 403.539 7.97101 403.539 8.55692V15.3925C403.539 15.5634 403.443 15.6855 403.251 15.7587C403.059 15.8319 402.807 15.8686 402.507 15.8686C402.182 15.8686 401.93 15.8319 401.738 15.7587C401.546 15.6855 401.45 15.5634 401.45 15.3925V8.325C401.45 7.99543 401.378 7.71468 401.246 7.47055C401.114 7.22642 400.934 7.03112 400.718 6.87244C400.501 6.71375 400.249 6.6039 399.985 6.53066C399.709 6.45742 399.433 6.43301 399.133 6.43301C398.832 6.43301 398.556 6.46963 398.28 6.55507C398.004 6.64052 397.764 6.75037 397.548 6.88464C397.332 7.01891 397.163 7.1776 397.031 7.36069C396.899 7.54379 396.839 7.71468 396.839 7.89778V15.3803C396.839 15.5512 396.743 15.6733 396.551 15.7465C396.359 15.8197 396.107 15.8563 395.807 15.8563C395.506 15.8563 395.23 15.8197 395.05 15.7465C394.858 15.6733 394.762 15.5512 394.762 15.3803V4.83397H394.75Z" fill="#FF5F00"/>
<path d="M419.077 15.6726L414.118 9.25199H412.797V15.3918C412.797 15.7092 412.437 15.8679 411.729 15.8679C411.02 15.8679 410.66 15.7092 410.66 15.3918V0.597656H412.809V7.26235H414.094L418.429 0.597656H420.782L415.835 8.15342L421.551 15.6848H419.077V15.6726Z" fill="#FF5F00"/>
<path d="M427.242 15.9418C426.425 15.9418 425.705 15.7953 425.056 15.5024C424.42 15.2094 423.879 14.8066 423.435 14.2939C422.991 13.7813 422.655 13.1831 422.427 12.4874C422.186 11.7916 422.066 11.047 422.066 10.2536C422.066 9.46019 422.186 8.72781 422.427 8.03205C422.667 7.34849 423.003 6.73817 423.435 6.2255C423.879 5.71283 424.408 5.29781 425.056 4.99265C425.693 4.68749 426.425 4.54102 427.242 4.54102C428.058 4.54102 428.778 4.68749 429.415 4.99265C430.051 5.29781 430.592 5.70062 431.036 6.2255C431.48 6.75037 431.816 7.34849 432.056 8.03205C432.297 8.72781 432.417 9.46019 432.417 10.2536C432.417 11.047 432.297 11.7916 432.056 12.4874C431.816 13.1831 431.48 13.7813 431.036 14.2939C430.592 14.8066 430.051 15.2094 429.415 15.5024C428.778 15.7953 428.046 15.9418 427.242 15.9418ZM427.242 14.062C427.722 14.062 428.154 13.9644 428.538 13.7691C428.923 13.5738 429.247 13.293 429.511 12.9512C429.775 12.6094 429.979 12.1944 430.123 11.7306C430.267 11.2667 430.339 10.7785 430.339 10.2536C430.339 9.72873 430.267 9.25269 430.123 8.78884C429.979 8.33721 429.775 7.93439 429.511 7.58041C429.247 7.22642 428.923 6.95788 428.538 6.75037C428.154 6.54287 427.722 6.44521 427.242 6.44521C426.761 6.44521 426.317 6.54287 425.933 6.75037C425.549 6.95788 425.224 7.22642 424.972 7.58041C424.708 7.92219 424.504 8.325 424.372 8.78884C424.228 9.24048 424.168 9.72873 424.168 10.2536C424.168 10.7785 424.24 11.2667 424.372 11.7306C424.516 12.1944 424.72 12.5972 424.972 12.9512C425.224 13.293 425.549 13.5738 425.933 13.7691C426.317 13.9644 426.749 14.062 427.242 14.062Z" fill="#FF5F00"/>
<path d="M438.062 6.73867C437.762 6.73867 437.473 6.7997 437.197 6.93397C436.921 7.05604 436.681 7.23913 436.465 7.45885C436.261 7.67856 436.093 7.92269 435.972 8.17902C435.852 8.44757 435.792 8.71611 435.792 8.98465V15.393C435.792 15.5639 435.696 15.686 435.504 15.7592C435.312 15.8324 435.072 15.8691 434.772 15.8691C434.436 15.8691 434.183 15.8324 433.991 15.747C433.799 15.6615 433.703 15.5517 433.703 15.4052V4.83447H435.792V6.34807H435.816C436.057 5.88422 436.381 5.51803 436.789 5.23728C437.197 4.96874 437.678 4.82227 438.23 4.82227H440.127C440.307 4.82227 440.427 4.8833 440.499 5.01757C440.571 5.15184 440.607 5.40817 440.607 5.78657C440.607 6.14056 440.571 6.38468 440.499 6.51896C440.427 6.65323 440.307 6.72646 440.127 6.72646H438.074L438.062 6.73867Z" fill="#FF5F00"/>
<path d="M446.262 15.9403C445.446 15.9403 444.689 15.8305 443.993 15.5985C443.296 15.3788 442.696 15.0248 442.192 14.561C441.675 14.0972 441.279 13.5113 440.991 12.7911C440.703 12.0709 440.559 11.2287 440.559 10.2399C440.559 9.37328 440.679 8.57987 440.931 7.8719C441.183 7.16393 441.519 6.56581 441.939 6.06535C442.36 5.57709 442.876 5.1987 443.464 4.93015C444.053 4.66161 444.701 4.52734 445.385 4.52734C446.226 4.52734 446.958 4.68603 447.571 4.99119C448.183 5.30855 448.688 5.73578 449.072 6.27286C449.456 6.80994 449.744 7.44467 449.936 8.15264C450.116 8.87282 450.212 9.62962 450.212 10.4352C450.212 10.716 450.152 10.9357 450.02 11.0578C449.888 11.192 449.72 11.2531 449.528 11.2531H442.684C442.72 11.7291 442.84 12.1441 443.044 12.4859C443.248 12.8277 443.512 13.1206 443.825 13.3404C444.137 13.5723 444.509 13.731 444.917 13.8408C445.325 13.9507 445.746 13.9995 446.178 13.9995C446.61 13.9995 447.043 13.9385 447.439 13.8408C447.835 13.731 448.219 13.6089 448.579 13.4746C448.748 13.4014 448.88 13.4136 448.988 13.4746C449.096 13.5479 449.216 13.7676 449.36 14.1338C449.504 14.4878 449.552 14.7319 449.528 14.854C449.504 14.976 449.408 15.0859 449.24 15.1835C449.072 15.2934 448.868 15.391 448.627 15.4765C448.387 15.5619 448.123 15.6352 447.859 15.7084C447.583 15.7694 447.307 15.8183 447.019 15.8549C446.742 15.8915 446.478 15.9037 446.238 15.9037L446.262 15.9403ZM448.075 9.31225C448.027 8.39677 447.751 7.6888 447.271 7.18834C446.778 6.68788 446.166 6.44375 445.398 6.44375C444.953 6.44375 444.569 6.52919 444.245 6.68788C443.921 6.84656 443.644 7.06628 443.416 7.33482C443.188 7.60336 443.02 7.90852 442.888 8.2503C442.768 8.59207 442.684 8.94606 442.66 9.30005H448.075V9.31225Z" fill="#FF5F00"/>
<path d="M452.647 6.73818C452.479 6.73818 452.359 6.66494 452.287 6.51847C452.215 6.37199 452.179 6.12786 452.179 5.77388C452.179 5.41989 452.215 5.18797 452.287 5.0537C452.359 4.90722 452.479 4.83398 452.647 4.83398H456.141C457.426 4.83398 458.363 5.12694 458.939 5.70064C459.515 6.27434 459.804 7.26306 459.804 8.65459V15.3925C459.804 15.5634 459.708 15.6855 459.527 15.7587C459.347 15.832 459.095 15.8686 458.795 15.8686C458.087 15.8686 457.726 15.7099 457.726 15.3925V15.3559C457.27 15.5756 456.742 15.7465 456.141 15.8808C455.541 16.015 455.001 16.0761 454.496 16.0761C453.992 16.0761 453.536 16.0028 453.104 15.8564C452.671 15.7099 452.287 15.4902 451.963 15.1972C451.639 14.9043 451.375 14.5259 451.194 14.062C451.002 13.5982 450.906 13.0489 450.906 12.402C450.906 11.8038 451.002 11.2668 451.206 10.7907C451.411 10.3269 451.699 9.92405 452.059 9.59448C452.419 9.26491 452.851 9.02078 453.356 8.84989C453.848 8.679 454.388 8.59356 454.965 8.59356C455.481 8.59356 455.973 8.64238 456.454 8.75224C456.934 8.84989 457.366 8.95975 457.738 9.0696V8.55694C457.738 7.94662 457.606 7.48277 457.342 7.18982C457.078 6.88466 456.646 6.73818 456.033 6.73818H452.671H452.647ZM455.037 10.4978C454.364 10.4978 453.848 10.6564 453.5 10.986C453.152 11.3156 452.971 11.7794 452.971 12.3775C452.971 12.8658 453.116 13.293 453.404 13.6348C453.692 13.9766 454.136 14.1597 454.737 14.1597C455.277 14.1597 455.817 14.0986 456.334 13.9644C456.85 13.8301 457.306 13.6958 457.714 13.5249V10.9494C457.306 10.8273 456.886 10.7175 456.43 10.632C455.985 10.5466 455.517 10.4978 455.037 10.4978Z" fill="#FF5F00"/>
</g>
<defs>
<clipPath id="clip0_976_26681">
<rect width="470" height="66" fill="white"/>
</clipPath>
</defs>
</svg>
