<svg width="200" height="200" viewBox="0 0 200 200" fill="none" xmlns="http://www.w3.org/2000/svg">
<path d="M99.994 101C99.994 109.043 97.6203 116.531 93.5352 122.803" stroke="black" stroke-linecap="round"/>
<path d="M91.4899 106.336C90.6356 110.582 88.7126 115.304 85.7207 119.071" stroke="black" stroke-linecap="round"/>
<path d="M84.0025 101C84.0025 106.538 81.8875 109.442 79.541 112.077" stroke="black" stroke-linecap="round"/>
<path d="M108.003 101C108.003 108.991 106.05 116.526 102.596 123.154" stroke="black" stroke-linecap="round"/>
<path d="M116.001 101C116.001 107.814 114.783 114.344 112.555 120.385" stroke="black" stroke-linecap="round"/>
<path d="M124.001 101C124.001 105.572 123.079 111.154 121.232 115.769" stroke="black" stroke-linecap="round"/>
<path d="M124 101C124 87.7451 113.255 77 99.9999 77C97.2292 77 94.5681 77.4695 92.0919 78.3333M84.9138 82.3333C79.4765 86.7331 76.0001 93.4605 76.0001 101C76.0001 102.087 76 103.666 76 103.666" stroke="black" stroke-linecap="round"/>
<path d="M116.002 101C116.002 98.6207 115.482 96.3627 114.551 94.3333M84.002 101C84.002 92.1634 91.1653 85 100.002 85C103.728 85 107.158 86.2741 109.877 88.4104" stroke="black" stroke-linecap="round"/>
<path d="M107.999 100.996C107.999 96.5778 104.417 92.9961 99.9987 92.9961C96.0347 92.9961 92.7441 95.8791 92.1094 99.6627" stroke="black" stroke-linecap="round"/>
<path d="M58.0032 155.572C57.7298 155.611 57.5399 155.864 57.579 156.137L58.2162 160.592C58.2553 160.865 58.5086 161.055 58.782 161.016C59.0553 160.977 59.2452 160.724 59.2061 160.45L58.6397 156.491L62.5994 155.924C62.8728 155.885 63.0627 155.632 63.0236 155.359C62.9845 155.085 62.7312 154.895 62.4578 154.934L58.0032 155.572ZM155.666 58.3741C176.075 85.5962 173.901 124.386 149.143 149.143L149.85 149.85C174.964 124.736 177.17 85.3887 156.466 57.7743L155.666 58.3741ZM149.143 149.143C124.386 173.901 85.5959 176.076 58.3739 155.667L57.7741 156.467C85.3885 177.17 124.736 174.965 149.85 149.85L149.143 149.143Z" fill="#222222"/>
<path d="M142.419 43.8628C142.458 44.1362 142.268 44.3895 141.995 44.4286L137.54 45.0657C137.267 45.1048 137.013 44.9149 136.974 44.6416C136.935 44.3682 137.125 44.1149 137.398 44.0758L141.358 43.5094L140.792 39.5497C140.753 39.2764 140.942 39.0231 141.216 38.984C141.489 38.9449 141.742 39.1348 141.782 39.4081L142.419 43.8628ZM141.624 44.3336C114.402 23.9247 75.6123 26.0995 50.8548 50.857L50.1477 50.1499C75.262 25.0355 114.609 22.8304 142.224 43.5335L141.624 44.3336ZM50.8548 50.857C26.0973 75.6145 23.9225 114.404 44.3315 141.626L43.5314 142.226C22.8282 114.611 25.0333 75.2642 50.1477 50.1499L50.8548 50.857Z" fill="#222222"/>
</svg>
