<svg width="1070" height="438" viewBox="0 0 1070 438" fill="none" xmlns="http://www.w3.org/2000/svg">
<path d="M436.551 429.438H430.723V426.031H429.52V429.438H423.832V430.453H436.551V429.438ZM424.332 425.172L424.879 426.188C427.004 425.75 429.215 424.312 430.129 422.32C431.028 424.32 433.262 425.75 435.379 426.188L435.926 425.172C433.504 424.758 430.762 422.711 430.754 420.391V419.328H429.473V420.391C429.465 422.727 426.762 424.758 424.332 425.172ZM448.954 418.375H447.719V432.297H448.954V418.375ZM438.313 428.938H444.876V419.562H443.673V423.234H439.532V419.562H438.313V428.938ZM439.532 427.906V424.219H443.673V427.906H439.532ZM455.872 422.641V420.828H458.997V419.812H451.434V420.828H454.669V422.641C454.653 425.008 452.934 427.648 450.934 428.625L451.684 429.594C453.239 428.797 454.63 427 455.27 424.961C455.895 426.844 457.216 428.484 458.778 429.25L459.481 428.281C457.466 427.32 455.856 424.867 455.872 422.641ZM460.7 432.266H461.919V425.047H464.247V424H461.919V418.375H460.7V432.266ZM480.146 418.375H478.927V432.266H480.146V418.375ZM469.599 428.688H470.724C472.95 428.688 475.146 428.516 477.614 428L477.442 426.953C475.114 427.445 472.927 427.609 470.802 427.625V419.75H469.599V428.688ZM495.079 429.391H482.361V430.422H495.079V429.391ZM482.986 425.984L483.501 426.969C485.587 426.539 487.822 425.148 488.712 423.219C489.603 425.141 491.845 426.5 493.97 426.906L494.47 425.938C492.072 425.539 489.337 423.648 489.329 421.438V420.797H493.986V419.781H483.408V420.797H488.064V421.438C488.064 423.648 485.337 425.586 482.986 425.984ZM508.732 424.828H496.013V425.797H508.732V424.828ZM497.544 427.828H505.919V429.016H497.56V432.078H507.591V431.188H498.794V429.859H507.138V426.906H497.544V427.828ZM497.622 419.688H505.857V420.828H497.669V423.781H507.341V422.891H498.888V421.672H507.091V418.797H497.622V419.688ZM524.412 418.391H523.193V428.594H524.412V423.625H526.506V422.594H524.412V418.391ZM514.146 426.25H520.615V419.391H519.396V421.734H515.349V419.391H514.146V426.25ZM515.349 425.25V422.703H519.396V425.25H515.349ZM515.724 431.969H525.052V430.938H516.927V427.594H515.724V431.969ZM531.049 419.219C528.971 419.211 527.432 420.57 527.439 422.516C527.432 424.445 528.971 425.805 531.049 425.797C532.221 425.805 533.221 425.359 533.861 424.625H537.502V426.609H538.736V418.375H537.502V420.391H533.861C533.213 419.656 532.221 419.211 531.049 419.219ZM528.611 422.516C528.611 421.195 529.627 420.273 531.049 420.281C532.424 420.273 533.455 421.195 533.455 422.516C533.455 423.805 532.424 424.758 531.049 424.75C529.627 424.758 528.611 423.805 528.611 422.516ZM529.471 429.578C529.463 431.266 531.244 432.234 534.127 432.234C537.002 432.234 538.783 431.266 538.783 429.578C538.783 427.906 537.002 426.938 534.127 426.938C531.244 426.938 529.463 427.906 529.471 429.578ZM530.674 429.578C530.666 428.523 531.994 427.898 534.127 427.891C536.26 427.898 537.588 428.523 537.58 429.578C537.588 430.625 536.26 431.258 534.127 431.25C531.994 431.258 530.666 430.625 530.674 429.578ZM534.447 421.391H537.502V423.609H534.455C534.572 423.273 534.642 422.906 534.642 422.516C534.642 422.109 534.572 421.734 534.447 421.391ZM551.748 418.391H550.529V428.797H551.748V424H553.842V422.969H551.748V418.391ZM540.92 421.094H549.201V420.094H545.67V418.391H544.451V420.094H540.92V421.094ZM541.717 424.453C541.709 426.016 543.053 427.023 545.061 427.016C547.045 427.023 548.389 426.016 548.404 424.453C548.389 422.875 547.045 421.859 545.061 421.859C543.053 421.859 541.709 422.875 541.717 424.453ZM542.889 424.453C542.881 423.461 543.748 422.82 545.061 422.828C546.357 422.82 547.232 423.461 547.248 424.453C547.232 425.43 546.357 426.062 545.061 426.047C543.748 426.062 542.881 425.43 542.889 424.453ZM543.061 431.969H552.389V430.938H544.264V427.969H543.061V431.969ZM569.928 418.391H568.694V420.562H565.084C564.436 419.758 563.42 419.273 562.241 419.266C560.163 419.273 558.623 420.711 558.631 422.75C558.623 424.781 560.163 426.219 562.241 426.219C563.428 426.219 564.459 425.727 565.1 424.906H568.694V428.656H569.928V418.391ZM559.803 422.75C559.803 421.367 560.819 420.367 562.241 420.359C563.608 420.367 564.647 421.367 564.647 422.75C564.647 424.141 563.608 425.133 562.241 425.125C560.819 425.133 559.803 424.141 559.803 422.75ZM561.006 431.969H570.319V430.938H562.241V427.578H561.006V431.969ZM565.639 421.578H568.694V423.891H565.647C565.764 423.539 565.834 423.156 565.834 422.75C565.834 422.328 565.764 421.938 565.639 421.578ZM583.065 419.281H573.674V420.297H581.846V420.5C581.846 421.797 581.846 423.25 581.424 425.25H572.081V426.266H577.768V432.297H579.003V426.266H584.737V425.25H582.667C583.065 423.258 583.065 421.812 583.065 420.5V419.281ZM601.464 418.375H600.261V423.984H598.339V418.75H597.167V431.578H598.339V425H600.261V432.266H601.464V418.375ZM589.62 428.422L590.339 429.281C594.331 427.055 595.573 423.719 595.589 420.188H590.151V421.203H594.386C594.175 424.078 592.847 426.617 589.62 428.422ZM605.069 418.969H603.866V425.016H610.335V418.969H609.116V420.969H605.069V418.969ZM605.069 424.016V421.922H609.116V424.016H605.069ZM605.272 427.203H612.913V428.641H605.304V432.109H614.647V431.109H606.507V429.578H614.132V426.219H605.272V427.203ZM612.913 425.562H614.132V422.422H616.226V421.391H614.132V418.375H612.913V425.562ZM624.859 422.656V421.969H627.468V420.953H624.874V418.891H623.702V420.953H621.062V421.969H623.702V422.656C623.695 424.953 622.577 427.391 620.687 428.484L621.421 429.422C622.812 428.586 623.804 427.023 624.296 425.242C624.804 426.914 625.804 428.352 627.187 429.109L627.89 428.188C625.999 427.18 624.867 424.891 624.859 422.656ZM626.515 424.906H628.702V431.547H629.859V418.719H628.702V423.859H626.515V424.906ZM631.499 432.266H632.671V418.375H631.499V432.266ZM646.355 418.375H645.183V432.266H646.355V418.375ZM634.449 428.375L635.199 429.266C637.824 427.695 639.347 425.617 640.019 423.266H642.371V425.734H639.793V426.75H642.371V431.562H643.543V418.75H642.371V422.25H640.261C640.386 421.57 640.449 420.867 640.449 420.156H635.074V421.172H639.23C638.988 424.078 637.472 426.586 634.449 428.375Z" fill="black"/>
<path fill-rule="evenodd" clip-rule="evenodd" d="M362.546 273.204C331.894 336.977 266.688 381 191.2 381C86.2661 381 1.2002 295.934 1.2002 191C1.2002 86.0659 86.2661 1 191.2 1C266.688 1 331.894 45.023 362.546 108.796C350.656 133.694 344 161.57 344 191C344 220.43 350.656 248.306 362.546 273.204ZM363.1 274.355C332.144 338.076 266.802 382 191.2 382C85.7138 382 0.200195 296.486 0.200195 191C0.200195 85.5136 85.7138 0 191.2 0C266.802 0 332.144 43.9242 363.1 107.645C394.056 43.9242 459.398 0 535 0C610.602 0 675.944 43.9243 706.9 107.645C737.856 43.9243 803.198 0 878.8 0C984.286 0 1069.8 85.5136 1069.8 191C1069.8 296.486 984.286 382 878.8 382C803.198 382 737.856 338.076 706.9 274.355C675.944 338.076 610.602 382 535 382C459.398 382 394.056 338.076 363.1 274.355ZM363.655 108.796C394.306 45.023 459.512 1 535 1C610.488 1 675.694 45.0231 706.345 108.796C694.456 133.694 687.8 161.57 687.8 191C687.8 220.43 694.456 248.306 706.345 273.204C675.694 336.977 610.488 381 535 381C459.512 381 394.306 336.977 363.655 273.204C375.544 248.306 382.2 220.43 382.2 191C382.2 161.57 375.544 133.694 363.655 108.796ZM363.1 109.96C374.709 134.541 381.2 162.012 381.2 191C381.2 219.988 374.709 247.459 363.1 272.04C351.491 247.459 345 219.988 345 191C345 162.012 351.491 134.541 363.1 109.96ZM878.8 1C803.312 1 738.106 45.0231 707.454 108.796C719.344 133.694 726 161.57 726 191C726 220.43 719.344 248.306 707.454 273.204C738.106 336.977 803.312 381 878.8 381C983.734 381 1068.8 295.934 1068.8 191C1068.8 86.0659 983.734 1 878.8 1ZM725 191C725 162.012 718.509 134.541 706.9 109.96C695.291 134.541 688.8 162.012 688.8 191C688.8 219.988 695.291 247.459 706.9 272.04C718.509 247.459 725 219.988 725 191Z" fill="#4A4A4A"/>
<circle cx="765.031" cy="342.969" r="5.81304" fill="#4A4A4A"/>
<circle cx="598.944" cy="12.4566" r="5.81304" fill="#4A4A4A"/>
<circle cx="311.613" cy="337.987" r="5.81304" fill="#4A4A4A"/>
<path d="M131.001 173.365H128.775V188.74H131.001V173.365ZM113.705 184.006L114.9 185.764C117.361 184.814 119.177 182.869 120.103 180.432C121.041 182.705 122.834 184.486 125.259 185.389L126.408 183.607C123.162 182.482 121.216 179.67 121.228 176.6V174.514H118.955V176.6C118.943 179.764 116.998 182.787 113.705 184.006ZM117.267 193.896H131.634V192.092H119.517V187.287H117.267V193.896ZM152.113 173.342H149.98V194.342H152.113V173.342ZM133.785 188.553L135.144 190.217C137.195 188.939 138.625 186.596 139.375 183.854C140.113 186.385 141.484 188.529 143.488 189.725L144.824 188.084C141.871 186.385 140.418 182.787 140.418 179.201V177.514H144.027V175.709H134.418V177.514H138.285V179.201C138.273 182.939 136.761 186.76 133.785 188.553ZM142.48 182.6H145.738V193.287H147.847V173.787H145.738V180.771H142.48V182.6ZM173.74 183.396H154.592V185.178H163.053V187.428H156.889V194.084H171.396V187.428H165.256V185.178H173.74V183.396ZM156.35 175.803H159.42V179.811H156.443V181.615H171.842V179.811H168.889V175.803H171.936V173.998H156.35V175.803ZM159.092 192.279V189.186H169.24V192.279H159.092ZM161.623 179.811V175.803H166.662V179.811H161.623ZM198.221 173.365H195.995V176.529H190.756C189.772 175.357 188.26 174.643 186.526 174.631C183.362 174.654 181.006 176.869 181.018 179.975C181.006 183.057 183.362 185.271 186.526 185.271C188.272 185.271 189.795 184.557 190.78 183.373H195.995V188.834H198.221V173.365ZM183.151 179.975C183.139 177.994 184.557 176.635 186.526 176.623C188.413 176.635 189.854 177.994 189.854 179.975C189.854 181.955 188.413 183.314 186.526 183.303C184.557 183.314 183.139 181.955 183.151 179.975ZM184.581 193.896H198.784V192.092H186.807V187.217H184.581V193.896ZM191.741 178.334H195.995V181.568H191.752C191.905 181.076 191.987 180.537 191.987 179.975C191.987 179.389 191.905 178.85 191.741 178.334ZM217.926 174.654H203.559V176.482H215.723V176.506C215.712 178.463 215.712 180.654 215.091 183.654H201.216V185.482H209.606V194.365H211.856V185.482H220.364V183.654H217.341C217.926 180.666 217.926 178.498 217.926 176.506V174.654ZM245.314 173.342H243.181V181.639H240.579V173.904H238.493V193.334H240.579V183.443H243.181V194.342H245.314V173.342ZM227.267 188.342L228.556 189.889C234.568 186.502 236.396 181.533 236.407 176.014H228.157V177.842H234.239C233.888 182.119 231.931 185.693 227.267 188.342ZM250.839 174.232H248.66V183.396H258.55V174.232H256.347V177.092H250.839V174.232ZM250.769 186.818H262.136V188.717H250.816V194.131H265.066V192.35H252.996V190.357H264.339V185.061H250.769V186.818ZM250.839 181.615V178.803H256.347V181.615H250.839ZM262.113 184.146H264.339V179.553H267.386V177.748H264.339V173.342H262.113V184.146Z" fill="black"/>
<path d="M466.502 178.686V175.1H464.252V178.686C464.252 182.693 461.932 186.713 458.627 188.178L459.987 190.053C462.506 188.822 464.44 186.291 465.413 183.209C466.397 186.08 468.307 188.436 470.721 189.584L472.057 187.826C468.799 186.385 466.479 182.518 466.502 178.686ZM473.956 194.389H476.182V173.342H473.956V194.389ZM497.317 173.342H495.184V194.342H497.317V173.342ZM478.989 188.553L480.348 190.217C482.399 188.939 483.829 186.596 484.579 183.854C485.317 186.385 486.688 188.529 488.692 189.725L490.028 188.084C487.075 186.385 485.622 182.787 485.622 179.201V177.514H489.231V175.709H479.622V177.514H483.489V179.201C483.477 182.939 481.966 186.76 478.989 188.553ZM487.684 182.6H490.942V193.287H493.052V173.787H490.942V180.771H487.684V182.6ZM518.944 183.396H499.796V185.178H508.257V187.428H502.093V194.084H516.601V187.428H510.46V185.178H518.944V183.396ZM501.554 175.803H504.624V179.811H501.647V181.615H517.046V179.811H514.093V175.803H517.14V173.998H501.554V175.803ZM504.296 192.279V189.186H514.444V192.279H504.296ZM506.827 179.811V175.803H511.866V179.811H506.827ZM533.371 176.482V174.514H531.167V176.576C531.144 179.729 529.199 182.529 525.847 183.678L527.042 185.459C529.585 184.545 531.414 182.658 532.316 180.256C533.23 182.365 534.929 183.982 537.238 184.826L538.457 183.092C535.269 182.049 533.359 179.424 533.371 176.482ZM529.292 190.334C529.281 192.865 531.976 194.307 536.394 194.295C540.789 194.307 543.484 192.865 543.496 190.334C543.484 187.791 540.789 186.314 536.394 186.326C531.976 186.314 529.281 187.791 529.292 190.334ZM531.496 190.334C531.484 188.893 533.312 188.061 536.394 188.061C539.453 188.061 541.281 188.893 541.292 190.334C541.281 191.729 539.453 192.549 536.394 192.537C533.312 192.549 531.484 191.729 531.496 190.334ZM536.769 179.436H541.199V185.74H543.425V173.342H541.199V177.607H536.769V179.436ZM563.388 179.014H551.177V173.717H548.974V180.818H563.388V179.014ZM546.42 184.873H565.592V183.045H546.42V184.873ZM548.693 190.404C548.693 192.865 551.424 194.248 555.982 194.248C560.506 194.248 563.213 192.865 563.224 190.404C563.213 187.955 560.506 186.572 555.982 186.584C551.424 186.572 548.693 187.955 548.693 190.404ZM550.943 190.404C550.931 189.045 552.771 188.33 555.982 188.318C559.146 188.33 560.998 189.045 560.998 190.404C560.998 191.752 559.146 192.525 555.982 192.537C552.771 192.525 550.931 191.752 550.943 190.404ZM580.252 178.686V175.1H578.002V178.686C578.002 182.693 575.682 186.713 572.377 188.178L573.737 190.053C576.256 188.822 578.19 186.291 579.162 183.209C580.147 186.08 582.057 188.436 584.471 189.584L585.807 187.826C582.549 186.385 580.229 182.518 580.252 178.686ZM587.705 194.389H589.932V173.342H587.705V194.389ZM610.551 173.342H608.325V179.646H605.043V181.498H608.325V186.068H610.551V173.342ZM593.067 177.209H605.372V175.428H600.332V173.154H598.129V175.428H593.067V177.209ZM594.286 181.92C594.286 184.182 596.348 185.682 599.231 185.693C602.114 185.682 604.153 184.182 604.153 181.92C604.153 179.717 602.114 178.17 599.231 178.17C596.348 178.17 594.286 179.717 594.286 181.92ZM596.418 181.92C596.418 180.689 597.555 179.869 599.231 179.881C600.883 179.869 602.02 180.689 602.02 181.92C602.02 183.197 600.883 183.994 599.231 184.006C597.555 183.994 596.418 183.197 596.418 181.92ZM596.7 194.084H610.551V187.1H596.7V194.084ZM598.903 192.279V188.857H608.372V192.279H598.903Z" fill="black"/>
<path d="M812.272 182.492H803.67V177.5H801.467V182.492H793.053V184.32H812.272V182.492ZM793.709 176.047L794.693 177.875C798.08 177.207 801.174 175.086 802.557 172.227C803.939 175.098 807.057 177.207 810.467 177.875L811.428 176.047C807.373 175.367 803.717 172.25 803.717 168.922V167.328H801.373V168.922C801.361 172.25 797.752 175.367 793.709 176.047ZM830.946 165.992H828.719V187.039H830.946V165.992ZM814.727 182H824.805V167.75H822.602V173.141H816.953V167.75H814.727V182ZM816.953 180.172V174.898H822.602V180.172H816.953ZM841.37 172.18V169.953H845.94V168.102H834.432V169.953H839.167V172.18C839.155 175.73 836.846 179.691 833.659 181.227L834.971 182.984C837.362 181.789 839.331 179.199 840.292 176.211C841.241 178.953 843.116 181.32 845.471 182.445L846.737 180.711C843.549 179.199 841.358 175.496 841.37 172.18ZM848.19 186.992H850.417V176.188H853.792V174.312H850.417V165.992H848.19V186.992ZM867.468 171.336V167.75H865.241V171.336C865.229 175.18 863.05 179.211 859.827 180.758L861.21 182.562C863.601 181.32 865.44 178.801 866.378 175.824C867.304 178.625 869.073 180.969 871.358 182.164L872.741 180.383C869.612 178.859 867.444 175.051 867.468 171.336ZM874.312 186.992H876.538V176.258H879.913V174.359H876.538V165.992H874.312V186.992ZM899.829 176.234H895.189V173.422C896.818 172.754 897.732 171.699 897.743 170.305C897.732 167.809 894.849 166.355 890.243 166.367C885.626 166.355 882.732 167.809 882.743 170.305C882.732 171.699 883.646 172.754 885.275 173.41V176.234H880.681V178.039H899.829V176.234ZM882.954 183.195C882.954 185.621 885.673 186.945 890.243 186.945C894.755 186.945 897.474 185.621 897.486 183.195C897.474 180.793 894.755 179.469 890.243 179.469C885.673 179.469 882.954 180.793 882.954 183.195ZM885.04 170.305C885.029 168.898 886.974 168.09 890.243 168.078C893.489 168.09 895.458 168.898 895.447 170.305C895.458 171.711 893.489 172.496 890.243 172.508C886.974 172.496 885.029 171.711 885.04 170.305ZM885.204 183.195C885.193 181.906 887.032 181.18 890.243 181.18C893.407 181.18 895.259 181.906 895.259 183.195C895.259 184.508 893.407 185.258 890.243 185.234C887.032 185.258 885.193 184.508 885.204 183.195ZM887.525 176.234V174.008C888.345 174.125 889.259 174.195 890.243 174.195C891.239 174.195 892.165 174.125 892.986 173.996V176.234H887.525ZM918.691 165.992H916.464V169.883H913.183V171.711H916.464V173.914H913.183V175.789H916.464V181.578H918.691V165.992ZM901.207 176.727L901.488 178.602C904.851 178.59 909.585 178.508 913.605 177.875L913.511 176.234C912.679 176.328 911.824 176.398 910.933 176.469V169.438H912.949V167.633H901.792V169.438H903.761V176.715C902.859 176.715 901.992 176.727 901.207 176.727ZM905.003 186.547H919.23V184.742H907.253V180.312H905.003V186.547ZM905.917 176.68V169.438H908.8V176.586C907.828 176.621 906.867 176.656 905.917 176.68ZM928.529 167.492C925.224 167.48 922.799 169.531 922.81 172.484C922.799 175.438 925.224 177.488 928.529 177.5C931.845 177.488 934.236 175.438 934.248 172.484C934.236 169.531 931.845 167.48 928.529 167.492ZM921.802 180.664L922.084 182.516C925.834 182.516 930.931 182.492 935.677 181.578L935.513 179.961C930.92 180.629 925.623 180.664 921.802 180.664ZM925.013 172.484C924.99 170.645 926.49 169.414 928.529 169.414C930.568 169.414 932.068 170.645 932.068 172.484C932.068 174.348 930.568 175.555 928.529 175.555C926.49 175.555 924.99 174.348 925.013 172.484ZM936.826 187.039H939.052V165.992H936.826V187.039ZM949.641 169.133V167.164H947.437V169.227C947.414 172.379 945.469 175.18 942.117 176.328L943.312 178.109C945.855 177.195 947.684 175.309 948.586 172.906C949.5 175.016 951.199 176.633 953.508 177.477L954.727 175.742C951.539 174.699 949.629 172.074 949.641 169.133ZM945.562 182.984C945.551 185.516 948.246 186.957 952.664 186.945C957.059 186.957 959.754 185.516 959.766 182.984C959.754 180.441 957.059 178.965 952.664 178.977C948.246 178.965 945.551 180.441 945.562 182.984ZM947.766 182.984C947.754 181.543 949.582 180.711 952.664 180.711C955.723 180.711 957.551 181.543 957.562 182.984C957.551 184.379 955.723 185.199 952.664 185.188C949.582 185.199 947.754 184.379 947.766 182.984ZM953.039 172.086H957.469V178.391H959.695V165.992H957.469V170.258H953.039V172.086ZM820.92 211H823.498V203.594H830.693V201.391H823.498V196.258H831.443V194.031H820.92V211ZM838.422 211.258C841.223 211.258 843.18 209.875 843.742 207.812H841.211C840.789 208.586 839.864 209.195 838.446 209.195C836.36 209.195 834.93 207.824 834.86 205.398H843.907V204.508C843.907 199.902 841.153 198.109 838.258 198.109C834.707 198.109 832.364 200.805 832.375 204.719C832.364 208.668 834.672 211.258 838.422 211.258ZM834.871 203.523C834.977 201.73 836.278 200.16 838.282 200.172C840.192 200.16 841.446 201.59 841.446 203.523H834.871ZM851.635 211.258C854.436 211.258 856.393 209.875 856.956 207.812H854.424C854.002 208.586 853.077 209.195 851.659 209.195C849.573 209.195 848.143 207.824 848.073 205.398H857.12V204.508C857.12 199.902 854.366 198.109 851.471 198.109C847.92 198.109 845.577 200.805 845.588 204.719C845.577 208.668 847.885 211.258 851.635 211.258ZM848.084 203.523C848.19 201.73 849.491 200.16 851.495 200.172C853.405 200.16 854.659 201.59 854.659 203.523H848.084ZM864.122 211.258C866.442 211.246 867.356 209.84 867.825 209.008H868.012V211H870.45V194.031H867.942V200.336H867.825C867.368 199.539 866.512 198.109 864.145 198.109C861.087 198.109 858.802 200.523 858.802 204.672C858.802 208.773 861.052 211.246 864.122 211.258ZM861.356 204.625C861.344 202.117 862.469 200.23 864.684 200.242C866.841 200.23 868.012 201.977 868.012 204.625C868.012 207.297 866.817 209.113 864.684 209.125C862.493 209.113 861.344 207.18 861.356 204.625ZM880.968 202.75H873.444V204.906H880.968V202.75ZM883.962 211H890.454C894.415 211 896.197 209.031 896.197 206.43C896.197 203.805 894.368 202.328 892.681 202.234V202.07C894.239 201.672 895.54 200.605 895.54 198.484C895.54 195.965 893.794 194.031 890.173 194.031H883.962V211ZM886.54 208.797V203.383H890.314C892.353 203.383 893.642 204.684 893.642 206.312C893.642 207.719 892.657 208.785 890.22 208.797H886.54ZM886.54 201.367V196.234H890.009C892.036 196.234 893.009 197.289 893.009 198.695C893.009 200.324 891.673 201.355 889.962 201.367H886.54ZM897.925 207.414C897.914 209.898 899.8 211.281 902.214 211.281C904.324 211.281 905.496 210.215 905.988 209.266H906.082V211H908.519V202.539C908.507 198.848 905.554 198.109 903.527 198.109C900.515 198.109 898.546 199.633 898.324 201.742H900.808C901.066 200.805 901.957 200.125 903.433 200.125C905.132 200.125 906.023 200.957 906.011 202.398L906.023 203.418C905.437 203.441 903.527 203.547 902.683 203.594C900.386 203.758 897.914 204.508 897.925 207.414ZM900.363 207.438C900.363 206.184 901.394 205.562 903.035 205.445C903.632 205.41 905.449 205.281 906.023 205.246L906.035 206.406C906.035 207.918 904.816 209.277 902.777 209.289C901.371 209.277 900.363 208.656 900.363 207.438ZM916.693 211.258C919.693 211.258 921.65 209.441 921.92 206.969H919.482C919.166 208.34 918.111 209.137 916.693 209.125C914.595 209.137 913.248 207.414 913.248 204.625C913.248 201.918 914.631 200.207 916.693 200.195C918.275 200.207 919.224 201.203 919.482 202.398H921.92C921.65 199.82 919.552 198.109 916.646 198.109C913.06 198.109 910.728 200.816 910.74 204.695C910.728 208.527 912.978 211.258 916.693 211.258ZM924.047 211H926.555V206.477L927.762 205.281L932.086 211H935.156L929.66 203.734L934.805 198.273H931.805L926.766 203.641H926.555V194.031H924.047V211Z" fill="black"/>
</svg>
