<svg width="1286" height="542" viewBox="0 0 1286 542" fill="none" xmlns="http://www.w3.org/2000/svg">
<rect x="86" y="85" width="1118" height="383" stroke="#BBBBBB" stroke-width="2" stroke-linecap="round" stroke-linejoin="round" stroke-dasharray="0.1 5 0.1 5"/>
<path d="M170 85C170 131.944 131.944 170 85 170C38.0558 170 0 131.944 0 85C0 38.0558 38.0558 0 85 0C131.944 0 170 38.0558 170 85Z" fill="#313131"/>
<path d="M82.7106 119.184H74.1384V120.072H81.6305V120.4C81.6237 121.856 81.6237 123.559 81.1657 125.883L82.2595 126.006C82.697 123.559 82.697 121.891 82.7106 120.4V119.184ZM72.9626 128.385H84.0368V127.496H78.363V123.148H77.3102V127.496H72.9626V128.385ZM95.2445 117.967H94.2191V121.029H92.5648V118.199H91.5394V125.049H92.5648V121.918H94.2191V125.131H95.2445V117.967ZM84.9905 124.461L85.5237 125.268C88.6068 123.955 90.2474 121.761 90.2542 118.855H85.4827V119.744H89.1468C88.9417 121.788 87.513 123.436 84.9905 124.461ZM87.0413 126.566H94.1917V130.107H95.2445V125.691H87.0413V126.566Z" fill="white"/>
<circle cx="63.5" cy="66.5" r="5.5" stroke="white" stroke-width="2"/>
<path d="M53 85.5C53 79.701 57.701 75 63.5 75C69.299 75 74 79.701 74 85.5V91H53V85.5Z" stroke="white" stroke-width="2"/>
<circle cx="106.5" cy="66.5" r="5.5" stroke="white" stroke-width="2"/>
<path d="M96 85.5C96 79.701 100.701 75 106.5 75C112.299 75 117 79.701 117 85.5V91H96V85.5Z" stroke="white" stroke-width="2"/>
<circle cx="84.8516" cy="60" r="8" fill="#313131" stroke="white" stroke-width="2"/>
<path d="M70 86C70 78.8203 75.8203 73 83 73H87C94.1797 73 100 78.8203 100 86V95H70V86Z" fill="#313131" stroke="white" stroke-width="2"/>
<path d="M542 85C542 131.944 503.944 170 457 170C410.056 170 372 131.944 372 85C372 38.0558 410.056 0 457 0C503.944 0 542 38.0558 542 85Z" fill="#313131"/>
<path d="M457.34 118.953H456.287V123.861H454.605V119.281H453.58V130.506H454.605V124.75H456.287V131.107H457.34V118.953ZM446.976 127.744L447.605 128.496C451.098 126.548 452.185 123.629 452.199 120.539H447.441V121.428H451.146C450.962 123.943 449.799 126.165 446.976 127.744ZM460.494 119.473H459.442V124.764H465.102V119.473H464.035V121.223H460.494V119.473ZM460.494 123.889V122.057H464.035V123.889H460.494ZM460.672 126.678H467.358V127.936H460.7V130.971H468.875V130.096H461.752V128.756H468.424V125.816H460.672V126.678ZM467.358 125.242H468.424V122.494H470.256V121.592H468.424V118.953H467.358V125.242Z" fill="white"/>
<mask id="path-12-inside-1_386_22718" fill="white">
<path fill-rule="evenodd" clip-rule="evenodd" d="M465 86.2901C472.095 82.8935 477 75.6057 477 67.1633C477 55.4752 467.598 46 456 46C444.402 46 435 55.4752 435 67.1633C435 75.6057 439.905 82.8935 447 86.2901V93H465V86.2901Z"/>
</mask>
<path d="M465 86.2901L464.136 84.4862L463 85.0302V86.2901H465ZM447 86.2901H449V85.0302L447.864 84.4862L447 86.2901ZM447 93H445V95H447V93ZM465 93V95H467V93H465ZM475 67.1633C475 74.8133 470.557 81.4122 464.136 84.4862L465.864 88.094C473.632 84.3747 479 76.3981 479 67.1633H475ZM456 48C466.479 48 475 56.5651 475 67.1633H479C479 54.3852 468.717 44 456 44V48ZM437 67.1633C437 56.5651 445.521 48 456 48V44C443.283 44 433 54.3852 433 67.1633H437ZM447.864 84.4862C441.443 81.4122 437 74.8133 437 67.1633H433C433 76.3981 438.368 84.3747 446.136 88.094L447.864 84.4862ZM449 93V86.2901H445V93H449ZM465 91H447V95H465V91ZM463 86.2901V93H467V86.2901H463Z" fill="white" mask="url(#path-12-inside-1_386_22718)"/>
<mask id="path-14-inside-2_386_22718" fill="white">
<path fill-rule="evenodd" clip-rule="evenodd" d="M465 91H447V95.7102V96.5264H447.043C447.488 100.722 451.328 104 456 104C460.672 104 464.512 100.722 464.957 96.5264H465V95.7102V91Z"/>
</mask>
<path d="M447 91V89H445V91H447ZM465 91H467V89H465V91ZM447 96.5264H445V98.5264H447V96.5264ZM447.043 96.5264L449.032 96.3154L448.842 94.5264H447.043V96.5264ZM464.957 96.5264V94.5264H463.158L462.968 96.3154L464.957 96.5264ZM465 96.5264V98.5264H467V96.5264H465ZM447 93H465V89H447V93ZM449 95.7102V91H445V95.7102H449ZM449 96.5264V95.7102H445V96.5264H449ZM447.043 94.5264H447V98.5264H447.043V94.5264ZM456 102C452.228 102 449.357 99.3752 449.032 96.3154L445.054 96.7374C445.62 102.068 450.429 106 456 106V102ZM462.968 96.3154C462.643 99.3752 459.772 102 456 102V106C461.571 106 466.38 102.068 466.946 96.7374L462.968 96.3154ZM465 94.5264H464.957V98.5264H465V94.5264ZM463 95.7102V96.5264H467V95.7102H463ZM463 91V95.7102H467V91H463Z" fill="white" mask="url(#path-14-inside-2_386_22718)"/>
<path d="M478.823 90.2933L478.754 90.8513L479.195 91.2002L481.917 93.3536L479.397 97.763L476.208 96.4673L475.681 96.2531L475.227 96.5971C474.557 97.1056 473.854 97.5348 473.103 97.846L472.576 98.0645L472.496 98.6294L472.007 102.08H466.999L466.51 98.6294L466.43 98.0645L465.903 97.846C465.145 97.5319 464.445 97.1155 463.789 96.6046L463.333 96.25L462.798 96.4673L459.609 97.763L457.089 93.3536L459.812 91.2002L460.253 90.8513L460.184 90.2933C460.131 89.8643 460.094 89.4459 460.094 89.04C460.094 88.6341 460.131 88.2157 460.184 87.7867L460.253 87.2287L459.812 86.8798L457.089 84.7264L459.609 80.317L462.798 81.6127L463.325 81.8269L463.779 81.4829C464.449 80.9744 465.152 80.5452 465.903 80.234L466.43 80.0155L466.51 79.4506L466.999 76H472.007L472.496 79.4506L472.576 80.0155L473.103 80.234C473.861 80.5481 474.561 80.9645 475.218 81.4754L475.673 81.83L476.208 81.6127L479.397 80.317L481.917 84.7264L479.195 86.8798L478.754 87.2287L478.823 87.7867C478.876 88.2167 478.912 88.6206 478.912 89.04C478.912 89.4594 478.876 89.8633 478.823 90.2933Z" fill="#313131" stroke="white" stroke-width="2"/>
<circle cx="469.501" cy="89.0397" r="3.86" fill="#313131" stroke="white" stroke-width="2"/>
<circle cx="829" cy="85" r="85" fill="#313131"/>
<path d="M827.039 118.953H825.959V121.195H823.252V122.084H825.959V125.242H827.039V118.953ZM816.949 124.408L817.537 125.27C818.972 124.75 820.073 123.69 820.592 122.303C821.132 123.533 822.206 124.49 823.552 124.969L824.127 124.135C822.349 123.554 821.091 122.091 821.105 120.498V119.35H820.052V120.498C820.039 122.275 818.781 123.8 816.949 124.408ZM819.164 126.719H825.972V127.936H819.191V130.943H827.49V130.082H820.244V128.756H827.039V125.857H819.164V126.719ZM839.326 118.953H838.301V131.107H839.326V118.953ZM828.909 127.703L829.565 128.482C831.862 127.108 833.195 125.29 833.783 123.232H835.84V125.393H833.584V126.281H835.84V130.492H836.866V119.281H835.84V122.344H833.994C834.104 121.749 834.159 121.134 834.159 120.512H829.455V121.4H833.092C832.88 123.943 831.554 126.138 828.909 127.703Z" fill="#313131"/>
<mask id="path-20-inside-3_386_22718" fill="white">
<path fill-rule="evenodd" clip-rule="evenodd" d="M803.592 47.7884C805.215 46.6433 807.415 46 809.709 46V52.1059V52.5331H860.059V99.6091H810.28C810.035 99.6091 809.794 99.5916 809.559 99.5576V99.609C804.832 99.609 801 96.9265 801 93.6175C801 93.3786 801.02 93.1429 801.059 92.9113V52.1059V52H801.06C801.099 50.4189 802.006 48.9085 803.592 47.7884Z"/>
</mask>
<path fill-rule="evenodd" clip-rule="evenodd" d="M803.592 47.7884C805.215 46.6433 807.415 46 809.709 46V52.1059V52.5331H860.059V99.6091H810.28C810.035 99.6091 809.794 99.5916 809.559 99.5576V99.609C804.832 99.609 801 96.9265 801 93.6175C801 93.3786 801.02 93.1429 801.059 92.9113V52.1059V52H801.06C801.099 50.4189 802.006 48.9085 803.592 47.7884Z" fill="#313131"/>
<path d="M809.709 46H811.709V44H809.709V46ZM803.592 47.7884L802.439 46.1544V46.1544L803.592 47.7884ZM809.709 52.5331H807.709V54.5331H809.709V52.5331ZM860.059 52.5331H862.059V50.5331H860.059V52.5331ZM860.059 99.6091V101.609H862.059V99.6091H860.059ZM809.559 99.5576L809.845 97.5781L807.559 97.2483V99.5576H809.559ZM809.559 99.609L809.559 101.609L811.559 101.609V99.609H809.559ZM801.059 92.9113L803.031 93.2422L803.059 93.0779V92.9113H801.059ZM801.059 52V50H799.059V52H801.059ZM801.06 52V54H803.012L803.06 52.0491L801.06 52ZM809.709 44C807.068 44 804.449 44.7356 802.439 46.1544L804.746 49.4223C805.98 48.551 807.761 48 809.709 48V44ZM811.709 52.1059V46H807.709V52.1059H811.709ZM811.709 52.5331V52.1059H807.709V52.5331H811.709ZM809.709 54.5331H860.059V50.5331H809.709V54.5331ZM858.059 52.5331V99.6091H862.059V52.5331H858.059ZM860.059 97.6091H810.28V101.609H860.059V97.6091ZM810.28 97.6091C810.131 97.6091 809.986 97.5984 809.845 97.5781L809.274 101.537C809.603 101.585 809.939 101.609 810.28 101.609V97.6091ZM811.559 99.609V99.5576H807.559V99.609H811.559ZM799 93.6175C799 96.1038 800.442 98.1502 802.36 99.4926C804.284 100.839 806.836 101.609 809.559 101.609L809.559 97.609C807.556 97.609 805.828 97.0373 804.654 96.2157C803.474 95.3896 803 94.4403 803 93.6175H799ZM799.086 92.5804C799.029 92.9204 799 93.2667 799 93.6175H803C803 93.4905 803.011 93.3655 803.031 93.2422L799.086 92.5804ZM799.059 52.1059V92.9113H803.059V52.1059H799.059ZM799.059 52V52.1059H803.059V52H799.059ZM801.06 50H801.059V54H801.06V50ZM802.439 46.1544C800.466 47.5475 799.119 49.5937 799.061 51.9509L803.06 52.0491C803.079 51.2442 803.546 50.2694 804.746 49.4223L802.439 46.1544Z" fill="white" mask="url(#path-20-inside-3_386_22718)"/>
<path d="M808.703 53.1211L808.703 88.2141" stroke="white" stroke-width="2"/>
<path d="M809.709 88.2148C807.68 88.2148 805.734 88.7559 804.299 89.719C802.865 90.6821 802.059 91.9884 802.059 93.3504C802.059 94.7124 802.865 96.0187 804.299 96.9818C805.734 97.9449 807.68 98.486 809.709 98.486" stroke="white" stroke-width="2"/>
<rect x="818" y="59" width="10.2353" height="33.7647" stroke="white" stroke-width="2"/>
<path d="M828.294 65.5312H824.529" stroke="white" stroke-width="2"/>
<path d="M828.294 78.707H824.529" stroke="white" stroke-width="2"/>
<path d="M828.294 72.1211H824.529" stroke="white" stroke-width="2"/>
<path d="M828.294 85.2969H824.529" stroke="white" stroke-width="2"/>
<mask id="path-29-inside-4_386_22718" fill="white">
<path fill-rule="evenodd" clip-rule="evenodd" d="M864.108 51.3447L856.379 45L834.882 71.1894L834.905 71.2084L834.866 79.0904L842.589 77.5157L842.611 77.5341L842.634 77.5065L842.635 77.5064L842.634 77.506L864.108 51.3447Z"/>
</mask>
<path fill-rule="evenodd" clip-rule="evenodd" d="M864.108 51.3447L856.379 45L834.882 71.1894L834.905 71.2084L834.866 79.0904L842.589 77.5157L842.611 77.5341L842.634 77.5065L842.635 77.5064L842.634 77.506L864.108 51.3447Z" fill="#313131"/>
<path d="M856.379 45L857.648 43.4541L856.102 42.1852L854.833 43.7311L856.379 45ZM864.108 51.3447L865.654 52.6136L866.923 51.0677L865.377 49.7988L864.108 51.3447ZM834.882 71.1894L833.336 69.9205L832.067 71.4664L833.613 72.7353L834.882 71.1894ZM834.905 71.2084L836.905 71.2184L836.91 70.2665L836.174 69.6625L834.905 71.2084ZM834.866 79.0904L832.866 79.0804L832.854 81.5418L835.265 81.05L834.866 79.0904ZM842.589 77.5157L843.858 75.9698L843.122 75.3658L842.189 75.556L842.589 77.5157ZM842.611 77.5341L841.342 79.08L842.888 80.3489L844.157 78.803L842.611 77.5341ZM842.634 77.5065L842.236 75.5465L841.539 75.688L841.088 76.2376L842.634 77.5065ZM842.635 77.5064L843.032 79.4664L847.155 78.6295L843.904 75.9605L842.635 77.5064ZM842.634 77.506L841.088 76.2371L839.819 77.783L841.365 79.0519L842.634 77.506ZM855.11 46.5459L862.839 52.8906L865.377 49.7988L857.648 43.4541L855.11 46.5459ZM836.428 72.4583L857.925 46.2689L854.833 43.7311L833.336 69.9205L836.428 72.4583ZM836.174 69.6625L836.151 69.6435L833.613 72.7353L833.636 72.7543L836.174 69.6625ZM836.866 79.1003L836.905 71.2184L832.905 71.1985L832.866 79.0804L836.866 79.1003ZM842.189 75.556L834.466 77.1307L835.265 81.05L842.988 79.4754L842.189 75.556ZM843.88 75.9882L843.858 75.9698L841.32 79.0616L841.342 79.08L843.88 75.9882ZM841.088 76.2376L841.065 76.2651L844.157 78.803L844.18 78.7755L841.088 76.2376ZM842.237 75.5463L842.236 75.5465L843.032 79.4666L843.032 79.4664L842.237 75.5463ZM841.365 79.0519L841.366 79.0523L843.904 75.9605L843.903 75.9601L841.365 79.0519ZM862.563 50.0757L841.088 76.2371L844.18 78.775L865.654 52.6136L862.563 50.0757Z" fill="white" mask="url(#path-29-inside-4_386_22718)"/>
<rect x="856.517" y="46.4074" width="8" height="5" transform="rotate(39.3804 856.517 46.4074)" stroke="white" stroke-width="2"/>
<rect x="836.145" y="70.4381" width="9" height="1" transform="rotate(39.3804 836.145 70.4381)" stroke="white"/>
<circle cx="829" cy="85" r="85" fill="#313131"/>
<path d="M827.039 118.953H825.959V121.195H823.252V122.084H825.959V125.242H827.039V118.953ZM816.949 124.408L817.537 125.27C818.972 124.75 820.073 123.69 820.592 122.303C821.132 123.533 822.206 124.49 823.552 124.969L824.127 124.135C822.349 123.554 821.091 122.091 821.105 120.498V119.35H820.052V120.498C820.039 122.275 818.781 123.8 816.949 124.408ZM819.164 126.719H825.972V127.936H819.191V130.943H827.49V130.082H820.244V128.756H827.039V125.857H819.164V126.719ZM839.326 118.953H838.301V131.107H839.326V118.953ZM828.909 127.703L829.565 128.482C831.862 127.108 833.195 125.29 833.783 123.232H835.84V125.393H833.584V126.281H835.84V130.492H836.866V119.281H835.84V122.344H833.994C834.104 121.749 834.159 121.134 834.159 120.512H829.455V121.4H833.092C832.88 123.943 831.554 126.138 828.909 127.703Z" fill="white"/>
<mask id="path-35-inside-5_386_22718" fill="white">
<path fill-rule="evenodd" clip-rule="evenodd" d="M803.592 47.7884C805.215 46.6433 807.415 46 809.709 46V52.1059V52.5331H860.059V99.6091H810.28C810.035 99.6091 809.794 99.5916 809.559 99.5576V99.609C804.832 99.609 801 96.9265 801 93.6175C801 93.3786 801.02 93.1429 801.059 92.9113V52.1059V52H801.06C801.099 50.4189 802.006 48.9085 803.592 47.7884Z"/>
</mask>
<path fill-rule="evenodd" clip-rule="evenodd" d="M803.592 47.7884C805.215 46.6433 807.415 46 809.709 46V52.1059V52.5331H860.059V99.6091H810.28C810.035 99.6091 809.794 99.5916 809.559 99.5576V99.609C804.832 99.609 801 96.9265 801 93.6175C801 93.3786 801.02 93.1429 801.059 92.9113V52.1059V52H801.06C801.099 50.4189 802.006 48.9085 803.592 47.7884Z" fill="#313131"/>
<path d="M809.709 46H811.709V44H809.709V46ZM803.592 47.7884L802.439 46.1544V46.1544L803.592 47.7884ZM809.709 52.5331H807.709V54.5331H809.709V52.5331ZM860.059 52.5331H862.059V50.5331H860.059V52.5331ZM860.059 99.6091V101.609H862.059V99.6091H860.059ZM809.559 99.5576L809.845 97.5781L807.559 97.2483V99.5576H809.559ZM809.559 99.609L809.559 101.609L811.559 101.609V99.609H809.559ZM801.059 92.9113L803.031 93.2422L803.059 93.0779V92.9113H801.059ZM801.059 52V50H799.059V52H801.059ZM801.06 52V54H803.012L803.06 52.0491L801.06 52ZM809.709 44C807.068 44 804.449 44.7356 802.439 46.1544L804.746 49.4223C805.98 48.551 807.761 48 809.709 48V44ZM811.709 52.1059V46H807.709V52.1059H811.709ZM811.709 52.5331V52.1059H807.709V52.5331H811.709ZM809.709 54.5331H860.059V50.5331H809.709V54.5331ZM858.059 52.5331V99.6091H862.059V52.5331H858.059ZM860.059 97.6091H810.28V101.609H860.059V97.6091ZM810.28 97.6091C810.131 97.6091 809.986 97.5984 809.845 97.5781L809.274 101.537C809.603 101.585 809.939 101.609 810.28 101.609V97.6091ZM811.559 99.609V99.5576H807.559V99.609H811.559ZM799 93.6175C799 96.1038 800.442 98.1502 802.36 99.4926C804.284 100.839 806.836 101.609 809.559 101.609L809.559 97.609C807.556 97.609 805.828 97.0373 804.654 96.2157C803.474 95.3896 803 94.4403 803 93.6175H799ZM799.086 92.5804C799.029 92.9204 799 93.2667 799 93.6175H803C803 93.4905 803.011 93.3655 803.031 93.2422L799.086 92.5804ZM799.059 52.1059V92.9113H803.059V52.1059H799.059ZM799.059 52V52.1059H803.059V52H799.059ZM801.06 50H801.059V54H801.06V50ZM802.439 46.1544C800.466 47.5475 799.119 49.5937 799.061 51.9509L803.06 52.0491C803.079 51.2442 803.546 50.2694 804.746 49.4223L802.439 46.1544Z" fill="white" mask="url(#path-35-inside-5_386_22718)"/>
<path d="M808.703 53.1211L808.703 88.2141" stroke="white" stroke-width="2"/>
<path d="M809.709 88.2148C807.68 88.2148 805.734 88.7559 804.299 89.719C802.865 90.6821 802.059 91.9884 802.059 93.3504C802.059 94.7124 802.865 96.0187 804.299 96.9818C805.734 97.9449 807.68 98.486 809.709 98.486" stroke="white" stroke-width="2"/>
<rect x="818" y="59" width="10.2353" height="33.7647" stroke="white" stroke-width="2"/>
<path d="M828.294 65.5312H824.529" stroke="white" stroke-width="2"/>
<path d="M828.294 78.707H824.529" stroke="white" stroke-width="2"/>
<path d="M828.294 72.1211H824.529" stroke="white" stroke-width="2"/>
<path d="M828.294 85.2969H824.529" stroke="white" stroke-width="2"/>
<mask id="path-44-inside-6_386_22718" fill="white">
<path fill-rule="evenodd" clip-rule="evenodd" d="M864.108 51.3447L856.379 45L834.882 71.1894L834.905 71.2084L834.866 79.0904L842.589 77.5157L842.611 77.5341L842.634 77.5065L842.635 77.5064L842.634 77.506L864.108 51.3447Z"/>
</mask>
<path fill-rule="evenodd" clip-rule="evenodd" d="M864.108 51.3447L856.379 45L834.882 71.1894L834.905 71.2084L834.866 79.0904L842.589 77.5157L842.611 77.5341L842.634 77.5065L842.635 77.5064L842.634 77.506L864.108 51.3447Z" fill="#313131"/>
<path d="M856.379 45L857.648 43.4541L856.102 42.1852L854.833 43.7311L856.379 45ZM864.108 51.3447L865.654 52.6136L866.923 51.0677L865.377 49.7988L864.108 51.3447ZM834.882 71.1894L833.336 69.9205L832.067 71.4664L833.613 72.7353L834.882 71.1894ZM834.905 71.2084L836.905 71.2184L836.91 70.2665L836.174 69.6625L834.905 71.2084ZM834.866 79.0904L832.866 79.0804L832.854 81.5418L835.265 81.05L834.866 79.0904ZM842.589 77.5157L843.858 75.9698L843.122 75.3658L842.189 75.556L842.589 77.5157ZM842.611 77.5341L841.342 79.08L842.888 80.3489L844.157 78.803L842.611 77.5341ZM842.634 77.5065L842.236 75.5465L841.539 75.688L841.088 76.2376L842.634 77.5065ZM842.635 77.5064L843.032 79.4664L847.155 78.6295L843.904 75.9605L842.635 77.5064ZM842.634 77.506L841.088 76.2371L839.819 77.783L841.365 79.0519L842.634 77.506ZM855.11 46.5459L862.839 52.8906L865.377 49.7988L857.648 43.4541L855.11 46.5459ZM836.428 72.4583L857.925 46.2689L854.833 43.7311L833.336 69.9205L836.428 72.4583ZM836.174 69.6625L836.151 69.6435L833.613 72.7353L833.636 72.7543L836.174 69.6625ZM836.866 79.1003L836.905 71.2184L832.905 71.1985L832.866 79.0804L836.866 79.1003ZM842.189 75.556L834.466 77.1307L835.265 81.05L842.988 79.4754L842.189 75.556ZM843.88 75.9882L843.858 75.9698L841.32 79.0616L841.342 79.08L843.88 75.9882ZM841.088 76.2376L841.065 76.2651L844.157 78.803L844.18 78.7755L841.088 76.2376ZM842.237 75.5463L842.236 75.5465L843.032 79.4666L843.032 79.4664L842.237 75.5463ZM841.365 79.0519L841.366 79.0523L843.904 75.9605L843.903 75.9601L841.365 79.0519ZM862.563 50.0757L841.088 76.2371L844.18 78.775L865.654 52.6136L862.563 50.0757Z" fill="white" mask="url(#path-44-inside-6_386_22718)"/>
<rect x="856.517" y="46.4074" width="8" height="5" transform="rotate(39.3804 856.517 46.4074)" stroke="white" stroke-width="2"/>
<rect x="836.145" y="70.4381" width="9" height="1" transform="rotate(39.3804 836.145 70.4381)" stroke="white"/>
<path d="M1286 85C1286 131.944 1247.94 170 1201 170C1154.06 170 1116 131.944 1116 85C1116 38.0558 1154.06 0 1201 0C1247.94 0 1286 38.0558 1286 85Z" fill="#313131"/>
<path d="M1173.97 122.221V120.006H1172.9V122.221C1172.89 124.524 1171.39 126.849 1169.58 127.676L1170.26 128.578C1171.69 127.86 1172.88 126.322 1173.44 124.49C1174.02 126.22 1175.22 127.662 1176.61 128.332L1177.26 127.484C1175.47 126.671 1173.96 124.442 1173.97 122.221ZM1178.59 131.135H1179.67V118.953H1178.59V131.135ZM1191.69 118.953H1190.61V122.658H1188.54V123.547H1190.61V126.322H1191.69V118.953ZM1181.62 121.113H1188.72V120.238H1185.7V118.844H1184.64V120.238H1181.62V121.113ZM1182.35 123.902C1182.35 125.215 1183.52 126.076 1185.16 126.076C1186.82 126.076 1187.98 125.215 1187.99 123.902C1187.98 122.631 1186.82 121.742 1185.16 121.742C1183.52 121.742 1182.35 122.631 1182.35 123.902ZM1183.37 123.902C1183.37 123.123 1184.1 122.576 1185.16 122.576C1186.22 122.576 1186.95 123.123 1186.95 123.902C1186.95 124.709 1186.22 125.242 1185.16 125.256C1184.1 125.242 1183.37 124.709 1183.37 123.902ZM1183.74 130.943H1191.69V126.979H1183.74V130.943ZM1184.81 130.068V127.84H1190.63V130.068H1184.81ZM1207.33 118.953H1206.31V131.107H1207.33V118.953ZM1196.79 127.867L1197.48 128.674C1198.69 127.915 1199.57 126.486 1200.01 124.812C1200.44 126.356 1201.28 127.669 1202.48 128.387L1203.14 127.594C1201.46 126.623 1200.51 124.524 1200.51 122.426V121.277H1202.74V120.389H1197.13V121.277H1199.47V122.426C1199.48 124.634 1198.49 126.855 1196.79 127.867ZM1201.81 124.217H1203.86V130.479H1204.87V119.254H1203.86V123.342H1201.81V124.217ZM1213.02 121.209V120.689H1215.75V119.814H1209.19V120.689H1211.96V121.209C1211.95 122.952 1210.68 124.518 1208.86 125.16L1209.44 125.994C1210.86 125.475 1211.98 124.401 1212.5 123.021C1213.02 124.278 1214.08 125.27 1215.46 125.762L1216.01 124.928C1214.21 124.306 1213.02 122.829 1213.02 121.209ZM1210.45 127.799H1217.34V131.107H1218.4V126.924H1210.45V127.799ZM1217.34 126.281H1218.4V123.082H1220.24V122.166H1218.4V118.953H1217.34V126.281ZM1230.58 119.746H1224.88V124.695H1230.58V119.746ZM1225.75 130.232L1226.14 131.066C1227.97 130.813 1229.68 129.979 1230.41 128.831C1231.13 129.952 1232.8 130.813 1234.63 131.066L1235 130.232C1232.91 129.973 1230.95 128.79 1230.96 127.607H1234.57V126.773H1230.93V125.584H1229.87V126.773H1226.26V127.607H1229.85C1229.85 128.817 1227.84 130 1225.75 130.232ZM1225.93 123.848V120.621H1229.53V123.848H1225.93ZM1233.2 125.939H1234.26V118.953H1233.2V125.939ZM1181.71 136.953H1180.66V141.902H1178.91V137.227H1177.9V148.479H1178.91V142.818H1180.66V149.107H1181.71V136.953ZM1171.95 145.963H1172.7C1174.04 145.963 1175.44 145.874 1177.13 145.566L1177 144.609C1175.52 144.91 1174.22 144.999 1173.02 145.006V138.443H1171.95V145.963ZM1194.41 144.172H1183.28V145.047H1188.29V149.107H1189.34V145.047H1194.41V144.172ZM1184.7 142.695H1192.98V137.459H1191.9V139.141H1185.77V137.459H1184.7V142.695ZM1185.77 141.82V140.016H1191.9V141.82H1185.77ZM1203.63 138.443H1199.11V146.182H1199.87C1201.8 146.175 1202.95 146.141 1204.36 145.854L1204.26 144.979C1202.94 145.218 1201.88 145.286 1200.13 145.307V142.572H1203.07V141.711H1200.13V139.305H1203.63V138.443ZM1203.73 142.463H1205.52V148.479H1206.55V137.254H1205.52V141.574H1203.73V142.463ZM1207.99 149.107H1209.03V136.953H1207.99V149.107ZM1216.65 138.744V137.814H1215.52V138.744C1215.52 140.836 1213.16 142.675 1211.05 143.078L1211.55 143.98C1213.38 143.55 1215.31 142.251 1216.1 140.467C1216.88 142.251 1218.81 143.557 1220.65 143.98L1221.14 143.078C1219.03 142.682 1216.65 140.829 1216.65 138.744ZM1210.59 147.453H1221.72V146.564H1210.59V147.453ZM1232.39 143.529H1225.08V141.574H1232V140.713H1225.08V138.908H1232.26V138.006H1223.98V144.404H1232.39V143.529ZM1222.55 147.521H1233.68V146.633H1222.55V147.521Z" fill="white"/>
<mask id="path-50-inside-7_386_22718" fill="white">
<path fill-rule="evenodd" clip-rule="evenodd" d="M1173.53 46.7884C1175.16 45.6433 1177.36 45 1179.65 45V51.1059V51.5331H1230V98.6091H1180.22C1179.98 98.6091 1179.74 98.5916 1179.5 98.5576V98.609C1174.77 98.609 1170.94 95.9265 1170.94 92.6175C1170.94 92.3786 1170.96 92.1429 1171 91.9113V51.1059V51H1171C1171.04 49.4189 1171.95 47.9085 1173.53 46.7884Z"/>
</mask>
<path fill-rule="evenodd" clip-rule="evenodd" d="M1173.53 46.7884C1175.16 45.6433 1177.36 45 1179.65 45V51.1059V51.5331H1230V98.6091H1180.22C1179.98 98.6091 1179.74 98.5916 1179.5 98.5576V98.609C1174.77 98.609 1170.94 95.9265 1170.94 92.6175C1170.94 92.3786 1170.96 92.1429 1171 91.9113V51.1059V51H1171C1171.04 49.4189 1171.95 47.9085 1173.53 46.7884Z" fill="#313131"/>
<path d="M1179.65 45H1181.65V43H1179.65V45ZM1173.53 46.7884L1172.38 45.1544V45.1544L1173.53 46.7884ZM1179.65 51.5331H1177.65V53.5331H1179.65V51.5331ZM1230 51.5331H1232V49.5331H1230V51.5331ZM1230 98.6091V100.609H1232V98.6091H1230ZM1179.5 98.5576L1179.79 96.5781L1177.5 96.2483V98.5576H1179.5ZM1179.5 98.609L1179.5 100.609L1181.5 100.609V98.609H1179.5ZM1171 91.9113L1172.97 92.2422L1173 92.0779V91.9113H1171ZM1171 51V49H1169V51H1171ZM1171 51V53H1172.95L1173 51.0491L1171 51ZM1179.65 43C1177.01 43 1174.39 43.7356 1172.38 45.1544L1174.69 48.4223C1175.92 47.551 1177.7 47 1179.65 47V43ZM1181.65 51.1059V45H1177.65V51.1059H1181.65ZM1181.65 51.5331V51.1059H1177.65V51.5331H1181.65ZM1179.65 53.5331H1230V49.5331H1179.65V53.5331ZM1228 51.5331V98.6091H1232V51.5331H1228ZM1230 96.6091H1180.22V100.609H1230V96.6091ZM1180.22 96.6091C1180.07 96.6091 1179.93 96.5984 1179.79 96.5781L1179.22 100.537C1179.54 100.585 1179.88 100.609 1180.22 100.609V96.6091ZM1181.5 98.609V98.5576H1177.5V98.609H1181.5ZM1168.94 92.6175C1168.94 95.1038 1170.38 97.1502 1172.3 98.4926C1174.23 99.8395 1176.78 100.609 1179.5 100.609L1179.5 96.609C1177.5 96.609 1175.77 96.0373 1174.6 95.2157C1173.42 94.3896 1172.94 93.4403 1172.94 92.6175H1168.94ZM1169.03 91.5804C1168.97 91.9204 1168.94 92.2667 1168.94 92.6175H1172.94C1172.94 92.4905 1172.95 92.3655 1172.97 92.2422L1169.03 91.5804ZM1169 51.1059V91.9113H1173V51.1059H1169ZM1169 51V51.1059H1173V51H1169ZM1171 49H1171V53H1171V49ZM1172.38 45.1544C1170.41 46.5475 1169.06 48.5937 1169 50.9509L1173 51.0491C1173.02 50.2442 1173.49 49.2694 1174.69 48.4223L1172.38 45.1544Z" fill="white" mask="url(#path-50-inside-7_386_22718)"/>
<path d="M1178.64 52.1211L1178.64 87.2141" stroke="white" stroke-width="2"/>
<path d="M1179.65 87.2148C1177.62 87.2148 1175.68 87.7559 1174.24 88.719C1172.81 89.6821 1172 90.9884 1172 92.3504C1172 93.7124 1172.81 95.0187 1174.24 95.9818C1175.68 96.9449 1177.62 97.486 1179.65 97.486" stroke="white" stroke-width="2"/>
<path d="M1213.91 76.645L1213.84 77.203L1214.28 77.5519L1217.3 79.9409L1214.49 84.869L1210.95 83.4309L1210.42 83.2166L1209.97 83.5607C1209.23 84.1171 1208.46 84.5882 1207.64 84.9301L1207.11 85.1486L1207.03 85.7135L1206.49 89.5421H1200.89L1200.34 85.7135L1200.26 85.1486L1199.74 84.9301C1198.91 84.5852 1198.14 84.1283 1197.42 83.5681L1196.96 83.2135L1196.43 83.4309L1192.89 84.869L1190.07 79.9409L1193.09 77.5519L1193.53 77.203L1193.46 76.645C1193.41 76.1766 1193.37 75.7176 1193.37 75.271C1193.37 74.8245 1193.41 74.3655 1193.46 73.8971L1193.53 73.3391L1193.09 72.9902L1190.07 70.6012L1192.89 65.6731L1196.43 67.1112L1196.95 67.3255L1197.41 66.9814C1198.14 66.425 1198.91 65.9539 1199.74 65.612L1200.26 65.3935L1200.34 64.8286L1200.89 61H1206.49L1207.03 64.8286L1207.11 65.3935L1207.64 65.612C1208.47 65.9569 1209.24 66.4138 1209.96 66.974L1210.41 67.3285L1210.95 67.1112L1214.49 65.6731L1217.3 70.6012L1214.28 72.9902L1213.84 73.3391L1213.91 73.8971C1213.97 74.3665 1214.01 74.8098 1214.01 75.271C1214.01 75.7323 1213.97 76.1756 1213.91 76.645Z" fill="#313131" stroke="white" stroke-width="2"/>
<circle cx="1203.68" cy="75.2705" r="4.28613" fill="#313131" stroke="white" stroke-width="2"/>
<circle cx="1201" cy="457" r="85" fill="#313131"/>
<path d="M1187.89 490.953H1186.87V503.107H1187.89V490.953ZM1177.35 499.867L1178.04 500.674C1179.25 499.915 1180.13 498.486 1180.57 496.812C1181 498.356 1181.84 499.669 1183.04 500.387L1183.7 499.594C1182.02 498.623 1181.07 496.524 1181.07 494.426V493.277H1183.3V492.389H1177.69V493.277H1180.03V494.426C1180.04 496.634 1179.05 498.855 1177.35 499.867ZM1182.37 496.217H1184.42V502.479H1185.43V491.254H1184.42V495.342H1182.37V496.217ZM1200.54 496.832H1189.46V497.721H1194.47V499.156H1190.82V502.943H1199.18V499.156H1195.52V497.721H1200.54V496.832ZM1190.5 492.238H1192.37V494.795H1190.54V495.684H1199.44V494.795H1197.61V492.238H1199.48V491.35H1190.5V492.238ZM1191.88 502.068V500.004H1198.13V502.068H1191.88ZM1193.44 494.795V492.238H1196.54V494.795H1193.44ZM1211.81 490.953H1210.79V503.107H1211.81V490.953ZM1201.27 499.867L1201.96 500.674C1203.17 499.915 1204.05 498.486 1204.49 496.812C1204.92 498.356 1205.76 499.669 1206.96 500.387L1207.62 499.594C1205.94 498.623 1204.99 496.524 1204.99 494.426V493.277H1207.22V492.389H1201.61V493.277H1203.95V494.426C1203.96 496.634 1202.97 498.855 1201.27 499.867ZM1206.29 496.217H1208.34V502.479H1209.35V491.254H1208.34V495.342H1206.29V496.217ZM1217.5 493.209V492.689H1220.23V491.814H1213.67V492.689H1216.44V493.209C1216.43 494.952 1215.16 496.518 1213.34 497.16L1213.92 497.994C1215.34 497.475 1216.46 496.401 1216.98 495.021C1217.5 496.278 1218.56 497.27 1219.94 497.762L1220.49 496.928C1218.69 496.306 1217.5 494.829 1217.5 493.209ZM1214.93 499.799H1221.82V503.107H1222.88V498.924H1214.93V499.799ZM1221.82 498.281H1222.88V495.082H1224.72V494.166H1222.88V490.953H1221.82V498.281Z" fill="white"/>
<mask id="path-58-inside-8_386_22718" fill="white">
<path fill-rule="evenodd" clip-rule="evenodd" d="M1173.59 423.538C1175.21 422.393 1177.41 421.75 1179.71 421.75V427.856V428.283H1230.06V475.359H1180.28C1180.03 475.359 1179.79 475.342 1179.56 475.308V475.359C1174.83 475.359 1171 472.677 1171 469.368C1171 469.129 1171.02 468.893 1171.06 468.661V427.856V427.75H1171.06C1171.1 426.169 1172.01 424.658 1173.59 423.538Z"/>
</mask>
<path fill-rule="evenodd" clip-rule="evenodd" d="M1173.59 423.538C1175.21 422.393 1177.41 421.75 1179.71 421.75V427.856V428.283H1230.06V475.359H1180.28C1180.03 475.359 1179.79 475.342 1179.56 475.308V475.359C1174.83 475.359 1171 472.677 1171 469.368C1171 469.129 1171.02 468.893 1171.06 468.661V427.856V427.75H1171.06C1171.1 426.169 1172.01 424.658 1173.59 423.538Z" fill="#313131"/>
<path d="M1179.71 421.75H1181.71V419.75H1179.71V421.75ZM1173.59 423.538L1172.44 421.904V421.904L1173.59 423.538ZM1179.71 428.283H1177.71V430.283H1179.71V428.283ZM1230.06 428.283H1232.06V426.283H1230.06V428.283ZM1230.06 475.359V477.359H1232.06V475.359H1230.06ZM1179.56 475.308L1179.84 473.328L1177.56 472.998V475.308H1179.56ZM1179.56 475.359L1179.56 477.359L1181.56 477.359V475.359H1179.56ZM1171.06 468.661L1173.03 468.992L1173.06 468.828V468.661H1171.06ZM1171.06 427.75V425.75H1169.06V427.75H1171.06ZM1171.06 427.75V429.75H1173.01L1173.06 427.799L1171.06 427.75ZM1179.71 419.75C1177.07 419.75 1174.45 420.486 1172.44 421.904L1174.75 425.172C1175.98 424.301 1177.76 423.75 1179.71 423.75V419.75ZM1181.71 427.856V421.75H1177.71V427.856H1181.71ZM1181.71 428.283V427.856H1177.71V428.283H1181.71ZM1179.71 430.283H1230.06V426.283H1179.71V430.283ZM1228.06 428.283V475.359H1232.06V428.283H1228.06ZM1230.06 473.359H1180.28V477.359H1230.06V473.359ZM1180.28 473.359C1180.13 473.359 1179.99 473.348 1179.84 473.328L1179.27 477.287C1179.6 477.335 1179.94 477.359 1180.28 477.359V473.359ZM1181.56 475.359V475.308H1177.56V475.359H1181.56ZM1169 469.368C1169 471.854 1170.44 473.9 1172.36 475.243C1174.28 476.589 1176.84 477.359 1179.56 477.359L1179.56 473.359C1177.56 473.359 1175.83 472.787 1174.65 471.966C1173.47 471.14 1173 470.19 1173 469.368H1169ZM1169.09 468.33C1169.03 468.67 1169 469.017 1169 469.368H1173C1173 469.24 1173.01 469.115 1173.03 468.992L1169.09 468.33ZM1169.06 427.856V468.661H1173.06V427.856H1169.06ZM1169.06 427.75V427.856H1173.06V427.75H1169.06ZM1171.06 425.75H1171.06V429.75H1171.06V425.75ZM1172.44 421.904C1170.47 423.297 1169.12 425.344 1169.06 427.701L1173.06 427.799C1173.08 426.994 1173.55 426.019 1174.75 425.172L1172.44 421.904Z" fill="white" mask="url(#path-58-inside-8_386_22718)"/>
<path d="M1178.7 428.871L1178.7 463.964" stroke="white" stroke-width="2"/>
<path d="M1179.71 463.965C1177.68 463.965 1175.73 464.506 1174.3 465.469C1172.86 466.432 1172.06 467.738 1172.06 469.1C1172.06 470.462 1172.86 471.769 1174.3 472.732C1175.73 473.695 1177.68 474.236 1179.71 474.236" stroke="white" stroke-width="2"/>
<path d="M1215.93 462.25V466.625" stroke="white" stroke-width="2" stroke-miterlimit="10"/>
<path d="M1191.43 462.25V466.625" stroke="white" stroke-width="2" stroke-miterlimit="10"/>
<path d="M1213.31 420.25H1187.06V432.5H1213.31V420.25Z" fill="#313131" stroke="white" stroke-width="2" stroke-miterlimit="10"/>
<path d="M1213.31 432.5H1187.06V444.75H1213.31V432.5Z" fill="#313131" stroke="white" stroke-width="2" stroke-miterlimit="10"/>
<path d="M1213.31 444.75H1187.06V457H1213.31V444.75Z" fill="#313131" stroke="white" stroke-width="2" stroke-miterlimit="10"/>
<path d="M1220.31 415H1187.06V420.25H1220.31V415Z" fill="#313131" stroke="white" stroke-width="2" stroke-miterlimit="10"/>
<path d="M1220.31 420.25H1213.31V432.5H1220.31V420.25Z" fill="#313131" stroke="white" stroke-width="2" stroke-miterlimit="10"/>
<path d="M1220.31 432.5H1213.31V444.75H1220.31V432.5Z" fill="#313131" stroke="white" stroke-width="2" stroke-miterlimit="10"/>
<path d="M1220.31 444.75H1213.31V457H1220.31V444.75Z" fill="#313131" stroke="white" stroke-width="2" stroke-miterlimit="10"/>
<path d="M1220.31 457H1187.06V462.25H1220.31V457Z" fill="#313131" stroke="white" stroke-width="2" stroke-miterlimit="10"/>
<path d="M914 457C914 503.944 875.944 542 829 542C782.056 542 744 503.944 744 457C744 410.056 782.056 372 829 372C875.944 372 914 410.056 914 457Z" fill="#313131"/>
<path d="M794.438 492.184H785.866V493.072H793.358V493.4C793.351 494.856 793.351 496.559 792.893 498.883L793.987 499.006C794.424 496.559 794.424 494.891 794.438 493.4V492.184ZM784.69 501.385H795.764V500.496H790.09V496.148H789.038V500.496H784.69V501.385ZM806.972 490.967H805.946V494.029H804.292V491.199H803.267V498.049H804.292V494.918H805.946V498.131H806.972V490.967ZM796.718 497.461L797.251 498.268C800.334 496.955 801.975 494.761 801.982 491.855H797.21V492.744H800.874C800.669 494.788 799.24 496.436 796.718 497.461ZM798.769 499.566H805.919V503.107H806.972V498.691H798.769V499.566ZM822.305 490.967H821.28V494.002H819.666V491.186H818.655V497.912H819.666V494.891H821.28V498.076H822.305V490.967ZM811.996 496.9L812.584 497.762C813.774 497.222 814.649 496.189 815.1 495.027C815.531 496.08 816.371 496.962 817.547 497.42L818.108 496.6C816.549 496.005 815.613 494.631 815.606 493.291V491.664H814.58V493.277C814.574 494.645 813.596 496.217 811.996 496.9ZM814.28 502.943H822.305V498.691H814.28V502.943ZM815.332 502.068V499.553H821.252V502.068H815.332ZM833.964 491.336H824.981V492.184H826.854V494.535H825.022V495.369H833.923V494.535H832.091V492.184H833.964V491.336ZM823.942 497.256H835.017V496.395H823.942V497.256ZM825.282 499.156H832.542V500.209H825.31V502.971H833.964V502.15H826.376V500.988H833.595V498.35H825.282V499.156ZM827.921 494.535V492.184H831.024V494.535H827.921ZM844.28 492.443H839.754V500.182H840.52C842.448 500.175 843.596 500.141 845.004 499.854L844.908 498.979C843.589 499.218 842.523 499.286 840.78 499.307V496.572H843.719V495.711H840.78V493.305H844.28V492.443ZM844.375 496.463H846.166V502.479H847.192V491.254H846.166V495.574H844.375V496.463ZM848.641 503.107H849.68V490.953H848.641V503.107ZM857.292 492.744V491.814H856.171V492.744C856.164 494.836 853.806 496.675 851.7 497.078L852.192 497.98C854.031 497.55 855.952 496.251 856.745 494.467C857.531 496.251 859.459 497.557 861.298 497.98L861.79 497.078C859.678 496.682 857.299 494.829 857.292 492.744ZM851.235 501.453H862.364V500.564H851.235V501.453ZM873.039 497.529H865.724V495.574H872.642V494.713H865.724V492.908H872.902V492.006H864.63V498.404H873.039V497.529ZM863.195 501.521H874.324V500.633H863.195V501.521Z" fill="white"/>
<path d="M841.25 467.5V471.875" stroke="white" stroke-width="2" stroke-miterlimit="10"/>
<path d="M816.75 467.5V471.875" stroke="white" stroke-width="2" stroke-miterlimit="10"/>
<path d="M838.625 425.5H812.375V437.75H838.625V425.5Z" stroke="white" stroke-width="2" stroke-miterlimit="10"/>
<path d="M838.625 437.75H812.375V450H838.625V437.75Z" stroke="white" stroke-width="2" stroke-miterlimit="10"/>
<path d="M838.625 450H812.375V462.25H838.625V450Z" stroke="white" stroke-width="2" stroke-miterlimit="10"/>
<path d="M845.625 420.25H812.375V425.5H845.625V420.25Z" stroke="white" stroke-width="2" stroke-miterlimit="10"/>
<path d="M845.625 425.5H838.625V437.75H845.625V425.5Z" stroke="white" stroke-width="2" stroke-miterlimit="10"/>
<path d="M845.625 437.75H838.625V450H845.625V437.75Z" stroke="white" stroke-width="2" stroke-miterlimit="10"/>
<path d="M845.625 450H838.625V462.25H845.625V450Z" stroke="white" stroke-width="2" stroke-miterlimit="10"/>
<path d="M845.625 462.25H812.375V467.5H845.625V462.25Z" stroke="white" stroke-width="2" stroke-miterlimit="10"/>
<path d="M854.672 460.138L854.603 460.696L855.044 461.045L858.173 463.52L855.249 468.637L851.581 467.147L851.054 466.933L850.6 467.277C849.844 467.851 849.048 468.337 848.196 468.69L847.669 468.909L847.589 469.474L847.026 473.44H841.211L840.649 469.474L840.569 468.909L840.042 468.69C839.183 468.334 838.39 467.862 837.647 467.284L837.191 466.93L836.656 467.147L832.989 468.637L830.065 463.52L833.193 461.045L833.634 460.696L833.565 460.138C833.506 459.655 833.464 459.181 833.464 458.72C833.464 458.259 833.506 457.785 833.565 457.302L833.634 456.744L833.193 456.395L830.065 453.92L832.989 448.803L836.656 450.293L837.184 450.507L837.637 450.163C838.394 449.589 839.19 449.103 840.042 448.75L840.569 448.531L840.649 447.966L841.211 444H847.026L847.589 447.966L847.669 448.531L848.196 448.75C849.055 449.106 849.848 449.578 850.591 450.156L851.046 450.51L851.581 450.293L855.249 448.803L858.173 453.92L855.044 456.395L854.603 456.744L854.672 457.302C854.732 457.786 854.773 458.244 854.773 458.72C854.773 459.196 854.732 459.654 854.672 460.138Z" fill="#313131" stroke="white" stroke-width="2"/>
<circle cx="844.115" cy="458.719" r="4.44154" fill="#313131" stroke="white" stroke-width="2"/>
<circle cx="457" cy="457" r="85" fill="#313131"/>
<path d="M438.817 492.799H437.012V490.953H435.946V498.172H437.012V496.285H438.817V495.383H437.012V493.688H438.817V492.799ZM427.743 494.549C427.736 496.237 429.09 497.399 430.928 497.406C432.781 497.399 434.114 496.237 434.128 494.549C434.114 492.854 432.781 491.685 430.928 491.691C429.09 491.685 427.736 492.854 427.743 494.549ZM428.796 494.549C428.789 493.407 429.698 492.594 430.928 492.607C432.173 492.594 433.068 493.407 433.075 494.549C433.068 495.697 432.173 496.49 430.928 496.504C429.698 496.49 428.789 495.697 428.796 494.549ZM429.083 500.824C429.09 502.239 430.634 503.08 433.116 503.08C435.597 503.08 437.122 502.239 437.122 500.824C437.122 499.382 435.597 498.548 433.116 498.541C430.634 498.548 429.09 499.382 429.083 500.824ZM430.163 500.824C430.149 499.942 431.284 499.416 433.116 499.416C434.955 499.416 436.076 499.942 436.083 500.824C436.076 501.699 434.955 502.212 433.116 502.219C431.284 502.212 430.149 501.699 430.163 500.824ZM443.558 493.25V491.705H442.505V493.209C442.498 495.096 441.282 496.743 439.429 497.393L440.017 498.254C441.453 497.7 442.553 496.586 443.066 495.137C443.606 496.422 444.679 497.447 446.06 497.953L446.607 497.092C444.816 496.47 443.551 494.925 443.558 493.25ZM441.384 502.848H449.533V501.945H442.478V499.074H441.384V502.848ZM447.906 499.936H448.972V495.602H450.804V494.686H448.972V490.953H447.906V499.936ZM457.5 497.994C458.02 497.987 458.443 497.57 458.443 497.051C458.443 496.531 458.02 496.114 457.5 496.107C456.987 496.114 456.563 496.531 456.57 497.051C456.563 497.57 456.987 497.987 457.5 497.994ZM474.805 490.953H473.78V503.107H474.805V490.953ZM464.264 499.867L464.948 500.674C466.165 499.915 467.047 498.486 467.484 496.812C467.908 498.356 468.756 499.669 469.952 500.387L470.608 499.594C468.933 498.623 467.983 496.524 467.983 494.426V493.277H470.212V492.389H464.606V493.277H466.944V494.426C466.951 496.634 465.96 498.855 464.264 499.867ZM469.282 496.217H471.333V502.479H472.344V491.254H471.333V495.342H469.282V496.217ZM487.503 500.646H482.472V497.693H481.392V500.646H476.374V501.549H487.503V500.646ZM476.921 497.256L477.372 498.117C479.198 497.741 481.153 496.531 481.932 494.829C482.711 496.511 484.673 497.693 486.533 498.062L486.97 497.215C484.871 496.873 482.479 495.205 482.472 493.264V492.963H486.546V492.061H477.29V492.963H481.365V493.264C481.365 495.205 478.979 496.907 476.921 497.256Z" fill="white"/>
<path d="M469.25 467.5V471.875" stroke="white" stroke-width="2" stroke-miterlimit="10"/>
<path d="M444.75 467.5V471.875" stroke="white" stroke-width="2" stroke-miterlimit="10"/>
<path d="M466.625 425.5H440.375V437.75H466.625V425.5Z" stroke="white" stroke-width="2" stroke-miterlimit="10"/>
<path d="M466.625 437.75H440.375V450H466.625V437.75Z" stroke="white" stroke-width="2" stroke-miterlimit="10"/>
<path d="M466.625 450H440.375V462.25H466.625V450Z" stroke="white" stroke-width="2" stroke-miterlimit="10"/>
<path d="M473.625 420.25H440.375V425.5H473.625V420.25Z" stroke="white" stroke-width="2" stroke-miterlimit="10"/>
<path d="M473.625 425.5H466.625V437.75H473.625V425.5Z" stroke="white" stroke-width="2" stroke-miterlimit="10"/>
<path d="M473.625 437.75H466.625V450H473.625V437.75Z" stroke="white" stroke-width="2" stroke-miterlimit="10"/>
<path d="M473.625 450H466.625V462.25H473.625V450Z" stroke="white" stroke-width="2" stroke-miterlimit="10"/>
<path d="M473.625 462.25H440.375V467.5H473.625V462.25Z" stroke="white" stroke-width="2" stroke-miterlimit="10"/>
<circle cx="472" cy="461" r="14" fill="#313131" stroke="white" stroke-width="2"/>
<path d="M472 455V467" stroke="white" stroke-width="2" stroke-linecap="square"/>
<path d="M478 461L466 461" stroke="white" stroke-width="2" stroke-linecap="square"/>
<circle cx="85" cy="457" r="85" fill="#313131"/>
<path d="M58.9249 491.746H53.4151V492.635H57.7833C57.5509 494.699 55.6915 496.312 52.7862 497.133L53.2374 497.98C56.7374 496.982 58.918 494.795 58.9249 491.746ZM54.837 502.943H62.7257V498.418H54.837V502.943ZM55.8761 502.068V499.279H61.6593V502.068H55.8761ZM58.9522 495H61.6456V497.898H62.7257V490.967H61.6456V494.098H58.9522V495ZM70.7068 492.088V491.391H69.5993V492.088C69.5993 493.831 67.3777 495.28 65.1833 495.588L65.6208 496.463C67.5144 496.148 69.3806 495.116 70.1599 493.612C70.9392 495.103 72.8122 496.148 74.6989 496.463L75.1364 495.588C72.9421 495.28 70.7136 493.804 70.7068 492.088ZM64.6091 498.705H69.5993V503.107H70.6521V498.705H75.6833V497.803H64.6091V498.705ZM86.2861 491.746H80.585V496.695H86.2861V491.746ZM81.46 502.232L81.8428 503.066C83.6748 502.813 85.3838 501.979 86.1152 500.831C86.8398 501.952 88.5078 502.813 90.333 503.066L90.7021 502.232C88.6172 501.973 86.6621 500.79 86.6689 499.607H90.2783V498.773H86.6416V497.584H85.5752V498.773H81.9658V499.607H85.5615C85.5615 500.817 83.5518 502 81.46 502.232ZM81.6377 495.848V492.621H85.2334V495.848H81.6377ZM88.9111 497.939H89.9639V490.953H88.9111V497.939ZM106.35 496.367H95.2893V497.201H100.28V498.336H96.6155V499.143H103.875V500.195H96.6428V502.971H105.297V502.15H97.7093V500.961H104.928V498.336H101.332V497.201H106.35V496.367ZM95.8772 494.986L96.1917 495.807C98.2288 495.636 100.061 495.007 100.813 493.852C101.558 495.007 103.39 495.636 105.42 495.807L105.748 494.986C103.506 494.843 101.606 494.084 101.414 492.867H105.229V492.02H101.332V490.885H100.28V492.02H96.4241V492.867H100.204C100.006 494.084 98.1057 494.843 95.8772 494.986ZM116.642 490.953H115.575V503.107H116.642V496.859H118.679V495.971H116.642V490.953ZM107.167 493.797H114.399V492.908H111.364V491.104H110.298V492.908H107.167V493.797ZM107.864 497.598C107.857 499.245 109.115 500.387 110.845 500.387C112.56 500.387 113.811 499.245 113.825 497.598C113.811 495.957 112.56 494.809 110.845 494.809C109.115 494.809 107.857 495.957 107.864 497.598ZM108.89 497.598C108.883 496.497 109.71 495.704 110.845 495.711C111.966 495.704 112.786 496.497 112.8 497.598C112.786 498.705 111.966 499.484 110.845 499.471C109.71 499.484 108.883 498.705 108.89 497.598Z" fill="white"/>
<path d="M97.25 467.5V471.875" stroke="white" stroke-width="2" stroke-miterlimit="10"/>
<path d="M72.75 467.5V471.875" stroke="white" stroke-width="2" stroke-miterlimit="10"/>
<path d="M94.625 425.5H68.375V437.75H94.625V425.5Z" stroke="white" stroke-width="2" stroke-miterlimit="10"/>
<path d="M94.625 437.75H68.375V450H94.625V437.75Z" stroke="white" stroke-width="2" stroke-miterlimit="10"/>
<path d="M94.625 450H68.375V462.25H94.625V450Z" stroke="white" stroke-width="2" stroke-miterlimit="10"/>
<path d="M101.625 420.25H68.375V425.5H101.625V420.25Z" stroke="white" stroke-width="2" stroke-miterlimit="10"/>
<path d="M101.625 425.5H94.625V437.75H101.625V425.5Z" stroke="white" stroke-width="2" stroke-miterlimit="10"/>
<path d="M101.625 437.75H94.625V450H101.625V437.75Z" stroke="white" stroke-width="2" stroke-miterlimit="10"/>
<path d="M101.625 450H94.625V462.25H101.625V450Z" stroke="white" stroke-width="2" stroke-miterlimit="10"/>
<path d="M101.625 462.25H68.375V467.5H101.625V462.25Z" stroke="white" stroke-width="2" stroke-miterlimit="10"/>
<path d="M114 461.5C114 468.924 107.764 475 100 475C92.2358 475 86 468.924 86 461.5C86 454.076 92.2358 448 100 448C107.764 448 114 454.076 114 461.5Z" fill="#313131" stroke="white" stroke-width="2"/>
<path d="M92.5 460.5L99 467L109 457" stroke="white" stroke-width="2"/>
<path d="M264 76L274 85L264 94" stroke="#BBBBBB" stroke-width="2" stroke-linecap="round" stroke-linejoin="round"/>
<path d="M1020 459L1010 468L1020 477" stroke="#BBBBBB" stroke-width="2" stroke-linecap="round" stroke-linejoin="round"/>
<path d="M77 276L86 266L95 276" stroke="#BBBBBB" stroke-width="2" stroke-linecap="round" stroke-linejoin="round"/>
<path d="M1195 267L1204 277L1213 267" stroke="#BBBBBB" stroke-width="2" stroke-linecap="round" stroke-linejoin="round"/>
<path d="M636 76L646 85L636 94" stroke="#BBBBBB" stroke-width="2" stroke-linecap="round" stroke-linejoin="round"/>
<path d="M649 459L639 468L649 477" stroke="#BBBBBB" stroke-width="2" stroke-linecap="round" stroke-linejoin="round"/>
<path d="M1011 76L1021 85L1011 94" stroke="#BBBBBB" stroke-width="2" stroke-linecap="round" stroke-linejoin="round"/>
<path d="M278 459L268 468L278 477" stroke="#BBBBBB" stroke-width="2" stroke-linecap="round" stroke-linejoin="round"/>
</svg>
