<svg width="873" height="358" viewBox="0 0 873 358" fill="none" xmlns="http://www.w3.org/2000/svg">
<g clip-path="url(#clip0_578_27079)">
<path d="M16.5566 31.041H15.2031V33.9766C13.5771 34.0293 12.0303 34.0381 10.7207 34.0469L10.9141 35.1895C13.7266 35.1982 17.5674 35.1719 21.1445 34.5215L21.0391 33.502C19.5977 33.7217 18.0684 33.8447 16.5566 33.9238V31.041ZM11.1953 30.4961L11.8633 31.5508C13.7441 30.9795 15.2031 29.7314 15.8799 28.0615C16.583 29.6436 18.0596 30.8477 19.9316 31.4102L20.582 30.3203C18.2705 29.6611 16.6006 28.0088 16.5566 25.9961H20.2305V24.8535H16.5566V22.9199H15.2031V24.8535H11.582V25.9961H15.168C15.1328 28.0967 13.5068 29.8105 11.1953 30.4961ZM22.0762 38.459H23.4473V22.7969H22.0762V38.459ZM39.3688 22.7969H38.0505V29.0898H35.7477V23.1484H34.4821V37.6152H35.7477V30.2324H38.0505V38.4238H39.3688V22.7969ZM26.5895 34.5566H27.5915C29.9909 34.5479 31.5817 34.4863 33.4626 34.0996L33.3395 32.9395C31.5993 33.291 30.1139 33.3701 27.9606 33.3789V25.8555H32.443V24.7129H26.5895V34.5566ZM45.9698 34.3984H52.1397V37H53.6514V34.3984H55.4268V33.0098H53.6514V24.2734H51.7002L45.9698 33.0977V34.3984ZM47.6748 33.0098V32.9043L51.9815 26.2773H52.1397V33.0098H47.6748ZM61.5046 37.1758C64.3259 37.1758 65.9519 34.8027 65.9519 30.6367C65.9519 26.5059 64.2995 24.0977 61.5046 24.0977C58.7009 24.0977 57.0486 26.5059 57.0573 30.6367C57.0486 34.8027 58.6833 37.1758 61.5046 37.1758ZM58.5866 30.6367C58.5954 27.3408 59.6765 25.4775 61.5046 25.4688C63.3327 25.4775 64.4138 27.3408 64.405 30.6367C64.4138 33.9326 63.3415 35.7695 61.5046 35.7695C59.6589 35.7695 58.5954 33.9326 58.5866 30.6367ZM70.5355 29.8984C72.1176 29.8984 73.4008 28.624 73.4008 27.0508C73.4008 25.4512 72.1176 24.168 70.5355 24.168C68.9447 24.168 67.6703 25.4512 67.6703 27.0508C67.6703 28.624 68.9447 29.8984 70.5355 29.8984ZM68.9184 27.0508C68.9271 26.1455 69.6479 25.4424 70.5355 25.4336C71.4232 25.4424 72.1264 26.1455 72.1352 27.0508C72.1264 27.9297 71.4232 28.6504 70.5355 28.6504C69.6479 28.6504 68.9271 27.9297 68.9184 27.0508ZM75.0971 30.6367C75.0883 34.6621 77.4525 37.1758 80.7221 37.1758C83.3061 37.1758 85.3979 35.6113 85.8549 33.0098H84.2729C83.8949 34.75 82.4008 35.6904 80.7221 35.6992C78.4193 35.6904 76.6352 33.915 76.6264 30.6367C76.6352 27.3496 78.4193 25.5742 80.7221 25.5742C82.4008 25.5742 83.9037 26.5234 84.2729 28.2812H85.8549C85.3803 25.6357 83.2973 24.0977 80.7221 24.0977C77.4525 24.0977 75.0883 26.6113 75.0971 30.6367Z" fill="black"/>
<path d="M16.5566 320.041H15.2031V322.977C13.5771 323.029 12.0303 323.038 10.7207 323.047L10.9141 324.189C13.7266 324.198 17.5674 324.172 21.1445 323.521L21.0391 322.502C19.5977 322.722 18.0684 322.845 16.5566 322.924V320.041ZM11.1953 319.496L11.8633 320.551C13.7441 319.979 15.2031 318.731 15.8799 317.062C16.583 318.644 18.0596 319.848 19.9316 320.41L20.582 319.32C18.2705 318.661 16.6006 317.009 16.5566 314.996H20.2305V313.854H16.5566V311.92H15.2031V313.854H11.582V314.996H15.168C15.1328 317.097 13.5068 318.811 11.1953 319.496ZM22.0762 327.459H23.4473V311.797H22.0762V327.459ZM40.318 324.242H33.7614V320.41H32.4079V324.242H26.0095V325.385H40.318V324.242ZM26.572 319.443L27.1872 320.586C29.5778 320.094 32.0651 318.477 33.0934 316.235C34.1042 318.485 36.6179 320.094 38.9997 320.586L39.6149 319.443C36.8903 318.978 33.8054 316.675 33.7966 314.064V312.869H32.3552V314.064C32.3464 316.692 29.3054 318.978 26.572 319.443ZM51.7705 319.865H46.1983V321.254H51.7705V319.865ZM58.3933 313.273H56.7937L53.6296 315.383V316.982L56.7234 314.926H56.7937V326H58.3933V313.273ZM65.7719 326.176C68.5932 326.176 70.2191 323.803 70.2191 319.637C70.2191 315.506 68.5668 313.098 65.7719 313.098C62.9682 313.098 61.3158 315.506 61.3246 319.637C61.3158 323.803 62.9506 326.176 65.7719 326.176ZM62.8539 319.637C62.8627 316.341 63.9437 314.478 65.7719 314.469C67.6 314.478 68.6811 316.341 68.6723 319.637C68.6811 322.933 67.6088 324.77 65.7719 324.77C63.9262 324.77 62.8627 322.933 62.8539 319.637ZM74.8028 318.898C76.3848 318.898 77.668 317.624 77.668 316.051C77.668 314.451 76.3848 313.168 74.8028 313.168C73.212 313.168 71.9376 314.451 71.9376 316.051C71.9376 317.624 73.212 318.898 74.8028 318.898ZM73.1856 316.051C73.1944 315.146 73.9151 314.442 74.8028 314.434C75.6905 314.442 76.3936 315.146 76.4024 316.051C76.3936 316.93 75.6905 317.65 74.8028 317.65C73.9151 317.65 73.1944 316.93 73.1856 316.051ZM79.3643 319.637C79.3555 323.662 81.7198 326.176 84.9893 326.176C87.5733 326.176 89.6651 324.611 90.1221 322.01H88.5401C88.1622 323.75 86.668 324.69 84.9893 324.699C82.6866 324.69 80.9024 322.915 80.8936 319.637C80.9024 316.35 82.6866 314.574 84.9893 314.574C86.668 314.574 88.171 315.523 88.5401 317.281H90.1221C89.6475 314.636 87.5645 313.098 84.9893 313.098C81.7198 313.098 79.3555 315.611 79.3643 319.637Z" fill="black"/>
<path d="M109.318 16.4826C109.123 16.2875 108.807 16.2875 108.612 16.4826L105.432 19.6623C105.237 19.8574 105.237 20.1737 105.432 20.3688C105.627 20.5639 105.943 20.5639 106.139 20.3688L108.965 17.5425L111.791 20.3688C111.986 20.5639 112.303 20.5639 112.498 20.3688C112.693 20.1737 112.693 19.8574 112.498 19.6623L109.318 16.4826ZM108.612 335.189C108.807 335.384 109.123 335.384 109.318 335.189L112.498 332.01C112.693 331.815 112.693 331.498 112.498 331.303C112.303 331.108 111.986 331.108 111.791 331.303L108.965 334.129L106.139 331.303C105.943 331.108 105.627 331.108 105.432 331.303C105.237 331.498 105.237 331.815 105.432 332.01L108.612 335.189ZM108.465 16.8359L108.465 334.836L109.464 334.836L109.464 16.8359L108.465 16.8359Z" fill="#313131"/>
<path d="M286 -6.62357L286 357.602" stroke="url(#paint0_linear_578_27079)" stroke-width="0.999252"/>
<path d="M632.318 -6.62357L632.318 357.602" stroke="url(#paint1_linear_578_27079)" stroke-width="0.999252"/>
<path d="M459.047 -6.62357L459.047 357.602" stroke="url(#paint2_linear_578_27079)" stroke-width="0.999252"/>
<path d="M805.592 -6.62357L805.592 357.602" stroke="url(#paint3_linear_578_27079)" stroke-width="0.999252"/>
<path d="M2004 144L109 144" stroke="#4A4A4A" stroke-width="0.999252" stroke-dasharray="3 4"/>
<path d="M2004 206L109 206" stroke="#4A4A4A" stroke-width="0.999252" stroke-dasharray="3 4"/>
<path d="M2039.71 175.68L108.469 175.68" stroke="#313131" stroke-width="0.999252"/>
<path d="M193.335 144.506C193.335 145.978 194.528 147.171 196 147.171C197.472 147.171 198.665 145.978 198.665 144.506C198.665 143.035 197.472 141.842 196 141.842C194.528 141.842 193.335 143.035 193.335 144.506ZM196.5 144.506V96H195.5V144.506H196.5Z" fill="#FF5F00"/>
<path d="M160.791 84.6963H156.195V83.5981C158.315 83.4712 159.655 82.6396 159.661 81.3066C159.655 79.8911 158.062 79.0278 155.599 79.0215C153.123 79.0278 151.53 79.8911 151.536 81.3066C151.53 82.6396 152.869 83.4712 155.002 83.5981V84.6963H150.419V85.6865H160.791V84.6963ZM151.727 89.8379H159.623V88.8604H152.945V86.5371H151.727V89.8379ZM152.78 81.3066C152.774 80.4941 153.853 79.9927 155.599 79.999C157.338 79.9927 158.423 80.4941 158.417 81.3066C158.423 82.1636 157.338 82.6333 155.599 82.6396C153.853 82.6333 152.774 82.1636 152.78 81.3066ZM170.741 83.9473H164.025V80.5576H170.64V79.5801H162.819V84.9121H166.107V87.6924H161.524V88.6826H171.934V87.6924H167.301V84.9121H170.741V83.9473ZM185.157 78.7041H183.951V80.8115H182.173V81.8018H183.951V82.9951H182.173V84.0107H183.951V87.1465H185.157V78.7041ZM175.686 84.5186L175.839 85.5342C177.66 85.5278 180.225 85.4834 182.402 85.1406L182.351 84.252C181.901 84.3027 181.437 84.3408 180.955 84.3789V80.5703H182.047V79.5928H176.004V80.5703H177.07V84.5122C176.581 84.5122 176.111 84.5186 175.686 84.5186ZM177.743 89.8379H185.449V88.8604H178.962V86.4609H177.743V89.8379ZM178.238 84.4932V80.5703H179.799V84.4424C179.273 84.4614 178.752 84.4805 178.238 84.4932ZM190.676 82.3604V81.6113H193.177V80.6465H190.702V78.9326H189.483V80.6465H186.982V81.6113H189.496V82.3604C189.489 84.2329 188.372 86.1753 186.639 86.9688L187.312 87.8955C188.613 87.2925 189.604 86.0356 190.105 84.5312C190.587 85.9214 191.521 87.1084 192.758 87.6924L193.444 86.7783C191.749 85.9658 190.676 84.1123 190.676 82.3604ZM194.434 90.0791H195.64V84.3027H197.468V83.2871H195.64V78.7041H194.434V90.0791ZM201.664 88.5938H207.631V87.4131H201.664V88.5938ZM201.664 84.9375H204.038V86.6768H205.257V84.9375H207.631V83.7695H205.257V82.0303H204.038V83.7695H201.664V84.9375ZM212.655 89.127C214.782 89.127 216.026 87.4131 216.032 84.4043C216.026 81.4146 214.763 79.6816 212.655 79.6816C210.542 79.6816 209.278 81.4146 209.278 84.4043C209.278 87.4131 210.529 89.127 212.655 89.127ZM210.675 84.4043C210.675 82.1191 211.418 80.8687 212.655 80.8623C213.887 80.8687 214.636 82.1191 214.636 84.4043C214.636 86.6958 213.893 87.9209 212.655 87.9209C211.411 87.9209 210.669 86.6958 210.675 84.4043ZM217.908 89.0889C218.397 89.0825 218.803 88.6826 218.81 88.1875C218.803 87.6924 218.397 87.2861 217.908 87.2861C217.413 87.2861 217.001 87.6924 217.007 88.1875C217.001 88.6826 217.413 89.0825 217.908 89.0889ZM223.275 89.127C225.192 89.127 226.551 87.8257 226.551 86.0166C226.551 84.2456 225.275 82.9634 223.542 82.957C222.844 82.9634 222.196 83.2109 221.815 83.5791H221.726L222.031 81.002H226.081V79.8086H220.876L220.279 84.9248H221.6C221.911 84.3599 222.476 84.1123 223.212 84.1123C224.367 84.125 225.192 84.9375 225.192 86.0547C225.192 87.1465 224.393 87.9526 223.275 87.959C222.349 87.9526 221.6 87.3813 221.523 86.6006H220.165C220.228 88.0669 221.536 89.127 223.275 89.127ZM229.899 83.96C231.067 83.9663 232.013 83.0205 232.007 81.8525C232.013 80.6846 231.067 79.7388 229.899 79.7324C228.731 79.7388 227.785 80.6846 227.792 81.8525C227.785 83.0205 228.731 83.9663 229.899 83.96ZM228.807 81.8525C228.814 81.2495 229.296 80.7671 229.899 80.7734C230.502 80.7671 230.985 81.2495 230.978 81.8525C230.985 82.4492 230.502 82.938 229.899 82.9443C229.296 82.938 228.814 82.4492 228.807 81.8525ZM233.175 84.4043C233.175 87.3433 234.92 89.127 237.313 89.127C239.338 89.127 240.817 87.8574 241.109 86.042L239.7 86.0293C239.459 87.2036 238.481 87.8511 237.326 87.8447C235.745 87.8511 234.565 86.645 234.558 84.4043C234.565 82.1763 235.739 80.9575 237.326 80.9639C238.494 80.9575 239.478 81.6177 239.7 82.8047H241.109C240.798 80.8306 239.256 79.6816 237.313 79.6816C234.933 79.6816 233.175 81.4653 233.175 84.4043Z" fill="#FF5F00"/>
<path d="M873 173.997C873 173.997 855.209 144 838.242 144C821.274 144 803.484 173.997 803.484 173.997C803.484 173.997 785.693 203.994 768.725 203.994C751.758 203.994 733.967 173.997 733.967 173.997C733.967 173.997 716.176 144 699.209 144C682.241 144 664.451 173.997 664.451 173.997C664.451 173.997 647.254 203.533 630.561 203.994C613.326 204.471 594.934 173.997 594.934 173.997C594.934 173.997 577.143 144 560.176 144C543.209 144 525.418 173.997 525.418 173.997C525.418 173.997 507.627 203.994 490.66 203.994C473.692 203.994 455.901 173.997 455.901 173.997C455.901 173.997 438.111 144 421.143 144C404.176 144 386.385 173.997 386.385 173.997C386.385 173.997 368.594 203.994 351.627 203.994C334.659 203.994 316.868 173.997 316.868 173.997C316.868 173.997 299.078 144 282.11 144C265.143 144 247.352 173.997 247.352 173.997C247.352 173.997 229.261 204.231 212.159 203.994C195.328 203.762 177.836 173.997 177.836 173.997C177.836 173.997 160.045 144 143.077 144C128.066 144 112.41 167.479 109 172.893" stroke="url(#paint4_linear_578_27079)" stroke-width="2" stroke-linecap="square"/>
<rect x="705" y="-20" width="284" height="391" fill="url(#paint5_linear_578_27079)"/>
</g>
<defs>
<linearGradient id="paint0_linear_578_27079" x1="286" y1="332.298" x2="286" y2="6.61211" gradientUnits="userSpaceOnUse">
<stop stop-color="#BBBBBB" stop-opacity="0"/>
<stop offset="0.175076" stop-color="#BBBBBB" stop-opacity="0.7"/>
<stop offset="0.479167" stop-color="#BBBBBB"/>
<stop offset="0.787373" stop-color="#BBBBBB" stop-opacity="0.7"/>
<stop offset="1" stop-color="#BBBBBB" stop-opacity="0"/>
</linearGradient>
<linearGradient id="paint1_linear_578_27079" x1="632.318" y1="332.298" x2="632.318" y2="6.61211" gradientUnits="userSpaceOnUse">
<stop stop-color="#BBBBBB" stop-opacity="0"/>
<stop offset="0.175076" stop-color="#BBBBBB" stop-opacity="0.7"/>
<stop offset="0.479167" stop-color="#BBBBBB"/>
<stop offset="0.787373" stop-color="#BBBBBB" stop-opacity="0.7"/>
<stop offset="1" stop-color="#BBBBBB" stop-opacity="0"/>
</linearGradient>
<linearGradient id="paint2_linear_578_27079" x1="459.047" y1="332.298" x2="459.047" y2="6.61211" gradientUnits="userSpaceOnUse">
<stop stop-color="#BBBBBB" stop-opacity="0"/>
<stop offset="0.175076" stop-color="#BBBBBB" stop-opacity="0.7"/>
<stop offset="0.479167" stop-color="#BBBBBB"/>
<stop offset="0.787373" stop-color="#BBBBBB" stop-opacity="0.7"/>
<stop offset="1" stop-color="#BBBBBB" stop-opacity="0"/>
</linearGradient>
<linearGradient id="paint3_linear_578_27079" x1="805.592" y1="332.298" x2="805.592" y2="6.61211" gradientUnits="userSpaceOnUse">
<stop stop-color="#BBBBBB" stop-opacity="0"/>
<stop offset="0.175076" stop-color="#BBBBBB" stop-opacity="0.7"/>
<stop offset="0.479167" stop-color="#BBBBBB"/>
<stop offset="0.787373" stop-color="#BBBBBB" stop-opacity="0.7"/>
<stop offset="1" stop-color="#BBBBBB" stop-opacity="0"/>
</linearGradient>
<linearGradient id="paint4_linear_578_27079" x1="491" y1="144" x2="491" y2="204" gradientUnits="userSpaceOnUse">
<stop stop-color="#FF7C33"/>
<stop offset="1" stop-color="#A5A5A5"/>
</linearGradient>
<linearGradient id="paint5_linear_578_27079" x1="881.574" y1="170.252" x2="689.191" y2="170.252" gradientUnits="userSpaceOnUse">
<stop stop-color="white"/>
<stop offset="1" stop-color="white" stop-opacity="0"/>
</linearGradient>
<clipPath id="clip0_578_27079">
<rect width="873" height="358" fill="white"/>
</clipPath>
</defs>
</svg>
