<svg width="870" height="469" viewBox="0 0 870 469" fill="none" xmlns="http://www.w3.org/2000/svg">
<path d="M854 190.998H62" stroke="url(#paint0_linear_1114_9159)" stroke-width="0.999252"/>
<path d="M826 138.998H62" stroke="url(#paint1_linear_1114_9159)" stroke-width="0.999252"/>
<path d="M694 4.99803L694 346.998" stroke="url(#paint2_linear_1114_9159)" stroke-width="0.999252" stroke-dasharray="3 3"/>
<rect x="694" y="138.998" width="160" height="208" fill="url(#paint3_linear_1114_9159)"/>
<rect x="536" y="138.998" width="158" height="208" fill="url(#paint4_linear_1114_9159)"/>
<rect x="378" y="190.998" width="158" height="156" fill="url(#paint5_linear_1114_9159)"/>
<rect x="62" y="294.998" width="158" height="52" fill="url(#paint6_linear_1114_9159)"/>
<path d="M119.356 367.76H117.774V371.768H115.77V368.041H114.224V376.689H115.77V373.139H117.774V377.252H119.356V367.76ZM106.665 375.934H107.702C109.601 375.934 111.314 375.846 113.362 375.441L113.204 374.07C111.429 374.422 109.917 374.527 108.335 374.545V368.99H106.665V375.934ZM108.757 380.469C108.739 382.341 110.805 383.466 114.083 383.457C117.353 383.466 119.436 382.341 119.444 380.469C119.436 378.588 117.353 377.463 114.083 377.463C110.805 377.463 108.739 378.588 108.757 380.469ZM110.409 380.469C110.392 379.396 111.798 378.772 114.083 378.764C116.368 378.772 117.766 379.396 117.774 380.469C117.766 381.532 116.368 382.147 114.083 382.139C111.798 382.147 110.392 381.532 110.409 380.469ZM135.682 375.406H129.301V373.736H134.012V372.4H124.749V369.781H133.907V368.463H123.096V373.736H127.684V375.406H121.303V376.742H135.682V375.406ZM123.008 380.627C123.008 382.455 125.056 383.483 128.475 383.492C131.868 383.483 133.898 382.455 133.907 380.627C133.898 378.799 131.868 377.771 128.475 377.762C125.056 377.771 123.008 378.799 123.008 380.627ZM124.696 380.627C124.687 379.634 126.067 379.062 128.475 379.062C130.848 379.062 132.237 379.634 132.237 380.627C132.237 381.638 130.848 382.191 128.475 382.174C126.067 382.191 124.687 381.638 124.696 380.627ZM143.145 368.41H141.51V375.283H148.928V368.41H147.275V370.555H143.145V368.41ZM143.092 377.85H151.617V379.273H143.127V383.334H153.814V381.998H144.762V380.504H153.27V376.531H143.092V377.85ZM143.145 373.947V371.838H147.275V373.947H143.145ZM151.6 375.846H153.27V372.4H155.555V371.047H153.27V367.742H151.6V375.846ZM169.912 369.975H164.269V367.971H162.617V369.975H156.957V371.328H169.912V369.975ZM156.271 381.752H170.685V380.398H166.906V377.586C168.049 377.085 168.69 376.276 168.681 375.213C168.69 373.332 166.669 372.225 163.443 372.242C160.191 372.225 158.178 373.332 158.187 375.213C158.178 376.276 158.82 377.085 159.963 377.586V380.398H156.271V381.752ZM159.892 375.213C159.875 374.141 161.193 373.534 163.443 373.525C165.658 373.534 166.985 374.141 166.976 375.213C166.985 376.276 165.658 376.883 163.443 376.883C161.193 376.883 159.875 376.276 159.892 375.213ZM161.633 380.398V378.052C162.177 378.14 162.784 378.184 163.443 378.184C164.102 378.184 164.717 378.14 165.271 378.052V380.398H161.633ZM188.993 367.742H187.323V371.75H184.388V373.121H187.323V377.111H188.993V367.742ZM175.862 375.688L176.741 377.023C178.622 376.329 180.002 374.914 180.688 373.156C181.373 374.712 182.674 375.978 184.44 376.584L185.302 375.266C182.92 374.457 181.496 372.515 181.505 370.52V370.186H184.88V368.832H176.39V370.186H179.8V370.537C179.809 372.708 178.306 374.835 175.862 375.688ZM178.394 380.521C178.385 382.394 180.406 383.483 183.72 383.492C187.016 383.483 189.037 382.394 189.046 380.521C189.037 378.649 187.016 377.56 183.72 377.551C180.406 377.56 178.385 378.649 178.394 380.521ZM180.046 380.521C180.037 379.449 181.408 378.843 183.72 378.852C186.014 378.843 187.385 379.449 187.394 380.521C187.385 381.585 186.014 382.191 183.72 382.174C181.408 382.191 180.037 381.585 180.046 380.521ZM197.04 372.383V370.713H200.626V369.324H191.749V370.713H195.352V372.383C195.335 375.099 193.577 378.052 191.204 379.168L192.171 380.486C194.008 379.59 195.484 377.674 196.214 375.424C196.943 377.524 198.42 379.265 200.274 380.082L201.188 378.781C198.762 377.744 197.031 375.02 197.04 372.383ZM202.612 383.492H204.282V367.742H202.612V383.492Z" fill="black"/>
<path d="M106.686 402.225C106.7 404.809 107.397 406.955 108.655 408.787H109.694C108.771 407.427 107.91 404.665 107.903 402.225C107.91 399.791 108.771 397.022 109.694 395.676H108.655C107.397 397.501 106.7 399.647 106.686 402.225ZM115.173 401.363H114.121V403.646C112.856 403.688 111.653 403.694 110.634 403.701L110.785 404.59C112.972 404.597 115.959 404.576 118.742 404.07L118.66 403.277C117.538 403.448 116.349 403.544 115.173 403.605V401.363ZM111.003 400.939L111.523 401.76C112.986 401.315 114.121 400.345 114.647 399.046C115.194 400.276 116.342 401.213 117.798 401.65L118.304 400.803C116.506 400.29 115.207 399.005 115.173 397.439H118.031V396.551H115.173V395.047H114.121V396.551H111.304V397.439H114.093C114.066 399.073 112.801 400.406 111.003 400.939ZM119.466 407.133H120.533V394.951H119.466V407.133ZM132.916 394.951H131.891V399.846H130.1V395.225H129.115V406.477H130.1V400.734H131.891V407.105H132.916V394.951ZM122.977 404.098H123.756C125.622 404.091 126.859 404.043 128.322 403.742L128.227 402.84C126.873 403.113 125.718 403.175 124.043 403.182V397.33H127.529V396.441H122.977V404.098ZM141.714 406.135C143.69 406.135 145.166 404.932 145.159 403.305C145.166 402.047 144.387 401.124 143.095 400.926V400.857C144.134 400.563 144.79 399.743 144.777 398.615C144.79 397.2 143.642 395.963 141.755 395.963C139.998 395.963 138.535 397.016 138.474 398.588H139.663C139.718 397.617 140.682 397.036 141.742 397.029C142.869 397.036 143.594 397.692 143.587 398.684C143.594 399.702 142.753 400.379 141.55 400.379H140.743V401.459H141.55C143.088 401.466 143.95 402.225 143.956 403.305C143.95 404.337 143.006 405.041 141.701 405.041C140.518 405.041 139.581 404.453 139.513 403.51H138.269C138.33 405.082 139.745 406.135 141.714 406.135ZM149.805 395.402C147.966 395.409 146.64 396.517 146.646 398.096C146.64 399.682 147.966 400.775 149.805 400.775C151.623 400.775 152.942 399.682 152.949 398.096C152.942 396.517 151.623 395.409 149.805 395.402ZM147.699 398.096C147.686 397.043 148.581 396.298 149.805 396.305C151.008 396.298 151.91 397.043 151.91 398.096C151.91 399.162 151.008 399.9 149.805 399.9C148.581 399.9 147.686 399.162 147.699 398.096ZM148.492 402.648H155.328V403.906H148.519V406.941H156.832V406.08H149.572V404.713H156.394V401.787H148.492V402.648ZM155.328 401.199H156.394V394.951H155.328V401.199ZM167.821 394.951H166.741V403.852H167.821V399.559H169.653V398.656H167.821V394.951ZM158.333 401.582L158.797 402.443C162.304 401.35 164.54 399.025 164.54 395.895H158.838V396.797H163.371C163.145 398.943 161.252 400.673 158.333 401.582ZM160.206 406.846H168.381V405.943H161.272V402.949H160.206V406.846ZM173.314 402.225C173.3 399.647 172.603 397.501 171.345 395.676H170.306C171.229 397.022 172.09 399.791 172.097 402.225C172.09 404.665 171.229 407.427 170.306 408.787H171.345C172.603 406.955 173.3 404.809 173.314 402.225Z" fill="#929292"/>
<path d="M271.714 370.344H268.638V368.199H266.985V370.344H263.892V371.697H271.714V370.344ZM264.401 376.268C264.393 378.421 265.834 379.933 267.812 379.924C269.807 379.933 271.23 378.421 271.239 376.268C271.23 374.149 269.807 372.646 267.812 372.646C265.834 372.646 264.393 374.149 264.401 376.268ZM265.878 376.268C265.869 374.958 266.678 374.044 267.812 374.035C268.945 374.044 269.763 374.958 269.763 376.268C269.763 377.604 268.945 378.5 267.812 378.5C266.678 378.5 265.869 377.604 265.878 376.268ZM272.435 382.754H274.017V375.67H275.827V383.492H277.409V367.742H275.827V374.299H274.017V368.094H272.435V382.754ZM293.682 375.406H287.301V373.736H292.012V372.4H282.749V369.781H291.907V368.463H281.096V373.736H285.684V375.406H279.303V376.742H293.682V375.406ZM281.008 380.627C281.008 382.455 283.056 383.483 286.475 383.492C289.868 383.483 291.898 382.455 291.907 380.627C291.898 378.799 289.868 377.771 286.475 377.762C283.056 377.771 281.008 378.799 281.008 380.627ZM282.696 380.627C282.687 379.634 284.067 379.062 286.475 379.062C288.848 379.062 290.237 379.634 290.237 380.627C290.237 381.638 288.848 382.191 286.475 382.174C284.067 382.191 282.687 381.638 282.696 380.627ZM312.043 367.742H310.373V373.402H307.121V374.773H310.373V383.527H312.043V367.742ZM298.719 379.133L299.738 380.434C301.558 379.502 302.99 377.542 303.693 375.257C304.397 377.401 305.794 379.238 307.613 380.117L308.615 378.781C306.198 377.709 304.52 374.835 304.52 372.172V370.695H308.018V369.324H299.352V370.695H302.832V372.172C302.823 375.002 301.127 377.981 298.719 379.133ZM328.633 376.039H322.269V374.519C325.205 374.343 327.059 373.191 327.068 371.346C327.059 369.386 324.853 368.19 321.443 368.182C318.015 368.19 315.809 369.386 315.818 371.346C315.809 373.191 317.664 374.343 320.617 374.519V376.039H314.271V377.41H328.633V376.039ZM316.082 383.158H327.015V381.805H317.769V378.588H316.082V383.158ZM317.541 371.346C317.532 370.221 319.026 369.526 321.443 369.535C323.851 369.526 325.354 370.221 325.345 371.346C325.354 372.532 323.851 373.183 321.443 373.191C319.026 373.183 317.532 372.532 317.541 371.346ZM346.607 369.254H335.374V370.607H344.937V370.801C344.928 372.69 344.928 374.923 344.321 377.973L346.009 378.148C346.598 374.923 346.598 372.743 346.607 370.801V369.254ZM333.862 381.365H348.224V379.977H340.982V374.422H339.329V379.977H333.862V381.365ZM352.667 377.182H351.014V383.299H361.737V377.182H360.067V378.852H352.667V377.182ZM349.239 376.197H363.6V374.809H349.239V376.197ZM350.012 372.523L350.645 373.842C353.176 373.49 355.409 372.286 356.428 370.599C357.439 372.277 359.663 373.49 362.212 373.842L362.809 372.523C359.795 372.154 357.281 370.396 357.272 368.586V367.918H355.567V368.586C355.558 370.449 353.062 372.128 350.012 372.523ZM352.667 381.963V380.152H360.067V381.963H352.667Z" fill="black"/>
<path d="M447.764 367.742H446.094V373.402H442.842V374.773H446.094V383.527H447.764V367.742ZM434.439 379.133L435.459 380.434C437.278 379.502 438.711 377.542 439.414 375.257C440.117 377.401 441.515 379.238 443.334 380.117L444.336 378.781C441.919 377.709 440.24 374.835 440.24 372.172V370.695H443.738V369.324H435.072V370.695H438.553V372.172C438.544 375.002 436.848 377.981 434.439 379.133ZM464.353 376.039H457.99V374.519C460.925 374.343 462.78 373.191 462.789 371.346C462.78 369.386 460.574 368.19 457.164 368.182C453.736 368.19 451.53 369.386 451.539 371.346C451.53 373.191 453.384 374.343 456.338 374.519V376.039H449.992V377.41H464.353V376.039ZM451.802 383.158H462.736V381.805H453.49V378.588H451.802V383.158ZM453.261 371.346C453.253 370.221 454.747 369.526 457.164 369.535C459.572 369.526 461.075 370.221 461.066 371.346C461.075 372.532 459.572 373.183 457.164 373.191C454.747 373.183 453.253 372.532 453.261 371.346ZM471.833 368.41H470.198V375.283H477.616V368.41H475.964V370.555H471.833V368.41ZM471.78 377.85H480.306V379.273H471.815V383.334H482.503V381.998H473.45V380.504H481.958V376.531H471.78V377.85ZM471.833 373.947V371.838H475.964V373.947H471.833ZM480.288 375.846H481.958V372.4H484.243V371.047H481.958V367.742H480.288V375.846ZM498.6 369.975H492.958V367.971H491.305V369.975H485.645V371.328H498.6V369.975ZM484.96 381.752H499.374V380.398H495.594V377.586C496.737 377.085 497.379 376.276 497.37 375.213C497.379 373.332 495.357 372.225 492.132 372.242C488.88 372.225 486.867 373.332 486.876 375.213C486.867 376.276 487.508 377.085 488.651 377.586V380.398H484.96V381.752ZM488.581 375.213C488.563 374.141 489.882 373.534 492.132 373.525C494.346 373.534 495.674 374.141 495.665 375.213C495.674 376.276 494.346 376.883 492.132 376.883C489.882 376.883 488.563 376.276 488.581 375.213ZM490.321 380.398V378.052C490.866 378.14 491.472 378.184 492.132 378.184C492.791 378.184 493.406 378.14 493.96 378.052V380.398H490.321Z" fill="black"/>
<path d="M605.359 369.254H594.127V370.607H603.689V370.801C603.681 372.69 603.681 374.923 603.074 377.973L604.762 378.148C605.351 374.923 605.351 372.743 605.359 370.801V369.254ZM592.615 381.365H606.977V379.977H599.734V374.422H598.082V379.977H592.615V381.365ZM622.353 376.039H615.99V374.519C618.925 374.343 620.78 373.191 620.789 371.346C620.78 369.386 618.574 368.19 615.164 368.182C611.736 368.19 609.53 369.386 609.539 371.346C609.53 373.191 611.384 374.343 614.338 374.519V376.039H607.992V377.41H622.353V376.039ZM609.802 383.158H620.736V381.805H611.49V378.588H609.802V383.158ZM611.261 371.346C611.253 370.221 612.747 369.526 615.164 369.535C617.572 369.526 619.075 370.221 619.066 371.346C619.075 372.532 617.572 373.183 615.164 373.191C612.747 373.183 611.253 372.532 611.261 371.346ZM629.833 368.41H628.198V375.283H635.616V368.41H633.964V370.555H629.833V368.41ZM629.78 377.85H638.306V379.273H629.815V383.334H640.503V381.998H631.45V380.504H639.958V376.531H629.78V377.85ZM629.833 373.947V371.838H633.964V373.947H629.833ZM638.288 375.846H639.958V372.4H642.243V371.047H639.958V367.742H638.288V375.846ZM656.6 369.975H650.958V367.971H649.305V369.975H643.645V371.328H656.6V369.975ZM642.96 381.752H657.374V380.398H653.594V377.586C654.737 377.085 655.379 376.276 655.37 375.213C655.379 373.332 653.357 372.225 650.132 372.242C646.88 372.225 644.867 373.332 644.876 375.213C644.867 376.276 645.508 377.085 646.651 377.586V380.398H642.96V381.752ZM646.581 375.213C646.563 374.141 647.882 373.534 650.132 373.525C652.346 373.534 653.674 374.141 653.665 375.213C653.674 376.276 652.346 376.883 650.132 376.883C647.882 376.883 646.563 376.276 646.581 375.213ZM648.321 380.398V378.052C648.866 378.14 649.472 378.184 650.132 378.184C650.791 378.184 651.406 378.14 651.96 378.052V380.398H648.321Z" fill="black"/>
<path d="M748.457 369.254H746.875V379.607H753.01V375.037H755.102V382.736H756.701V368.059H755.102V373.648H753.01V369.254H751.48V373.033H748.457V369.254ZM748.457 378.219V374.387H751.48V378.219H748.457ZM758.301 383.492H759.9V367.742H758.301V383.492ZM774.767 367.742H773.097V383.527H774.767V367.742ZM762.269 374.439C762.269 377.841 763.966 379.985 766.347 379.977C768.685 379.985 770.408 377.841 770.408 374.439C770.408 371.073 768.685 368.929 766.347 368.92C763.966 368.929 762.269 371.073 762.269 374.439ZM763.886 374.439C763.878 371.97 764.88 370.423 766.347 370.414C767.789 370.423 768.791 371.97 768.791 374.439C768.791 376.944 767.789 378.482 766.347 378.482C764.88 378.482 763.878 376.944 763.886 374.439ZM785.521 368.779H778.208V370.115H783.745C783.693 370.669 783.57 371.205 783.368 371.706L777.417 371.943L777.681 373.297L782.7 372.91C781.724 374.229 780.063 375.283 777.505 376.004L778.12 377.34C783.271 375.837 785.521 372.919 785.521 368.779ZM779.527 380.434C779.527 382.358 781.575 383.457 784.906 383.457C788.175 383.457 790.241 382.358 790.232 380.434C790.241 378.5 788.175 377.384 784.906 377.375C781.575 377.384 779.527 378.5 779.527 380.434ZM781.197 380.434C781.205 379.335 782.559 378.702 784.906 378.693C787.191 378.702 788.579 379.335 788.579 380.434C788.579 381.515 787.191 382.156 784.906 382.156C782.559 382.156 781.205 381.515 781.197 380.434ZM788.492 377.164H790.161V367.76H788.492V377.164ZM802.194 370.572V370.133H805.587V368.779H797.061V370.133H800.524V370.555C800.515 372.726 799.03 374.765 796.569 375.6L797.466 376.9C799.311 376.25 800.682 374.905 801.368 373.209C802.053 374.756 803.363 375.986 805.147 376.602L805.991 375.301C803.583 374.492 802.185 372.585 802.194 370.572ZM798.661 379.361H807.397V383.492H809.067V378.008H798.661V379.361ZM807.397 377.234H809.067V373.191H811.352V371.785H809.067V367.742H807.397V377.234ZM816.428 368.463C814.02 368.445 812.288 369.975 812.297 372.119C812.288 374.29 814.02 375.811 816.428 375.811C818.52 375.811 820.137 374.598 820.462 372.787H823.53V376.197H825.2V367.742H823.53V371.416H820.454C820.111 369.649 818.502 368.445 816.428 368.463ZM813.897 372.119C813.888 370.766 814.943 369.843 816.428 369.852C817.887 369.843 818.924 370.766 818.924 372.119C818.924 373.464 817.887 374.404 816.428 374.404C814.943 374.404 813.888 373.464 813.897 372.119ZM814.934 383.299H825.2V376.953H823.53V378.781H816.586V376.953H814.934V383.299ZM816.586 381.928V380.1H823.53V381.928H816.586Z" fill="black"/>
<path d="M854 294.998H62" stroke="url(#paint7_linear_1114_9159)" stroke-width="0.999252"/>
<path d="M854 242.998H62" stroke="url(#paint8_linear_1114_9159)" stroke-width="0.999252"/>
<g opacity="0.3">
<path d="M220 4.99803L220 346.998" stroke="url(#paint9_linear_1114_9159)" stroke-width="0.999252"/>
<path d="M536 4.99803L536 346.998" stroke="url(#paint10_linear_1114_9159)" stroke-width="0.999252"/>
<path d="M378 4.99803L378 346.998" stroke="url(#paint11_linear_1114_9159)" stroke-width="0.999252"/>
<path opacity="0.8" d="M694 4.99803L694 346.998" stroke="url(#paint12_linear_1114_9159)" stroke-width="0.999252"/>
<path opacity="0.6" d="M854 4.99803L854 346.998" stroke="url(#paint13_linear_1114_9159)" stroke-width="0.999252"/>
</g>
<rect x="220" y="242.998" width="158" height="104" fill="url(#paint14_linear_1114_9159)"/>
<circle cx="694" cy="138.998" r="11.5" fill="white" stroke="#FF5F00"/>
<circle cx="694" cy="138.998" r="7" fill="#FF5F00"/>
<path d="M82.7402 311.758H78.0938V310.577C80.2329 310.463 81.5786 309.65 81.585 308.317C81.5786 306.927 80.0234 306.089 77.5986 306.083C75.1484 306.089 73.5996 306.927 73.5996 308.317C73.5996 309.65 74.939 310.463 77.1035 310.577V311.758H72.457V312.583H82.7402V311.758ZM73.79 316.785H81.5977V315.947H74.793V313.497H73.79V316.785ZM74.6279 308.317C74.6216 307.454 75.7769 306.896 77.5986 306.896C79.4077 306.896 80.563 307.454 80.5693 308.317C80.563 309.238 79.4077 309.765 77.5986 309.765C75.7769 309.765 74.6216 309.238 74.6279 308.317ZM92.8076 311.034H86.0156V307.479H92.6934V306.667H85.0127V311.847H88.3389V314.767H83.6924V315.604H94.0264V314.767H89.3164V311.847H92.8076V311.034ZM102.558 311.567H98.5332V312.57H102.558V311.567ZM107.217 316.125C109.051 316.125 110.384 314.843 110.391 313.065C110.384 311.275 109.096 309.98 107.344 309.98C106.696 309.98 106.081 310.196 105.668 310.514H105.579L105.922 307.822H109.946V306.807H104.97L104.322 311.834H105.427C105.763 311.237 106.366 310.996 107.141 311.009C108.378 311.015 109.273 311.897 109.273 313.091C109.273 314.246 108.41 315.116 107.217 315.122C106.22 315.116 105.42 314.506 105.338 313.688H104.233C104.303 315.103 105.56 316.125 107.217 316.125ZM113.895 310.869C115.037 310.869 115.964 309.949 115.964 308.812C115.964 307.657 115.037 306.73 113.895 306.73C112.746 306.73 111.825 307.657 111.825 308.812C111.825 309.949 112.746 310.869 113.895 310.869ZM112.727 308.812C112.733 308.159 113.253 307.651 113.895 307.645C114.536 307.651 115.043 308.159 115.05 308.812C115.043 309.447 114.536 309.968 113.895 309.968C113.253 309.968 112.733 309.447 112.727 308.812ZM117.189 311.402C117.183 314.31 118.89 316.125 121.251 316.125C123.118 316.125 124.628 314.995 124.958 313.116H123.816C123.543 314.373 122.464 315.052 121.251 315.059C119.588 315.052 118.3 313.77 118.293 311.402C118.3 309.028 119.588 307.746 121.251 307.746C122.464 307.746 123.549 308.432 123.816 309.701H124.958C124.616 307.791 123.111 306.68 121.251 306.68C118.89 306.68 117.183 308.495 117.189 311.402ZM132.963 306.375H131.96L129.002 317.382H129.992L132.963 306.375ZM139.171 312.52H138.181V316.874H145.811V312.52H144.808V313.84H139.171V312.52ZM136.873 311.72H147.156V310.895H136.873V311.72ZM137.457 309.295L137.838 310.095C139.577 309.834 141.304 308.952 142.021 307.683C142.738 308.946 144.458 309.834 146.204 310.095L146.572 309.295C144.585 309.041 142.529 307.791 142.535 306.4V305.867H141.507V306.4C141.507 307.835 139.469 309.022 137.457 309.295ZM139.171 316.074V314.627H144.808V316.074H139.171ZM157.224 311.034H150.432V307.479H157.109V306.667H149.429V311.847H152.755V314.767H148.108V315.604H158.442V314.767H153.732V311.847H157.224V311.034ZM166.974 311.567H162.949V312.57H166.974V311.567Z" fill="#4A4A4A"/>
<path d="M240.74 259.758H236.094V258.577C238.233 258.463 239.579 257.65 239.585 256.317C239.579 254.927 238.023 254.089 235.599 254.083C233.148 254.089 231.6 254.927 231.6 256.317C231.6 257.65 232.939 258.463 235.104 258.577V259.758H230.457V260.583H240.74V259.758ZM231.79 264.785H239.598V263.947H232.793V261.497H231.79V264.785ZM232.628 256.317C232.622 255.454 233.777 254.896 235.599 254.896C237.408 254.896 238.563 255.454 238.569 256.317C238.563 257.238 237.408 257.765 235.599 257.765C233.777 257.765 232.622 257.238 232.628 256.317ZM250.808 259.034H244.016V255.479H250.693V254.667H243.013V259.847H246.339V262.767H241.692V263.604H252.026V262.767H247.316V259.847H250.808V259.034ZM256.597 263.998H262.563V262.982H258.184V262.906L260.291 260.735C261.916 259.06 262.392 258.26 262.398 257.231C262.392 255.803 261.211 254.68 259.542 254.68C257.879 254.68 256.622 255.771 256.635 257.396H257.714C257.72 256.368 258.406 255.676 259.504 255.67C260.539 255.676 261.326 256.286 261.332 257.231C261.326 258.082 260.805 258.704 259.72 259.859L256.584 263.16L256.597 263.998ZM266.144 258.869C267.286 258.869 268.213 257.949 268.213 256.812C268.213 255.657 267.286 254.73 266.144 254.73C264.995 254.73 264.074 255.657 264.074 256.812C264.074 257.949 264.995 258.869 266.144 258.869ZM264.976 256.812C264.982 256.159 265.502 255.651 266.144 255.645C266.785 255.651 267.292 256.159 267.299 256.812C267.292 257.447 266.785 257.968 266.144 257.968C265.502 257.968 264.982 257.447 264.976 256.812ZM269.438 259.402C269.432 262.31 271.139 264.125 273.5 264.125C275.367 264.125 276.877 262.995 277.208 261.116H276.065C275.792 262.373 274.713 263.052 273.5 263.059C271.837 263.052 270.549 261.77 270.542 259.402C270.549 257.028 271.837 255.746 273.5 255.746C274.713 255.746 275.798 256.432 276.065 257.701H277.208C276.865 255.791 275.36 254.68 273.5 254.68C271.139 254.68 269.432 256.495 269.438 259.402ZM285.212 254.375H284.209L281.251 265.382H282.241L285.212 254.375ZM291.42 260.52H290.43V264.874H298.06V260.52H297.057V261.84H291.42V260.52ZM289.122 259.72H299.405V258.895H289.122V259.72ZM289.706 257.295L290.087 258.095C291.826 257.834 293.553 256.952 294.27 255.683C294.987 256.946 296.708 257.834 298.453 258.095L298.821 257.295C296.834 257.041 294.778 255.791 294.784 254.4V253.867H293.756V254.4C293.756 255.835 291.718 257.022 289.706 257.295ZM291.42 264.074V262.627H297.057V264.074H291.42ZM309.473 259.034H302.681V255.479H309.358V254.667H301.678V259.847H305.004V262.767H300.357V263.604H310.691V262.767H305.981V259.847H309.473V259.034ZM315.554 263.998H316.747L320.949 255.873V254.807H314.906V255.822H319.769V255.886L315.554 263.998ZM325.304 264.125C327.138 264.125 328.471 262.843 328.478 261.065C328.471 259.275 327.183 257.98 325.431 257.98C324.783 257.98 324.167 258.196 323.755 258.514H323.666L324.009 255.822H328.033V254.807H323.057L322.409 259.834H323.514C323.85 259.237 324.453 258.996 325.228 259.009C326.465 259.015 327.36 259.897 327.36 261.091C327.36 262.246 326.497 263.116 325.304 263.122C324.307 263.116 323.507 262.506 323.425 261.688H322.32C322.39 263.103 323.647 264.125 325.304 264.125ZM332.007 259.072C333.188 259.079 333.841 258.177 333.848 256.863C333.841 255.568 333.213 254.667 332.007 254.667C330.845 254.667 330.16 255.568 330.166 256.863C330.16 258.177 330.82 259.079 332.007 259.072ZM331.067 263.998H332.096L338.418 254.807H337.39L331.067 263.998ZM331.093 256.863C331.093 256.019 331.404 255.46 332.007 255.454C332.648 255.441 332.921 256.019 332.921 256.863C332.921 257.72 332.629 258.285 332.007 258.285C331.391 258.285 331.093 257.72 331.093 256.863ZM335.777 261.929C335.765 263.236 336.418 264.131 337.618 264.125C338.792 264.131 339.446 263.236 339.446 261.929C339.446 260.621 338.805 259.726 337.618 259.72C336.444 259.726 335.765 260.621 335.777 261.929ZM336.691 261.929C336.698 261.072 337.002 260.513 337.618 260.507C338.253 260.494 338.52 261.072 338.52 261.929C338.52 262.779 338.234 263.344 337.618 263.338C336.996 263.344 336.698 262.779 336.691 261.929Z" fill="#4A4A4A"/>
<path d="M398.74 207.758H394.094V206.577C396.233 206.463 397.579 205.65 397.585 204.317C397.579 202.927 396.023 202.089 393.599 202.083C391.148 202.089 389.6 202.927 389.6 204.317C389.6 205.65 390.939 206.463 393.104 206.577V207.758H388.457V208.583H398.74V207.758ZM389.79 212.785H397.598V211.947H390.793V209.497H389.79V212.785ZM390.628 204.317C390.622 203.454 391.777 202.896 393.599 202.896C395.408 202.896 396.563 203.454 396.569 204.317C396.563 205.238 395.408 205.765 393.599 205.765C391.777 205.765 390.622 205.238 390.628 204.317ZM408.808 207.034H402.016V203.479H408.693V202.667H401.013V207.847H404.339V210.767H399.692V211.604H410.026V210.767H405.316V207.847H408.808V207.034ZM417.847 202.807H416.691L414.406 204.33V205.485L416.641 204H416.691V211.998H417.847V202.807ZM423.293 212.125C425.127 212.125 426.46 210.843 426.467 209.065C426.46 207.275 425.172 205.98 423.42 205.98C422.772 205.98 422.157 206.196 421.744 206.514H421.655L421.998 203.822H426.022V202.807H421.046L420.398 207.834H421.503C421.839 207.237 422.442 206.996 423.217 207.009C424.455 207.015 425.35 207.897 425.35 209.091C425.35 210.246 424.486 211.116 423.293 211.122C422.296 211.116 421.497 210.506 421.414 209.688H420.31C420.379 211.103 421.636 212.125 423.293 212.125ZM429.971 206.869C431.113 206.869 432.04 205.949 432.04 204.812C432.04 203.657 431.113 202.73 429.971 202.73C428.822 202.73 427.901 203.657 427.901 204.812C427.901 205.949 428.822 206.869 429.971 206.869ZM428.803 204.812C428.809 204.159 429.33 203.651 429.971 203.645C430.612 203.651 431.12 204.159 431.126 204.812C431.12 205.447 430.612 205.968 429.971 205.968C429.33 205.968 428.809 205.447 428.803 204.812ZM433.265 207.402C433.259 210.31 434.966 212.125 437.328 212.125C439.194 212.125 440.705 210.995 441.035 209.116H439.892C439.619 210.373 438.54 211.052 437.328 211.059C435.665 211.052 434.376 209.77 434.37 207.402C434.376 205.028 435.665 203.746 437.328 203.746C438.54 203.746 439.625 204.432 439.892 205.701H441.035C440.692 203.791 439.188 202.68 437.328 202.68C434.966 202.68 433.259 204.495 433.265 207.402ZM449.039 202.375H448.036L445.078 213.382H446.068L449.039 202.375ZM455.247 208.52H454.257V212.874H461.887V208.52H460.884V209.84H455.247V208.52ZM452.949 207.72H463.232V206.895H452.949V207.72ZM453.533 205.295L453.914 206.095C455.653 205.834 457.38 204.952 458.097 203.683C458.814 204.946 460.535 205.834 462.28 206.095L462.648 205.295C460.662 205.041 458.605 203.791 458.611 202.4V201.867H457.583V202.4C457.583 203.835 455.545 205.022 453.533 205.295ZM455.247 212.074V210.627H460.884V212.074H455.247ZM473.3 207.034H466.508V203.479H473.186V202.667H465.505V207.847H468.831V210.767H464.185V211.604H474.519V210.767H469.809V207.847H473.3V207.034ZM479.381 211.998H480.574L484.776 203.873V202.807H478.733V203.822H483.596V203.886L479.381 211.998ZM489.131 212.125C490.965 212.125 492.298 210.843 492.305 209.065C492.298 207.275 491.01 205.98 489.258 205.98C488.61 205.98 487.995 206.196 487.582 206.514H487.493L487.836 203.822H491.86V202.807H486.884L486.236 207.834H487.341C487.677 207.237 488.28 206.996 489.055 207.009C490.292 207.015 491.188 207.897 491.188 209.091C491.188 210.246 490.324 211.116 489.131 211.122C488.134 211.116 487.334 210.506 487.252 209.688H486.147C486.217 211.103 487.474 212.125 489.131 212.125ZM495.834 207.072C497.015 207.079 497.668 206.177 497.675 204.863C497.668 203.568 497.04 202.667 495.834 202.667C494.672 202.667 493.987 203.568 493.993 204.863C493.987 206.177 494.647 207.079 495.834 207.072ZM494.895 211.998H495.923L502.245 202.807H501.217L494.895 211.998ZM494.92 204.863C494.92 204.019 495.231 203.46 495.834 203.454C496.475 203.441 496.748 204.019 496.748 204.863C496.748 205.72 496.456 206.285 495.834 206.285C495.218 206.285 494.92 205.72 494.92 204.863ZM499.604 209.929C499.592 211.236 500.246 212.131 501.445 212.125C502.62 212.131 503.273 211.236 503.273 209.929C503.273 208.621 502.632 207.726 501.445 207.72C500.271 207.726 499.592 208.621 499.604 209.929ZM500.519 209.929C500.525 209.072 500.83 208.513 501.445 208.507C502.08 208.494 502.347 209.072 502.347 209.929C502.347 210.779 502.061 211.344 501.445 211.338C500.823 211.344 500.525 210.779 500.519 209.929Z" fill="#4A4A4A"/>
<path d="M556.74 155.758H552.094V154.577C554.233 154.463 555.579 153.65 555.585 152.317C555.579 150.927 554.023 150.089 551.599 150.083C549.148 150.089 547.6 150.927 547.6 152.317C547.6 153.65 548.939 154.463 551.104 154.577V155.758H546.457V156.583H556.74V155.758ZM547.79 160.785H555.598V159.947H548.793V157.497H547.79V160.785ZM548.628 152.317C548.622 151.454 549.777 150.896 551.599 150.896C553.408 150.896 554.563 151.454 554.569 152.317C554.563 153.238 553.408 153.765 551.599 153.765C549.777 153.765 548.622 153.238 548.628 152.317ZM566.808 155.034H560.016V151.479H566.693V150.667H559.013V155.847H562.339V158.767H557.692V159.604H568.026V158.767H563.316V155.847H566.808V155.034ZM575.771 160.125C577.605 160.125 578.976 159.008 578.97 157.497C578.976 156.329 578.252 155.472 577.053 155.288V155.225C578.018 154.952 578.627 154.19 578.614 153.143C578.627 151.829 577.561 150.68 575.809 150.68C574.177 150.68 572.819 151.657 572.762 153.117H573.866C573.917 152.216 574.812 151.676 575.796 151.67C576.843 151.676 577.516 152.286 577.51 153.206C577.516 154.152 576.735 154.78 575.618 154.78H574.869V155.783H575.618C577.046 155.79 577.846 156.494 577.853 157.497C577.846 158.456 576.97 159.109 575.758 159.109C574.66 159.109 573.79 158.563 573.727 157.688H572.571C572.628 159.147 573.942 160.125 575.771 160.125ZM583.616 160.125C585.451 160.125 586.784 158.843 586.79 157.065C586.784 155.275 585.495 153.98 583.743 153.98C583.096 153.98 582.48 154.196 582.067 154.514H581.979L582.321 151.822H586.346V150.807H581.369L580.722 155.834H581.826C582.163 155.237 582.766 154.996 583.54 155.009C584.778 155.015 585.673 155.897 585.673 157.091C585.673 158.246 584.81 159.116 583.616 159.122C582.62 159.116 581.82 158.506 581.737 157.688H580.633C580.703 159.103 581.959 160.125 583.616 160.125ZM590.294 154.869C591.437 154.869 592.363 153.949 592.363 152.812C592.363 151.657 591.437 150.73 590.294 150.73C589.145 150.73 588.225 151.657 588.225 152.812C588.225 153.949 589.145 154.869 590.294 154.869ZM589.126 152.812C589.132 152.159 589.653 151.651 590.294 151.645C590.935 151.651 591.443 152.159 591.449 152.812C591.443 153.447 590.935 153.968 590.294 153.968C589.653 153.968 589.132 153.447 589.126 152.812ZM593.588 155.402C593.582 158.31 595.29 160.125 597.651 160.125C599.517 160.125 601.028 158.995 601.358 157.116H600.215C599.942 158.373 598.863 159.052 597.651 159.059C595.988 159.052 594.699 157.77 594.693 155.402C594.699 153.028 595.988 151.746 597.651 151.746C598.863 151.746 599.949 152.432 600.215 153.701H601.358C601.015 151.791 599.511 150.68 597.651 150.68C595.29 150.68 593.582 152.495 593.588 155.402ZM609.362 150.375H608.359L605.401 161.382H606.392L609.362 150.375ZM615.57 156.52H614.58V160.874H622.21V156.52H621.207V157.84H615.57V156.52ZM613.272 155.72H623.556V154.895H613.272V155.72ZM613.856 153.295L614.237 154.095C615.977 153.834 617.703 152.952 618.42 151.683C619.138 152.946 620.858 153.834 622.604 154.095L622.972 153.295C620.985 153.041 618.928 151.791 618.935 150.4V149.867H617.906V150.4C617.906 151.835 615.869 153.022 613.856 153.295ZM615.57 160.074V158.627H621.207V160.074H615.57ZM633.623 155.034H626.831V151.479H633.509V150.667H625.828V155.847H629.154V158.767H624.508V159.604H634.842V158.767H630.132V155.847H633.623V155.034ZM642.484 160.125C644.401 160.125 645.747 159.052 645.76 157.561C645.747 156.374 644.922 155.39 643.881 155.225V155.174C644.782 154.964 645.392 154.12 645.404 153.117C645.392 151.714 644.16 150.68 642.484 150.68C640.802 150.68 639.571 151.714 639.577 153.117C639.571 154.12 640.174 154.964 641.088 155.174V155.225C640.041 155.39 639.215 156.374 639.222 157.561C639.215 159.052 640.548 160.125 642.484 160.125ZM640.364 157.497C640.345 156.481 641.253 155.732 642.484 155.732C643.722 155.732 644.617 156.481 644.617 157.497C644.617 158.462 643.798 159.116 642.484 159.122C641.164 159.116 640.345 158.462 640.364 157.497ZM640.682 153.206C640.688 152.286 641.393 151.664 642.484 151.67C643.557 151.664 644.287 152.286 644.287 153.206C644.287 154.133 643.532 154.761 642.484 154.768C641.431 154.761 640.688 154.133 640.682 153.206ZM650.292 160.125C652.126 160.125 653.459 158.843 653.466 157.065C653.459 155.275 652.171 153.98 650.419 153.98C649.771 153.98 649.156 154.196 648.743 154.514H648.654L648.997 151.822H653.021V150.807H648.045L647.397 155.834H648.502C648.838 155.237 649.441 154.996 650.216 155.009C651.454 155.015 652.349 155.897 652.349 157.091C652.349 158.246 651.485 159.116 650.292 159.122C649.295 159.116 648.496 158.506 648.413 157.688H647.309C647.378 159.103 648.635 160.125 650.292 160.125ZM656.995 155.072C658.176 155.079 658.83 154.177 658.836 152.863C658.83 151.568 658.201 150.667 656.995 150.667C655.833 150.667 655.148 151.568 655.154 152.863C655.148 154.177 655.808 155.079 656.995 155.072ZM656.056 159.998H657.084L663.406 150.807H662.378L656.056 159.998ZM656.081 152.863C656.081 152.019 656.392 151.46 656.995 151.454C657.636 151.441 657.909 152.019 657.909 152.863C657.909 153.72 657.617 154.285 656.995 154.285C656.379 154.285 656.081 153.72 656.081 152.863ZM660.766 157.929C660.753 159.236 661.407 160.131 662.606 160.125C663.781 160.131 664.435 159.236 664.435 157.929C664.435 156.621 663.793 155.726 662.606 155.72C661.432 155.726 660.753 156.621 660.766 157.929ZM661.68 157.929C661.686 157.072 661.991 156.513 662.606 156.507C663.241 156.494 663.508 157.072 663.508 157.929C663.508 158.779 663.222 159.344 662.606 159.338C661.984 159.344 661.686 158.779 661.68 157.929Z" fill="#4A4A4A"/>
<path d="M62 7.00004L62 347L870 347" stroke="url(#paint15_linear_1114_9159)" stroke-width="0.999252"/>
<path d="M849.146 133.998L854.146 138.998L849.146 143.998" stroke="#FF2020" stroke-width="2"/>
<path d="M220 294.998L64 294.998" stroke="#00A3FF" stroke-width="2" stroke-linecap="round"/>
<path d="M378 242.998L220 242.998" stroke="#77CEFF" stroke-width="2" stroke-linecap="round"/>
<path d="M536 190.998L378 190.998" stroke="#FFC700" stroke-width="2" stroke-linecap="round"/>
<path d="M220 294.998V242.998" stroke="url(#paint16_linear_1114_9159)" stroke-width="2" stroke-linecap="round"/>
<path d="M378 242.998V190.998" stroke="url(#paint17_linear_1114_9159)" stroke-width="2" stroke-linecap="round"/>
<path d="M536 190.998V138.998" stroke="url(#paint18_linear_1114_9159)" stroke-width="2" stroke-linecap="round"/>
<path d="M694 138.998L536 138.998" stroke="#FF5F00" stroke-width="2" stroke-linecap="round"/>
<path d="M13.4252 295.135C15.6195 295.135 16.8841 293.289 16.8841 290.049C16.8841 286.836 15.599 284.963 13.4252 284.963C11.2445 284.963 9.95934 286.836 9.96617 290.049C9.95934 293.289 11.2308 295.135 13.4252 295.135ZM11.1556 290.049C11.1625 287.485 12.0033 286.036 13.4252 286.029C14.847 286.036 15.6879 287.485 15.681 290.049C15.6879 292.612 14.8539 294.041 13.4252 294.041C11.9896 294.041 11.1625 292.612 11.1556 290.049ZM20.4492 289.475C21.6797 289.475 22.6777 288.483 22.6777 287.26C22.6777 286.016 21.6797 285.018 20.4492 285.018C19.2119 285.018 18.2207 286.016 18.2207 287.26C18.2207 288.483 19.2119 289.475 20.4492 289.475ZM19.1914 287.26C19.1982 286.556 19.7588 286.009 20.4492 286.002C21.1396 286.009 21.6865 286.556 21.6934 287.26C21.6865 287.943 21.1396 288.504 20.4492 288.504C19.7588 288.504 19.1982 287.943 19.1914 287.26ZM23.9971 290.049C23.9902 293.18 25.8291 295.135 28.3721 295.135C30.3818 295.135 32.0088 293.918 32.3643 291.895H31.1338C30.8398 293.248 29.6777 293.979 28.3721 293.986C26.5811 293.979 25.1934 292.599 25.1865 290.049C25.1934 287.492 26.5811 286.111 28.3721 286.111C29.6777 286.111 30.8467 286.85 31.1338 288.217H32.3643C31.9951 286.159 30.375 284.963 28.3721 284.963C25.8291 284.963 23.9902 286.918 23.9971 290.049Z" fill="#929292"/>
<path d="M13.6863 236.1H12.4421L9.98117 237.74V238.984L12.3874 237.385H12.4421V245.998H13.6863V236.1ZM19.4252 246.135C21.6195 246.135 22.8841 244.289 22.8841 241.049C22.8841 237.836 21.599 235.963 19.4252 235.963C17.2445 235.963 15.9593 237.836 15.9662 241.049C15.9593 244.289 17.2308 246.135 19.4252 246.135ZM17.1556 241.049C17.1625 238.485 18.0033 237.036 19.4252 237.029C20.847 237.036 21.6879 238.485 21.681 241.049C21.6879 243.612 20.8539 245.041 19.4252 245.041C17.9896 245.041 17.1625 243.612 17.1556 241.049ZM26.4492 240.475C27.6797 240.475 28.6777 239.483 28.6777 238.26C28.6777 237.016 27.6797 236.018 26.4492 236.018C25.2119 236.018 24.2207 237.016 24.2207 238.26C24.2207 239.483 25.2119 240.475 26.4492 240.475ZM25.1914 238.26C25.1982 237.556 25.7588 237.009 26.4492 237.002C27.1396 237.009 27.6865 237.556 27.6934 238.26C27.6865 238.943 27.1396 239.504 26.4492 239.504C25.7588 239.504 25.1982 238.943 25.1914 238.26ZM29.9971 241.049C29.9902 244.18 31.8291 246.135 34.3721 246.135C36.3818 246.135 38.0088 244.918 38.3643 242.895H37.1338C36.8398 244.248 35.6777 244.979 34.3721 244.986C32.5811 244.979 31.1934 243.599 31.1865 241.049C31.1934 238.492 32.5811 237.111 34.3721 237.111C35.6777 237.111 36.8467 237.85 37.1338 239.217H38.3643C37.9951 237.159 36.375 235.963 34.3721 235.963C31.8291 235.963 29.9902 237.918 29.9971 241.049Z" fill="#929292"/>
<path d="M10.1081 193.998H16.5339V192.904H11.8171V192.822L14.0866 190.484C15.8366 188.68 16.3493 187.818 16.3562 186.711C16.3493 185.173 15.0779 183.963 13.28 183.963C11.489 183.963 10.1355 185.139 10.1491 186.889H11.3113C11.3181 185.781 12.0564 185.036 13.239 185.029C14.3532 185.036 15.2009 185.692 15.2077 186.711C15.2009 187.627 14.6404 188.297 13.4714 189.541L10.0945 193.096L10.1081 193.998ZM21.4252 194.135C23.6195 194.135 24.8841 192.289 24.8841 189.049C24.8841 185.836 23.599 183.963 21.4252 183.963C19.2445 183.963 17.9593 185.836 17.9662 189.049C17.9593 192.289 19.2308 194.135 21.4252 194.135ZM19.1556 189.049C19.1625 186.485 20.0033 185.036 21.4252 185.029C22.847 185.036 23.6879 186.485 23.681 189.049C23.6879 191.612 22.8539 193.041 21.4252 193.041C19.9896 193.041 19.1625 191.612 19.1556 189.049ZM28.4492 188.475C29.6797 188.475 30.6777 187.483 30.6777 186.26C30.6777 185.016 29.6797 184.018 28.4492 184.018C27.2119 184.018 26.2207 185.016 26.2207 186.26C26.2207 187.483 27.2119 188.475 28.4492 188.475ZM27.1914 186.26C27.1982 185.556 27.7588 185.009 28.4492 185.002C29.1396 185.009 29.6865 185.556 29.6934 186.26C29.6865 186.943 29.1396 187.504 28.4492 187.504C27.7588 187.504 27.1982 186.943 27.1914 186.26ZM31.9971 189.049C31.9902 192.18 33.8291 194.135 36.3721 194.135C38.3818 194.135 40.0088 192.918 40.3643 190.895H39.1338C38.8398 192.248 37.6777 192.979 36.3721 192.986C34.5811 192.979 33.1934 191.599 33.1865 189.049C33.1934 186.492 34.5811 185.111 36.3721 185.111C37.6777 185.111 38.8467 185.85 39.1338 187.217H40.3643C39.9951 185.159 38.375 183.963 36.3721 183.963C33.8291 183.963 31.9902 185.918 31.9971 189.049Z" fill="#929292"/>
<path d="M14.1023 142.135C16.0779 142.135 17.5544 140.932 17.5476 139.305C17.5544 138.047 16.7751 137.124 15.4831 136.926V136.857C16.5222 136.563 17.1784 135.743 17.1648 134.615C17.1784 133.2 16.03 131.963 14.1433 131.963C12.3864 131.963 10.9236 133.016 10.862 134.588H12.0515C12.1062 133.617 13.07 133.036 14.1296 133.029C15.2575 133.036 15.9821 133.692 15.9753 134.684C15.9821 135.702 15.1413 136.379 13.9382 136.379H13.1316V137.459H13.9382C15.4763 137.466 16.3376 138.225 16.3445 139.305C16.3376 140.337 15.3943 141.041 14.0886 141.041C12.906 141.041 11.9695 140.453 11.9011 139.51H10.657C10.7185 141.082 12.1335 142.135 14.1023 142.135ZM22.4252 142.135C24.6195 142.135 25.8841 140.289 25.8841 137.049C25.8841 133.836 24.599 131.963 22.4252 131.963C20.2445 131.963 18.9593 133.836 18.9662 137.049C18.9593 140.289 20.2308 142.135 22.4252 142.135ZM20.1556 137.049C20.1625 134.485 21.0033 133.036 22.4252 133.029C23.847 133.036 24.6878 134.485 24.681 137.049C24.6878 139.612 23.8539 141.041 22.4252 141.041C20.9896 141.041 20.1625 139.612 20.1556 137.049ZM29.4492 136.475C30.6797 136.475 31.6777 135.483 31.6777 134.26C31.6777 133.016 30.6797 132.018 29.4492 132.018C28.2119 132.018 27.2207 133.016 27.2207 134.26C27.2207 135.483 28.2119 136.475 29.4492 136.475ZM28.1914 134.26C28.1982 133.556 28.7588 133.009 29.4492 133.002C30.1396 133.009 30.6865 133.556 30.6934 134.26C30.6865 134.943 30.1396 135.504 29.4492 135.504C28.7588 135.504 28.1982 134.943 28.1914 134.26ZM32.9971 137.049C32.9902 140.18 34.8291 142.135 37.3721 142.135C39.3818 142.135 41.0088 140.918 41.3643 138.895H40.1338C39.8398 140.248 38.6777 140.979 37.3721 140.986C35.5811 140.979 34.1934 139.599 34.1865 137.049C34.1934 134.492 35.5811 133.111 37.3721 133.111C38.6777 133.111 39.8467 133.85 40.1338 135.217H41.3643C40.9951 133.159 39.375 131.963 37.3721 131.963C34.8291 131.963 32.9902 133.918 32.9971 137.049Z" fill="#929292"/>
<path d="M854 86.998H62" stroke="url(#paint19_linear_1114_9159)" stroke-width="0.999252"/>
<path d="M10.3425 87.9746H15.1413V89.998H16.3171V87.9746H17.698V86.8945H16.3171V80.0996H14.7995L10.3425 86.9629V87.9746ZM11.6687 86.8945V86.8125L15.0183 81.6582H15.1413V86.8945H11.6687ZM22.4252 90.1348C24.6195 90.1348 25.8841 88.2891 25.8841 85.0488C25.8841 81.8359 24.599 79.9629 22.4252 79.9629C20.2445 79.9629 18.9593 81.8359 18.9662 85.0488C18.9593 88.2891 20.2308 90.1348 22.4252 90.1348ZM20.1556 85.0488C20.1625 82.4854 21.0033 81.0361 22.4252 81.0293C23.847 81.0361 24.6878 82.4854 24.681 85.0488C24.6878 87.6123 23.8539 89.041 22.4252 89.041C20.9896 89.041 20.1625 87.6123 20.1556 85.0488ZM29.4492 84.4746C30.6797 84.4746 31.6777 83.4834 31.6777 82.2598C31.6777 81.0156 30.6797 80.0176 29.4492 80.0176C28.2119 80.0176 27.2207 81.0156 27.2207 82.2598C27.2207 83.4834 28.2119 84.4746 29.4492 84.4746ZM28.1914 82.2598C28.1982 81.5557 28.7588 81.0088 29.4492 81.002C30.1396 81.0088 30.6865 81.5557 30.6934 82.2598C30.6865 82.9434 30.1396 83.5039 29.4492 83.5039C28.7588 83.5039 28.1982 82.9434 28.1914 82.2598ZM32.9971 85.0488C32.9902 88.1797 34.8291 90.1348 37.3721 90.1348C39.3818 90.1348 41.0088 88.918 41.3643 86.8945H40.1338C39.8398 88.248 38.6777 88.9795 37.3721 88.9863C35.5811 88.9795 34.1934 87.5986 34.1865 85.0488C34.1934 82.4922 35.5811 81.1113 37.3721 81.1113C38.6777 81.1113 39.8467 81.8496 40.1338 83.2168H41.3643C40.9951 81.1592 39.375 79.9629 37.3721 79.9629C34.8291 79.9629 32.9902 81.918 32.9971 85.0488Z" fill="#929292"/>
<path d="M77.1507 22.582C76.377 18.2836 78.7624 15.7978 80.0518 15.0922C79.7802 14.2775 79.5054 12.468 80.5791 11.7481L85.4998 9.4981C85.9471 8.44811 87.2891 6.25815 89.0785 5.89815L93.1045 4.99817H95.3412L100.262 6.79814L102.051 9.0481L107.419 11.7481L108.314 13.548L108.119 15.0922L109.656 16.698L110.998 19.8479V22.5479L110.103 22.9979L104.288 20.9538L102.499 22.5479L99.8146 21.6479L97.8609 20.9538L96.2359 21.6479L93.9992 22.0979L91.3152 21.6479L89.8223 20.9538L86.8418 22.0979H85.0524L83.2753 20.9538C81.771 21.4966 78.6335 22.6472 78.1177 22.9077C77.6019 23.1682 77.2581 22.7991 77.1507 22.582Z" fill="#FFFAD2"/>
<path d="M102.146 9.88282C102.146 7.1851 98.4657 4.99817 93.926 4.99817C89.3862 4.99817 85.7061 7.1851 85.7061 9.88282C85.7061 10.2736 85.8135 10.6969 85.8672 10.8598L88.77 18.5768C89.354 20.6922 91.441 22.2573 93.926 22.2573C96.411 22.2573 98.498 20.6922 99.0819 18.5768L101.985 10.8598C102.047 10.661 102.166 10.1874 102.146 9.88282Z" stroke="#222222" stroke-linecap="round"/>
<path d="M102.145 9.23016C103.971 9.88145 107.689 11.4445 107.947 12.4866C108.269 13.6263 108.108 14.6033 107.786 15.0917C106.658 17.0456 104.24 21.0836 103.595 21.6046C102.789 22.2559 102.628 22.7444 101.178 22.2559C100.017 21.8651 98.4377 21.1161 97.793 20.7905" stroke="#222222" stroke-linecap="round"/>
<path d="M107.947 15.0929C109.237 15.7984 111.622 18.2842 110.848 22.5827C110.741 22.7998 110.397 23.1688 109.881 22.9083C109.365 22.6478 106.228 21.4972 104.724 20.9544" stroke="#222222" stroke-linecap="round"/>
<path d="M85.8543 9.23016C84.0277 9.88145 80.3099 11.4445 80.052 12.4866C79.7297 13.6263 79.8908 14.6033 80.2132 15.0917C81.3414 17.0456 83.759 21.0836 84.4037 21.6046C85.2096 22.2559 85.3708 22.7444 86.8214 22.2559C87.9818 21.8651 89.5614 21.1161 90.2061 20.7905" stroke="#222222" stroke-linecap="round"/>
<path d="M80.0519 15.0929C78.7625 15.7984 76.3771 18.2842 77.1507 22.5827C77.2582 22.7998 77.602 23.1688 78.1178 22.9083C78.6335 22.6478 81.7711 21.4972 83.2754 20.9544" stroke="#222222" stroke-linecap="round"/>
<path d="M133.453 7.3418H132.047V10.9043H130.266V7.5918H128.891V15.2793H130.266V12.123H132.047V15.7793H133.453V7.3418ZM122.172 14.6074H123.094C124.781 14.6074 126.305 14.5293 128.125 14.1699L127.984 12.9512C126.406 13.2637 125.062 13.3574 123.656 13.373V8.43555H122.172V14.6074ZM124.031 18.6387C124.016 20.3027 125.852 21.3027 128.766 21.2949C131.672 21.3027 133.523 20.3027 133.531 18.6387C133.523 16.9668 131.672 15.9668 128.766 15.9668C125.852 15.9668 124.016 16.9668 124.031 18.6387ZM125.5 18.6387C125.484 17.6855 126.734 17.1309 128.766 17.123C130.797 17.1309 132.039 17.6855 132.047 18.6387C132.039 19.584 130.797 20.1309 128.766 20.123C126.734 20.1309 125.484 19.584 125.5 18.6387ZM147.965 14.1387H142.293V12.6543H146.481V11.4668H138.246V9.13867H146.387V7.9668H136.778V12.6543H140.856V14.1387H135.184V15.3262H147.965V14.1387ZM136.699 18.7793C136.699 20.4043 138.52 21.3184 141.559 21.3262C144.574 21.3184 146.379 20.4043 146.387 18.7793C146.379 17.1543 144.574 16.2402 141.559 16.2324C138.52 16.2402 136.699 17.1543 136.699 18.7793ZM138.199 18.7793C138.192 17.8965 139.418 17.3887 141.559 17.3887C143.668 17.3887 144.903 17.8965 144.903 18.7793C144.903 19.6777 143.668 20.1699 141.559 20.1543C139.418 20.1699 138.192 19.6777 138.199 18.7793ZM153.133 10.0137V8.20117H151.696V10.0137C151.696 11.5684 150.68 13.3496 148.789 14.1699L149.602 15.3262C150.961 14.7402 151.914 13.6152 152.43 12.3184C152.93 13.4668 153.844 14.4199 155.149 14.9199L155.93 13.7793C154.11 13.0918 153.133 11.5449 153.133 10.0137ZM151.368 18.7637C151.352 20.3574 153.172 21.3027 156.102 21.2949C159.024 21.3027 160.86 20.3574 160.868 18.7637C160.86 17.1699 159.024 16.2246 156.102 16.2168C153.172 16.2246 151.352 17.1699 151.368 18.7637ZM152.836 18.7637C152.821 17.8652 154.063 17.3496 156.102 17.3574C158.133 17.3496 159.375 17.8652 159.383 18.7637C159.375 19.6543 158.133 20.1699 156.102 20.1543C154.063 20.1699 152.821 19.6543 152.836 18.7637ZM156.368 15.5137H157.743V12.2012H159.383V15.9512H160.789V7.3418H159.383V10.9824H157.743V7.5918H156.368V15.5137ZM167.676 11.4512V9.9668H170.864V8.73242H162.973V9.9668H166.176V11.4512C166.161 13.8652 164.598 16.4902 162.489 17.4824L163.348 18.6543C164.981 17.8574 166.293 16.1543 166.942 14.1543C167.59 16.0215 168.903 17.5684 170.551 18.2949L171.364 17.1387C169.208 16.2168 167.668 13.7949 167.676 11.4512ZM172.629 21.3262H174.114V7.32617H172.629V21.3262Z" fill="#222222"/>
<path d="M755.151 22.582C754.377 18.2836 756.762 15.7978 758.052 15.0922C757.78 14.2775 757.505 12.468 758.579 11.7481L763.5 9.4981C763.947 8.44811 765.289 6.25815 767.078 5.89815L771.105 4.99817H773.341L778.262 6.79814L780.051 9.0481L785.419 11.7481L786.314 13.548L786.119 15.0922L787.656 16.698L788.998 19.8479V22.5479L788.103 22.9979L782.288 20.9538L780.499 22.5479L777.815 21.6479L775.861 20.9538L774.236 21.6479L771.999 22.0979L769.315 21.6479L767.822 20.9538L764.842 22.0979H763.052L761.275 20.9538C759.771 21.4966 756.633 22.6472 756.118 22.9077C755.602 23.1682 755.258 22.7991 755.151 22.582Z" fill="#FDB06F"/>
<path d="M780.146 9.88282C780.146 7.1851 776.466 4.99817 771.926 4.99817C767.386 4.99817 763.706 7.1851 763.706 9.88282C763.706 10.2736 763.814 10.6969 763.867 10.8598L766.77 18.5768C767.354 20.6922 769.441 22.2573 771.926 22.2573C774.411 22.2573 776.498 20.6922 777.082 18.5768L779.985 10.8598C780.047 10.661 780.166 10.1874 780.146 9.88282Z" stroke="#222222" stroke-linecap="round"/>
<path d="M780.145 9.23016C781.971 9.88145 785.689 11.4445 785.947 12.4866C786.269 13.6263 786.108 14.6033 785.786 15.0917C784.658 17.0456 782.24 21.0836 781.595 21.6046C780.789 22.2559 780.628 22.7444 779.178 22.2559C778.017 21.8651 776.438 21.1161 775.793 20.7905" stroke="#222222" stroke-linecap="round"/>
<path d="M785.947 15.0929C787.237 15.7984 789.622 18.2842 788.848 22.5827C788.741 22.7998 788.397 23.1688 787.881 22.9083C787.365 22.6478 784.228 21.4972 782.724 20.9544" stroke="#222222" stroke-linecap="round"/>
<path d="M763.854 9.23016C762.028 9.88145 758.31 11.4445 758.052 12.4866C757.73 13.6263 757.891 14.6033 758.213 15.0917C759.341 17.0456 761.759 21.0836 762.404 21.6046C763.21 22.2559 763.371 22.7444 764.821 22.2559C765.982 21.8651 767.561 21.1161 768.206 20.7905" stroke="#222222" stroke-linecap="round"/>
<path d="M758.052 15.0929C756.762 15.7984 754.377 18.2842 755.151 22.5827C755.258 22.7998 755.602 23.1688 756.118 22.9083C756.634 22.6478 759.771 21.4972 761.275 20.9544" stroke="#222222" stroke-linecap="round"/>
<path d="M801.516 7.91992H800.062V14.0293H806.656V7.91992H805.188V9.82617H801.516V7.91992ZM801.469 16.3105H809.047V17.5762H801.5V21.1855H811V19.998H802.953V18.6699H810.516V15.1387H801.469V16.3105ZM801.516 12.8418V10.9668H805.188V12.8418H801.516ZM809.031 14.5293H810.516V11.4668H812.547V10.2637H810.516V7.32617H809.031V14.5293ZM825.309 9.31055H820.293V7.5293H818.824V9.31055H813.793V10.5137H825.309V9.31055ZM813.184 19.7793H825.996V18.5762H822.637V16.0762C823.653 15.6309 824.223 14.9121 824.215 13.9668C824.223 12.2949 822.426 11.3105 819.559 11.3262C816.668 11.3105 814.879 12.2949 814.887 13.9668C814.879 14.9121 815.449 15.6309 816.465 16.0762V18.5762H813.184V19.7793ZM816.403 13.9668C816.387 13.0137 817.559 12.4746 819.559 12.4668C821.528 12.4746 822.707 13.0137 822.699 13.9668C822.707 14.9121 821.528 15.4512 819.559 15.4512C817.559 15.4512 816.387 14.9121 816.403 13.9668ZM817.949 18.5762V16.4902C818.434 16.5684 818.973 16.6074 819.559 16.6074C820.145 16.6074 820.692 16.5684 821.184 16.4902V18.5762H817.949ZM831.133 10.0137V8.20117H829.696V10.0137C829.696 11.5684 828.68 13.3496 826.789 14.1699L827.602 15.3262C828.961 14.7402 829.914 13.6152 830.43 12.3184C830.93 13.4668 831.844 14.4199 833.149 14.9199L833.93 13.7793C832.11 13.0918 831.133 11.5449 831.133 10.0137ZM829.368 18.7637C829.352 20.3574 831.172 21.3027 834.102 21.2949C837.024 21.3027 838.86 20.3574 838.868 18.7637C838.86 17.1699 837.024 16.2246 834.102 16.2168C831.172 16.2246 829.352 17.1699 829.368 18.7637ZM830.836 18.7637C830.821 17.8652 832.063 17.3496 834.102 17.3574C836.133 17.3496 837.375 17.8652 837.383 18.7637C837.375 19.6543 836.133 20.1699 834.102 20.1543C832.063 20.1699 830.821 19.6543 830.836 18.7637ZM834.368 15.5137H835.743V12.2012H837.383V15.9512H838.789V7.3418H837.383V10.9824H835.743V7.5918H834.368V15.5137ZM845.676 11.4512V9.9668H848.864V8.73242H840.973V9.9668H844.176V11.4512C844.161 13.8652 842.598 16.4902 840.489 17.4824L841.348 18.6543C842.981 17.8574 844.293 16.1543 844.942 14.1543C845.59 16.0215 846.903 17.5684 848.551 18.2949L849.364 17.1387C847.208 16.2168 845.668 13.7949 845.676 11.4512ZM850.629 21.3262H852.114V7.32617H850.629V21.3262Z" fill="#222222"/>
<path d="M854 138.998L694 138.998" stroke="url(#paint20_linear_1114_9159)" stroke-width="2" stroke-linecap="round"/>
<rect width="75" height="34" transform="translate(657 92.998)" fill="white" fill-opacity="0.85"/>
<path d="M669.599 103.92H668.146V110.029H674.74V103.92H673.271V105.826H669.599V103.92ZM669.552 112.311H677.131V113.576H669.584V117.186H679.084V115.998H671.037V114.67H678.599V111.139H669.552V112.311ZM669.599 108.842V106.967H673.271V108.842H669.599ZM677.115 110.529H678.599V107.467H680.631V106.264H678.599V103.326H677.115V110.529ZM693.392 105.311H688.377V103.529H686.908V105.311H681.877V106.514H693.392V105.311ZM681.267 115.779H694.08V114.576H690.721V112.076C691.736 111.631 692.307 110.912 692.299 109.967C692.307 108.295 690.51 107.311 687.642 107.326C684.752 107.311 682.963 108.295 682.971 109.967C682.963 110.912 683.533 111.631 684.549 112.076V114.576H681.267V115.779ZM684.486 109.967C684.471 109.014 685.642 108.475 687.642 108.467C689.611 108.475 690.791 109.014 690.783 109.967C690.791 110.912 689.611 111.451 687.642 111.451C685.642 111.451 684.471 110.912 684.486 109.967ZM686.033 114.576V112.49C686.517 112.568 687.057 112.607 687.642 112.607C688.228 112.607 688.775 112.568 689.267 112.49V114.576H686.033ZM699.186 103.951C697.131 103.951 695.693 105.076 695.701 106.748C695.693 108.193 696.811 109.248 698.483 109.482V110.779C697.193 110.826 695.967 110.834 694.92 110.826L695.076 112.029C697.483 112.037 700.779 111.982 703.717 111.451L703.608 110.357C702.451 110.529 701.201 110.646 699.967 110.717V109.467C701.592 109.209 702.67 108.17 702.686 106.748C702.67 105.076 701.233 103.951 699.186 103.951ZM696.904 117.029H706.451V115.811H698.389V113.107H696.904V117.029ZM697.092 106.748C697.076 105.732 697.951 105.092 699.186 105.092C700.428 105.092 701.279 105.732 701.279 106.748C701.279 107.74 700.428 108.389 699.186 108.389C697.951 108.389 697.076 107.74 697.092 106.748ZM704.467 114.045H705.951V109.217H707.951V107.967H705.951V103.342H704.467V114.045ZM721.416 114.404H718.057V111.936H720.182V110.717H711.635V108.686H719.854V104.311H710.135V105.529H718.385V107.482H710.166V111.936H712.104V114.404H708.604V115.654H721.416V114.404ZM713.541 114.404V111.936H716.604V114.404H713.541Z" fill="#FF5F00"/>
<path d="M333.234 455.783H324.968V451.611H333.109V450.408H323.484V456.971H327.531V460.393H321.89V461.611H334.702V460.393H328.999V456.971H333.234V455.783ZM348.355 457.283H335.542V458.518H341.183V463.33H342.636V458.518H348.355V457.283ZM336.933 452.971C336.941 454.854 338.957 456.049 341.917 456.049C344.878 456.049 346.91 454.854 346.902 452.971C346.91 451.064 344.878 449.861 341.917 449.861C338.957 449.861 336.941 451.064 336.933 452.971ZM338.464 452.971C338.457 451.791 339.839 451.057 341.917 451.049C344.003 451.057 345.378 451.791 345.386 452.971C345.378 454.135 344.003 454.861 341.917 454.861C339.839 454.861 338.457 454.135 338.464 452.971ZM356.539 450.439H350.211V451.643H354.976C354.929 452.166 354.82 452.666 354.648 453.143L349.507 453.361L349.742 454.564L354.101 454.205C353.281 455.439 351.836 456.447 349.554 457.189L350.148 458.361C354.726 456.846 356.531 454.15 356.539 450.439ZM351.929 463.033H361.289V461.83H353.429V458.689H351.929V463.033ZM356.492 454.939H359.414V459.705H360.898V449.346H359.414V453.721H356.492V454.939ZM374.488 449.33H373.004V463.361H374.488V449.33ZM363.785 459.924H364.941C367.847 459.916 369.676 459.838 371.769 459.455L371.613 458.221C369.637 458.572 367.933 458.65 365.285 458.658V451.861H370.488V450.627H363.785V459.924ZM388.234 449.33H386.75V452.314H383.812V453.533H386.75V455.736H383.812V456.986H386.75V463.361H388.234V449.33ZM376.484 459.221L377.422 460.393C379.016 459.564 380.242 457.869 380.867 455.861C381.477 457.814 382.688 459.424 384.281 460.221L385.188 459.033C383.047 458.041 381.609 455.471 381.609 452.893V450.502H380.109V452.893C380.102 455.486 378.656 458.182 376.484 459.221ZM401.918 449.33H400.434V453.846H396.262V455.064H400.434V463.361H401.918V449.33ZM390.981 459.986H392.106C394.301 459.994 396.332 459.869 398.59 459.408L398.402 458.189C396.363 458.596 394.481 458.721 392.481 458.752V450.877H390.981V459.986ZM419.286 449.33H417.786V463.33H419.286V449.33ZM407.786 459.58L408.567 460.783C413.372 458.479 415.114 454.932 415.114 450.83H408.457V452.018H413.614C413.325 455.283 411.504 457.807 407.786 459.58ZM432.626 453.111H424.485V449.58H423.016V454.314H432.626V453.111ZM421.313 457.018H434.094V455.799H421.313V457.018ZM422.829 460.705C422.829 462.346 424.649 463.268 427.688 463.268C430.704 463.268 432.508 462.346 432.516 460.705C432.508 459.072 430.704 458.15 427.688 458.158C424.649 458.15 422.829 459.072 422.829 460.705ZM424.329 460.705C424.321 459.799 425.548 459.322 427.688 459.314C429.798 459.322 431.032 459.799 431.032 460.705C431.032 461.604 429.798 462.119 427.688 462.127C425.548 462.119 424.321 461.604 424.329 460.705Z" fill="#FF5F00"/>
<path d="M62 431.963L694 431.963" stroke="#FF5F00"/>
<path d="M688.242 426.998L693.242 431.998L688.242 436.998" stroke="#FF5F00" stroke-width="2"/>
<path d="M67 426.998L62 431.998L67 436.998" stroke="#FF5F00" stroke-width="2"/>
<defs>
<linearGradient id="paint0_linear_1114_9159" x1="117.125" y1="192" x2="884.922" y2="210.641" gradientUnits="userSpaceOnUse">
<stop stop-color="#E6E6E6"/>
<stop offset="0.479167" stop-color="#E6E6E6"/>
<stop offset="0.787373" stop-color="#E6E6E6" stop-opacity="0.7"/>
<stop offset="1" stop-color="#E6E6E6" stop-opacity="0"/>
</linearGradient>
<linearGradient id="paint1_linear_1114_9159" x1="115" y1="140" x2="855.719" y2="157.348" gradientUnits="userSpaceOnUse">
<stop stop-color="#E6E6E6"/>
<stop offset="0.479167" stop-color="#E6E6E6"/>
<stop offset="0.787373" stop-color="#E6E6E6" stop-opacity="0.7"/>
<stop offset="1" stop-color="#E6E6E6" stop-opacity="0"/>
</linearGradient>
<linearGradient id="paint2_linear_1114_9159" x1="694" y1="323.239" x2="694" y2="17.4261" gradientUnits="userSpaceOnUse">
<stop stop-color="#6F6F6F"/>
<stop offset="0.479167" stop-color="#6F6F6F"/>
<stop offset="0.7736" stop-color="#6F6F6F" stop-opacity="0.7"/>
<stop offset="0.924099" stop-color="#6F6F6F" stop-opacity="0"/>
</linearGradient>
<linearGradient id="paint3_linear_1114_9159" x1="774" y1="138.998" x2="774" y2="346.998" gradientUnits="userSpaceOnUse">
<stop stop-color="#FF2020" stop-opacity="0.1"/>
<stop offset="1" stop-color="#FF2020" stop-opacity="0"/>
</linearGradient>
<linearGradient id="paint4_linear_1114_9159" x1="615" y1="138.998" x2="615" y2="346.998" gradientUnits="userSpaceOnUse">
<stop stop-color="#FF5F00" stop-opacity="0.1"/>
<stop offset="1" stop-color="#FF5F00" stop-opacity="0"/>
</linearGradient>
<linearGradient id="paint5_linear_1114_9159" x1="457" y1="190.998" x2="457" y2="346.998" gradientUnits="userSpaceOnUse">
<stop stop-color="#FFC700" stop-opacity="0.1"/>
<stop offset="1" stop-color="#FFC700" stop-opacity="0"/>
</linearGradient>
<linearGradient id="paint6_linear_1114_9159" x1="141" y1="294.998" x2="141" y2="346.998" gradientUnits="userSpaceOnUse">
<stop stop-color="#00A3FF" stop-opacity="0.1"/>
<stop offset="1" stop-color="#00A3FF" stop-opacity="0"/>
</linearGradient>
<linearGradient id="paint7_linear_1114_9159" x1="117.125" y1="296" x2="884.922" y2="314.641" gradientUnits="userSpaceOnUse">
<stop stop-color="#E6E6E6"/>
<stop offset="0.479167" stop-color="#E6E6E6"/>
<stop offset="0.787373" stop-color="#E6E6E6" stop-opacity="0.7"/>
<stop offset="1" stop-color="#E6E6E6" stop-opacity="0"/>
</linearGradient>
<linearGradient id="paint8_linear_1114_9159" x1="117.125" y1="244" x2="884.922" y2="262.641" gradientUnits="userSpaceOnUse">
<stop stop-color="#E6E6E6"/>
<stop offset="0.479167" stop-color="#E6E6E6"/>
<stop offset="0.787373" stop-color="#E6E6E6" stop-opacity="0.7"/>
<stop offset="1" stop-color="#E6E6E6" stop-opacity="0"/>
</linearGradient>
<linearGradient id="paint9_linear_1114_9159" x1="220" y1="323.239" x2="220" y2="17.4261" gradientUnits="userSpaceOnUse">
<stop stop-color="#BBBBBB"/>
<stop offset="0.479167" stop-color="#BBBBBB"/>
<stop offset="0.787373" stop-color="#BBBBBB" stop-opacity="0.7"/>
<stop offset="1" stop-color="#BBBBBB" stop-opacity="0"/>
</linearGradient>
<linearGradient id="paint10_linear_1114_9159" x1="536" y1="323.239" x2="536" y2="17.4261" gradientUnits="userSpaceOnUse">
<stop stop-color="#BBBBBB"/>
<stop offset="0.479167" stop-color="#BBBBBB"/>
<stop offset="0.787373" stop-color="#BBBBBB" stop-opacity="0.7"/>
<stop offset="1" stop-color="#BBBBBB" stop-opacity="0"/>
</linearGradient>
<linearGradient id="paint11_linear_1114_9159" x1="378" y1="323.239" x2="378" y2="17.4261" gradientUnits="userSpaceOnUse">
<stop stop-color="#BBBBBB"/>
<stop offset="0.479167" stop-color="#BBBBBB"/>
<stop offset="0.787373" stop-color="#BBBBBB" stop-opacity="0.7"/>
<stop offset="1" stop-color="#BBBBBB" stop-opacity="0"/>
</linearGradient>
<linearGradient id="paint12_linear_1114_9159" x1="694" y1="323.239" x2="693.999" y2="-1.50193" gradientUnits="userSpaceOnUse">
<stop stop-color="#BBBBBB"/>
<stop offset="0.479167" stop-color="#BBBBBB"/>
<stop offset="0.805895" stop-color="#BBBBBB" stop-opacity="0.7"/>
<stop offset="1" stop-color="#BBBBBB" stop-opacity="0"/>
</linearGradient>
<linearGradient id="paint13_linear_1114_9159" x1="854" y1="323.239" x2="854" y2="17.4261" gradientUnits="userSpaceOnUse">
<stop stop-color="#BBBBBB"/>
<stop offset="0.479167" stop-color="#BBBBBB"/>
<stop offset="0.787373" stop-color="#BBBBBB" stop-opacity="0.7"/>
<stop offset="1" stop-color="#BBBBBB" stop-opacity="0"/>
</linearGradient>
<linearGradient id="paint14_linear_1114_9159" x1="299" y1="242.998" x2="299" y2="346.998" gradientUnits="userSpaceOnUse">
<stop stop-color="#77CEFF" stop-opacity="0.1"/>
<stop offset="1" stop-color="#77CEFF" stop-opacity="0"/>
</linearGradient>
<linearGradient id="paint15_linear_1114_9159" x1="62" y1="11" x2="746.039" y2="220.315" gradientUnits="userSpaceOnUse">
<stop offset="0.00733191" stop-color="#313131" stop-opacity="0"/>
<stop offset="0.075376" stop-color="#313131"/>
<stop offset="0.84781" stop-color="#313131"/>
<stop offset="0.946838" stop-color="#313131" stop-opacity="0"/>
</linearGradient>
<linearGradient id="paint16_linear_1114_9159" x1="220.5" y1="242.998" x2="220.5" y2="294.998" gradientUnits="userSpaceOnUse">
<stop stop-color="#77CEFF"/>
<stop offset="1" stop-color="#01A3FF"/>
</linearGradient>
<linearGradient id="paint17_linear_1114_9159" x1="378.5" y1="190.998" x2="378.5" y2="242.998" gradientUnits="userSpaceOnUse">
<stop stop-color="#FFC700"/>
<stop offset="1" stop-color="#77CEFF"/>
</linearGradient>
<linearGradient id="paint18_linear_1114_9159" x1="536.5" y1="138.998" x2="536.5" y2="190.998" gradientUnits="userSpaceOnUse">
<stop stop-color="#FF5F00"/>
<stop offset="1" stop-color="#FFC700"/>
</linearGradient>
<linearGradient id="paint19_linear_1114_9159" x1="117.125" y1="88" x2="884.922" y2="106.641" gradientUnits="userSpaceOnUse">
<stop stop-color="#E6E6E6"/>
<stop offset="0.479167" stop-color="#E6E6E6"/>
<stop offset="0.787373" stop-color="#E6E6E6" stop-opacity="0.7"/>
<stop offset="1" stop-color="#E6E6E6" stop-opacity="0"/>
</linearGradient>
<linearGradient id="paint20_linear_1114_9159" x1="694" y1="138.498" x2="854" y2="138.498" gradientUnits="userSpaceOnUse">
<stop stop-color="#FF5C00"/>
<stop offset="1" stop-color="#FF2020"/>
</linearGradient>
</defs>
</svg>
