<svg width="266" height="64" viewBox="0 0 266 64" fill="none" xmlns="http://www.w3.org/2000/svg">
<g clip-path="url(#clip0_503_21309)">
<path d="M151.813 41.4046V60.2647H139.895V24.9547H151.813L151.759 32.1313C153.025 28.7808 155.106 24.209 163.516 24.209C170.736 24.209 173.278 31.8179 173.278 31.8179C174.844 28.543 176.561 24.2198 184.917 24.2198C189.015 24.2198 192.577 25.1601 194.594 31.2883C194.69 31.5909 194.851 32.3799 194.851 32.6825V60.2647H182.793V38.1082C182.793 38.1082 183.233 33.6228 179.929 33.6228C176.926 33.6228 173.353 37.103 173.353 41.7289V60.2539H161.328V37.2759C161.328 37.2759 161.532 32.4555 156.737 33.8822C156.737 33.8822 152.371 35.3845 151.813 41.3938V41.4046Z" fill="black"/>
<path d="M57.554 23.1343C46.7193 23.1343 37.9336 31.5538 37.9336 41.9403C37.9336 52.3269 46.7193 60.7464 57.554 60.7464C68.3887 60.7464 77.1745 52.3269 77.1745 41.9403C77.1745 31.5538 68.3887 23.1343 57.554 23.1343ZM57.554 53.9913C53.8531 53.9913 50.8494 48.5981 50.8494 41.9403C50.8494 35.2825 53.8531 29.8893 57.554 29.8893C61.255 29.8893 64.2587 35.2825 64.2587 41.9403C64.2587 48.5981 61.255 53.9913 57.554 53.9913Z" fill="black"/>
<path d="M31.8817 24.5547V32.0879C31.8817 32.0879 26.8183 30.4343 21.5083 29.9047C19.8241 29.9047 14.514 30.0235 15.3615 33.6659C15.3615 33.6659 15.7262 35.125 18.3759 35.968C21.0255 36.8218 29.1033 39.3725 32.3644 42.5285C34.4133 45.317 36.945 49.5753 32.4824 55.4009C30.0687 57.8327 27.1831 60.3726 20.4248 60.7401C16.9277 60.7401 4.99878 60.2537 1.98438 58.4272V50.6562C1.98438 50.6562 9.21465 53.4446 13.4413 53.931C16.5737 53.8121 20.9183 54.6551 21.2723 50.4076C21.2723 50.4076 20.9075 48.581 18.3759 47.738C15.3615 46.5275 2.82111 42.5177 2.58511 35.5897C2.58511 35.5897 1.61964 29.6453 6.31825 26.1218C8.84992 24.7816 10.8989 23.0848 20.5428 22.8362C22.5917 23.074 29.704 23.8089 31.871 24.533L31.8817 24.5547Z" fill="black"/>
<path d="M95.8051 31.6848H105.546V24.9297H95.9017V21.255C95.9017 21.255 95.7837 17.029 99.2165 16.2509C102.381 15.5375 105.664 15.9266 108.26 18.1747V10.7712C108.26 10.7712 95.4833 5.54006 87.545 12.7382C83.9621 16.0563 83.9621 21.4928 83.9621 24.6812H79.1133V31.5659H84.0157V60.2829H95.8159V31.6848H95.8051Z" fill="black"/>
<path d="M129.919 53.1188C129.919 53.1188 125.789 53.2485 125.403 48.9577V31.427H132.751V24.5423H125.403V17.29L113.538 19.0842V24.5423H109.934V31.427H113.538V51.1733C113.538 51.1733 112.766 59.4847 122.045 60.5223C122.045 60.5223 129.522 61.0411 133.008 59.7441V53.1188H129.919Z" fill="black"/>
<path d="M215.537 25.3857H203.93V60.2742H215.537V25.3857Z" fill="black"/>
<path d="M239.853 2.00049H227.988V60.2668H239.853V2.00049Z" fill="black"/>
<path d="M262.036 2.00049H250.172V60.2668H262.036V2.00049Z" fill="black"/>
<path d="M203.93 2.0083H226.146L203.93 23.819V2.0083Z" fill="#FF5F00"/>
</g>
<defs>
<clipPath id="clip0_503_21309">
<rect width="260.043" height="58.7419" fill="white" transform="translate(1.98438 2)"/>
</clipPath>
</defs>
</svg>
