<svg width="74" height="74" viewBox="0 0 74 74" fill="none" xmlns="http://www.w3.org/2000/svg">
<path d="M39.1086 53.9065L48.8835 70.9944L52.3299 65.0403L52.4811 64.7789L52.7842 64.7917L59.15 65.0606L49.3927 48.0035L39.1086 53.9065Z" fill="#FF5F00" stroke="black"/>
<path d="M36.5789 53.8133L26.804 70.9012L23.3576 64.947L23.2064 64.6857L22.9033 64.6985L16.5375 64.9673L26.2948 47.9102L36.5789 53.8133Z" fill="#FF5F00" stroke="black"/>
<mask id="path-3-inside-1_1615_26874" fill="white">
<path fill-rule="evenodd" clip-rule="evenodd" d="M38.9161 3.58408C38.1328 2.80531 36.8627 2.80531 36.0794 3.58408L29.5029 10.1225H19.3532C18.2487 10.1225 17.3532 11.0179 17.3532 12.1225V22.2017L10.5875 28.9282C9.80417 29.7069 9.80417 30.9696 10.5875 31.7484L17.3532 38.4749V48.4707C17.3532 49.5752 18.2486 50.4707 19.3532 50.4707H29.419L36.0794 57.0925C36.8627 57.8712 38.1328 57.8712 38.9161 57.0925L45.5765 50.4707H55.3219C56.4265 50.4707 57.3219 49.5753 57.3219 48.4707V38.7934L64.408 31.7484C65.1913 30.9696 65.1913 29.7069 64.408 28.9282L57.3219 21.8832V12.1225C57.3219 11.0179 56.4265 10.1225 55.3219 10.1225H45.4926L38.9161 3.58408Z"/>
</mask>
<path fill-rule="evenodd" clip-rule="evenodd" d="M38.9161 3.58408C38.1328 2.80531 36.8627 2.80531 36.0794 3.58408L29.5029 10.1225H19.3532C18.2487 10.1225 17.3532 11.0179 17.3532 12.1225V22.2017L10.5875 28.9282C9.80417 29.7069 9.80417 30.9696 10.5875 31.7484L17.3532 38.4749V48.4707C17.3532 49.5752 18.2486 50.4707 19.3532 50.4707H29.419L36.0794 57.0925C36.8627 57.8712 38.1328 57.8712 38.9161 57.0925L45.5765 50.4707H55.3219C56.4265 50.4707 57.3219 49.5753 57.3219 48.4707V38.7934L64.408 31.7484C65.1913 30.9696 65.1913 29.7069 64.408 28.9282L57.3219 21.8832V12.1225C57.3219 11.0179 56.4265 10.1225 55.3219 10.1225H45.4926L38.9161 3.58408Z" fill="white"/>
<path d="M36.0794 3.58408L35.3744 2.87492V2.87492L36.0794 3.58408ZM38.9161 3.58408L38.211 4.29324V4.29324L38.9161 3.58408ZM29.5029 10.1225V11.1225H29.9154L30.2079 10.8316L29.5029 10.1225ZM17.3532 22.2017L18.0583 22.9108L18.3532 22.6176V22.2017H17.3532ZM10.5875 28.9282L11.2925 29.6373H11.2925L10.5875 28.9282ZM10.5875 31.7484L9.88244 32.4575H9.88244L10.5875 31.7484ZM17.3532 38.4749H18.3532V38.0589L18.0583 37.7657L17.3532 38.4749ZM29.419 50.4707L30.1241 49.7615L29.8315 49.4707H29.419V50.4707ZM36.0794 57.0925L35.3744 57.8016V57.8016L36.0794 57.0925ZM38.9161 57.0925L39.6211 57.8016L39.6211 57.8016L38.9161 57.0925ZM45.5765 50.4707V49.4707H45.164L44.8714 49.7615L45.5765 50.4707ZM57.3219 38.7934L56.6169 38.0842L56.3219 38.3775V38.7934H57.3219ZM64.408 31.7484L65.1131 32.4575V32.4575L64.408 31.7484ZM64.408 28.9282L65.1131 28.219V28.219L64.408 28.9282ZM57.3219 21.8832H56.3219V22.2991L56.6169 22.5923L57.3219 21.8832ZM45.4926 10.1225L44.7876 10.8316L45.0801 11.1225H45.4926V10.1225ZM36.7845 4.29324C37.1777 3.90225 37.8178 3.90225 38.211 4.29324L39.6211 2.87492C38.4478 1.70836 36.5477 1.70836 35.3744 2.87492L36.7845 4.29324ZM30.2079 10.8316L36.7845 4.29324L35.3744 2.87492L28.7978 9.41331L30.2079 10.8316ZM19.3532 11.1225H29.5029V9.12247H19.3532V11.1225ZM18.3532 12.1225C18.3532 11.5702 18.8009 11.1225 19.3532 11.1225V9.12247C17.6964 9.12247 16.3532 10.4656 16.3532 12.1225H18.3532ZM18.3532 22.2017V12.1225H16.3532V22.2017H18.3532ZM11.2925 29.6373L18.0583 22.9108L16.6482 21.4925L9.88244 28.219L11.2925 29.6373ZM11.2925 31.0392C10.9025 30.6514 10.9025 30.0251 11.2925 29.6373L9.88244 28.219C8.70585 29.3888 8.70585 31.2878 9.88244 32.4575L11.2925 31.0392ZM18.0583 37.7657L11.2925 31.0392L9.88244 32.4575L16.6482 39.184L18.0583 37.7657ZM18.3532 48.4707V38.4749H16.3532V48.4707H18.3532ZM19.3532 49.4707C18.8009 49.4707 18.3532 49.023 18.3532 48.4707H16.3532C16.3532 50.1275 17.6964 51.4707 19.3532 51.4707V49.4707ZM29.419 49.4707H19.3532V51.4707H29.419V49.4707ZM36.7845 56.3833L30.1241 49.7615L28.714 51.1798L35.3744 57.8016L36.7845 56.3833ZM38.211 56.3833C37.8178 56.7743 37.1777 56.7743 36.7845 56.3833L35.3744 57.8016C36.5478 58.9682 38.4478 58.9682 39.6211 57.8016L38.211 56.3833ZM44.8714 49.7615L38.211 56.3833L39.6211 57.8016L46.2815 51.1798L44.8714 49.7615ZM55.3219 49.4707H45.5765V51.4707H55.3219V49.4707ZM56.3219 48.4707C56.3219 49.023 55.8742 49.4707 55.3219 49.4707V51.4707C56.9788 51.4707 58.3219 50.1275 58.3219 48.4707H56.3219ZM56.3219 38.7934V48.4707H58.3219V38.7934H56.3219ZM63.703 31.0392L56.6169 38.0842L58.027 39.5025L65.1131 32.4575L63.703 31.0392ZM63.703 29.6373C64.093 30.0251 64.093 30.6514 63.703 31.0392L65.1131 32.4575C66.2896 31.2878 66.2896 29.3888 65.1131 28.219L63.703 29.6373ZM56.6169 22.5923L63.703 29.6373L65.1131 28.219L58.027 21.174L56.6169 22.5923ZM56.3219 12.1225V21.8832H58.3219V12.1225H56.3219ZM55.3219 11.1225C55.8742 11.1225 56.3219 11.5702 56.3219 12.1225H58.3219C58.3219 10.4656 56.9788 9.12247 55.3219 9.12247V11.1225ZM45.4926 11.1225H55.3219V9.12247H45.4926V11.1225ZM38.211 4.29324L44.7876 10.8316L46.1977 9.41331L39.6211 2.87492L38.211 4.29324Z" fill="black" mask="url(#path-3-inside-1_1615_26874)"/>
<circle cx="37.8438" cy="30" r="16.5" fill="white" stroke="black"/>
<path d="M29.8438 29.5833L35.7385 36L45.8438 25" stroke="black"/>
</svg>
