<svg width="74" height="74" viewBox="0 0 74 74" fill="none" xmlns="http://www.w3.org/2000/svg">
<circle cx="37.5" cy="36.5" r="32" fill="white" stroke="black"/>
<mask id="path-2-inside-1_1615_26860" fill="white">
<path fill-rule="evenodd" clip-rule="evenodd" d="M20.4219 55.437C21.2513 46.737 28.5792 39.9324 37.4965 39.9324C46.4157 39.9324 53.7449 46.74 54.5717 55.4427C50.0517 59.5188 44.0656 62.0002 37.4999 62.0002C30.9312 62.0002 24.9425 59.5166 20.4219 55.437Z"/>
</mask>
<path fill-rule="evenodd" clip-rule="evenodd" d="M20.4219 55.437C21.2513 46.737 28.5792 39.9324 37.4965 39.9324C46.4157 39.9324 53.7449 46.74 54.5717 55.4427C50.0517 59.5188 44.0656 62.0002 37.4999 62.0002C30.9312 62.0002 24.9425 59.5166 20.4219 55.437Z" fill="#FF5F00"/>
<path d="M20.4219 55.437L19.4264 55.3421L19.3787 55.8426L19.7519 56.1795L20.4219 55.437ZM54.5717 55.4427L55.2414 56.1853L55.6147 55.8486L55.5672 55.3481L54.5717 55.4427ZM21.4174 55.5319C22.1983 47.3402 29.0997 40.9324 37.4965 40.9324V38.9324C28.0588 38.9324 20.3042 46.1338 19.4264 55.3421L21.4174 55.5319ZM37.4965 40.9324C45.8951 40.9324 52.7977 47.343 53.5761 55.5372L55.5672 55.3481C54.6921 46.1369 46.9363 38.9324 37.4965 38.9324V40.9324ZM53.9019 54.7C49.5586 58.617 43.8087 61.0002 37.4999 61.0002V63.0002C44.3224 63.0002 50.5449 60.4207 55.2414 56.1853L53.9019 54.7ZM37.4999 61.0002C31.1881 61.0002 25.4359 58.6148 21.0918 54.6946L19.7519 56.1795C24.4492 60.4183 30.6742 63.0002 37.4999 63.0002V61.0002Z" fill="black" mask="url(#path-2-inside-1_1615_26860)"/>
<circle cx="37.5004" cy="26.9306" r="8.52778" fill="white" stroke="black"/>
</svg>
