<svg width="140" height="141" viewBox="0 0 140 141" fill="none" xmlns="http://www.w3.org/2000/svg">
<g style="mix-blend-mode:multiply">
<g style="mix-blend-mode:multiply">
<ellipse cx="69.494" cy="70.5591" rx="35.2518" ry="35.2429" fill="#FF5F00"/>
</g>
<g style="mix-blend-mode:multiply">
<path d="M139.5 104.795C139.5 123.982 123.941 139.537 104.748 139.537C85.5549 139.537 69.9961 123.982 69.9961 104.795C69.9961 85.6068 85.5549 70.0518 104.748 70.0518C123.941 70.0518 139.5 85.6068 139.5 104.795Z" stroke="black"/>
</g>
<g style="mix-blend-mode:multiply">
<path d="M139.5 35.3161C139.5 54.5039 123.941 70.0589 104.748 70.0589C85.5549 70.0589 69.9961 54.5039 69.9961 35.3161C69.9961 16.1283 85.5549 0.573242 104.748 0.573241C123.941 0.573241 139.5 16.1283 139.5 35.3161Z" stroke="black"/>
</g>
<g style="mix-blend-mode:multiply">
<path d="M70.0036 104.795C70.0036 123.982 54.4448 139.537 35.2518 139.537C16.0588 139.537 0.500002 123.982 0.500001 104.795C0.5 85.6068 16.0588 70.0518 35.2518 70.0518C54.4448 70.0518 70.0036 85.6068 70.0036 104.795Z" stroke="black"/>
</g>
<g style="mix-blend-mode:multiply">
<path d="M70.0036 35.3161C70.0036 54.5039 54.4448 70.0589 35.2518 70.0589C16.0588 70.0589 0.500002 54.5039 0.500001 35.3161C0.5 16.1283 16.0588 0.573242 35.2518 0.573241C54.4448 0.573241 70.0036 16.1283 70.0036 35.3161Z" stroke="black"/>
</g>
</g>
</svg>
