<svg width="200" height="200" viewBox="0 0 200 200" fill="none" xmlns="http://www.w3.org/2000/svg">
<path d="M107.663 81.5263C111.912 83.2888 115.424 86.4623 117.606 90.5118C119.788 94.5613 120.508 99.2393 119.644 103.758C118.78 108.276 116.384 112.358 112.861 115.316C109.339 118.274 104.904 119.928 100.304 119.998C95.7044 120.068 91.2213 118.55 87.6102 115.7C83.999 112.85 81.4807 108.843 80.4795 104.353C79.4782 99.8631 80.0554 95.1653 82.1136 91.0513C84.1719 86.9374 87.5854 83.6587 91.779 81.7678" stroke="#222222"/>
<path d="M100 100L100 72" stroke="#FF5F00"/>
<path d="M58.0032 155.572C57.7298 155.611 57.5399 155.864 57.579 156.137L58.2162 160.592C58.2553 160.865 58.5086 161.055 58.782 161.016C59.0553 160.977 59.2452 160.724 59.2061 160.45L58.6397 156.491L62.5994 155.924C62.8728 155.885 63.0627 155.632 63.0236 155.359C62.9845 155.085 62.7312 154.895 62.4578 154.934L58.0032 155.572ZM155.666 58.3741C176.075 85.5962 173.901 124.386 149.143 149.143L149.85 149.85C174.964 124.736 177.17 85.3887 156.466 57.7743L155.666 58.3741ZM149.143 149.143C124.386 173.901 85.5959 176.076 58.3739 155.667L57.7741 156.467C85.3885 177.17 124.736 174.965 149.85 149.85L149.143 149.143Z" fill="#222222"/>
<path d="M142.419 43.8628C142.458 44.1362 142.268 44.3895 141.995 44.4286L137.54 45.0657C137.267 45.1048 137.013 44.9149 136.974 44.6416C136.935 44.3682 137.125 44.1149 137.398 44.0758L141.358 43.5094L140.792 39.5497C140.753 39.2764 140.942 39.0231 141.216 38.984C141.489 38.9449 141.742 39.1348 141.782 39.4081L142.419 43.8628ZM141.624 44.3336C114.402 23.9247 75.6123 26.0995 50.8548 50.857L50.1477 50.1499C75.262 25.0355 114.609 22.8304 142.224 43.5335L141.624 44.3336ZM50.8548 50.857C26.0973 75.6145 23.9225 114.404 44.3315 141.626L43.5314 142.226C22.8282 114.611 25.0333 75.2642 50.1477 50.1499L50.8548 50.857Z" fill="#222222"/>
</svg>
