<svg width="340" height="172" viewBox="0 0 340 172" fill="none" xmlns="http://www.w3.org/2000/svg">
<path d="M314.115 69.8908H22.8047" stroke="url(#paint0_linear_1076_11096)" stroke-width="0.367541"/>
<path d="M303.816 50.7643H22.8047" stroke="url(#paint1_linear_1076_11096)" stroke-width="0.367541"/>
<path d="M255.265 1.47704L255.265 127.27" stroke="url(#paint2_linear_1076_11096)" stroke-width="0.367541" stroke-dasharray="1.1 1.1"/>
<rect x="255.265" y="50.7643" width="58.8506" height="76.5057" fill="url(#paint3_linear_1076_11096)"/>
<rect x="197.149" y="50.7643" width="58.1149" height="76.5057" fill="url(#paint4_linear_1076_11096)"/>
<rect x="139.035" y="69.8908" width="58.1149" height="57.3793" fill="url(#paint5_linear_1076_11096)"/>
<rect x="22.8047" y="108.144" width="58.1149" height="19.1264" fill="url(#paint6_linear_1076_11096)"/>
<path d="M36.9384 134.882H36.3231V136.441H35.5438V134.992H34.9423V138.355H35.5438V136.974H36.3231V138.574H36.9384V134.882ZM32.0028 138.061H32.4061C33.1444 138.061 33.8109 138.027 34.6073 137.87L34.5458 137.337C33.8554 137.473 33.2675 137.514 32.6522 137.521V135.361H32.0028V138.061ZM32.8163 139.825C32.8095 140.553 33.6127 140.99 34.8876 140.987C36.1591 140.99 36.9691 140.553 36.9725 139.825C36.9691 139.093 36.1591 138.656 34.8876 138.656C33.6127 138.656 32.8095 139.093 32.8163 139.825ZM33.4589 139.825C33.452 139.408 33.9989 139.165 34.8876 139.162C35.7763 139.165 36.3197 139.408 36.3231 139.825C36.3197 140.238 35.7763 140.478 34.8876 140.474C33.9989 140.478 33.452 140.238 33.4589 139.825ZM43.2873 137.856H40.8059V137.207H42.6379V136.687H39.0354V135.669H42.5969V135.156H38.3928V137.207H40.177V137.856H37.6955V138.376H43.2873V137.856ZM38.3586 139.886C38.3586 140.597 39.155 140.997 40.4846 141.001C41.8039 140.997 42.5935 140.597 42.5969 139.886C42.5935 139.175 41.8039 138.776 40.4846 138.772C39.155 138.776 38.3586 139.175 38.3586 139.886ZM39.0148 139.886C39.0114 139.5 39.548 139.278 40.4846 139.278C41.4074 139.278 41.9475 139.5 41.9475 139.886C41.9475 140.279 41.4074 140.495 40.4846 140.488C39.548 140.495 39.0114 140.279 39.0148 139.886ZM46.1893 135.135H45.5536V137.808H48.4383V135.135H47.7957V135.969H46.1893V135.135ZM46.1688 138.806H49.4842V139.36H46.1825V140.939H50.3387V140.42H46.8182V139.839H50.1268V138.294H46.1688V138.806ZM46.1893 137.289V136.468H47.7957V137.289H46.1893ZM49.4774 138.027H50.1268V136.687H51.0155V136.161H50.1268V134.876H49.4774V138.027ZM56.5988 135.744H54.4045V134.964H53.7619V135.744H51.5607V136.27H56.5988V135.744ZM51.2941 140.324H56.8996V139.797H55.4298V138.704C55.8742 138.509 56.1237 138.194 56.1203 137.781C56.1237 137.049 55.3376 136.619 54.0832 136.626C52.8185 136.619 52.0358 137.049 52.0392 137.781C52.0358 138.194 52.2853 138.509 52.7296 138.704V139.797H51.2941V140.324ZM52.7023 137.781C52.6955 137.364 53.2082 137.128 54.0832 137.125C54.9445 137.128 55.4606 137.364 55.4572 137.781C55.4606 138.194 54.9445 138.43 54.0832 138.43C53.2082 138.43 52.6955 138.194 52.7023 137.781ZM53.3791 139.797V138.885C53.591 138.919 53.8268 138.936 54.0832 138.936C54.3395 138.936 54.5788 138.919 54.7941 138.885V139.797H53.3791ZM64.0193 134.876H63.3699V136.434H62.2283V136.967H63.3699V138.519H64.0193V134.876ZM58.9129 137.965L59.2547 138.485C59.9861 138.215 60.5228 137.665 60.7894 136.981C61.056 137.586 61.5618 138.078 62.2488 138.314L62.5838 137.801C61.6575 137.487 61.1038 136.732 61.1072 135.956V135.826H62.4197V135.299H59.118V135.826H60.4441V135.963C60.4476 136.807 59.8631 137.634 58.9129 137.965ZM59.8973 139.845C59.8938 140.573 60.68 140.997 61.9686 141.001C63.2503 140.997 64.0364 140.573 64.0398 139.845C64.0364 139.117 63.2503 138.693 61.9686 138.69C60.68 138.693 59.8938 139.117 59.8973 139.845ZM60.5398 139.845C60.5364 139.428 61.0696 139.193 61.9686 139.196C62.8606 139.193 63.3938 139.428 63.3973 139.845C63.3938 140.259 62.8606 140.495 61.9686 140.488C61.0696 140.495 60.5364 140.259 60.5398 139.845ZM67.1486 136.68V136.031H68.5431V135.491H65.0909V136.031H66.4923V136.68C66.4855 137.736 65.8019 138.885 64.879 139.319L65.255 139.832C65.9694 139.483 66.5436 138.738 66.8273 137.863C67.111 138.68 67.6852 139.357 68.4064 139.674L68.7618 139.169C67.8185 138.765 67.1451 137.706 67.1486 136.68ZM69.3155 141.001H69.965V134.876H69.3155V141.001Z" fill="black"/>
<path d="M36.3438 147.469C36.3496 148.576 36.6485 149.496 37.1875 150.281H37.6329C37.2373 149.698 36.8682 148.515 36.8653 147.469C36.8682 146.426 37.2373 145.24 37.6329 144.662H37.1875C36.6485 145.445 36.3496 146.365 36.3438 147.469ZM39.9811 147.1H39.5299V148.078C38.9879 148.096 38.4723 148.099 38.0357 148.102L38.1002 148.483C39.0377 148.486 40.318 148.477 41.5104 148.26L41.4752 147.92C40.9947 147.993 40.485 148.034 39.9811 148.061V147.1ZM38.1939 146.918L38.4166 147.27C39.0436 147.079 39.5299 146.663 39.7555 146.107C39.9898 146.634 40.482 147.035 41.1061 147.223L41.3229 146.86C40.5523 146.64 39.9957 146.089 39.9811 145.418H41.2057V145.037H39.9811V144.393H39.5299V145.037H38.3229V145.418H39.5182C39.5064 146.118 38.9645 146.69 38.1939 146.918ZM41.8209 149.573H42.2779V144.352H41.8209V149.573ZM47.5851 144.352H47.1457V146.449H46.3781V144.469H45.9562V149.291H46.3781V146.83H47.1457V149.561H47.5851V144.352ZM43.3254 148.272H43.6593C44.4591 148.269 44.9894 148.248 45.6164 148.119L45.5754 147.733C44.9953 147.85 44.5002 147.876 43.7824 147.879V145.371H45.2765V144.99H43.3254V148.272ZM51.3557 149.145C52.2024 149.145 52.8352 148.629 52.8323 147.932C52.8352 147.393 52.5013 146.997 51.9475 146.912V146.883C52.3929 146.757 52.6741 146.406 52.6682 145.922C52.6741 145.316 52.1819 144.785 51.3733 144.785C50.6204 144.785 49.9934 145.237 49.9671 145.91H50.4768C50.5003 145.494 50.9134 145.245 51.3675 145.242C51.8509 145.245 52.1614 145.527 52.1585 145.951C52.1614 146.388 51.8011 146.678 51.2854 146.678H50.9397V147.141H51.2854C51.9446 147.144 52.3138 147.469 52.3167 147.932C52.3138 148.374 51.9095 148.676 51.3499 148.676C50.843 148.676 50.4417 148.424 50.4124 148.02H49.8792C49.9055 148.694 50.512 149.145 51.3557 149.145ZM54.8231 144.545C54.035 144.548 53.4666 145.023 53.4696 145.699C53.4666 146.379 54.035 146.848 54.8231 146.848C55.6024 146.848 56.1678 146.379 56.1707 145.699C56.1678 145.023 55.6024 144.548 54.8231 144.545ZM53.9207 145.699C53.9149 145.248 54.2987 144.929 54.8231 144.932C55.3387 144.929 55.7254 145.248 55.7254 145.699C55.7254 146.156 55.3387 146.473 54.8231 146.473C54.2987 146.473 53.9149 146.156 53.9207 145.699ZM54.2606 147.651H57.1903V148.19H54.2723V149.49H57.8348V149.121H54.7235V148.535H57.6473V147.281H54.2606V147.651ZM57.1903 147.03H57.6473V144.352H57.1903V147.03ZM62.5443 144.352H62.0814V148.166H62.5443V146.326H63.3295V145.94H62.5443V144.352ZM58.4779 147.194L58.6771 147.563C60.1801 147.094 61.1381 146.098 61.1381 144.756H58.6947V145.143H60.6371C60.5404 146.063 59.7289 146.804 58.4779 147.194ZM59.2807 149.449H62.7846V149.063H59.7377V147.78H59.2807V149.449ZM64.8984 147.469C64.8925 146.365 64.5937 145.445 64.0546 144.662H63.6093C64.0048 145.24 64.374 146.426 64.3769 147.469C64.374 148.515 64.0048 149.698 63.6093 150.281H64.0546C64.5937 149.496 64.8925 148.576 64.8984 147.469Z" fill="#929292"/>
<path d="M92.8593 135.887H91.663V135.053H91.0204V135.887H89.8173V136.414H92.8593V135.887ZM90.0155 138.191C90.0121 139.028 90.5726 139.616 91.3417 139.613C92.1176 139.616 92.6713 139.028 92.6747 138.191C92.6713 137.367 92.1176 136.783 91.3417 136.783C90.5726 136.783 90.0121 137.367 90.0155 138.191ZM90.5897 138.191C90.5863 137.682 90.9008 137.326 91.3417 137.323C91.7826 137.326 92.1005 137.682 92.1005 138.191C92.1005 138.711 91.7826 139.059 91.3417 139.059C90.9008 139.059 90.5863 138.711 90.5897 138.191ZM93.1395 140.714H93.7548V137.959H94.4589V141.001H95.0741V134.876H94.4589V137.425H93.7548V135.012H93.1395V140.714ZM101.403 137.856H98.9211V137.207H100.753V136.687H97.1506V135.669H100.712V135.156H96.508V137.207H98.2922V137.856H95.8107V138.376H101.403V137.856ZM96.4738 139.886C96.4738 140.597 97.2702 140.997 98.5998 141.001C99.9191 140.997 100.709 140.597 100.712 139.886C100.709 139.175 99.9191 138.776 98.5998 138.772C97.2702 138.776 96.4738 139.175 96.4738 139.886ZM97.1301 139.886C97.1267 139.5 97.6633 139.278 98.5998 139.278C99.5227 139.278 100.063 139.5 100.063 139.886C100.063 140.279 99.5227 140.495 98.5998 140.488C97.6633 140.495 97.1267 140.279 97.1301 139.886ZM108.543 134.876H107.893V137.077H106.629V137.61H107.893V141.014H108.543V134.876ZM103.361 139.305L103.758 139.811C104.465 139.449 105.022 138.687 105.296 137.798C105.569 138.632 106.113 139.346 106.82 139.688L107.21 139.169C106.27 138.752 105.617 137.634 105.617 136.598V136.024H106.977V135.491H103.607V136.024H104.961V136.598C104.957 137.699 104.298 138.858 103.361 139.305ZM114.994 138.102H112.52V137.511C113.661 137.443 114.382 136.995 114.386 136.277C114.382 135.515 113.525 135.05 112.198 135.047C110.865 135.05 110.007 135.515 110.011 136.277C110.007 136.995 110.729 137.443 111.877 137.511V138.102H109.409V138.635H114.994V138.102ZM110.113 140.871H114.365V140.344H110.77V139.093H110.113V140.871ZM110.681 136.277C110.677 135.839 111.258 135.569 112.198 135.573C113.135 135.569 113.719 135.839 113.716 136.277C113.719 136.738 113.135 136.991 112.198 136.995C111.258 136.991 110.677 136.738 110.681 136.277ZM121.984 135.464H117.616V135.99H121.335V136.065C121.331 136.8 121.331 137.668 121.096 138.854L121.752 138.922C121.981 137.668 121.981 136.82 121.984 136.065V135.464ZM117.028 140.173H122.613V139.633H119.797V137.473H119.154V139.633H117.028V140.173ZM124.341 138.547H123.698V140.925H127.868V138.547H127.219V139.196H124.341V138.547ZM123.008 138.164H128.593V137.624H123.008V138.164ZM123.309 136.735L123.555 137.248C124.539 137.111 125.407 136.643 125.804 135.986C126.197 136.639 127.062 137.111 128.053 137.248L128.285 136.735C127.113 136.591 126.135 135.908 126.132 135.204V134.944H125.469V135.204C125.465 135.928 124.495 136.581 123.309 136.735ZM124.341 140.406V139.702H127.219V140.406H124.341Z" fill="black"/>
<path d="M160.479 134.876H159.829V137.077H158.565V137.61H159.829V141.014H160.479V134.876ZM155.297 139.305L155.694 139.811C156.401 139.449 156.958 138.687 157.232 137.798C157.505 138.632 158.049 139.346 158.756 139.688L159.146 139.169C158.206 138.752 157.553 137.634 157.553 136.598V136.024H158.913V135.491H155.543V136.024H156.897V136.598C156.893 137.699 156.234 138.858 155.297 139.305ZM166.93 138.102H164.456V137.511C165.597 137.443 166.319 136.995 166.322 136.277C166.319 135.515 165.461 135.05 164.134 135.047C162.801 135.05 161.944 135.515 161.947 136.277C161.944 136.995 162.665 137.443 163.813 137.511V138.102H161.345V138.635H166.93V138.102ZM162.049 140.871H166.301V140.344H162.706V139.093H162.049V140.871ZM162.617 136.277C162.613 135.839 163.195 135.569 164.134 135.573C165.071 135.569 165.655 135.839 165.652 136.277C165.655 136.738 165.071 136.991 164.134 136.995C163.195 136.991 162.613 136.738 162.617 136.277ZM169.839 135.135H169.203V137.808H172.088V135.135H171.446V135.969H169.839V135.135ZM169.819 138.806H173.134V139.36H169.832V140.939H173.989V140.42H170.468V139.839H173.777V138.294H169.819V138.806ZM169.839 137.289V136.468H171.446V137.289H169.839ZM173.127 138.027H173.777V136.687H174.665V136.161H173.777V134.876H173.127V138.027ZM180.249 135.744H178.054V134.964H177.412V135.744H175.211V136.27H180.249V135.744ZM174.944 140.324H180.549V139.797H179.08V138.704C179.524 138.509 179.774 138.194 179.77 137.781C179.774 137.049 178.987 136.619 177.733 136.626C176.468 136.619 175.686 137.049 175.689 137.781C175.686 138.194 175.935 138.509 176.38 138.704V139.797H174.944V140.324ZM176.352 137.781C176.345 137.364 176.858 137.128 177.733 137.125C178.594 137.128 179.11 137.364 179.107 137.781C179.11 138.194 178.594 138.43 177.733 138.43C176.858 138.43 176.345 138.194 176.352 137.781ZM177.029 139.797V138.885C177.241 138.919 177.477 138.936 177.733 138.936C177.989 138.936 178.229 138.919 178.444 138.885V139.797H177.029Z" fill="black"/>
<path d="M218.437 135.464H214.069V135.99H217.787V136.065C217.784 136.8 217.784 137.668 217.548 138.854L218.204 138.922C218.433 137.668 218.433 136.82 218.437 136.065V135.464ZM213.481 140.173H219.066V139.633H216.249V137.473H215.607V139.633H213.481V140.173ZM225.046 138.102H222.571V137.511C223.713 137.443 224.434 136.995 224.437 136.277C224.434 135.515 223.576 135.05 222.25 135.047C220.917 135.05 220.059 135.515 220.062 136.277C220.059 136.995 220.78 137.443 221.928 137.511V138.102H219.461V138.635H225.046V138.102ZM220.165 140.871H224.417V140.344H220.821V139.093H220.165V140.871ZM220.732 136.277C220.729 135.839 221.31 135.569 222.25 135.573C223.186 135.569 223.771 135.839 223.767 136.277C223.771 136.738 223.186 136.991 222.25 136.995C221.31 136.991 220.729 136.738 220.732 136.277ZM227.954 135.135H227.319V137.808H230.203V135.135H229.561V135.969H227.954V135.135ZM227.934 138.806H231.249V139.36H227.948V140.939H232.104V140.42H228.583V139.839H231.892V138.294H227.934V138.806ZM227.954 137.289V136.468H229.561V137.289H227.954ZM231.243 138.027H231.892V136.687H232.781V136.161H231.892V134.876H231.243V138.027ZM238.364 135.744H236.17V134.964H235.527V135.744H233.326V136.27H238.364V135.744ZM233.059 140.324H238.665V139.797H237.195V138.704C237.639 138.509 237.889 138.194 237.885 137.781C237.889 137.049 237.103 136.619 235.848 136.626C234.584 136.619 233.801 137.049 233.804 137.781C233.801 138.194 234.05 138.509 234.495 138.704V139.797H233.059V140.324ZM234.467 137.781C234.461 137.364 234.973 137.128 235.848 137.125C236.71 137.128 237.226 137.364 237.222 137.781C237.226 138.194 236.71 138.43 235.848 138.43C234.973 138.43 234.461 138.194 234.467 137.781ZM235.144 139.797V138.885C235.356 138.919 235.592 138.936 235.848 138.936C236.105 138.936 236.344 138.919 236.559 138.885V139.797H235.144Z" fill="black"/>
<path d="M269.851 135.464H269.236V139.49H271.622V137.713H272.435V140.707H273.057V134.999H272.435V137.172H271.622V135.464H271.027V136.933H269.851V135.464ZM269.851 138.95V137.46H271.027V138.95H269.851ZM273.679 141.001H274.301V134.876H273.679V141.001ZM280.083 134.876H279.434V141.014H280.083V134.876ZM275.223 137.48C275.223 138.803 275.882 139.637 276.809 139.633C277.718 139.637 278.388 138.803 278.388 137.48C278.388 136.171 277.718 135.337 276.809 135.334C275.882 135.337 275.223 136.171 275.223 137.48ZM275.852 137.48C275.848 136.52 276.238 135.918 276.809 135.915C277.369 135.918 277.759 136.52 277.759 137.48C277.759 138.454 277.369 139.052 276.809 139.052C276.238 139.052 275.848 138.454 275.852 137.48ZM284.265 135.279H281.421V135.798H283.575C283.554 136.014 283.506 136.222 283.428 136.417L281.114 136.509L281.216 137.036L283.168 136.885C282.788 137.398 282.142 137.808 281.148 138.089L281.387 138.608C283.39 138.024 284.265 136.889 284.265 135.279ZM281.934 139.811C281.934 140.56 282.73 140.987 284.026 140.987C285.297 140.987 286.1 140.56 286.097 139.811C286.1 139.059 285.297 138.625 284.026 138.622C282.73 138.625 281.934 139.059 281.934 139.811ZM282.583 139.811C282.587 139.384 283.113 139.138 284.026 139.134C284.914 139.138 285.454 139.384 285.454 139.811C285.454 140.232 284.914 140.481 284.026 140.481C283.113 140.481 282.587 140.232 282.583 139.811ZM285.42 138.54H286.07V134.882H285.42V138.54ZM290.749 135.976V135.805H292.068V135.279H288.753V135.805H290.1V135.969C290.096 136.814 289.519 137.607 288.562 137.931L288.91 138.437C289.628 138.184 290.161 137.661 290.428 137.002C290.694 137.603 291.204 138.082 291.897 138.321L292.226 137.815C291.289 137.501 290.746 136.759 290.749 135.976ZM289.375 139.394H292.772V141.001H293.422V138.868H289.375V139.394ZM292.772 138.567H293.422V136.995H294.311V136.448H293.422V134.876H292.772V138.567ZM296.284 135.156C295.348 135.149 294.675 135.744 294.678 136.578C294.675 137.422 295.348 138.013 296.284 138.013C297.098 138.013 297.727 137.542 297.853 136.838H299.046V138.164H299.696V134.876H299.046V136.304H297.85C297.717 135.617 297.091 135.149 296.284 135.156ZM295.3 136.578C295.297 136.051 295.707 135.693 296.284 135.696C296.852 135.693 297.255 136.051 297.255 136.578C297.255 137.101 296.852 137.466 296.284 137.466C295.707 137.466 295.297 137.101 295.3 136.578ZM295.703 140.925H299.696V138.458H299.046V139.169H296.346V138.458H295.703V140.925ZM296.346 140.392V139.681H299.046V140.392H296.346Z" fill="black"/>
<path d="M314.115 108.144H22.8047" stroke="url(#paint7_linear_1076_11096)" stroke-width="0.367541"/>
<path d="M314.115 89.0172H22.8047" stroke="url(#paint8_linear_1076_11096)" stroke-width="0.367541"/>
<g opacity="0.3">
<path d="M80.9189 1.47697L80.9189 127.27" stroke="url(#paint9_linear_1076_11096)" stroke-width="0.367541"/>
<path d="M197.148 1.47697L197.148 127.27" stroke="url(#paint10_linear_1076_11096)" stroke-width="0.367541"/>
<path d="M139.034 1.47697L139.034 127.27" stroke="url(#paint11_linear_1076_11096)" stroke-width="0.367541"/>
<path opacity="0.8" d="M255.264 1.47697L255.264 127.27" stroke="url(#paint12_linear_1076_11096)" stroke-width="0.367541"/>
<path opacity="0.6" d="M314.114 1.47697L314.114 127.27" stroke="url(#paint13_linear_1076_11096)" stroke-width="0.367541"/>
</g>
<rect x="80.9199" y="89.0172" width="58.1149" height="38.2529" fill="url(#paint14_linear_1076_11096)"/>
<circle cx="255.264" cy="50.7644" r="4.22989" fill="white" stroke="#FF5F00" stroke-width="0.367816"/>
<circle cx="255.264" cy="50.7644" r="2.57471" fill="#FF5F00"/>
<path d="M31.4404 115.129H29.2959V114.584C30.2832 114.531 30.9043 114.156 30.9072 113.541C30.9043 112.9 30.1865 112.513 29.0674 112.51C27.9365 112.513 27.2217 112.9 27.2217 113.541C27.2217 114.156 27.8398 114.531 28.8389 114.584V115.129H26.6943V115.51H31.4404V115.129ZM27.3096 117.449H30.9131V117.063H27.7725V115.932H27.3096V117.449ZM27.6963 113.541C27.6934 113.143 28.2266 112.885 29.0674 112.885C29.9023 112.885 30.4355 113.143 30.4385 113.541C30.4355 113.966 29.9023 114.209 29.0674 114.209C28.2266 114.209 27.6934 113.966 27.6963 113.541ZM36.0869 114.795H32.9521V113.155H36.0342V112.78H32.4893V115.17H34.0244V116.518H31.8799V116.905H36.6494V116.518H34.4756V115.17H36.0869V114.795ZM40.5869 115.041H38.7295V115.504H40.5869V115.041ZM42.7373 117.145C43.584 117.145 44.1992 116.553 44.2021 115.733C44.1992 114.906 43.6045 114.309 42.7959 114.309C42.4971 114.309 42.2129 114.408 42.0225 114.555H41.9814L42.1396 113.313H43.9971V112.844H41.7002L41.4014 115.164H41.9111C42.0664 114.889 42.3447 114.778 42.7021 114.783C43.2734 114.786 43.6865 115.194 43.6865 115.744C43.6865 116.278 43.2881 116.679 42.7373 116.682C42.2773 116.679 41.9082 116.398 41.8701 116.02H41.3604C41.3926 116.673 41.9727 117.145 42.7373 117.145ZM45.8193 114.719C46.3467 114.719 46.7744 114.294 46.7744 113.77C46.7744 113.237 46.3467 112.809 45.8193 112.809C45.2891 112.809 44.8643 113.237 44.8643 113.77C44.8643 114.294 45.2891 114.719 45.8193 114.719ZM45.2803 113.77C45.2832 113.468 45.5234 113.234 45.8193 113.231C46.1152 113.234 46.3496 113.468 46.3525 113.77C46.3496 114.063 46.1152 114.303 45.8193 114.303C45.5234 114.303 45.2832 114.063 45.2803 113.77ZM47.3398 114.965C47.3369 116.307 48.125 117.145 49.2148 117.145C50.0762 117.145 50.7734 116.623 50.9258 115.756H50.3984C50.2725 116.336 49.7744 116.65 49.2148 116.653C48.4473 116.65 47.8525 116.058 47.8496 114.965C47.8525 113.869 48.4473 113.278 49.2148 113.278C49.7744 113.278 50.2754 113.594 50.3984 114.18H50.9258C50.7676 113.298 50.0732 112.785 49.2148 112.785C48.125 112.785 47.3369 113.623 47.3398 114.965ZM54.6201 112.645H54.1572L52.792 117.725H53.249L54.6201 112.645ZM57.4854 115.481H57.0283V117.49H60.5498V115.481H60.0869V116.09H57.4854V115.481ZM56.4248 115.112H61.1709V114.731H56.4248V115.112ZM56.6943 113.992L56.8701 114.362C57.6729 114.241 58.4697 113.834 58.8008 113.248C59.1318 113.831 59.9258 114.241 60.7314 114.362L60.9014 113.992C59.9844 113.875 59.0352 113.298 59.0381 112.656V112.41H58.5635V112.656C58.5635 113.319 57.623 113.866 56.6943 113.992ZM57.4854 117.121V116.453H60.0869V117.121H57.4854ZM65.8174 114.795H62.6826V113.155H65.7646V112.78H62.2197V115.17H63.7549V116.518H61.6104V116.905H66.3799V116.518H64.2061V115.17H65.8174V114.795ZM70.3174 115.041H68.46V115.504H70.3174V115.041Z" fill="#4A4A4A"/>
<path d="M89.5557 96.0027H87.4111V95.4578C88.3984 95.405 89.0195 95.03 89.0225 94.4148C89.0195 93.7732 88.3018 93.3865 87.1826 93.3835C86.0518 93.3865 85.3369 93.7732 85.3369 94.4148C85.3369 95.03 85.9551 95.405 86.9541 95.4578V96.0027H84.8096V96.3835H89.5557V96.0027ZM85.4248 98.323H89.0283V97.9363H85.8877V96.8054H85.4248V98.323ZM85.8115 94.4148C85.8086 94.0164 86.3418 93.7585 87.1826 93.7585C88.0176 93.7585 88.5508 94.0164 88.5537 94.4148C88.5508 94.8396 88.0176 95.0828 87.1826 95.0828C86.3418 95.0828 85.8086 94.8396 85.8115 94.4148ZM94.2021 95.6687H91.0674V94.0281H94.1494V93.6531H90.6045V96.0437H92.1396V97.3914H89.9951V97.7781H94.7646V97.3914H92.5908V96.0437H94.2021V95.6687ZM96.874 97.9597H99.6279V97.491H97.6064V97.4558L98.5791 96.4539C99.3291 95.6804 99.5488 95.3113 99.5518 94.8367C99.5488 94.1775 99.0039 93.6589 98.2334 93.6589C97.4658 93.6589 96.8857 94.1628 96.8916 94.9128H97.3896C97.3926 94.4382 97.709 94.1189 98.2158 94.116C98.6934 94.1189 99.0566 94.4001 99.0596 94.8367C99.0566 95.2292 98.8164 95.5164 98.3154 96.0496L96.8682 97.573L96.874 97.9597ZM101.28 95.5925C101.808 95.5925 102.235 95.1677 102.235 94.6433C102.235 94.1101 101.808 93.6824 101.28 93.6824C100.75 93.6824 100.325 94.1101 100.325 94.6433C100.325 95.1677 100.75 95.5925 101.28 95.5925ZM100.741 94.6433C100.744 94.3416 100.984 94.1072 101.28 94.1042C101.576 94.1072 101.811 94.3416 101.813 94.6433C101.811 94.9363 101.576 95.1765 101.28 95.1765C100.984 95.1765 100.744 94.9363 100.741 94.6433ZM102.801 95.8386C102.798 97.1804 103.586 98.0183 104.676 98.0183C105.537 98.0183 106.234 97.4968 106.387 96.6296H105.859C105.733 97.2097 105.235 97.5232 104.676 97.5261C103.908 97.5232 103.313 96.9314 103.311 95.8386C103.313 94.7429 103.908 94.1511 104.676 94.1511C105.235 94.1511 105.736 94.4675 105.859 95.0535H106.387C106.229 94.1716 105.534 93.6589 104.676 93.6589C103.586 93.6589 102.798 94.4968 102.801 95.8386ZM110.081 93.5183H109.618L108.253 98.5984H108.71L110.081 93.5183ZM112.946 96.3542H112.489V98.364H116.011V96.3542H115.548V96.9636H112.946V96.3542ZM111.886 95.9851H116.632V95.6042H111.886V95.9851ZM112.155 94.866L112.331 95.2351C113.134 95.115 113.931 94.7078 114.262 94.1218C114.593 94.7048 115.387 95.115 116.192 95.2351L116.362 94.866C115.445 94.7488 114.496 94.1716 114.499 93.53V93.2839H114.024V93.53C114.024 94.1921 113.084 94.74 112.155 94.866ZM112.946 97.9949V97.3269H115.548V97.9949H112.946ZM121.278 95.6687H118.144V94.0281H121.226V93.6531H117.681V96.0437H119.216V97.3914H117.071V97.7781H121.841V97.3914H119.667V96.0437H121.278V95.6687ZM124.085 97.9597H124.636L126.575 94.2097V93.7175H123.786V94.1863H126.03V94.2156L124.085 97.9597ZM128.585 98.0183C129.432 98.0183 130.047 97.4265 130.05 96.6062C130.047 95.78 129.452 95.1824 128.644 95.1824C128.345 95.1824 128.061 95.282 127.87 95.4285H127.829L127.987 94.1863H129.845V93.7175H127.548L127.249 96.0378H127.759C127.914 95.7625 128.192 95.6511 128.55 95.657C129.121 95.6599 129.534 96.0671 129.534 96.6179C129.534 97.1511 129.136 97.5525 128.585 97.5554C128.125 97.5525 127.756 97.2712 127.718 96.8933H127.208C127.24 97.5466 127.82 98.0183 128.585 98.0183ZM131.679 95.6863C132.224 95.6892 132.525 95.2732 132.528 94.6667C132.525 94.0691 132.235 93.6531 131.679 93.6531C131.143 93.6531 130.826 94.0691 130.829 94.6667C130.826 95.2732 131.131 95.6892 131.679 95.6863ZM131.245 97.9597H131.72L134.638 93.7175H134.163L131.245 97.9597ZM131.257 94.6667C131.257 94.2771 131.4 94.0193 131.679 94.0164C131.975 94.0105 132.101 94.2771 132.101 94.6667C132.101 95.0623 131.966 95.323 131.679 95.323C131.395 95.323 131.257 95.0623 131.257 94.6667ZM133.419 97.0046C133.413 97.6082 133.715 98.0212 134.269 98.0183C134.811 98.0212 135.112 97.6082 135.112 97.0046C135.112 96.4011 134.816 95.988 134.269 95.9851C133.727 95.988 133.413 96.4011 133.419 97.0046ZM133.841 97.0046C133.844 96.6091 133.984 96.3513 134.269 96.3484C134.562 96.3425 134.685 96.6091 134.685 97.0046C134.685 97.3972 134.553 97.658 134.269 97.655C133.981 97.658 133.844 97.3972 133.841 97.0046Z" fill="#4A4A4A"/>
<path d="M147.67 76.8762H145.525V76.3313C146.513 76.2786 147.134 75.9036 147.137 75.2883C147.134 74.6467 146.416 74.26 145.297 74.2571C144.166 74.26 143.451 74.6467 143.451 75.2883C143.451 75.9036 144.069 76.2786 145.068 76.3313V76.8762H142.924V77.2571H147.67V76.8762ZM143.539 79.1965H147.143V78.8098H144.002V77.679H143.539V79.1965ZM143.926 75.2883C143.923 74.8899 144.456 74.6321 145.297 74.6321C146.132 74.6321 146.665 74.8899 146.668 75.2883C146.665 75.7131 146.132 75.9563 145.297 75.9563C144.456 75.9563 143.923 75.7131 143.926 75.2883ZM152.316 76.5422H149.182V74.9016H152.264V74.5266H148.719V76.9172H150.254V78.2649H148.109V78.6516H152.879V78.2649H150.705V76.9172H152.316V76.5422ZM156.488 74.5911H155.955L154.9 75.2942V75.8274L155.932 75.1418H155.955V78.8333H156.488V74.5911ZM159.002 78.8918C159.849 78.8918 160.464 78.3 160.467 77.4797C160.464 76.6536 159.869 76.0559 159.061 76.0559C158.762 76.0559 158.478 76.1555 158.287 76.302H158.246L158.404 75.0598H160.262V74.5911H157.965L157.666 76.9114H158.176C158.331 76.636 158.609 76.5247 158.967 76.5305C159.538 76.5334 159.951 76.9407 159.951 77.4915C159.951 78.0247 159.553 78.426 159.002 78.429C158.542 78.426 158.173 78.1448 158.135 77.7668H157.625C157.657 78.4202 158.237 78.8918 159.002 78.8918ZM162.084 76.4661C162.611 76.4661 163.039 76.0413 163.039 75.5168C163.039 74.9836 162.611 74.5559 162.084 74.5559C161.554 74.5559 161.129 74.9836 161.129 75.5168C161.129 76.0413 161.554 76.4661 162.084 76.4661ZM161.545 75.5168C161.548 75.2151 161.788 74.9807 162.084 74.9778C162.38 74.9807 162.614 75.2151 162.617 75.5168C162.614 75.8098 162.38 76.05 162.084 76.05C161.788 76.05 161.548 75.8098 161.545 75.5168ZM163.604 76.7122C163.602 78.054 164.39 78.8918 165.479 78.8918C166.341 78.8918 167.038 78.3704 167.19 77.5032H166.663C166.537 78.0833 166.039 78.3967 165.479 78.3997C164.712 78.3967 164.117 77.8049 164.114 76.7122C164.117 75.6165 164.712 75.0247 165.479 75.0247C166.039 75.0247 166.54 75.3411 166.663 75.927H167.19C167.032 75.0452 166.338 74.5325 165.479 74.5325C164.39 74.5325 163.602 75.3704 163.604 76.7122ZM170.885 74.3918H170.422L169.057 79.4719H169.514L170.885 74.3918ZM173.75 77.2278H173.293V79.2375H176.814V77.2278H176.352V77.8372H173.75V77.2278ZM172.689 76.8586H177.436V76.4778H172.689V76.8586ZM172.959 75.7395L173.135 76.1086C173.938 75.9885 174.734 75.5813 175.065 74.9954C175.396 75.5784 176.19 75.9885 176.996 76.1086L177.166 75.7395C176.249 75.6223 175.3 75.0452 175.303 74.4036V74.1575H174.828V74.4036C174.828 75.0657 173.888 75.6135 172.959 75.7395ZM173.75 78.8684V78.2004H176.352V78.8684H173.75ZM182.082 76.5422H178.947V74.9016H182.029V74.5266H178.484V76.9172H180.02V78.2649H177.875V78.6516H182.645V78.2649H180.471V76.9172H182.082V76.5422ZM184.889 78.8333H185.439L187.379 75.0833V74.5911H184.59V75.0598H186.834V75.0891L184.889 78.8333ZM189.389 78.8918C190.235 78.8918 190.851 78.3 190.854 77.4797C190.851 76.6536 190.256 76.0559 189.447 76.0559C189.148 76.0559 188.864 76.1555 188.674 76.302H188.633L188.791 75.0598H190.648V74.5911H188.352L188.053 76.9114H188.562C188.718 76.636 188.996 76.5247 189.354 76.5305C189.925 76.5334 190.338 76.9407 190.338 77.4915C190.338 78.0247 189.939 78.426 189.389 78.429C188.929 78.426 188.56 78.1448 188.521 77.7668H188.012C188.044 78.4202 188.624 78.8918 189.389 78.8918ZM192.482 76.5598C193.027 76.5627 193.329 76.1467 193.332 75.5403C193.329 74.9426 193.039 74.5266 192.482 74.5266C191.946 74.5266 191.63 74.9426 191.633 75.5403C191.63 76.1467 191.935 76.5627 192.482 76.5598ZM192.049 78.8333H192.523L195.441 74.5911H194.967L192.049 78.8333ZM192.061 75.5403C192.061 75.1506 192.204 74.8928 192.482 74.8899C192.778 74.884 192.904 75.1506 192.904 75.5403C192.904 75.9358 192.77 76.1965 192.482 76.1965C192.198 76.1965 192.061 75.9358 192.061 75.5403ZM194.223 77.8782C194.217 78.4817 194.519 78.8948 195.072 78.8918C195.614 78.8948 195.916 78.4817 195.916 77.8782C195.916 77.2747 195.62 76.8616 195.072 76.8586C194.53 76.8616 194.217 77.2747 194.223 77.8782ZM194.645 77.8782C194.647 77.4827 194.788 77.2249 195.072 77.2219C195.365 77.2161 195.488 77.4827 195.488 77.8782C195.488 78.2708 195.356 78.5315 195.072 78.5286C194.785 78.5315 194.647 78.2708 194.645 77.8782Z" fill="#4A4A4A"/>
<path d="M205.785 57.7498H203.641V57.2049C204.628 57.1522 205.249 56.7772 205.252 56.1619C205.249 55.5203 204.531 55.1336 203.412 55.1307C202.281 55.1336 201.566 55.5203 201.566 56.1619C201.566 56.7772 202.185 57.1522 203.184 57.2049V57.7498H201.039V58.1307H205.785V57.7498ZM201.654 60.0701H205.258V59.6834H202.117V58.5526H201.654V60.0701ZM202.041 56.1619C202.038 55.7635 202.571 55.5057 203.412 55.5057C204.247 55.5057 204.78 55.7635 204.783 56.1619C204.78 56.5867 204.247 56.8299 203.412 56.8299C202.571 56.8299 202.038 56.5867 202.041 56.1619ZM210.432 57.4158H207.297V55.7752H210.379V55.4002H206.834V57.7908H208.369V59.1385H206.225V59.5252H210.994V59.1385H208.82V57.7908H210.432V57.4158ZM214.568 59.7654C215.415 59.7654 216.048 59.2498 216.045 58.5526C216.048 58.0135 215.714 57.618 215.16 57.533V57.5037C215.605 57.3777 215.887 57.0262 215.881 56.5428C215.887 55.9363 215.395 55.4061 214.586 55.4061C213.833 55.4061 213.206 55.8572 213.18 56.5311H213.689C213.713 56.1151 214.126 55.866 214.58 55.8631C215.063 55.866 215.374 56.1473 215.371 56.5721C215.374 57.0086 215.014 57.2986 214.498 57.2986H214.152V57.7615H214.498C215.157 57.7645 215.526 58.0897 215.529 58.5526C215.526 58.9949 215.122 59.2967 214.562 59.2967C214.056 59.2967 213.654 59.0447 213.625 58.6404H213.092C213.118 59.3143 213.725 59.7654 214.568 59.7654ZM218.189 59.7654C219.036 59.7654 219.651 59.1736 219.654 58.3533C219.651 57.5272 219.057 56.9295 218.248 56.9295C217.949 56.9295 217.665 57.0291 217.475 57.1756H217.434L217.592 55.9334H219.449V55.4647H217.152L216.854 57.785H217.363C217.519 57.5096 217.797 57.3983 218.154 57.4041C218.726 57.407 219.139 57.8143 219.139 58.3651C219.139 58.8983 218.74 59.2996 218.189 59.3026C217.729 59.2996 217.36 59.0184 217.322 58.6404H216.812C216.845 59.2938 217.425 59.7654 218.189 59.7654ZM221.271 57.3397C221.799 57.3397 222.227 56.9149 222.227 56.3904C222.227 55.8572 221.799 55.4295 221.271 55.4295C220.741 55.4295 220.316 55.8572 220.316 56.3904C220.316 56.9149 220.741 57.3397 221.271 57.3397ZM220.732 56.3904C220.735 56.0887 220.976 55.8543 221.271 55.8514C221.567 55.8543 221.802 56.0887 221.805 56.3904C221.802 56.6834 221.567 56.9236 221.271 56.9236C220.976 56.9236 220.735 56.6834 220.732 56.3904ZM222.792 57.5858C222.789 58.9276 223.577 59.7654 224.667 59.7654C225.528 59.7654 226.226 59.244 226.378 58.3768H225.851C225.725 58.9568 225.227 59.2703 224.667 59.2733C223.899 59.2703 223.305 58.6785 223.302 57.5858C223.305 56.4901 223.899 55.8983 224.667 55.8983C225.227 55.8983 225.728 56.2147 225.851 56.8006H226.378C226.22 55.9188 225.525 55.4061 224.667 55.4061C223.577 55.4061 222.789 56.244 222.792 57.5858ZM230.072 55.2654H229.609L228.244 60.3455H228.701L230.072 55.2654ZM232.938 58.1014H232.48V60.1111H236.002V58.1014H235.539V58.7108H232.938V58.1014ZM231.877 57.7322H236.623V57.3514H231.877V57.7322ZM232.146 56.6131L232.322 56.9822C233.125 56.8621 233.922 56.4549 234.253 55.869C234.584 56.452 235.378 56.8621 236.184 56.9822L236.354 56.6131C235.437 56.4959 234.487 55.9188 234.49 55.2772V55.0311H234.016V55.2772C234.016 55.9393 233.075 56.4871 232.146 56.6131ZM232.938 59.742V59.074H235.539V59.742H232.938ZM241.27 57.4158H238.135V55.7752H241.217V55.4002H237.672V57.7908H239.207V59.1385H237.062V59.5252H241.832V59.1385H239.658V57.7908H241.27V57.4158ZM245.359 59.7654C246.244 59.7654 246.865 59.2703 246.871 58.5818C246.865 58.034 246.484 57.5799 246.004 57.5037V57.4803C246.42 57.3836 246.701 56.994 246.707 56.5311C246.701 55.8836 246.133 55.4061 245.359 55.4061C244.583 55.4061 244.015 55.8836 244.018 56.5311C244.015 56.994 244.293 57.3836 244.715 57.4803V57.5037C244.231 57.5799 243.851 58.034 243.854 58.5818C243.851 59.2703 244.466 59.7654 245.359 59.7654ZM244.381 58.5526C244.372 58.0838 244.791 57.7381 245.359 57.7381C245.931 57.7381 246.344 58.0838 246.344 58.5526C246.344 58.9979 245.966 59.2996 245.359 59.3026C244.75 59.2996 244.372 58.9979 244.381 58.5526ZM244.527 56.5721C244.53 56.1473 244.855 55.8602 245.359 55.8631C245.854 55.8602 246.191 56.1473 246.191 56.5721C246.191 56.9998 245.843 57.2899 245.359 57.2928C244.873 57.2899 244.53 56.9998 244.527 56.5721ZM248.963 59.7654C249.81 59.7654 250.425 59.1736 250.428 58.3533C250.425 57.5272 249.83 56.9295 249.021 56.9295C248.723 56.9295 248.438 57.0291 248.248 57.1756H248.207L248.365 55.9334H250.223V55.4647H247.926L247.627 57.785H248.137C248.292 57.5096 248.57 57.3983 248.928 57.4041C249.499 57.407 249.912 57.8143 249.912 58.3651C249.912 58.8983 249.514 59.2996 248.963 59.3026C248.503 59.2996 248.134 59.0184 248.096 58.6404H247.586C247.618 59.2938 248.198 59.7654 248.963 59.7654ZM252.057 57.4334C252.602 57.4363 252.903 57.0203 252.906 56.4139C252.903 55.8162 252.613 55.4002 252.057 55.4002C251.521 55.4002 251.204 55.8162 251.207 56.4139C251.204 57.0203 251.509 57.4363 252.057 57.4334ZM251.623 59.7068H252.098L255.016 55.4647H254.541L251.623 59.7068ZM251.635 56.4139C251.635 56.0242 251.778 55.7664 252.057 55.7635C252.353 55.7576 252.479 56.0242 252.479 56.4139C252.479 56.8094 252.344 57.0701 252.057 57.0701C251.772 57.0701 251.635 56.8094 251.635 56.4139ZM253.797 58.7518C253.791 59.3553 254.093 59.7684 254.646 59.7654C255.188 59.7684 255.49 59.3553 255.49 58.7518C255.49 58.1483 255.194 57.7352 254.646 57.7322C254.104 57.7352 253.791 58.1483 253.797 58.7518ZM254.219 58.7518C254.222 58.3563 254.362 58.0984 254.646 58.0955C254.939 58.0897 255.062 58.3563 255.062 58.7518C255.062 59.1443 254.931 59.4051 254.646 59.4022C254.359 59.4051 254.222 59.1443 254.219 58.7518Z" fill="#4A4A4A"/>
<path d="M22.8047 2.21267L22.8047 127.27L414.161 127.27" stroke="url(#paint15_linear_1076_11096)" stroke-width="0.367541"/>
<path d="M312.33 48.9253L314.169 50.7644L312.33 52.6035" stroke="#FF2020" stroke-width="0.735632"/>
<path d="M80.9193 108.144L23.54 108.144" stroke="#00A3FF" stroke-width="0.735632" stroke-linecap="round"/>
<path d="M139.035 89.0172L80.9199 89.0172" stroke="#77CEFF" stroke-width="0.735632" stroke-linecap="round"/>
<path d="M197.149 69.8908L139.034 69.8907" stroke="#FFC700" stroke-width="0.735632" stroke-linecap="round"/>
<path d="M80.9199 108.144V89.0172" stroke="url(#paint16_linear_1076_11096)" stroke-width="0.735632" stroke-linecap="round"/>
<path d="M139.034 89.0172V69.8907" stroke="url(#paint17_linear_1076_11096)" stroke-width="0.735632" stroke-linecap="round"/>
<path d="M197.149 69.8908V50.7643" stroke="url(#paint18_linear_1076_11096)" stroke-width="0.735632" stroke-linecap="round"/>
<path d="M255.264 50.7643L197.149 50.7643" stroke="#FF5F00" stroke-width="0.735632" stroke-linecap="round"/>
<path d="M2.92133 108.317C3.86176 108.317 4.40375 107.526 4.40375 106.138C4.40375 104.761 3.85297 103.958 2.92133 103.958C1.98676 103.958 1.43598 104.761 1.43891 106.138C1.43598 107.526 1.9809 108.317 2.92133 108.317ZM1.94867 106.138C1.9516 105.039 2.31195 104.418 2.92133 104.415C3.5307 104.418 3.89106 105.039 3.88813 106.138C3.89106 107.236 3.53363 107.848 2.92133 107.848C2.30609 107.848 1.9516 107.236 1.94867 106.138ZM5.93164 105.891C6.45898 105.891 6.88672 105.467 6.88672 104.942C6.88672 104.409 6.45898 103.981 5.93164 103.981C5.40137 103.981 4.97656 104.409 4.97656 104.942C4.97656 105.467 5.40137 105.891 5.93164 105.891ZM5.39258 104.942C5.39551 104.64 5.63574 104.406 5.93164 104.403C6.22754 104.406 6.46191 104.64 6.46484 104.942C6.46191 105.235 6.22754 105.475 5.93164 105.475C5.63574 105.475 5.39551 105.235 5.39258 104.942ZM7.45215 106.138C7.44922 107.479 8.23731 108.317 9.32715 108.317C10.1885 108.317 10.8857 107.796 11.0381 106.929H10.5107C10.3848 107.509 9.88672 107.822 9.32715 107.825C8.55957 107.822 7.96484 107.23 7.96191 106.138C7.96484 105.042 8.55957 104.45 9.32715 104.45C9.88672 104.45 10.3877 104.766 10.5107 105.352H11.0381C10.8799 104.471 10.1855 103.958 9.32715 103.958C8.23731 103.958 7.44922 104.796 7.45215 106.138Z" fill="#929292"/>
<path d="M3.4618 85.9934H2.92859L1.87391 86.6965V87.2297L2.90516 86.5442H2.92859V90.2356H3.4618V85.9934ZM5.92133 90.2942C6.86176 90.2942 7.40375 89.5032 7.40375 88.1145C7.40375 86.7375 6.85297 85.9348 5.92133 85.9348C4.98676 85.9348 4.43598 86.7375 4.43891 88.1145C4.43598 89.5032 4.9809 90.2942 5.92133 90.2942ZM4.94867 88.1145C4.9516 87.0159 5.31195 86.3948 5.92133 86.3918C6.5307 86.3948 6.89105 87.0159 6.88812 88.1145C6.89105 89.2131 6.53363 89.8254 5.92133 89.8254C5.30609 89.8254 4.9516 89.2131 4.94867 88.1145ZM8.93164 87.8684C9.45898 87.8684 9.88672 87.4436 9.88672 86.9192C9.88672 86.386 9.45898 85.9583 8.93164 85.9583C8.40137 85.9583 7.97656 86.386 7.97656 86.9192C7.97656 87.4436 8.40137 87.8684 8.93164 87.8684ZM8.39258 86.9192C8.39551 86.6174 8.63574 86.3831 8.93164 86.3801C9.22754 86.3831 9.46191 86.6174 9.46484 86.9192C9.46191 87.2122 9.22754 87.4524 8.93164 87.4524C8.63574 87.4524 8.39551 87.2122 8.39258 86.9192ZM10.4521 88.1145C10.4492 89.4563 11.2373 90.2942 12.3271 90.2942C13.1885 90.2942 13.8857 89.7727 14.0381 88.9055H13.5107C13.3848 89.4856 12.8867 89.7991 12.3271 89.802C11.5596 89.7991 10.9648 89.2073 10.9619 88.1145C10.9648 87.0188 11.5596 86.427 12.3271 86.427C12.8867 86.427 13.3877 86.7434 13.5107 87.3293H14.0381C13.8799 86.4475 13.1855 85.9348 12.3271 85.9348C11.2373 85.9348 10.4492 86.7727 10.4521 88.1145Z" fill="#929292"/>
<path d="M1.07117 71.1092H3.82508V70.6404H1.80359V70.6053L2.77625 69.6033C3.52625 68.8299 3.74598 68.4608 3.74891 67.9861C3.74598 67.327 3.20105 66.8084 2.43055 66.8084C1.66297 66.8084 1.08289 67.3123 1.08875 68.0623H1.5868C1.58973 67.5877 1.90613 67.2684 2.41297 67.2654C2.89051 67.2684 3.25379 67.5496 3.25672 67.9861C3.25379 68.3787 3.01355 68.6658 2.51258 69.199L1.06531 70.7225L1.07117 71.1092ZM5.92133 71.1678C6.86176 71.1678 7.40375 70.3768 7.40375 68.9881C7.40375 67.6111 6.85297 66.8084 5.92133 66.8084C4.98676 66.8084 4.43598 67.6111 4.43891 68.9881C4.43598 70.3768 4.9809 71.1678 5.92133 71.1678ZM4.94867 68.9881C4.9516 67.8895 5.31195 67.2684 5.92133 67.2654C6.5307 67.2684 6.89105 67.8895 6.88812 68.9881C6.89105 70.0867 6.53363 70.699 5.92133 70.699C5.30609 70.699 4.9516 70.0867 4.94867 68.9881ZM8.93164 68.742C9.45898 68.742 9.88672 68.3172 9.88672 67.7928C9.88672 67.2596 9.45898 66.8318 8.93164 66.8318C8.40137 66.8318 7.97656 67.2596 7.97656 67.7928C7.97656 68.3172 8.40137 68.742 8.93164 68.742ZM8.39258 67.7928C8.39551 67.491 8.63574 67.2567 8.93164 67.2537C9.22754 67.2567 9.46191 67.491 9.46484 67.7928C9.46191 68.0858 9.22754 68.326 8.93164 68.326C8.63574 68.326 8.39551 68.0858 8.39258 67.7928ZM10.4521 68.9881C10.4492 70.3299 11.2373 71.1678 12.3271 71.1678C13.1885 71.1678 13.8857 70.6463 14.0381 69.7791H13.5107C13.3848 70.3592 12.8867 70.6727 12.3271 70.6756C11.5596 70.6727 10.9648 70.0809 10.9619 68.9881C10.9648 67.8924 11.5596 67.3006 12.3271 67.3006C12.8867 67.3006 13.3877 67.617 13.5107 68.2029H14.0381C13.8799 67.3211 13.1855 66.8084 12.3271 66.8084C11.2373 66.8084 10.4492 67.6463 10.4521 68.9881Z" fill="#929292"/>
<path d="M3.35437 52.0413C4.20105 52.0413 4.83387 51.5257 4.83094 50.8284C4.83387 50.2894 4.49988 49.8939 3.94617 49.8089V49.7796C4.39148 49.6536 4.67273 49.3021 4.66687 48.8187C4.67273 48.2122 4.18055 47.6819 3.37195 47.6819C2.61902 47.6819 1.99207 48.1331 1.9657 48.8069H2.47547C2.49891 48.3909 2.91199 48.1419 3.36609 48.139C3.84949 48.1419 4.16004 48.4232 4.15711 48.848C4.16004 49.2845 3.79969 49.5745 3.28406 49.5745H2.93836V50.0374H3.28406C3.94324 50.0403 4.31238 50.3655 4.31531 50.8284C4.31238 51.2708 3.90809 51.5726 3.34852 51.5726C2.84168 51.5726 2.44031 51.3206 2.41102 50.9163H1.87781C1.90418 51.5901 2.51062 52.0413 3.35437 52.0413ZM6.92133 52.0413C7.86176 52.0413 8.40375 51.2503 8.40375 49.8616C8.40375 48.4847 7.85297 47.6819 6.92133 47.6819C5.98676 47.6819 5.43598 48.4847 5.43891 49.8616C5.43598 51.2503 5.9809 52.0413 6.92133 52.0413ZM5.94867 49.8616C5.9516 48.763 6.31195 48.1419 6.92133 48.139C7.5307 48.1419 7.89105 48.763 7.88812 49.8616C7.89105 50.9603 7.53363 51.5726 6.92133 51.5726C6.30609 51.5726 5.9516 50.9603 5.94867 49.8616ZM9.93164 49.6155C10.459 49.6155 10.8867 49.1907 10.8867 48.6663C10.8867 48.1331 10.459 47.7054 9.93164 47.7054C9.40137 47.7054 8.97656 48.1331 8.97656 48.6663C8.97656 49.1907 9.40137 49.6155 9.93164 49.6155ZM9.39258 48.6663C9.39551 48.3646 9.63574 48.1302 9.93164 48.1273C10.2275 48.1302 10.4619 48.3646 10.4648 48.6663C10.4619 48.9593 10.2275 49.1995 9.93164 49.1995C9.63574 49.1995 9.39551 48.9593 9.39258 48.6663ZM11.4521 49.8616C11.4492 51.2034 12.2373 52.0413 13.3271 52.0413C14.1885 52.0413 14.8857 51.5198 15.0381 50.6526H14.5107C14.3848 51.2327 13.8867 51.5462 13.3271 51.5491C12.5596 51.5462 11.9648 50.9544 11.9619 49.8616C11.9648 48.7659 12.5596 48.1741 13.3271 48.1741C13.8867 48.1741 14.3877 48.4905 14.5107 49.0765H15.0381C14.8799 48.1946 14.1855 47.6819 13.3271 47.6819C12.2373 47.6819 11.4492 48.5198 11.4521 49.8616Z" fill="#929292"/>
<path d="M314.115 31.6379H22.8047" stroke="url(#paint19_linear_1076_11096)" stroke-width="0.367541"/>
<path d="M1.74305 31.9891H3.79969V32.8563H4.30359V31.9891H4.89539V31.5262H4.30359V28.6141H3.6532L1.74305 31.5555V31.9891ZM2.31141 31.5262V31.4911L3.74695 29.2821H3.79969V31.5262H2.31141ZM6.92133 32.9149C7.86176 32.9149 8.40375 32.1239 8.40375 30.7352C8.40375 29.3583 7.85297 28.5555 6.92133 28.5555C5.98676 28.5555 5.43598 29.3583 5.43891 30.7352C5.43598 32.1239 5.9809 32.9149 6.92133 32.9149ZM5.94867 30.7352C5.9516 29.6366 6.31195 29.0155 6.92133 29.0126C7.5307 29.0155 7.89105 29.6366 7.88812 30.7352C7.89105 31.8339 7.53363 32.4462 6.92133 32.4462C6.30609 32.4462 5.9516 31.8339 5.94867 30.7352ZM9.93164 30.4891C10.459 30.4891 10.8867 30.0643 10.8867 29.5399C10.8867 29.0067 10.459 28.579 9.93164 28.579C9.40137 28.579 8.97656 29.0067 8.97656 29.5399C8.97656 30.0643 9.40137 30.4891 9.93164 30.4891ZM9.39258 29.5399C9.39551 29.2382 9.63574 29.0038 9.93164 29.0009C10.2275 29.0038 10.4619 29.2382 10.4648 29.5399C10.4619 29.8329 10.2275 30.0731 9.93164 30.0731C9.63574 30.0731 9.39551 29.8329 9.39258 29.5399ZM11.4521 30.7352C11.4492 32.077 12.2373 32.9149 13.3271 32.9149C14.1885 32.9149 14.8857 32.3934 15.0381 31.5262H14.5107C14.3848 32.1063 13.8867 32.4198 13.3271 32.4227C12.5596 32.4198 11.9648 31.828 11.9619 30.7352C11.9648 29.6395 12.5596 29.0477 13.3271 29.0477C13.8867 29.0477 14.3877 29.3641 14.5107 29.9501H15.0381C14.8799 29.0682 14.1855 28.5555 13.3271 28.5555C12.2373 28.5555 11.4492 29.3934 11.4521 30.7352Z" fill="#929292"/>
<path d="M28.3775 8.16307C28.093 6.58201 28.9704 5.66771 29.4446 5.4082C29.3447 5.10853 29.2437 4.44298 29.6386 4.17815L31.4485 3.35058C31.613 2.96438 32.1066 2.15888 32.7648 2.02646L34.2456 1.69543H35.0683L36.8782 2.35749L37.5364 3.18507L39.5108 4.17815L39.8399 4.84021L39.7683 5.4082L40.3335 5.99881L40.8271 7.15742V8.1505L40.4981 8.31602L38.3591 7.56418L37.7009 8.1505L36.7137 7.81947L35.9951 7.56418L35.3974 7.81947L34.5747 7.98499L33.5875 7.81947L33.0384 7.56418L31.9421 7.98499H31.2839L30.6303 7.56418C30.077 7.76381 28.9229 8.18702 28.7332 8.28284C28.5435 8.37866 28.4171 8.24292 28.3775 8.16307Z" fill="#FFFAD2"/>
<path d="M37.5713 3.49209C37.5713 2.49982 36.2176 1.69543 34.5478 1.69543C32.878 1.69543 31.5244 2.49982 31.5244 3.49209C31.5244 3.63582 31.5639 3.79153 31.5837 3.85142L32.6514 6.68986C32.8662 7.46794 33.6338 8.04361 34.5478 8.04361C35.4619 8.04361 36.2295 7.46794 36.4443 6.68986L37.512 3.85142C37.5348 3.77832 37.5785 3.60412 37.5713 3.49209Z" stroke="#222222" stroke-width="0.367816" stroke-linecap="round"/>
<path d="M37.5713 3.25201C38.2432 3.49157 39.6107 4.0665 39.7055 4.44978C39.8241 4.869 39.7648 5.22833 39.6462 5.408C39.2313 6.12666 38.342 7.61189 38.1049 7.80354C37.8085 8.04309 37.7492 8.22275 37.2156 8.04309C36.7888 7.89936 36.2078 7.62387 35.9707 7.50409" stroke="#222222" stroke-width="0.367816" stroke-linecap="round"/>
<path d="M39.7052 5.40845C40.1795 5.66796 41.0568 6.58226 40.7723 8.16332C40.7328 8.24317 40.6063 8.37891 40.4166 8.28309C40.2269 8.18727 39.0728 7.76406 38.5195 7.56443" stroke="#222222" stroke-width="0.367816" stroke-linecap="round"/>
<path d="M31.5791 3.25201C30.9072 3.49157 29.5397 4.0665 29.4449 4.44978C29.3263 4.869 29.3856 5.22833 29.5042 5.408C29.9191 6.12666 30.8084 7.61189 31.0455 7.80354C31.3419 8.04309 31.4012 8.22275 31.9347 8.04309C32.3616 7.89936 32.9426 7.62387 33.1797 7.50409" stroke="#222222" stroke-width="0.367816" stroke-linecap="round"/>
<path d="M29.4452 5.40845C28.9709 5.66796 28.0936 6.58226 28.3781 8.16332C28.4176 8.24317 28.5441 8.37891 28.7338 8.28309C28.9235 8.18727 30.0776 7.76406 30.6309 7.56443" stroke="#222222" stroke-width="0.367816" stroke-linecap="round"/>
<path d="M49.1758 2.25964H48.6484V3.59558H47.9805V2.35339H47.4648V5.23621H47.9805V4.05261H48.6484V5.42371H49.1758V2.25964ZM44.9453 4.98425H45.291C45.9238 4.98425 46.4951 4.95496 47.1777 4.82019L47.125 4.36316C46.5332 4.48035 46.0293 4.5155 45.502 4.52136V2.6698H44.9453V4.98425ZM45.6426 6.49597C45.6367 7.12 46.3252 7.495 47.418 7.49207C48.5078 7.495 49.2021 7.12 49.2051 6.49597C49.2021 5.86902 48.5078 5.49402 47.418 5.49402C46.3252 5.49402 45.6367 5.86902 45.6426 6.49597ZM46.1934 6.49597C46.1875 6.13855 46.6562 5.93054 47.418 5.92761C48.1797 5.93054 48.6455 6.13855 48.6484 6.49597C48.6455 6.85046 48.1797 7.05554 47.418 7.05261C46.6562 7.05554 46.1875 6.85046 46.1934 6.49597ZM54.6177 4.80847H52.4908V4.25183H54.0611V3.80652H50.9732V2.93347H54.0259V2.49402H50.4224V4.25183H51.9517V4.80847H49.8248V5.25378H54.6177V4.80847ZM50.3931 6.54871C50.3931 7.15808 51.0757 7.50085 52.2154 7.50378C53.3463 7.50085 54.023 7.15808 54.0259 6.54871C54.023 5.93933 53.3463 5.59656 52.2154 5.59363C51.0757 5.59656 50.3931 5.93933 50.3931 6.54871ZM50.9556 6.54871C50.9527 6.21765 51.4127 6.02722 52.2154 6.02722C53.0064 6.02722 53.4693 6.21765 53.4693 6.54871C53.4693 6.88562 53.0064 7.07019 52.2154 7.06433C51.4127 7.07019 50.9527 6.88562 50.9556 6.54871ZM56.5558 3.2616V2.58191H56.0167V3.2616C56.0167 3.8446 55.6359 4.51257 54.9269 4.82019L55.2316 5.25378C55.7413 5.03406 56.0988 4.61218 56.2921 4.12585C56.4796 4.55652 56.8224 4.91394 57.3116 5.10144L57.6046 4.67371C56.922 4.41589 56.5558 3.83582 56.5558 3.2616ZM55.8937 6.54285C55.8878 7.1405 56.5704 7.495 57.6691 7.49207C58.7648 7.495 59.4532 7.1405 59.4562 6.54285C59.4532 5.94519 58.7648 5.5907 57.6691 5.58777C56.5704 5.5907 55.8878 5.94519 55.8937 6.54285ZM56.4445 6.54285C56.4386 6.20593 56.9044 6.01257 57.6691 6.0155C58.4308 6.01257 58.8966 6.20593 58.8995 6.54285C58.8966 6.87683 58.4308 7.07019 57.6691 7.06433C56.9044 7.07019 56.4386 6.87683 56.4445 6.54285ZM57.7687 5.3241H58.2843V4.08191H58.8995V5.48816H59.4269V2.25964H58.8995V3.62488H58.2843V2.35339H57.7687V5.3241ZM62.0095 3.80066V3.24402H63.2048V2.78113H60.2458V3.24402H61.447V3.80066C61.4411 4.70593 60.8552 5.69031 60.0641 6.06238L60.3864 6.50183C60.9987 6.203 61.4909 5.56433 61.7341 4.81433C61.9772 5.51453 62.4694 6.0946 63.0876 6.36707L63.3923 5.93347C62.5837 5.58777 62.0065 4.67957 62.0095 3.80066ZM63.8669 7.50378H64.4235V2.25378H63.8669V7.50378Z" fill="#222222"/>
<path d="M277.756 8.16307C277.472 6.58201 278.349 5.66771 278.824 5.4082C278.724 5.10853 278.623 4.44298 279.017 4.17815L280.827 3.35058C280.992 2.96438 281.486 2.15888 282.144 2.02646L283.625 1.69543H284.447L286.257 2.35749L286.915 3.18507L288.89 4.17815L289.219 4.84021L289.147 5.4082L289.712 5.99881L290.206 7.15742V8.1505L289.877 8.31602L287.738 7.56418L287.08 8.1505L286.093 7.81947L285.374 7.56418L284.776 7.81947L283.954 7.98499L282.966 7.81947L282.417 7.56418L281.321 7.98499H280.663L280.009 7.56418C279.456 7.76381 278.302 8.18702 278.112 8.28284C277.922 8.37866 277.796 8.24292 277.756 8.16307Z" fill="#FDB06F"/>
<path d="M286.95 3.49209C286.95 2.49982 285.597 1.69543 283.927 1.69543C282.257 1.69543 280.903 2.49982 280.903 3.49209C280.903 3.63582 280.943 3.79153 280.963 3.85142L282.03 6.68986C282.245 7.46794 283.013 8.04361 283.927 8.04361C284.841 8.04361 285.608 7.46794 285.823 6.68986L286.891 3.85142C286.914 3.77832 286.957 3.60412 286.95 3.49209Z" stroke="#222222" stroke-width="0.367816" stroke-linecap="round"/>
<path d="M286.95 3.25201C287.622 3.49157 288.99 4.0665 289.084 4.44978C289.203 4.869 289.144 5.22833 289.025 5.408C288.61 6.12666 287.721 7.61189 287.484 7.80354C287.187 8.04309 287.128 8.22275 286.595 8.04309C286.168 7.89936 285.587 7.62387 285.35 7.50409" stroke="#222222" stroke-width="0.367816" stroke-linecap="round"/>
<path d="M289.084 5.40845C289.558 5.66796 290.436 6.58226 290.151 8.16332C290.112 8.24317 289.985 8.37891 289.795 8.28309C289.606 8.18727 288.452 7.76406 287.898 7.56443" stroke="#222222" stroke-width="0.367816" stroke-linecap="round"/>
<path d="M280.958 3.25201C280.286 3.49157 278.919 4.0665 278.824 4.44978C278.705 4.869 278.764 5.22833 278.883 5.408C279.298 6.12666 280.187 7.61189 280.424 7.80354C280.721 8.04309 280.78 8.22275 281.314 8.04309C281.74 7.89936 282.321 7.62387 282.559 7.50409" stroke="#222222" stroke-width="0.367816" stroke-linecap="round"/>
<path d="M278.824 5.40845C278.35 5.66796 277.472 6.58226 277.757 8.16332C277.797 8.24317 277.923 8.37891 278.113 8.28309C278.302 8.18727 279.456 7.76406 280.01 7.56443" stroke="#222222" stroke-width="0.367816" stroke-linecap="round"/>
<path d="M294.828 2.47644H294.283V4.76746H296.756V2.47644H296.205V3.19128H294.828V2.47644ZM294.811 5.62292H297.652V6.09753H294.822V7.45105H298.385V7.00574H295.367V6.50769H298.203V5.18347H294.811V5.62292ZM294.828 4.32214V3.61902H296.205V4.32214H294.828ZM297.646 4.95496H298.203V3.80652H298.965V3.35535H298.203V2.25378H297.646V4.95496ZM303.751 2.99792H301.87V2.32996H301.319V2.99792H299.432V3.4491H303.751V2.99792ZM299.204 6.92371H304.008V6.47253H302.749V5.53503C303.129 5.36804 303.343 5.09851 303.34 4.74402C303.343 4.11707 302.669 3.74792 301.594 3.75378C300.51 3.74792 299.839 4.11707 299.842 4.74402C299.839 5.09851 300.053 5.36804 300.434 5.53503V6.47253H299.204V6.92371ZM300.411 4.74402C300.405 4.3866 300.844 4.18445 301.594 4.18152C302.333 4.18445 302.775 4.3866 302.772 4.74402C302.775 5.09851 302.333 5.30066 301.594 5.30066C300.844 5.30066 300.405 5.09851 300.411 4.74402ZM300.991 6.47253V5.69031C301.172 5.7196 301.375 5.73425 301.594 5.73425C301.814 5.73425 302.019 5.7196 302.204 5.69031V6.47253H300.991ZM305.935 3.2616V2.58191H305.396V3.2616C305.396 3.8446 305.015 4.51257 304.306 4.82019L304.61 5.25378C305.12 5.03406 305.478 4.61218 305.671 4.12585C305.859 4.55652 306.201 4.91394 306.691 5.10144L306.984 4.67371C306.301 4.41589 305.935 3.83582 305.935 3.2616ZM305.273 6.54285C305.267 7.1405 305.949 7.495 307.048 7.49207C308.144 7.495 308.832 7.1405 308.835 6.54285C308.832 5.94519 308.144 5.5907 307.048 5.58777C305.949 5.5907 305.267 5.94519 305.273 6.54285ZM305.823 6.54285C305.818 6.20593 306.283 6.01257 307.048 6.0155C307.81 6.01257 308.276 6.20593 308.278 6.54285C308.276 6.87683 307.81 7.07019 307.048 7.06433C306.283 7.07019 305.818 6.87683 305.823 6.54285ZM307.148 5.3241H307.663V4.08191H308.278V5.48816H308.806V2.25964H308.278V3.62488H307.663V2.35339H307.148V5.3241ZM311.388 3.80066V3.24402H312.584V2.78113H309.625V3.24402H310.826V3.80066C310.82 4.70593 310.234 5.69031 309.443 6.06238L309.765 6.50183C310.378 6.203 310.87 5.56433 311.113 4.81433C311.356 5.51453 311.848 6.0946 312.466 6.36707L312.771 5.93347C311.963 5.58777 311.385 4.67957 311.388 3.80066ZM313.246 7.50378H313.802V2.25378H313.246V7.50378Z" fill="#222222"/>
<path d="M314.115 50.7643L255.265 50.7643" stroke="url(#paint20_linear_1076_11096)" stroke-width="0.735632" stroke-linecap="round"/>
<rect width="28.3563" height="12.9425" transform="translate(241.655 33.8448)" fill="white" fill-opacity="0.85"/>
<path d="M246.495 37.7867H245.95V40.0778H248.423V37.7867H247.872V38.5016H246.495V37.7867ZM246.478 40.9332H249.319V41.4078H246.489V42.7614H250.052V42.316H247.034V41.818H249.87V40.4938H246.478V40.9332ZM246.495 39.6324V38.9293H247.872V39.6324H246.495ZM249.314 40.2653H249.87V39.1168H250.632V38.6656H249.87V37.5641H249.314V40.2653ZM255.418 38.3082H253.537V37.6403H252.986V38.3082H251.099V38.7594H255.418V38.3082ZM250.871 42.234H255.676V41.7828H254.416V40.8453C254.797 40.6783 255.01 40.4088 255.008 40.0543C255.01 39.4274 254.337 39.0582 253.261 39.0641C252.177 39.0582 251.507 39.4274 251.509 40.0543C251.507 40.4088 251.72 40.6783 252.101 40.8453V41.7828H250.871V42.234ZM252.078 40.0543C252.072 39.6969 252.511 39.4948 253.261 39.4918C254 39.4948 254.442 39.6969 254.439 40.0543C254.442 40.4088 254 40.611 253.261 40.611C252.511 40.611 252.072 40.4088 252.078 40.0543ZM252.658 41.7828V41.0006C252.84 41.0299 253.042 41.0446 253.261 41.0446C253.481 41.0446 253.686 41.0299 253.871 41.0006V41.7828H252.658ZM257.59 37.7985C256.82 37.7985 256.281 38.2203 256.283 38.8473C256.281 39.3893 256.699 39.7848 257.326 39.8727V40.359C256.843 40.3766 256.383 40.3795 255.991 40.3766L256.049 40.8278C256.951 40.8307 258.188 40.8102 259.289 40.611L259.248 40.2008C258.815 40.2653 258.346 40.3092 257.883 40.3356V39.8668C258.492 39.7701 258.897 39.3805 258.903 38.8473C258.897 38.2203 258.358 37.7985 257.59 37.7985ZM256.735 42.7028H260.315V42.2457H257.291V41.2321H256.735V42.7028ZM256.805 38.8473C256.799 38.4664 257.127 38.2262 257.59 38.2262C258.056 38.2262 258.375 38.4664 258.375 38.8473C258.375 39.2194 258.056 39.4625 257.59 39.4625C257.127 39.4625 256.799 39.2194 256.805 38.8473ZM259.571 41.5836H260.127V39.7731H260.877V39.3043H260.127V37.5699H259.571V41.5836ZM265.927 41.7184H264.667V40.7926H265.464V40.3356H262.259V39.5739H265.341V37.9332H261.696V38.3903H264.79V39.1227H261.708V40.7926H262.434V41.7184H261.122V42.1871H265.927V41.7184ZM262.973 41.7184V40.7926H264.122V41.7184H262.973Z" fill="#FF5F00"/>
<path d="M119.415 167.279H115.799V165.454H119.36V164.928H115.149V167.799H116.92V169.296H114.452V169.829H120.057V169.296H117.562V167.799H119.415V167.279ZM126.03 167.936H120.425V168.476H122.893V170.581H123.528V168.476H126.03V167.936ZM121.033 166.049C121.037 166.873 121.918 167.396 123.214 167.396C124.509 167.396 125.398 166.873 125.395 166.049C125.398 165.215 124.509 164.688 123.214 164.688C121.918 164.688 121.037 165.215 121.033 166.049ZM121.703 166.049C121.7 165.533 122.305 165.211 123.214 165.208C124.127 165.211 124.728 165.533 124.731 166.049C124.728 166.558 124.127 166.876 123.214 166.876C122.305 166.876 121.7 166.558 121.703 166.049ZM129.611 164.941H126.842V165.468H128.927C128.907 165.697 128.859 165.916 128.784 166.124L126.535 166.22L126.637 166.746L128.544 166.589C128.185 167.129 127.553 167.57 126.555 167.895L126.815 168.407C128.818 167.744 129.607 166.565 129.611 164.941ZM127.594 170.451H131.689V169.925H128.25V168.551H127.594V170.451ZM129.59 166.91H130.869V168.995H131.518V164.463H130.869V166.377H129.59V166.91ZM137.464 164.456H136.814V170.595H137.464V164.456ZM132.781 169.091H133.287C134.558 169.087 135.358 169.053 136.274 168.886L136.206 168.346C135.341 168.5 134.596 168.534 133.437 168.537V165.563H135.714V165.023H132.781V169.091ZM143.478 164.456H142.828V165.762H141.543V166.295H142.828V167.259H141.543V167.806H142.828V170.595H143.478V164.456ZM138.337 168.783L138.747 169.296C139.444 168.934 139.981 168.192 140.254 167.313C140.521 168.168 141.051 168.872 141.748 169.221L142.145 168.701C141.208 168.267 140.579 167.143 140.579 166.015V164.969H139.923V166.015C139.919 167.149 139.287 168.329 138.337 168.783ZM149.464 164.456H148.815V166.432H146.99V166.965H148.815V170.595H149.464V164.456ZM144.679 169.118H145.171C146.132 169.122 147.02 169.067 148.008 168.865L147.926 168.332C147.034 168.51 146.21 168.564 145.335 168.578V165.133H144.679V169.118ZM157.062 164.456H156.406V170.581H157.062V164.456ZM152.031 168.94L152.373 169.467C154.475 168.458 155.237 166.907 155.237 165.112H152.325V165.632H154.581C154.455 167.061 153.658 168.165 152.031 168.94ZM162.899 166.11H159.337V164.565H158.695V166.637H162.899V166.11ZM157.949 167.819H163.541V167.286H157.949V167.819ZM158.613 169.433C158.613 170.15 159.409 170.554 160.739 170.554C162.058 170.554 162.847 170.15 162.851 169.433C162.847 168.718 162.058 168.315 160.739 168.318C159.409 168.315 158.613 168.718 158.613 169.433ZM159.269 169.433C159.265 169.036 159.802 168.828 160.739 168.824C161.661 168.828 162.201 169.036 162.201 169.433C162.201 169.826 161.661 170.051 160.739 170.055C159.802 170.051 159.265 169.826 159.269 169.433Z" fill="#FF5F00"/>
<path d="M22.8049 158.522L255.265 158.522" stroke="#FF5F00" stroke-width="0.367816"/>
<path d="M253.146 156.695L254.986 158.534L253.146 160.373" stroke="#FF5F00" stroke-width="0.735632"/>
<path d="M24.6436 156.695L22.8045 158.534L24.6436 160.374" stroke="#FF5F00" stroke-width="0.735632"/>
<defs>
<linearGradient id="paint0_linear_1076_11096" x1="43.0312" y1="68" x2="325.571" y2="70.5231" gradientUnits="userSpaceOnUse">
<stop stop-color="#E6E6E6"/>
<stop offset="0.479167" stop-color="#E6E6E6"/>
<stop offset="0.787373" stop-color="#E6E6E6" stop-opacity="0.7"/>
<stop offset="1" stop-color="#E6E6E6" stop-opacity="0"/>
</linearGradient>
<linearGradient id="paint1_linear_1076_11096" x1="42.3438" y1="52" x2="314.886" y2="54.3478" gradientUnits="userSpaceOnUse">
<stop stop-color="#E6E6E6"/>
<stop offset="0.479167" stop-color="#E6E6E6"/>
<stop offset="0.787373" stop-color="#E6E6E6" stop-opacity="0.7"/>
<stop offset="1" stop-color="#E6E6E6" stop-opacity="0"/>
</linearGradient>
<linearGradient id="paint2_linear_1076_11096" x1="255.265" y1="118.531" x2="255.265" y2="6.04826" gradientUnits="userSpaceOnUse">
<stop stop-color="#6F6F6F"/>
<stop offset="0.479167" stop-color="#6F6F6F"/>
<stop offset="0.7736" stop-color="#6F6F6F" stop-opacity="0.7"/>
<stop offset="0.924099" stop-color="#6F6F6F" stop-opacity="0"/>
</linearGradient>
<linearGradient id="paint3_linear_1076_11096" x1="284.69" y1="50.7643" x2="284.69" y2="127.27" gradientUnits="userSpaceOnUse">
<stop stop-color="#FF2020" stop-opacity="0.1"/>
<stop offset="1" stop-color="#FF2020" stop-opacity="0"/>
</linearGradient>
<linearGradient id="paint4_linear_1076_11096" x1="226.207" y1="50.7643" x2="226.207" y2="127.27" gradientUnits="userSpaceOnUse">
<stop stop-color="#FF5F00" stop-opacity="0.1"/>
<stop offset="1" stop-color="#FF5F00" stop-opacity="0"/>
</linearGradient>
<linearGradient id="paint5_linear_1076_11096" x1="168.093" y1="69.8908" x2="168.093" y2="127.27" gradientUnits="userSpaceOnUse">
<stop stop-color="#FFC700" stop-opacity="0.1"/>
<stop offset="1" stop-color="#FFC700" stop-opacity="0"/>
</linearGradient>
<linearGradient id="paint6_linear_1076_11096" x1="51.8622" y1="108.144" x2="51.8622" y2="127.27" gradientUnits="userSpaceOnUse">
<stop stop-color="#00A3FF" stop-opacity="0.1"/>
<stop offset="1" stop-color="#00A3FF" stop-opacity="0"/>
</linearGradient>
<linearGradient id="paint7_linear_1076_11096" x1="43.0312" y1="108" x2="325.571" y2="110.523" gradientUnits="userSpaceOnUse">
<stop stop-color="#E6E6E6"/>
<stop offset="0.479167" stop-color="#E6E6E6"/>
<stop offset="0.787373" stop-color="#E6E6E6" stop-opacity="0.7"/>
<stop offset="1" stop-color="#E6E6E6" stop-opacity="0"/>
</linearGradient>
<linearGradient id="paint8_linear_1076_11096" x1="43.0312" y1="88" x2="325.571" y2="90.5231" gradientUnits="userSpaceOnUse">
<stop stop-color="#E6E6E6"/>
<stop offset="0.479167" stop-color="#E6E6E6"/>
<stop offset="0.787373" stop-color="#E6E6E6" stop-opacity="0.7"/>
<stop offset="1" stop-color="#E6E6E6" stop-opacity="0"/>
</linearGradient>
<linearGradient id="paint9_linear_1076_11096" x1="80.9189" y1="118.531" x2="80.919" y2="6.0482" gradientUnits="userSpaceOnUse">
<stop stop-color="#BBBBBB"/>
<stop offset="0.479167" stop-color="#BBBBBB"/>
<stop offset="0.787373" stop-color="#BBBBBB" stop-opacity="0.7"/>
<stop offset="1" stop-color="#BBBBBB" stop-opacity="0"/>
</linearGradient>
<linearGradient id="paint10_linear_1076_11096" x1="197.148" y1="118.531" x2="197.148" y2="6.0482" gradientUnits="userSpaceOnUse">
<stop stop-color="#BBBBBB"/>
<stop offset="0.479167" stop-color="#BBBBBB"/>
<stop offset="0.787373" stop-color="#BBBBBB" stop-opacity="0.7"/>
<stop offset="1" stop-color="#BBBBBB" stop-opacity="0"/>
</linearGradient>
<linearGradient id="paint11_linear_1076_11096" x1="139.034" y1="118.531" x2="139.034" y2="6.0482" gradientUnits="userSpaceOnUse">
<stop stop-color="#BBBBBB"/>
<stop offset="0.479167" stop-color="#BBBBBB"/>
<stop offset="0.787373" stop-color="#BBBBBB" stop-opacity="0.7"/>
<stop offset="1" stop-color="#BBBBBB" stop-opacity="0"/>
</linearGradient>
<linearGradient id="paint12_linear_1076_11096" x1="255.264" y1="118.531" x2="255.263" y2="-0.913823" gradientUnits="userSpaceOnUse">
<stop stop-color="#BBBBBB"/>
<stop offset="0.479167" stop-color="#BBBBBB"/>
<stop offset="0.805895" stop-color="#BBBBBB" stop-opacity="0.7"/>
<stop offset="1" stop-color="#BBBBBB" stop-opacity="0"/>
</linearGradient>
<linearGradient id="paint13_linear_1076_11096" x1="314.114" y1="118.531" x2="314.114" y2="6.0482" gradientUnits="userSpaceOnUse">
<stop stop-color="#BBBBBB"/>
<stop offset="0.479167" stop-color="#BBBBBB"/>
<stop offset="0.787373" stop-color="#BBBBBB" stop-opacity="0.7"/>
<stop offset="1" stop-color="#BBBBBB" stop-opacity="0"/>
</linearGradient>
<linearGradient id="paint14_linear_1076_11096" x1="109.977" y1="89.0172" x2="109.977" y2="127.27" gradientUnits="userSpaceOnUse">
<stop stop-color="#77CEFF" stop-opacity="0.1"/>
<stop offset="1" stop-color="#77CEFF" stop-opacity="0"/>
</linearGradient>
<linearGradient id="paint15_linear_1076_11096" x1="22.8047" y1="3.68394" x2="334.529" y2="129.293" gradientUnits="userSpaceOnUse">
<stop offset="0.00733191" stop-color="#313131" stop-opacity="0"/>
<stop offset="0.075376" stop-color="#313131"/>
<stop offset="0.84781" stop-color="#313131"/>
<stop offset="0.946838" stop-color="#313131" stop-opacity="0"/>
</linearGradient>
<linearGradient id="paint16_linear_1076_11096" x1="81.4199" y1="89.0172" x2="81.4199" y2="108.144" gradientUnits="userSpaceOnUse">
<stop stop-color="#77CEFF"/>
<stop offset="1" stop-color="#01A3FF"/>
</linearGradient>
<linearGradient id="paint17_linear_1076_11096" x1="139.534" y1="69.8907" x2="139.534" y2="89.0172" gradientUnits="userSpaceOnUse">
<stop stop-color="#FFC700"/>
<stop offset="1" stop-color="#77CEFF"/>
</linearGradient>
<linearGradient id="paint18_linear_1076_11096" x1="197.649" y1="50.7643" x2="197.649" y2="69.8908" gradientUnits="userSpaceOnUse">
<stop stop-color="#FF5F00"/>
<stop offset="1" stop-color="#FFC700"/>
</linearGradient>
<linearGradient id="paint19_linear_1076_11096" x1="43.0312" y1="32" x2="325.571" y2="34.5231" gradientUnits="userSpaceOnUse">
<stop stop-color="#E6E6E6"/>
<stop offset="0.479167" stop-color="#E6E6E6"/>
<stop offset="0.787373" stop-color="#E6E6E6" stop-opacity="0.7"/>
<stop offset="1" stop-color="#E6E6E6" stop-opacity="0"/>
</linearGradient>
<linearGradient id="paint20_linear_1076_11096" x1="255.265" y1="50.2643" x2="314.115" y2="50.2643" gradientUnits="userSpaceOnUse">
<stop stop-color="#FF5C00"/>
<stop offset="1" stop-color="#FF2020"/>
</linearGradient>
</defs>
</svg>
