<svg width="200" height="200" viewBox="0 0 200 200" fill="none" xmlns="http://www.w3.org/2000/svg">
<mask id="path-1-inside-1_578_27682" fill="white">
<path fill-rule="evenodd" clip-rule="evenodd" d="M100 72C96.134 72 93 75.134 93 79V108.044C89.3917 110.354 87 114.398 87 119C87 126.18 92.8203 132 100 132C107.18 132 113 126.18 113 119C113 114.398 110.608 110.354 107 108.044V79C107 75.134 103.866 72 100 72Z"/>
</mask>
<path fill-rule="evenodd" clip-rule="evenodd" d="M100 72C96.134 72 93 75.134 93 79V108.044C89.3917 110.354 87 114.398 87 119C87 126.18 92.8203 132 100 132C107.18 132 113 126.18 113 119C113 114.398 110.608 110.354 107 108.044V79C107 75.134 103.866 72 100 72Z" fill="white"/>
<path d="M93 108.044L93.5392 108.886L94 108.591V108.044H93ZM107 108.044H106V108.591L106.461 108.886L107 108.044ZM94 79C94 75.6863 96.6863 73 100 73V71C95.5817 71 92 74.5817 92 79H94ZM94 108.044V79H92V108.044H94ZM88 119C88 114.753 90.2059 111.02 93.5392 108.886L92.4608 107.201C88.5775 109.688 86 114.042 86 119H88ZM100 131C93.3726 131 88 125.627 88 119H86C86 126.732 92.268 133 100 133V131ZM112 119C112 125.627 106.627 131 100 131V133C107.732 133 114 126.732 114 119H112ZM106.461 108.886C109.794 111.02 112 114.753 112 119H114C114 114.042 111.422 109.688 107.539 107.201L106.461 108.886ZM106 79V108.044H108V79H106ZM100 73C103.314 73 106 75.6863 106 79H108C108 74.5817 104.418 71 100 71V73Z" fill="black" mask="url(#path-1-inside-1_578_27682)"/>
<rect x="100.5" y="89" width="23" height="0.999999" rx="0.499999" transform="rotate(90 100.5 89)" fill="#FF5F00"/>
<circle cx="100" cy="119" r="7.5" stroke="#FF5F00"/>
<circle cx="110.754" cy="71.5" r="2" stroke="black"/>
<path d="M58.0032 155.572C57.7298 155.611 57.5399 155.864 57.579 156.137L58.2162 160.592C58.2553 160.865 58.5086 161.055 58.782 161.016C59.0553 160.977 59.2452 160.724 59.2061 160.45L58.6397 156.491L62.5994 155.924C62.8728 155.885 63.0627 155.632 63.0236 155.359C62.9845 155.085 62.7312 154.895 62.4578 154.934L58.0032 155.572ZM155.666 58.3741C176.075 85.5962 173.901 124.386 149.143 149.143L149.85 149.85C174.964 124.736 177.17 85.3887 156.466 57.7743L155.666 58.3741ZM149.143 149.143C124.386 173.901 85.5959 176.076 58.3739 155.667L57.7741 156.467C85.3885 177.17 124.736 174.965 149.85 149.85L149.143 149.143Z" fill="#222222"/>
<path d="M142.419 43.8628C142.458 44.1362 142.268 44.3895 141.995 44.4286L137.54 45.0657C137.267 45.1048 137.013 44.9149 136.974 44.6416C136.935 44.3682 137.125 44.1149 137.398 44.0758L141.358 43.5094L140.792 39.5497C140.753 39.2764 140.942 39.0231 141.216 38.984C141.489 38.9449 141.742 39.1348 141.782 39.4081L142.419 43.8628ZM141.624 44.3336C114.402 23.9247 75.6123 26.0995 50.8548 50.857L50.1477 50.1499C75.262 25.0355 114.609 22.8304 142.224 43.5335L141.624 44.3336ZM50.8548 50.857C26.0973 75.6145 23.9225 114.404 44.3315 141.626L43.5314 142.226C22.8282 114.611 25.0333 75.2642 50.1477 50.1499L50.8548 50.857Z" fill="#222222"/>
</svg>
