<svg width="200" height="200" viewBox="0 0 200 200" fill="none" xmlns="http://www.w3.org/2000/svg">
<path d="M158.449 144.73C158.449 151.955 152.153 158.652 141.611 163.572C131.109 168.473 116.566 171.518 100.475 171.518C84.3835 171.518 69.8401 168.473 59.3382 163.572C48.7958 158.652 42.5 151.955 42.5 144.73C42.5 137.504 48.7958 130.807 59.3382 125.887C69.8401 120.986 84.3835 117.941 100.475 117.941C116.566 117.941 131.109 120.986 141.611 125.887C152.153 130.807 158.449 137.504 158.449 144.73Z" fill="white" stroke="black"/>
<path d="M158.449 123.288C158.449 130.514 152.153 137.211 141.611 142.131C131.109 147.032 116.566 150.076 100.475 150.076C84.3835 150.076 69.8401 147.032 59.3382 142.131C48.7958 137.211 42.5 130.514 42.5 123.288C42.5 116.062 48.7958 109.365 59.3382 104.446C69.8401 99.5447 84.3835 96.5 100.475 96.5C116.566 96.5 131.109 99.5447 141.611 104.446C152.153 109.365 158.449 116.062 158.449 123.288Z" fill="white" stroke="black"/>
<path d="M104.684 27.2952L104.979 26.8916L104.172 26.3013L103.876 26.7048L104.684 27.2952ZM99.9827 116.576C100.043 116.845 100.31 117.015 100.58 116.955L104.972 115.975C105.241 115.915 105.411 115.648 105.351 115.378C105.291 115.109 105.023 114.939 104.754 114.999L100.85 115.87L99.9789 111.966C99.9188 111.696 99.6515 111.527 99.382 111.587C99.1125 111.647 98.9428 111.914 99.0029 112.184L99.9827 116.576ZM103.876 26.7048C94.2515 39.866 91.1442 48.9707 91.5107 56.0324C91.8778 63.1049 95.7282 68.0112 99.6609 72.7412C103.618 77.5008 107.645 82.0729 108.753 88.5765C109.857 95.0622 108.066 103.578 100.049 116.199L100.893 116.735C108.971 104.017 110.903 95.2438 109.739 88.4086C108.578 81.5912 104.344 76.8101 100.43 72.1019C96.4906 67.364 92.8575 62.6878 92.5094 55.9806C92.1607 49.2626 95.1067 40.3905 104.684 27.2952L103.876 26.7048Z" fill="#FF5F00"/>
<path d="M70.5641 42.9052L70.8756 42.5141L70.0934 41.8911L69.7819 42.2823L70.5641 42.9052ZM69.6778 115.569C69.7199 115.842 69.9753 116.029 70.2482 115.987L74.6956 115.301C74.9686 115.259 75.1557 115.004 75.1136 114.731C75.0715 114.458 74.8161 114.271 74.5432 114.313L70.59 114.922L69.9803 110.969C69.9382 110.696 69.6829 110.509 69.41 110.551C69.137 110.593 68.9499 110.849 68.992 111.122L69.6778 115.569ZM69.7819 42.2823C61.4409 52.755 58.7236 60.5736 59.0728 66.9494C59.4218 73.3223 62.8323 78.1335 66.4315 82.5745C70.0643 87.057 73.8416 91.1225 75.2631 96.1257C76.6646 101.059 75.7818 106.991 69.7687 115.197L70.5753 115.788C76.7029 107.426 77.7379 101.177 76.225 95.8524C74.7322 90.5982 70.7632 86.3311 67.2084 81.9449C63.6199 77.5171 60.4015 72.9235 60.0713 66.8947C59.7412 60.8688 62.2942 53.2888 70.5641 42.9052L69.7819 42.2823Z" fill="#FF5F00"/>
<path d="M136.658 42.9052L136.969 42.5141L136.187 41.8911L135.876 42.2823L136.658 42.9052ZM135.772 115.569C135.814 115.842 136.069 116.029 136.342 115.987L140.789 115.301C141.062 115.259 141.249 115.004 141.207 114.731C141.165 114.458 140.91 114.271 140.637 114.313L136.684 114.922L136.074 110.969C136.032 110.696 135.777 110.509 135.504 110.551C135.231 110.593 135.044 110.849 135.086 111.122L135.772 115.569ZM135.876 42.2823C127.535 52.755 124.817 60.5736 125.167 66.9494C125.516 73.3223 128.926 78.1335 132.525 82.5745C136.158 87.057 139.935 91.1225 141.357 96.1257C142.758 101.059 141.876 106.991 135.862 115.197L136.669 115.788C142.797 107.426 143.832 101.177 142.319 95.8524C140.826 90.5982 136.857 86.3311 133.302 81.9449C129.714 77.5171 126.495 72.9235 126.165 66.8947C125.835 60.8688 128.388 53.2888 136.658 42.9052L135.876 42.2823Z" fill="#FF5F00"/>
</svg>
