<svg width="286" height="603" viewBox="0 0 286 603" fill="none" xmlns="http://www.w3.org/2000/svg">
<path d="M122 60L164 60" stroke="#BBBBBB" stroke-width="2" stroke-linecap="round" stroke-linejoin="round" stroke-dasharray="0.1 5 0.1 5"/>
<path d="M140 53L148 60L140 67" stroke="#BBBBBB" stroke-width="2" stroke-linecap="square" stroke-linejoin="round"/>
<path d="M164 544L122 544" stroke="#BBBBBB" stroke-width="2" stroke-linecap="round" stroke-linejoin="round" stroke-dasharray="0.1 5 0.1 5"/>
<path d="M146 551L138 544L146 537" stroke="#BBBBBB" stroke-width="2" stroke-linecap="square" stroke-linejoin="round"/>
<path d="M227 120L227 162" stroke="#BBBBBB" stroke-width="2" stroke-linecap="round" stroke-linejoin="round" stroke-dasharray="0.1 5 0.1 5"/>
<path d="M234 138L227 146L220 138" stroke="#BBBBBB" stroke-width="2" stroke-linecap="square" stroke-linejoin="round"/>
<path d="M227 281L227 323" stroke="#BBBBBB" stroke-width="2" stroke-linecap="round" stroke-linejoin="round" stroke-dasharray="0.1 5 0.1 5"/>
<path d="M234 299L227 307L220 299" stroke="#BBBBBB" stroke-width="2" stroke-linecap="square" stroke-linejoin="round"/>
<path d="M227 442L227 484" stroke="#BBBBBB" stroke-width="2" stroke-linecap="round" stroke-linejoin="round" stroke-dasharray="0.1 5 0.1 5"/>
<path d="M234 460L227 468L220 460" stroke="#BBBBBB" stroke-width="2" stroke-linecap="square" stroke-linejoin="round"/>
<path d="M59 484L59 442" stroke="#BBBBBB" stroke-width="2" stroke-linecap="round" stroke-linejoin="round" stroke-dasharray="0.1 5 0.1 5"/>
<path d="M52 466L59 458L66 466" stroke="#BBBBBB" stroke-width="2" stroke-linecap="square" stroke-linejoin="round"/>
<path d="M59 323L59 281" stroke="#BBBBBB" stroke-width="2" stroke-linecap="round" stroke-linejoin="round" stroke-dasharray="0.1 5 0.1 5"/>
<path d="M52 305L59 297L66 305" stroke="#BBBBBB" stroke-width="2" stroke-linecap="square" stroke-linejoin="round"/>
<path d="M59 162L59 120" stroke="#BBBBBB" stroke-width="2" stroke-linecap="round" stroke-linejoin="round" stroke-dasharray="0.1 5 0.1 5"/>
<path d="M52 144L59 136L66 144" stroke="#BBBBBB" stroke-width="2" stroke-linecap="square" stroke-linejoin="round"/>
<path d="M119 59.5C119 92.3609 92.3609 119 59.5 119C26.6391 119 0 92.3609 0 59.5C0 26.6391 26.6391 0 59.5 0C92.3609 0 119 26.6391 119 59.5Z" fill="#313131"/>
<path d="M57.1219 84.4883H50.9989V85.123H56.3504V85.3574C56.3455 86.3975 56.3455 87.6133 56.0184 89.2734L56.7996 89.3613C57.1121 87.6133 57.1121 86.4219 57.1219 85.3574V84.4883ZM50.159 91.0605H58.0692V90.4258H54.0164V87.3203H53.2645V90.4258H50.159V91.0605ZM66.0746 83.6191H65.3422V85.8066H64.1606V83.7852H63.4281V88.6777H64.1606V86.4414H65.3422V88.7363H66.0746V83.6191ZM58.7504 88.2578L59.1313 88.834C61.3334 87.8965 62.5053 86.3291 62.5102 84.2539H59.102V84.8887H61.7192C61.5727 86.3486 60.5522 87.5254 58.7504 88.2578ZM60.2153 89.7617H65.3227V92.291H66.0746V89.1367H60.2153V89.7617Z" fill="white"/>
<circle cx="44.4498" cy="46.5501" r="3.85" stroke="white" stroke-width="1.4"/>
<path d="M37.0998 59.8502C37.0998 55.7909 40.3905 52.5002 44.4498 52.5002C48.5091 52.5002 51.7998 55.7909 51.7998 59.8502V63.7002H37.0998V59.8502Z" stroke="white" stroke-width="1.4"/>
<circle cx="74.5499" cy="46.5501" r="3.85" stroke="white" stroke-width="1.4"/>
<path d="M67.1999 59.8502C67.1999 55.7909 70.4906 52.5002 74.5499 52.5002C78.6092 52.5002 81.8999 55.7909 81.8999 59.8502V63.7002H67.1999V59.8502Z" stroke="white" stroke-width="1.4"/>
<circle cx="59.3964" cy="42.0001" r="5.6" fill="#313131" stroke="white" stroke-width="1.4"/>
<path d="M49 60.2C49 55.1742 53.0742 51.1 58.1 51.1H60.9C65.9258 51.1 70 55.1742 70 60.2V66.5H49V60.2Z" fill="#313131" stroke="white" stroke-width="1.4"/>
<path d="M286 60.5C286 93.3609 259.361 120 226.5 120C193.639 120 167 93.3609 167 60.5C167 27.6391 193.639 1 226.5 1C259.361 1 286 27.6391 286 60.5Z" fill="#313131"/>
<path d="M225.971 85.3093H225.219V88.8152H224.018V85.5437H223.286V93.5613H224.018V89.45H225.219V93.991H225.971V85.3093ZM218.569 91.5886L219.018 92.1257C221.513 90.7341 222.289 88.6492 222.299 86.4421H218.901V87.0769H221.547C221.415 88.8738 220.585 90.4607 218.569 91.5886ZM228.225 85.6804H227.473V89.4597H231.516V85.6804H230.754V86.9304H228.225V85.6804ZM228.225 88.8347V87.5261H230.754V88.8347H228.225ZM228.352 90.8269H233.127V91.7253H228.371V93.8933H234.211V93.2683H229.123V92.3113H233.889V90.2117H228.352V90.8269ZM233.127 89.8015H233.889V87.8386H235.197V87.1941H233.889V85.3093H233.127V89.8015Z" fill="white"/>
<mask id="path-27-inside-1_627_12886" fill="white">
<path fill-rule="evenodd" clip-rule="evenodd" d="M232.1 61.4031C237.066 59.0255 240.5 53.9241 240.5 48.0144C240.5 39.8327 233.919 33.2001 225.8 33.2001C217.681 33.2001 211.1 39.8327 211.1 48.0144C211.1 53.9241 214.534 59.0255 219.5 61.4031V66.1001H232.1V61.4031Z"/>
</mask>
<path d="M232.1 61.4031L231.495 60.1404L230.7 60.5212V61.4031H232.1ZM219.5 61.4031H220.9V60.5212L220.105 60.1404L219.5 61.4031ZM219.5 66.1001H218.1V67.5001H219.5V66.1001ZM232.1 66.1001V67.5001H233.5V66.1001H232.1ZM239.1 48.0144C239.1 53.3694 235.99 57.9886 231.495 60.1404L232.705 62.6659C238.143 60.0624 241.9 54.4787 241.9 48.0144H239.1ZM225.8 34.6001C233.135 34.6001 239.1 40.5956 239.1 48.0144H241.9C241.9 39.0697 234.702 31.8001 225.8 31.8001V34.6001ZM212.5 48.0144C212.5 40.5956 218.465 34.6001 225.8 34.6001V31.8001C216.898 31.8001 209.7 39.0697 209.7 48.0144H212.5ZM220.105 60.1404C215.61 57.9886 212.5 53.3694 212.5 48.0144H209.7C209.7 54.4787 213.457 60.0624 218.895 62.6659L220.105 60.1404ZM220.9 66.1001V61.4031H218.1V66.1001H220.9ZM232.1 64.7001H219.5V67.5001H232.1V64.7001ZM230.7 61.4031V66.1001H233.5V61.4031H230.7Z" fill="white" mask="url(#path-27-inside-1_627_12886)"/>
<mask id="path-29-inside-2_627_12886" fill="white">
<path fill-rule="evenodd" clip-rule="evenodd" d="M232.1 64.7001H219.5V67.9808C219.5 67.9863 219.5 67.9918 219.5 67.9973C219.5 68.0028 219.5 68.0083 219.5 68.0137V68.5686H219.53C219.842 71.5052 222.53 73.8 225.8 73.8C229.07 73.8 231.758 71.5052 232.07 68.5686H232.1V64.7001Z"/>
</mask>
<path d="M219.5 64.7001V63.3001H218.1V64.7001H219.5ZM232.1 64.7001H233.5V63.3001H232.1V64.7001ZM219.5 67.9808L220.9 67.9851V67.9808H219.5ZM219.5 68.0137H220.9L220.9 68.0095L219.5 68.0137ZM219.5 68.5686H218.1V69.9686H219.5V68.5686ZM219.53 68.5686L220.922 68.4209L220.789 67.1686H219.53V68.5686ZM232.07 68.5686V67.1686H230.811L230.678 68.4209L232.07 68.5686ZM232.1 68.5686V69.9686H233.5V68.5686H232.1ZM219.5 66.1001H232.1V63.3001H219.5V66.1001ZM220.9 67.9808V64.7001H218.1V67.9808H220.9ZM220.9 67.9973C220.9 67.9932 220.9 67.9891 220.9 67.9851L218.1 67.9766C218.1 67.9835 218.1 67.9904 218.1 67.9973H220.9ZM220.9 68.0095C220.9 68.0054 220.9 68.0014 220.9 67.9973H218.1C218.1 68.0042 218.1 68.0111 218.1 68.018L220.9 68.0095ZM220.9 68.5686V68.0137H218.1V68.5686H220.9ZM219.53 67.1686H219.5V69.9686H219.53V67.1686ZM225.8 72.4C223.16 72.4 221.15 70.5627 220.922 68.4209L218.138 68.7163C218.534 72.4477 221.9 75.2 225.8 75.2V72.4ZM230.678 68.4209C230.45 70.5627 228.44 72.4 225.8 72.4V75.2C229.7 75.2 233.066 72.4477 233.462 68.7163L230.678 68.4209ZM232.1 67.1686H232.07V69.9686H232.1V67.1686ZM230.7 64.7001V68.5686H233.5V64.7001H230.7Z" fill="white" mask="url(#path-29-inside-2_627_12886)"/>
<path d="M241.776 64.2054L241.727 64.5961L242.036 64.8403L243.942 66.3477L242.178 69.4342L239.946 68.5273L239.577 68.3773L239.259 68.6181C238.79 68.974 238.298 69.2745 237.772 69.4923L237.403 69.6453L237.347 70.0407L237.005 72.4561H233.499L233.157 70.0407L233.101 69.6453L232.732 69.4923C232.202 69.2724 231.712 68.981 231.252 68.6233L230.933 68.3751L230.559 68.5273L228.326 69.4342L226.563 66.3477L228.468 64.8403L228.777 64.5961L228.729 64.2054C228.691 63.9051 228.666 63.6123 228.666 63.3281C228.666 63.044 228.691 62.7511 228.729 62.4508L228.777 62.0602L228.468 61.816L226.563 60.3086L228.326 57.222L230.559 58.129L230.928 58.279L231.245 58.0381C231.714 57.6822 232.207 57.3818 232.732 57.1639L233.101 57.011L233.157 56.6156L233.499 54.2001H237.005L237.347 56.6156L237.403 57.011L237.772 57.1639C238.303 57.3838 238.793 57.6753 239.252 58.0329L239.571 58.2811L239.946 58.129L242.178 57.222L243.942 60.3086L242.036 61.816L241.727 62.0602L241.776 62.4508C241.813 62.7518 241.838 63.0346 241.838 63.3281C241.838 63.6217 241.813 63.9045 241.776 64.2054Z" fill="#313131" stroke="white" stroke-width="1.4"/>
<circle cx="235.25" cy="63.3281" r="2.702" fill="#313131" stroke="white" stroke-width="1.4"/>
<circle cx="226.5" cy="543.5" r="59.5" fill="#313131"/>
<path d="M216.838 568.309H216.106V576.991H216.838V568.309ZM209.309 574.677L209.797 575.253C210.666 574.711 211.296 573.69 211.609 572.494C211.911 573.597 212.517 574.535 213.371 575.048L213.84 574.481C212.644 573.788 211.965 572.289 211.965 570.79V569.969H213.557V569.335H209.553V569.969H211.223V570.79C211.228 572.367 210.52 573.954 209.309 574.677ZM212.893 572.069H214.358V576.542H215.08V568.524H214.358V571.444H212.893V572.069ZM225.869 572.509H217.959V573.143H221.533V574.169H218.926V576.874H224.902V574.169H222.285V573.143H225.869V572.509ZM218.701 569.227H220.039V571.053H218.73V571.688H225.088V571.053H223.779V569.227H225.117V568.593H218.701V569.227ZM219.687 576.249V574.774H224.15V576.249H219.687ZM220.801 571.053V569.227H223.017V571.053H220.801ZM233.923 568.309H233.191V576.991H233.923V568.309ZM226.394 574.677L226.882 575.253C227.751 574.711 228.381 573.69 228.694 572.494C228.997 573.597 229.602 574.535 230.457 575.048L230.925 574.481C229.729 573.788 229.05 572.289 229.05 570.79V569.969H230.642V569.335H226.638V569.969H228.308V570.79C228.313 572.367 227.605 573.954 226.394 574.677ZM229.978 572.069H231.443V576.542H232.166V568.524H231.443V571.444H229.978V572.069ZM237.983 569.921V569.55H239.937V568.925H235.249V569.55H237.232V569.921C237.222 571.166 236.314 572.284 235.015 572.743L235.425 573.339C236.445 572.968 237.241 572.201 237.612 571.215C237.983 572.113 238.74 572.821 239.732 573.173L240.122 572.577C238.838 572.133 237.988 571.078 237.983 569.921ZM236.148 574.628H241.069V576.991H241.831V574.003H236.148V574.628ZM241.069 573.544H241.831V571.259H243.14V570.604H241.831V568.309H241.069V573.544Z" fill="white"/>
<mask id="path-35-inside-3_627_12886" fill="white">
<path fill-rule="evenodd" clip-rule="evenodd" d="M207.315 520.077C208.45 519.275 209.99 518.825 211.596 518.825V523.099V523.398H246.841V556.351H211.996C211.824 556.351 211.656 556.339 211.491 556.315V556.351C208.182 556.351 205.5 554.474 205.5 552.157C205.5 551.99 205.514 551.825 205.541 551.663V523.099V523.025H205.542C205.569 521.918 206.204 520.861 207.315 520.077Z"/>
</mask>
<path fill-rule="evenodd" clip-rule="evenodd" d="M207.315 520.077C208.45 519.275 209.99 518.825 211.596 518.825V523.099V523.398H246.841V556.351H211.996C211.824 556.351 211.656 556.339 211.491 556.315V556.351C208.182 556.351 205.5 554.474 205.5 552.157C205.5 551.99 205.514 551.825 205.541 551.663V523.099V523.025H205.542C205.569 521.918 206.204 520.861 207.315 520.077Z" fill="#313131"/>
<path d="M211.596 518.825H212.996V517.425H211.596V518.825ZM207.315 520.077L206.507 518.933V518.933L207.315 520.077ZM211.596 523.398H210.196V524.798H211.596V523.398ZM246.841 523.398H248.241V521.998H246.841V523.398ZM246.841 556.351V557.751H248.241V556.351H246.841ZM211.491 556.315L211.691 554.93L210.091 554.699V556.315H211.491ZM211.491 556.351L211.491 557.751L212.891 557.751V556.351H211.491ZM205.541 551.663L206.922 551.895L206.941 551.779V551.663H205.541ZM205.541 523.025V521.625H204.141V523.025H205.541ZM205.542 523.025V524.425H206.908L206.942 523.059L205.542 523.025ZM211.596 517.425C209.748 517.425 207.914 517.94 206.507 518.933L208.122 521.221C208.986 520.611 210.233 520.225 211.596 520.225V517.425ZM212.996 523.099V518.825H210.196V523.099H212.996ZM212.996 523.398V523.099H210.196V523.398H212.996ZM211.596 524.798H246.841V521.998H211.596V524.798ZM245.441 523.398V556.351H248.241V523.398H245.441ZM246.841 554.951H211.996V557.751H246.841V554.951ZM211.996 554.951C211.892 554.951 211.79 554.944 211.691 554.93L211.292 557.701C211.522 557.734 211.757 557.751 211.996 557.751V554.951ZM212.891 556.351V556.315H210.091V556.351H212.891ZM204.1 552.157C204.1 553.898 205.11 555.33 206.452 556.27C207.799 557.213 209.585 557.751 211.491 557.751L211.491 554.951C210.089 554.951 208.879 554.551 208.058 553.976C207.232 553.398 206.9 552.733 206.9 552.157H204.1ZM204.16 551.431C204.121 551.669 204.1 551.912 204.1 552.157H206.9C206.9 552.068 206.907 551.981 206.922 551.895L204.16 551.431ZM204.141 523.099V551.663H206.941V523.099H204.141ZM204.141 523.025V523.099H206.941V523.025H204.141ZM205.542 521.625H205.541V524.425H205.542V521.625ZM206.507 518.933C205.126 519.908 204.183 521.341 204.143 522.991L206.942 523.059C206.956 522.496 207.282 521.814 208.122 521.221L206.507 518.933Z" fill="white" mask="url(#path-35-inside-3_627_12886)"/>
<path d="M210.892 523.81L210.892 548.375" stroke="white" stroke-width="1.4"/>
<path d="M211.596 548.375C210.176 548.375 208.814 548.754 207.81 549.428C206.805 550.102 206.241 551.017 206.241 551.97C206.241 552.923 206.805 553.838 207.81 554.512C208.814 555.186 210.176 555.565 211.596 555.565" stroke="white" stroke-width="1.4"/>
<path d="M236.954 547.175V550.237" stroke="white" stroke-width="1.4" stroke-miterlimit="10"/>
<path d="M219.804 547.175V550.237" stroke="white" stroke-width="1.4" stroke-miterlimit="10"/>
<path d="M235.116 517.775H216.741V526.35H235.116V517.775Z" fill="#313131" stroke="white" stroke-width="1.4" stroke-miterlimit="10"/>
<path d="M235.116 526.35H216.741V534.925H235.116V526.35Z" fill="#313131" stroke="white" stroke-width="1.4" stroke-miterlimit="10"/>
<path d="M235.116 534.925H216.741V543.5H235.116V534.925Z" fill="#313131" stroke="white" stroke-width="1.4" stroke-miterlimit="10"/>
<path d="M240.016 514.1H216.741V517.775H240.016V514.1Z" fill="#313131" stroke="white" stroke-width="1.4" stroke-miterlimit="10"/>
<path d="M240.016 517.775H235.116V526.35H240.016V517.775Z" fill="#313131" stroke="white" stroke-width="1.4" stroke-miterlimit="10"/>
<path d="M240.016 526.35H235.116V534.925H240.016V526.35Z" fill="#313131" stroke="white" stroke-width="1.4" stroke-miterlimit="10"/>
<path d="M240.016 534.925H235.116V543.5H240.016V534.925Z" fill="#313131" stroke="white" stroke-width="1.4" stroke-miterlimit="10"/>
<path d="M240.016 543.5H216.741V547.175H240.016V543.5Z" fill="#313131" stroke="white" stroke-width="1.4" stroke-miterlimit="10"/>
<path d="M119 543.5C119 576.361 92.3609 603 59.5 603C26.6391 603 0 576.361 0 543.5C0 510.639 26.6391 484 59.5 484C92.3609 484 119 510.639 119 543.5Z" fill="#313131"/>
<path d="M34.4557 569.188H28.3326V569.823H33.6842V570.057C33.6793 571.097 33.6793 572.313 33.3521 573.973L34.1334 574.061C34.4459 572.313 34.4459 571.122 34.4557 570.057V569.188ZM27.4928 575.76H35.4029V575.126H31.3502V572.02H30.5982V575.126H27.4928V575.76ZM43.4084 568.319H42.676V570.507H41.4943V568.485H40.7619V573.378H41.4943V571.141H42.676V573.436H43.4084V568.319ZM36.0842 572.958L36.465 573.534C38.6672 572.596 39.8391 571.029 39.8439 568.954H36.4357V569.589H39.0529C38.9064 571.049 37.8859 572.225 36.0842 572.958ZM37.549 574.462H42.6564V576.991H43.4084V573.837H37.549V574.462ZM54.3607 568.319H53.6283V570.487H52.476V568.475H51.7533V573.28H52.476V571.122H53.6283V573.397H54.3607V568.319ZM46.9975 572.557L47.4174 573.173C48.267 572.787 48.892 572.05 49.2143 571.219C49.5219 571.971 50.1225 572.601 50.9623 572.928L51.3627 572.343C50.2494 571.918 49.5805 570.936 49.5756 569.979V568.817H48.8432V569.969C48.8383 570.946 48.14 572.069 46.9975 572.557ZM48.6283 576.874H54.3607V573.837H48.6283V576.874ZM49.3803 576.249V574.452H53.6088V576.249H49.3803ZM62.6885 568.583H56.2725V569.188H57.6104V570.868H56.3018V571.464H62.6592V570.868H61.3506V569.188H62.6885V568.583ZM55.5303 572.811H63.4404V572.196H55.5303V572.811ZM56.4873 574.169H61.6729V574.921H56.5068V576.893H62.6885V576.307H57.2686V575.477H62.4248V573.593H56.4873V574.169ZM58.3721 570.868V569.188H60.5889V570.868H58.3721ZM70.0568 569.374H66.8244V574.901H67.3713C68.7482 574.896 69.5686 574.872 70.5744 574.667L70.5061 574.042C69.5637 574.213 68.802 574.261 67.5568 574.276V572.323H69.6564V571.708H67.5568V569.989H70.0568V569.374ZM70.1252 572.245H71.4045V576.542H72.1369V568.524H71.4045V571.61H70.1252V572.245ZM73.1721 576.991H73.9143V568.309H73.1721V576.991ZM79.3514 569.589V568.925H78.5506V569.589C78.5457 571.083 76.8611 572.396 75.3572 572.684L75.7088 573.329C77.0223 573.021 78.3943 572.094 78.9607 570.819C79.5223 572.094 80.8992 573.026 82.2127 573.329L82.5643 572.684C81.0555 572.401 79.3563 571.078 79.3514 569.589ZM75.0252 575.809H82.9744V575.175H75.0252V575.809ZM90.599 573.007H85.3744V571.61H90.3158V570.995H85.3744V569.706H90.5014V569.061H84.5932V573.632H90.599V573.007ZM83.5678 575.858H91.517V575.223H83.5678V575.858Z" fill="white"/>
<path d="M68.075 550.85V553.912" stroke="white" stroke-width="1.4" stroke-miterlimit="10"/>
<path d="M50.925 550.85V553.912" stroke="white" stroke-width="1.4" stroke-miterlimit="10"/>
<path d="M66.2375 521.45H47.8625V530.025H66.2375V521.45Z" stroke="white" stroke-width="1.4" stroke-miterlimit="10"/>
<path d="M66.2375 530.025H47.8625V538.6H66.2375V530.025Z" stroke="white" stroke-width="1.4" stroke-miterlimit="10"/>
<path d="M66.2375 538.6H47.8625V547.175H66.2375V538.6Z" stroke="white" stroke-width="1.4" stroke-miterlimit="10"/>
<path d="M71.1375 517.775H47.8625V521.45H71.1375V517.775Z" stroke="white" stroke-width="1.4" stroke-miterlimit="10"/>
<path d="M71.1375 521.45H66.2375V530.025H71.1375V521.45Z" stroke="white" stroke-width="1.4" stroke-miterlimit="10"/>
<path d="M71.1375 530.025H66.2375V538.6H71.1375V530.025Z" stroke="white" stroke-width="1.4" stroke-miterlimit="10"/>
<path d="M71.1375 538.6H66.2375V547.175H71.1375V538.6Z" stroke="white" stroke-width="1.4" stroke-miterlimit="10"/>
<path d="M71.1375 547.175H47.8625V550.85H71.1375V547.175Z" stroke="white" stroke-width="1.4" stroke-miterlimit="10"/>
<path d="M77.4706 545.697L77.4223 546.087L77.731 546.331L79.921 548.064L77.8743 551.646L75.3069 550.603L74.9377 550.453L74.6203 550.694C74.0908 551.095 73.5333 551.436 72.937 551.683L72.5681 551.836L72.512 552.231L72.1185 555.008H68.048L67.6544 552.231L67.5984 551.836L67.2295 551.683C66.6282 551.434 66.073 551.104 65.5529 550.699L65.234 550.451L64.8596 550.603L62.2922 551.646L60.2454 548.064L62.4355 546.331L62.7442 546.087L62.6959 545.697C62.6541 545.359 62.625 545.027 62.625 544.704C62.625 544.381 62.6541 544.049 62.6959 543.711L62.7442 543.321L62.4355 543.077L60.2454 541.344L62.2922 537.762L64.8596 538.805L65.2287 538.955L65.5462 538.714C66.0757 538.312 66.6331 537.972 67.2295 537.725L67.5984 537.572L67.6544 537.176L68.048 534.4H72.1185L72.512 537.176L72.5681 537.572L72.937 537.725C73.5383 537.974 74.0935 538.304 74.6135 538.709L74.9325 538.957L75.3069 538.805L77.8743 537.762L79.921 541.344L77.731 543.077L77.4223 543.321L77.4706 543.711C77.5124 544.05 77.5414 544.37 77.5414 544.704C77.5414 545.037 77.5124 545.358 77.4706 545.697Z" fill="#313131" stroke="white" stroke-width="1.4"/>
<circle cx="70.0806" cy="544.704" r="3.10908" fill="#313131" stroke="white" stroke-width="1.4"/>
<path d="M286 382.5C286 415.361 259.361 442 226.5 442C193.639 442 167 415.361 167 382.5C167 349.639 193.639 323 226.5 323C259.361 323 286 349.639 286 382.5Z" fill="#313131"/>
<path d="M206.621 409.443V407.861H205.86V409.443C205.85 411.089 204.78 412.749 203.487 413.34L203.975 413.984C204.99 413.472 205.845 412.373 206.245 411.064C206.66 412.3 207.515 413.33 208.506 413.809L208.975 413.203C207.696 412.622 206.616 411.03 206.621 409.443ZM209.922 415.811H210.694V407.109H209.922V415.811ZM219.275 407.109H218.504V409.756H217.029V410.391H218.504V412.373H219.275V407.109ZM212.088 408.652H217.156V408.027H214.998V407.031H214.246V408.027H212.088V408.652ZM212.605 410.645C212.605 411.582 213.44 412.197 214.617 412.197C215.799 412.197 216.629 411.582 216.638 410.645C216.629 409.736 215.799 409.102 214.617 409.102C213.44 409.102 212.605 409.736 212.605 410.645ZM213.338 410.645C213.338 410.088 213.86 409.697 214.617 409.697C215.374 409.697 215.896 410.088 215.896 410.645C215.896 411.221 215.374 411.602 214.617 411.611C213.86 411.602 213.338 411.221 213.338 410.645ZM213.601 415.674H219.275V412.842H213.601V415.674ZM214.363 415.049V413.457H218.523V415.049H214.363ZM230.452 407.109H229.72V415.791H230.452V407.109ZM222.923 413.477L223.411 414.053C224.28 413.511 224.91 412.49 225.223 411.294C225.525 412.397 226.131 413.335 226.985 413.848L227.454 413.281C226.258 412.588 225.579 411.089 225.579 409.59V408.77H227.171V408.135H223.167V408.77H224.837V409.59C224.842 411.167 224.134 412.754 222.923 413.477ZM226.507 410.869H227.972V415.342H228.694V407.324H227.972V410.244H226.507V410.869ZM234.512 408.721V408.35H236.465V407.725H231.778V408.35H233.76V408.721C233.751 409.966 232.842 411.084 231.544 411.543L231.954 412.139C232.974 411.768 233.77 411.001 234.141 410.015C234.512 410.913 235.269 411.621 236.26 411.973L236.651 411.377C235.367 410.933 234.517 409.878 234.512 408.721ZM232.676 413.428H237.598V415.791H238.36V412.803H232.676V413.428ZM237.598 412.344H238.36V410.059H239.669V409.404H238.36V407.109H237.598V412.344ZM247.056 407.676H242.984V411.211H247.056V407.676ZM243.609 415.166L243.883 415.762C245.191 415.581 246.412 414.985 246.934 414.165C247.452 414.966 248.643 415.581 249.947 415.762L250.211 415.166C248.721 414.98 247.325 414.136 247.33 413.291H249.908V412.695H247.31V411.846H246.549V412.695H243.971V413.291H246.539C246.539 414.155 245.103 415 243.609 415.166ZM243.736 410.605V408.301H246.304V410.605H243.736ZM248.931 412.1H249.683V407.109H248.931V412.1ZM212.152 421.109H211.4V424.645H210.15V421.305H209.428V429.342H210.15V425.299H211.4V429.791H212.152V421.109ZM205.18 427.545H205.717C206.674 427.545 207.67 427.481 208.881 427.262L208.783 426.578C207.729 426.793 206.801 426.856 205.941 426.861V422.174H205.18V427.545ZM221.222 426.266H213.273V426.891H216.847V429.791H217.599V426.891H221.222V426.266ZM214.289 425.211H220.197V421.471H219.425V422.672H215.05V421.471H214.289V425.211ZM215.05 424.586V423.297H219.425V424.586H215.05ZM227.809 422.174H224.577V427.701H225.124C226.501 427.696 227.321 427.672 228.327 427.467L228.259 426.842C227.316 427.013 226.554 427.062 225.309 427.076V425.123H227.409V424.508H225.309V422.789H227.809V422.174ZM227.878 425.045H229.157V429.342H229.889V421.324H229.157V424.41H227.878V425.045ZM230.925 429.791H231.667V421.109H230.925V429.791ZM237.104 422.389V421.725H236.303V422.389C236.298 423.883 234.614 425.196 233.11 425.484L233.461 426.129C234.775 425.821 236.147 424.894 236.713 423.619C237.275 424.894 238.652 425.826 239.965 426.129L240.317 425.484C238.808 425.201 237.109 423.878 237.104 422.389ZM232.778 428.609H240.727V427.975H232.778V428.609ZM248.352 425.807H243.127V424.41H248.068V423.795H243.127V422.506H248.254V421.861H242.346V426.432H248.352V425.807ZM241.32 428.658H249.27V428.023H241.32V428.658Z" fill="white"/>
<mask id="path-65-inside-4_627_12886" fill="white">
<path fill-rule="evenodd" clip-rule="evenodd" d="M207.273 355.752C208.409 354.95 209.949 354.5 211.555 354.5L211.555 358.774V359.073H246.8V392.026H211.955C211.783 392.026 211.615 392.014 211.45 391.99V392.026H211.45C208.149 392.026 205.472 390.158 205.459 387.849V387.815C205.46 387.654 205.474 387.494 205.5 387.338V358.774V358.7H205.501C205.528 357.593 206.163 356.536 207.273 355.752Z"/>
</mask>
<path fill-rule="evenodd" clip-rule="evenodd" d="M207.273 355.752C208.409 354.95 209.949 354.5 211.555 354.5L211.555 358.774V359.073H246.8V392.026H211.955C211.783 392.026 211.615 392.014 211.45 391.99V392.026H211.45C208.149 392.026 205.472 390.158 205.459 387.849V387.815C205.46 387.654 205.474 387.494 205.5 387.338V358.774V358.7H205.501C205.528 357.593 206.163 356.536 207.273 355.752Z" fill="#313131"/>
<path d="M211.555 354.5L212.955 354.5V353.1H211.555V354.5ZM207.273 355.752L206.466 354.608L206.466 354.608L207.273 355.752ZM211.555 358.774H210.155H211.555ZM211.555 359.073H210.155V360.473H211.555V359.073ZM246.8 359.073H248.2V357.673H246.8V359.073ZM246.8 392.026V393.426H248.2V392.026H246.8ZM211.45 391.99L211.65 390.605L210.05 390.374V391.99H211.45ZM211.45 392.026V393.426H212.85V392.026H211.45ZM205.459 387.849H204.059L204.059 387.857L205.459 387.849ZM205.459 387.815L204.059 387.807V387.815H205.459ZM205.5 387.338L206.881 387.569L206.9 387.454V387.338H205.5ZM205.5 358.7V357.3H204.1V358.7H205.5ZM205.501 358.7V360.1H206.867L206.9 358.734L205.501 358.7ZM211.555 353.1C209.706 353.1 207.873 353.615 206.466 354.608L208.081 356.896C208.945 356.286 210.192 355.9 211.555 355.9V353.1ZM212.955 358.774L212.955 354.5L210.155 354.5L210.155 358.774H212.955ZM212.955 359.073V358.774H210.155V359.073H212.955ZM211.555 360.473H246.8V357.673H211.555V360.473ZM245.4 359.073V392.026H248.2V359.073H245.4ZM246.8 390.626H211.955V393.426H246.8V390.626ZM211.955 390.626C211.85 390.626 211.749 390.619 211.65 390.605L211.25 393.376C211.481 393.409 211.716 393.426 211.955 393.426V390.626ZM212.85 392.026V391.99H210.05V392.026H212.85ZM211.45 393.426H211.45V390.626H211.45V393.426ZM204.059 387.857C204.069 389.591 205.08 391.017 206.421 391.952C207.766 392.89 209.548 393.426 211.45 393.426V390.626C210.051 390.626 208.844 390.228 208.022 389.655C207.196 389.079 206.862 388.416 206.859 387.841L204.059 387.857ZM204.059 387.815V387.849H206.859V387.815H204.059ZM204.119 387.106C204.081 387.336 204.06 387.57 204.059 387.807L206.859 387.823C206.859 387.737 206.867 387.653 206.881 387.569L204.119 387.106ZM204.1 358.774V387.338H206.9V358.774H204.1ZM204.1 358.7V358.774H206.9V358.7H204.1ZM205.501 357.3H205.5V360.1H205.501V357.3ZM206.466 354.608C205.085 355.583 204.142 357.016 204.101 358.666L206.9 358.734C206.914 358.171 207.241 357.489 208.081 356.896L206.466 354.608Z" fill="white" mask="url(#path-65-inside-4_627_12886)"/>
<path d="M210.851 359.485L210.851 384.05" stroke="white" stroke-width="1.4"/>
<path d="M211.555 384.05C210.135 384.05 208.773 384.429 207.768 385.103C206.764 385.777 206.2 386.692 206.2 387.645C206.2 388.598 206.764 389.513 207.768 390.187C208.773 390.861 210.135 391.24 211.555 391.24" stroke="white" stroke-width="1.4"/>
<path d="M235.537 376.651L235.489 377.042L235.798 377.286L237.912 378.959L235.941 382.408L233.463 381.402L233.094 381.252L232.776 381.492C232.263 381.882 231.723 382.212 231.146 382.451L230.777 382.604L230.721 382.999L230.341 385.679H226.421L226.041 382.999L225.985 382.604L225.616 382.451C225.034 382.21 224.496 381.89 223.992 381.498L223.673 381.249L223.299 381.402L220.821 382.408L218.85 378.959L220.964 377.286L221.273 377.042L221.224 376.651C221.184 376.324 221.156 376.002 221.156 375.69C221.156 375.377 221.184 375.056 221.224 374.728L221.273 374.337L220.964 374.093L218.85 372.421L220.821 368.971L223.299 369.978L223.668 370.128L223.986 369.887C224.499 369.498 225.039 369.168 225.616 368.928L225.985 368.775L226.041 368.38L226.421 365.7H230.341L230.721 368.38L230.777 368.775L231.146 368.928C231.728 369.17 232.266 369.49 232.77 369.882L233.089 370.13L233.463 369.978L235.941 368.971L237.912 372.421L235.798 374.093L235.489 374.337L235.537 374.728C235.578 375.057 235.606 375.367 235.606 375.69C235.606 376.013 235.578 376.323 235.537 376.651Z" fill="#313131" stroke="white" stroke-width="1.4"/>
<circle cx="228.378" cy="375.69" r="3.00029" fill="#313131" stroke="white" stroke-width="1.4"/>
<circle cx="59.5" cy="382.5" r="59.5" fill="#313131"/>
<path d="M45.4551 408.628H44.166V407.309H43.4043V412.466H44.166V411.118H45.4551V410.473H44.166V409.262H45.4551V408.628ZM37.5449 409.878C37.54 411.084 38.5068 411.914 39.8203 411.919C41.1435 411.914 42.0957 411.084 42.1055 409.878C42.0957 408.667 41.1435 407.832 39.8203 407.837C38.5068 407.832 37.54 408.667 37.5449 409.878ZM38.2969 409.878C38.292 409.062 38.9414 408.481 39.8203 408.491C40.709 408.481 41.3486 409.062 41.3535 409.878C41.3486 410.698 40.709 411.264 39.8203 411.274C38.9414 411.264 38.292 410.698 38.2969 409.878ZM38.5019 414.36C38.5068 415.371 39.6103 415.971 41.3828 415.971C43.1553 415.971 44.2441 415.371 44.2441 414.36C44.2441 413.33 43.1553 412.734 41.3828 412.729C39.6103 412.734 38.5068 413.33 38.5019 414.36ZM39.2734 414.36C39.2637 413.73 40.0742 413.354 41.3828 413.354C42.6963 413.354 43.4971 413.73 43.5019 414.36C43.4971 414.985 42.6963 415.351 41.3828 415.356C40.0742 415.351 39.2637 414.985 39.2734 414.36ZM48.8414 408.95V407.846H48.0894V408.921C48.0846 410.268 47.2154 411.445 45.8922 411.909L46.3121 412.524C47.3375 412.129 48.1236 411.333 48.4898 410.298C48.8756 411.216 49.6422 411.948 50.6285 412.309L51.0191 411.694C49.7398 411.25 48.8365 410.146 48.8414 408.95ZM47.2887 415.805H53.109V415.161H48.0699V413.11H47.2887V415.805ZM51.9469 413.725H52.7086V410.63H54.0172V409.975H52.7086V407.309H51.9469V413.725ZM58.8 412.339C59.1711 412.334 59.4738 412.036 59.4738 411.665C59.4738 411.294 59.1711 410.996 58.8 410.991C58.4338 410.996 58.131 411.294 58.1359 411.665C58.131 412.036 58.4338 412.334 58.8 412.339ZM71.1609 407.309H70.4285V415.991H71.1609V407.309ZM63.6316 413.677L64.1199 414.253C64.9891 413.711 65.6189 412.69 65.9314 411.494C66.2342 412.597 66.8396 413.535 67.6941 414.048L68.1629 413.481C66.9666 412.788 66.2879 411.289 66.2879 409.79V408.969H67.8797V408.335H63.8758V408.969H65.5457V409.79C65.5506 411.367 64.8426 412.954 63.6316 413.677ZM67.2156 411.069H68.6805V415.542H69.4031V407.524H68.6805V410.444H67.2156V411.069ZM80.2308 414.233H76.6371V412.124H75.8656V414.233H72.2816V414.878H80.2308V414.233ZM72.6723 411.811L72.9945 412.427C74.2982 412.158 75.6947 411.294 76.2514 410.078C76.808 411.279 78.2094 412.124 79.5375 412.387L79.85 411.782C78.351 411.538 76.642 410.346 76.6371 408.96V408.745H79.5473V408.1H72.9359V408.745H75.8461V408.96C75.8461 410.346 74.142 411.562 72.6723 411.811Z" fill="white"/>
<path d="M68.075 389.85V392.912" stroke="white" stroke-width="1.4" stroke-miterlimit="10"/>
<path d="M50.925 389.85V392.912" stroke="white" stroke-width="1.4" stroke-miterlimit="10"/>
<path d="M66.2375 360.45H47.8625V369.025H66.2375V360.45Z" stroke="white" stroke-width="1.4" stroke-miterlimit="10"/>
<path d="M66.2375 369.025H47.8625V377.6H66.2375V369.025Z" stroke="white" stroke-width="1.4" stroke-miterlimit="10"/>
<path d="M66.2375 377.6H47.8625V386.175H66.2375V377.6Z" stroke="white" stroke-width="1.4" stroke-miterlimit="10"/>
<path d="M71.1375 356.775H47.8625V360.45H71.1375V356.775Z" stroke="white" stroke-width="1.4" stroke-miterlimit="10"/>
<path d="M71.1375 360.45H66.2375V369.025H71.1375V360.45Z" stroke="white" stroke-width="1.4" stroke-miterlimit="10"/>
<path d="M71.1375 369.025H66.2375V377.6H71.1375V369.025Z" stroke="white" stroke-width="1.4" stroke-miterlimit="10"/>
<path d="M71.1375 377.6H66.2375V386.175H71.1375V377.6Z" stroke="white" stroke-width="1.4" stroke-miterlimit="10"/>
<path d="M71.1375 386.175H47.8625V389.85H71.1375V386.175Z" stroke="white" stroke-width="1.4" stroke-miterlimit="10"/>
<circle cx="70.0001" cy="385.3" r="9.8" fill="#313131" stroke="white" stroke-width="1.4"/>
<path d="M70.0001 381.1V389.5" stroke="white" stroke-width="1.4" stroke-linecap="square"/>
<path d="M74.2 385.3L65.8 385.3" stroke="white" stroke-width="1.4" stroke-linecap="square"/>
<circle cx="226.5" cy="221.5" r="59.5" fill="#313131"/>
<path d="M224.356 246.309H223.585V247.911H221.651V248.546H223.585V250.802H224.356V246.309ZM217.149 250.206L217.569 250.821C218.595 250.45 219.381 249.693 219.752 248.702C220.138 249.581 220.904 250.264 221.866 250.606L222.276 250.01C221.007 249.595 220.108 248.551 220.118 247.413V246.593H219.366V247.413C219.356 248.682 218.458 249.771 217.149 250.206ZM218.731 251.856H223.595V252.725H218.751V254.874H224.679V254.259H219.503V253.311H224.356V251.241H218.731V251.856ZM233.133 246.309H232.401V254.991H233.133V246.309ZM225.692 252.559L226.161 253.116C227.801 252.135 228.753 250.836 229.173 249.366H230.643V250.909H229.032V251.544H230.643V254.552H231.375V246.544H230.643V248.731H229.325C229.403 248.306 229.442 247.867 229.442 247.423H226.082V248.057H228.68C228.529 249.874 227.581 251.441 225.692 252.559Z" fill="white"/>
<mask id="path-88-inside-5_627_12886" fill="white">
<path fill-rule="evenodd" clip-rule="evenodd" d="M208.715 195.452C209.85 194.65 211.39 194.2 212.996 194.2V198.474V198.773H248.241V231.726H213.396C213.224 231.726 213.056 231.714 212.891 231.69V231.726C209.582 231.726 206.9 229.849 206.9 227.532C206.9 227.365 206.914 227.2 206.941 227.038V198.474V198.4H206.942C206.969 197.293 207.604 196.236 208.715 195.452Z"/>
</mask>
<path fill-rule="evenodd" clip-rule="evenodd" d="M208.715 195.452C209.85 194.65 211.39 194.2 212.996 194.2V198.474V198.773H248.241V231.726H213.396C213.224 231.726 213.056 231.714 212.891 231.69V231.726C209.582 231.726 206.9 229.849 206.9 227.532C206.9 227.365 206.914 227.2 206.941 227.038V198.474V198.4H206.942C206.969 197.293 207.604 196.236 208.715 195.452Z" fill="#313131"/>
<path d="M212.996 194.2H214.396V192.8H212.996V194.2ZM208.715 195.452L209.522 196.596V196.596L208.715 195.452ZM212.996 198.773H211.596V200.173H212.996V198.773ZM248.241 198.773H249.641V197.373H248.241V198.773ZM248.241 231.726V233.126H249.641V231.726H248.241ZM212.891 231.69L213.091 230.305L211.491 230.074V231.69H212.891ZM212.891 231.726L212.891 233.126L214.291 233.126V231.726H212.891ZM206.941 227.038L208.322 227.269L208.341 227.154V227.038H206.941ZM206.941 198.4V197H205.541V198.4H206.941ZM206.942 198.4V199.8H208.308L208.342 198.434L206.942 198.4ZM212.996 192.8C211.147 192.8 209.314 193.315 207.907 194.308L209.522 196.596C210.386 195.986 211.633 195.6 212.996 195.6V192.8ZM214.396 198.474V194.2H211.596V198.474H214.396ZM214.396 198.773V198.474H211.596V198.773H214.396ZM212.996 200.173H248.241V197.373H212.996V200.173ZM246.841 198.773V231.726H249.641V198.773H246.841ZM248.241 230.326H213.396V233.126H248.241V230.326ZM213.396 230.326C213.291 230.326 213.19 230.319 213.091 230.305L212.691 233.076C212.922 233.109 213.157 233.126 213.396 233.126V230.326ZM214.291 231.726V231.69H211.491V231.726H214.291ZM205.5 227.532C205.5 229.273 206.509 230.705 207.852 231.645C209.199 232.588 210.985 233.126 212.891 233.126L212.891 230.326C211.489 230.326 210.279 229.926 209.458 229.351C208.632 228.773 208.3 228.108 208.3 227.532H205.5ZM205.56 226.806C205.52 227.044 205.5 227.287 205.5 227.532H208.3C208.3 227.443 208.307 227.356 208.322 227.269L205.56 226.806ZM205.541 198.474V227.038H208.341V198.474H205.541ZM205.541 198.4V198.474H208.341V198.4H205.541ZM206.942 197H206.941V199.8H206.942V197ZM207.907 194.308C206.526 195.283 205.583 196.716 205.542 198.366L208.342 198.434C208.355 197.871 208.682 197.189 209.522 196.596L207.907 194.308Z" fill="white" mask="url(#path-88-inside-5_627_12886)"/>
<path d="M212.292 199.185L212.292 223.75" stroke="white" stroke-width="1.4"/>
<path d="M212.996 223.75C211.576 223.75 210.214 224.129 209.209 224.803C208.205 225.477 207.641 226.392 207.641 227.345C207.641 228.298 208.205 229.213 209.209 229.887C210.214 230.561 211.576 230.94 212.996 230.94" stroke="white" stroke-width="1.4"/>
<rect x="218.8" y="203.3" width="7.16471" height="23.6353" stroke="white" stroke-width="1.4"/>
<path d="M226.006 207.871H223.37" stroke="white" stroke-width="1.4"/>
<path d="M226.006 217.094H223.371" stroke="white" stroke-width="1.4"/>
<path d="M226.006 212.482H223.371" stroke="white" stroke-width="1.4"/>
<path d="M226.006 221.706H223.371" stroke="white" stroke-width="1.4"/>
<mask id="path-97-inside-6_627_12886" fill="white">
<path fill-rule="evenodd" clip-rule="evenodd" d="M251.076 197.941L245.665 193.5L230.637 211.808L230.637 211.808L230.637 211.808L230.617 211.833L230.637 211.849L230.605 217.363L236.008 216.257L236.028 216.274L251.076 197.941Z"/>
</mask>
<path fill-rule="evenodd" clip-rule="evenodd" d="M251.076 197.941L245.665 193.5L230.637 211.808L230.637 211.808L230.637 211.808L230.617 211.833L230.637 211.849L230.605 217.363L236.008 216.257L236.028 216.274L251.076 197.941Z" fill="#313131"/>
<path d="M245.665 193.5L246.553 192.418L245.471 191.53L244.583 192.612L245.665 193.5ZM251.076 197.941L252.158 198.83L253.046 197.747L251.964 196.859L251.076 197.941ZM230.637 211.808L229.749 212.89L230.831 213.778L231.719 212.696L230.637 211.808ZM230.637 211.808L231.525 210.726L229.261 208.867L229.237 211.796L230.637 211.808ZM230.637 211.808L231.719 212.696L232.033 212.314L232.037 211.82L230.637 211.808ZM230.617 211.833L229.535 210.944L228.647 212.026L229.729 212.915L230.617 211.833ZM230.637 211.849L232.037 211.857L232.041 211.19L231.525 210.767L230.637 211.849ZM230.605 217.363L229.205 217.355L229.195 219.081L230.886 218.735L230.605 217.363ZM236.008 216.257L236.896 215.175L236.38 214.752L235.727 214.886L236.008 216.257ZM236.028 216.274L235.139 217.356L236.221 218.244L237.11 217.162L236.028 216.274ZM244.777 194.582L250.187 199.023L251.964 196.859L246.553 192.418L244.777 194.582ZM231.719 212.696L246.747 194.388L244.583 192.612L229.555 210.92L231.719 212.696ZM229.749 212.89L229.749 212.89L231.525 210.726L231.525 210.726L229.749 212.89ZM232.037 211.82L232.037 211.82L229.237 211.796L229.237 211.797L232.037 211.82ZM231.699 212.721L231.719 212.696L229.555 210.92L229.535 210.944L231.699 212.721ZM231.525 210.767L231.505 210.75L229.729 212.915L229.748 212.931L231.525 210.767ZM232.005 217.371L232.037 211.857L229.237 211.841L229.205 217.355L232.005 217.371ZM235.727 214.886L230.324 215.992L230.886 218.735L236.288 217.629L235.727 214.886ZM236.916 215.192L236.896 215.175L235.119 217.34L235.139 217.356L236.916 215.192ZM249.994 197.053L234.945 215.386L237.11 217.162L252.158 198.83L249.994 197.053Z" fill="white" mask="url(#path-97-inside-6_627_12886)"/>
<rect x="245.762" y="194.485" width="5.6" height="3.5" transform="rotate(39.3804 245.762 194.485)" stroke="white" stroke-width="1.4"/>
<circle cx="59.5" cy="221.5" r="59.5" fill="#313131"/>
<path d="M40.4178 246.876H36.4823V247.51H39.6024C39.4364 248.985 38.1082 250.137 36.033 250.723L36.3553 251.329C38.8553 250.616 40.4129 249.053 40.4178 246.876ZM37.4979 254.874H43.1326V251.641H37.4979V254.874ZM38.2401 254.249V252.257H42.3709V254.249H38.2401ZM40.4373 249.2H42.3612V251.27H43.1326V246.319H42.3612V248.555H40.4373V249.2ZM48.8334 247.12V246.622H48.0424V247.12C48.0424 248.365 46.4555 249.4 44.8881 249.62L45.2006 250.245C46.5531 250.02 47.8862 249.283 48.4428 248.209C48.9994 249.273 50.3373 250.02 51.685 250.245L51.9975 249.62C50.4301 249.4 48.8383 248.345 48.8334 247.12ZM44.478 251.846H48.0424V254.991H48.7944V251.846H52.3881V251.202H44.478V251.846ZM59.9615 246.876H55.8893V250.411H59.9615V246.876ZM56.5143 254.366L56.7877 254.962C58.0963 254.781 59.317 254.185 59.8395 253.365C60.3571 254.166 61.5485 254.781 62.8522 254.962L63.1158 254.366C61.6266 254.18 60.2301 253.336 60.235 252.491H62.8131V251.895H60.2155V251.046H59.4537V251.895H56.8756V252.491H59.444C59.444 253.355 58.0084 254.2 56.5143 254.366ZM56.6412 249.805V247.501H59.2096V249.805H56.6412ZM61.8365 251.3H62.5885V246.309H61.8365V251.3ZM74.2928 250.177H66.3924V250.772H69.9569V251.583H67.3397V252.159H72.5252V252.911H67.3592V254.893H73.5408V254.307H68.1209V253.458H73.2772V251.583H70.7088V250.772H74.2928V250.177ZM66.8123 249.19L67.0369 249.776C68.492 249.654 69.8006 249.205 70.3377 248.38C70.8699 249.205 72.1785 249.654 73.6287 249.776L73.8631 249.19C72.2615 249.088 70.9041 248.546 70.7674 247.677H73.492V247.071H70.7088V246.26H69.9569V247.071H67.203V247.677H69.9031C69.7615 248.546 68.4041 249.088 66.8123 249.19ZM81.644 246.309H80.8823V254.991H81.644V250.528H83.099V249.893H81.644V246.309ZM74.8764 248.341H80.0424V247.706H77.8744V246.417H77.1127V247.706H74.8764V248.341ZM75.3744 251.055C75.3696 252.232 76.268 253.048 77.5033 253.048C78.7289 253.048 79.6225 252.232 79.6323 251.055C79.6225 249.884 78.7289 249.063 77.5033 249.063C76.268 249.063 75.3696 249.884 75.3744 251.055ZM76.1069 251.055C76.102 250.269 76.6928 249.703 77.5033 249.708C78.3041 249.703 78.8901 250.269 78.8998 251.055C78.8901 251.846 78.3041 252.403 77.5033 252.393C76.6928 252.403 76.102 251.846 76.1069 251.055Z" fill="white"/>
<path d="M68.075 228.85V231.912" stroke="white" stroke-width="1.4" stroke-miterlimit="10"/>
<path d="M50.925 228.85V231.912" stroke="white" stroke-width="1.4" stroke-miterlimit="10"/>
<path d="M66.2375 199.45H47.8625V208.025H66.2375V199.45Z" stroke="white" stroke-width="1.4" stroke-miterlimit="10"/>
<path d="M66.2375 208.025H47.8625V216.6H66.2375V208.025Z" stroke="white" stroke-width="1.4" stroke-miterlimit="10"/>
<path d="M66.2375 216.6H47.8625V225.175H66.2375V216.6Z" stroke="white" stroke-width="1.4" stroke-miterlimit="10"/>
<path d="M71.1375 195.775H47.8625V199.45H71.1375V195.775Z" stroke="white" stroke-width="1.4" stroke-miterlimit="10"/>
<path d="M71.1375 199.45H66.2375V208.025H71.1375V199.45Z" stroke="white" stroke-width="1.4" stroke-miterlimit="10"/>
<path d="M71.1375 208.025H66.2375V216.6H71.1375V208.025Z" stroke="white" stroke-width="1.4" stroke-miterlimit="10"/>
<path d="M71.1375 216.6H66.2375V225.175H71.1375V216.6Z" stroke="white" stroke-width="1.4" stroke-miterlimit="10"/>
<path d="M71.1375 225.175H47.8625V228.85H71.1375V225.175Z" stroke="white" stroke-width="1.4" stroke-miterlimit="10"/>
<path d="M79.8001 224.65C79.8001 229.847 75.435 234.1 70.0001 234.1C64.5651 234.1 60.2001 229.847 60.2001 224.65C60.2001 219.453 64.5651 215.2 70.0001 215.2C75.435 215.2 79.8001 219.453 79.8001 224.65Z" fill="#313131" stroke="white" stroke-width="1.4"/>
<path d="M64.7501 223.95L69.3001 228.5L76.3001 221.5" stroke="white" stroke-width="1.4"/>
</svg>
