<svg width="75" height="18" viewBox="0 0 75 18" fill="none" xmlns="http://www.w3.org/2000/svg">
<g clip-path="url(#clip0_178_11640)">
<path d="M43.3754 11.6449V16.9493H39.9702V7.01834H43.3754L43.3601 9.03675C43.7217 8.09442 44.3164 6.80859 46.7193 6.80859C48.782 6.80859 49.5084 8.94859 49.5084 8.94859C49.9559 8.02754 50.4463 6.81163 52.8339 6.81163C54.0047 6.81163 55.0223 7.07609 55.5985 8.79964C55.6261 8.88476 55.6721 9.10666 55.6721 9.19177V16.9493H52.2271V10.7177C52.2271 10.7177 52.3527 9.45623 51.4087 9.45623C50.5505 9.45623 49.5299 10.435 49.5299 11.7361V16.9462H46.094V10.4837C46.094 10.4837 46.1523 9.12794 44.7822 9.52919C44.7822 9.52919 43.5348 9.95172 43.3754 11.6418V11.6449Z" fill="black"/>
<path d="M16.4442 6.50586C13.3486 6.50586 10.8384 8.87384 10.8384 11.7951C10.8384 14.7163 13.3486 17.0843 16.4442 17.0843C19.5398 17.0843 22.0501 14.7163 22.0501 11.7951C22.0501 8.87384 19.5398 6.50586 16.4442 6.50586ZM16.4442 15.1844C15.3868 15.1844 14.5286 13.6676 14.5286 11.7951C14.5286 9.92256 15.3868 8.40572 16.4442 8.40572C17.5016 8.40572 18.3598 9.92256 18.3598 11.7951C18.3598 13.6676 17.5016 15.1844 16.4442 15.1844Z" fill="black"/>
<path d="M9.10947 6.9052V9.02392C9.10947 9.02392 7.6628 8.55883 6.14564 8.40988C5.66444 8.40988 4.14727 8.44332 4.38941 9.46772C4.38941 9.46772 4.49362 9.87809 5.25067 10.1152C6.00771 10.3553 8.31564 11.0727 9.24739 11.9603C9.8328 12.7446 10.5561 13.9423 9.28111 15.5807C8.59149 16.2646 7.76701 16.979 5.83608 17.0823C4.83689 17.0823 1.42864 16.9456 0.567383 16.4318V14.2462C0.567383 14.2462 2.63318 15.0305 3.84078 15.1673C4.73575 15.1339 5.97706 15.371 6.07821 14.1763C6.07821 14.1763 5.974 13.6626 5.25067 13.4255C4.38941 13.085 0.806451 11.9573 0.739021 10.0088C0.739021 10.0088 0.463174 8.33693 1.80563 7.34596C2.52897 6.96903 3.11438 6.49179 5.86979 6.42188C6.4552 6.48875 8.48728 6.69545 9.1064 6.89912L9.10947 6.9052Z" fill="black"/>
<path d="M27.3736 8.91196H30.1566V7.01211H27.4012V5.97859C27.4012 5.97859 27.3675 4.79004 28.3483 4.57117C29.2524 4.37055 30.1903 4.47998 30.932 5.11225V3.03001C30.932 3.03001 27.2816 1.55876 25.0136 3.58325C23.9899 4.51646 23.9899 6.04546 23.9899 6.94219H22.6045V8.87853H24.0052V16.9552H27.3767V8.91196H27.3736Z" fill="black"/>
<path d="M37.1197 14.9401C37.1197 14.9401 35.9397 14.9766 35.8294 13.7698V8.8393H37.9289V6.90297H35.8294V4.86328L32.4395 5.36788V6.90297H31.4097V8.8393H32.4395V14.393C32.4395 14.393 32.2188 16.7305 34.87 17.0224C34.87 17.0224 37.0063 17.1683 38.0024 16.8035V14.9401H37.1197Z" fill="black"/>
<path d="M61.5819 7.14062H58.2656V16.953H61.5819V7.14062Z" fill="black"/>
<path d="M68.5295 0.5625H65.1396V16.9499H68.5295V0.5625Z" fill="black"/>
<path d="M74.8674 0.5625H71.4775V16.9499H74.8674V0.5625Z" fill="black"/>
<path d="M58.2656 0.564453H64.6132L58.2656 6.69871V0.564453Z" fill="black"/>
</g>
<defs>
<clipPath id="clip0_178_11640">
<rect width="74.2981" height="16.5211" fill="white" transform="translate(0.567383 0.5625)"/>
</clipPath>
</defs>
</svg>
