<svg width="923" height="270" viewBox="0 0 923 270" fill="none" xmlns="http://www.w3.org/2000/svg">
<circle cx="788" cy="135" r="135" fill="#FF5F00"/>
<path d="M744.305 116.945H747.399C747.276 113.078 743.725 110.195 738.785 110.195C733.846 110.195 730.014 113.025 730.031 117.332C730.014 120.777 732.51 122.816 736.5 123.977L739.629 124.82C742.301 125.576 744.656 126.525 744.656 129.004C744.656 131.781 742.02 133.592 738.504 133.574C735.481 133.592 732.826 132.238 732.563 129.391H729.328C729.627 133.609 733.02 136.439 738.504 136.457C744.41 136.439 747.75 133.223 747.75 129.074C747.75 124.311 743.268 122.746 740.543 122.043L738.012 121.34C736.078 120.865 733.108 119.863 733.09 117.191C733.108 114.766 735.305 113.008 738.68 113.008C741.721 113.008 744.041 114.449 744.305 116.945ZM759.343 136.387C764.529 136.404 768.009 132.467 767.992 126.543C768.009 120.584 764.529 116.664 759.343 116.664C754.14 116.664 750.625 120.584 750.625 126.543C750.625 132.467 754.14 136.404 759.343 136.387ZM753.648 126.543C753.666 122.746 755.459 119.336 759.343 119.336C763.193 119.336 764.968 122.746 764.968 126.543C764.968 130.357 763.193 133.715 759.343 133.715C755.459 133.715 753.666 130.357 753.648 126.543ZM780.147 116.91H775.929V114.977C775.911 113.008 776.86 112.129 778.987 112.129C779.374 112.129 779.919 112.164 780.569 112.27V109.562C779.936 109.439 779.058 109.352 778.319 109.352C774.944 109.352 772.888 111.215 772.87 114.309V116.91H769.811V119.441H772.87V136H775.929V119.441H780.147V116.91ZM791.705 116.91H787.698V112.34H784.639V116.91H781.756V119.441H784.639V131.289C784.657 134.664 787.328 136.246 789.877 136.246C790.774 136.246 791.512 136.176 791.987 136.105V133.293C791.547 133.311 790.739 133.363 790.194 133.363C788.91 133.363 787.68 132.959 787.698 130.516V119.441H791.705V116.91ZM795.248 136H798.271V124.082C798.271 121.305 800.275 119.371 802.56 119.371C804.757 119.371 806.304 120.812 806.287 122.957V136H809.345V123.59C809.363 121.164 810.875 119.371 813.529 119.371C815.621 119.371 817.379 120.461 817.396 123.273V136H820.42V123.238C820.42 118.738 817.976 116.664 814.584 116.664C811.841 116.664 809.82 117.93 808.853 119.898H808.642C807.746 117.859 806.041 116.664 803.545 116.664C801.049 116.664 799.203 117.859 798.412 119.898H798.166V116.91H795.248V136ZM824.911 136H827.935V116.91H824.911V136ZM824.314 111.742C824.296 112.85 825.263 113.746 826.423 113.746C827.583 113.746 828.55 112.85 828.567 111.742C828.55 110.617 827.583 109.721 826.423 109.738C825.263 109.721 824.296 110.617 824.314 111.742ZM835.414 110.547H832.391V136H835.414V110.547ZM842.894 110.547H839.871V136H842.894V110.547Z" fill="white"/>
<path d="M752.744 160.127H738.506V161.252H742.109V163.379C740.888 163.845 740.22 164.601 740.228 165.629C740.22 167.413 742.232 168.406 745.625 168.424C748.974 168.406 750.986 167.413 751.004 165.629C750.995 164.627 750.353 163.88 749.193 163.414V161.252H752.744V160.127ZM740.088 156.049C740.088 157.877 742.197 158.94 745.625 158.949C749.026 158.94 751.136 157.877 751.144 156.049C751.136 154.194 749.026 153.113 745.625 153.113C742.197 153.113 740.088 154.194 740.088 156.049ZM741.512 156.049C741.503 154.889 743.094 154.221 745.625 154.221C748.13 154.221 749.729 154.889 749.738 156.049C749.729 157.191 748.13 157.859 745.625 157.859C743.094 157.859 741.503 157.191 741.512 156.049ZM741.635 165.629C741.617 164.565 743.12 163.941 745.625 163.924C748.103 163.941 749.606 164.565 749.615 165.629C749.606 166.71 748.103 167.325 745.625 167.316C743.12 167.325 741.617 166.71 741.635 165.629ZM743.498 163.027V161.252H747.805V163.036C747.163 162.931 746.434 162.869 745.625 162.869C744.843 162.869 744.131 162.922 743.498 163.027ZM768.121 160.883H761.687V159.002H766.257V153.166H764.886V154.977H757.152V153.166H755.781V159.002H760.316V160.883H753.882V162.025H768.121V160.883ZM755.464 164.68H764.974V168.424H766.363V163.572H755.464V164.68ZM757.152 157.895V156.031H764.886V157.895H757.152ZM781.476 152.797H780.105V161.885H781.476V157.982H783.831V156.805H781.476V152.797ZM769.294 155.557H778.611V154.414H774.638V152.656H773.267V154.414H769.294V155.557ZM770.191 159.02C770.182 160.689 771.685 161.771 773.952 161.762C776.194 161.771 777.697 160.689 777.714 159.02C777.697 157.35 776.194 156.286 773.952 156.277C771.685 156.286 770.182 157.35 770.191 159.02ZM771.509 159.02C771.5 158.009 772.476 157.332 773.952 157.35C775.411 157.332 776.396 158.009 776.413 159.02C776.396 160.039 775.411 160.707 773.952 160.707C772.476 160.707 771.5 160.039 771.509 159.02ZM771.597 168.213H781.476V162.57H780.105V164.24H772.968V162.57H771.597V168.213ZM772.968 167.105V165.33H780.105V167.105H772.968ZM793.302 154.537H785.356V155.662H791.913C791.922 156.91 791.887 158.809 791.456 161.428L792.845 161.551C793.293 158.65 793.293 156.585 793.302 155.346V154.537ZM784.478 163.836L784.653 164.979C787.448 164.996 791.122 164.926 794.409 164.416L794.339 163.379C792.713 163.572 790.938 163.687 789.206 163.748V159.002H787.853V163.792C786.648 163.818 785.506 163.827 784.478 163.836ZM795.323 168.424H796.694V160.531H799.226V159.336H796.694V152.797H795.323V168.424ZM818.659 165.26H812.19V161.463H810.801V165.26H804.35V166.42H818.659V165.26ZM805.053 160.9L805.633 162.008C807.98 161.524 810.494 159.969 811.495 157.78C812.497 159.942 815.02 161.463 817.411 161.938L817.973 160.848C815.275 160.408 812.199 158.264 812.19 155.768V155.381H817.428V154.221H805.528V155.381H810.766V155.768C810.766 158.264 807.699 160.452 805.053 160.9ZM831.856 152.797H830.467V168.424H831.856V160.619H834.352V159.459H831.856V152.797ZM819.533 164.258L819.762 165.436C822.504 165.436 826.195 165.4 829.606 164.82L829.518 163.766C828.155 163.959 826.679 164.082 825.229 164.152V162.482C827.039 162.271 828.243 161.208 828.252 159.652C828.243 157.886 826.723 156.743 824.543 156.752C822.328 156.743 820.834 157.886 820.852 159.652C820.834 161.199 822.021 162.271 823.84 162.482V164.205C822.293 164.249 820.808 164.258 819.533 164.258ZM819.814 155.838H829.236V154.713H825.229V152.832H823.84V154.713H819.814V155.838ZM822.135 159.652C822.144 158.562 823.093 157.824 824.543 157.824C825.967 157.824 826.925 158.562 826.934 159.652C826.925 160.733 825.967 161.445 824.543 161.428C823.093 161.445 822.144 160.733 822.135 159.652Z" fill="white"/>
<path fill-rule="evenodd" clip-rule="evenodd" d="M255.762 233.083C231.574 255.967 198.926 270 163 270C88.4416 270 28 209.558 28 135C28 60.4416 88.4416 0 163 0C198.94 0 231.6 14.0442 255.791 36.944C270.072 50.0982 292.824 62.5132 320.911 42.0655C340.616 26.9702 365.26 18 392 18C456.617 18 509 70.3827 509 135C509 199.617 456.617 252 392 252C365.272 252 340.637 243.037 320.937 227.954C293.149 207.724 268.801 221.353 255.762 233.083Z" fill="#FF8328"/>
<path d="M146.911 116.945H150.005C149.882 113.078 146.331 110.195 141.392 110.195C136.452 110.195 132.62 113.025 132.638 117.332C132.62 120.777 135.116 122.816 139.106 123.977L142.235 124.82C144.907 125.576 147.263 126.525 147.263 129.004C147.263 131.781 144.626 133.592 141.11 133.574C138.087 133.592 135.433 132.238 135.169 129.391H131.935C132.233 133.609 135.626 136.439 141.11 136.457C147.017 136.439 150.356 133.223 150.356 129.074C150.356 124.311 145.874 122.746 143.149 122.043L140.618 121.34C138.685 120.865 135.714 119.863 135.696 117.191C135.714 114.766 137.911 113.008 141.286 113.008C144.327 113.008 146.647 114.449 146.911 116.945ZM161.95 136.387C167.135 136.404 170.616 132.467 170.598 126.543C170.616 120.584 167.135 116.664 161.95 116.664C156.746 116.664 153.231 120.584 153.231 126.543C153.231 132.467 156.746 136.404 161.95 136.387ZM156.254 126.543C156.272 122.746 158.065 119.336 161.95 119.336C165.799 119.336 167.575 122.746 167.575 126.543C167.575 130.357 165.799 133.715 161.95 133.715C158.065 133.715 156.272 130.357 156.254 126.543ZM182.754 116.91H178.535V114.977C178.517 113.008 179.466 112.129 181.593 112.129C181.98 112.129 182.525 112.164 183.175 112.27V109.562C182.543 109.439 181.664 109.352 180.925 109.352C177.55 109.352 175.494 111.215 175.476 114.309V116.91H172.418V119.441H175.476V136H178.535V119.441H182.754V116.91ZM194.312 116.91H190.304V112.34H187.245V116.91H184.362V119.441H187.245V131.289C187.263 134.664 189.935 136.246 192.483 136.246C193.38 136.246 194.118 136.176 194.593 136.105V133.293C194.153 133.311 193.345 133.363 192.8 133.363C191.517 133.363 190.286 132.959 190.304 130.516V119.441H194.312V116.91Z" fill="white"/>
<path d="M111.125 156.998V154.15H109.772V156.998C109.754 159.854 107.944 162.852 105.658 163.977L106.537 165.084C108.295 164.144 109.772 162.166 110.466 159.863C111.16 162.034 112.602 163.889 114.324 164.785L115.168 163.678C112.945 162.588 111.125 159.749 111.125 156.998ZM116.61 168.424H117.981V160.338H120.6V159.143H117.981V152.797H116.61V168.424ZM134.078 152.797H132.707V168.424H134.078V152.797ZM121.352 164.258L121.562 165.436C124.463 165.436 128.286 165.383 131.775 164.82L131.67 163.766C130.228 163.959 128.699 164.064 127.187 164.135V162.482C129.042 162.271 130.255 161.199 130.246 159.652C130.255 157.886 128.726 156.743 126.467 156.752C124.208 156.743 122.705 157.886 122.723 159.652C122.705 161.217 123.918 162.289 125.799 162.482V164.188C124.217 164.24 122.687 164.249 121.352 164.258ZM121.686 155.855H131.266V154.73H127.187V152.814H125.799V154.73H121.686V155.855ZM124.006 159.652C123.997 158.562 125.017 157.824 126.467 157.824C127.926 157.824 128.936 158.562 128.928 159.652C128.936 160.733 127.926 161.445 126.467 161.428C125.017 161.445 123.997 160.733 124.006 159.652ZM142.072 155.68V155.012H145.57V153.887H137.15V155.012H140.683V155.697C140.683 157.903 139.013 159.986 136.711 160.812L137.431 161.902C139.286 161.217 140.736 159.775 141.413 157.982C142.081 159.591 143.443 160.9 145.201 161.533L145.922 160.443C143.636 159.652 142.072 157.71 142.072 155.68ZM139.084 164.135H148.207V168.424H149.595V162.992H139.084V164.135ZM145.078 158.053H148.207V162.166H149.595V152.797H148.207V156.893H145.078V158.053ZM160.978 156.189V155.996H163.808V154.871H160.978V152.99H159.677V154.871H156.794V155.996H159.677V156.189C159.659 158.176 158.473 160.065 156.478 160.883L157.163 161.92C158.719 161.252 159.817 159.986 160.362 158.457C160.916 159.863 162.006 161.032 163.526 161.639L164.194 160.566C162.208 159.837 160.978 158.035 160.978 156.189ZM159.097 164.346H168.272V168.424H169.626V163.221H159.097V164.346ZM164.933 162.307H166.269V158.141H168.308V162.377H169.626V152.814H168.308V156.998H166.269V153.096H164.933V162.307ZM184.633 152.814H183.262V161.744H184.633V152.814ZM172.1 157.297C172.091 159.441 173.823 160.936 176.196 160.936C178.569 160.936 180.283 159.441 180.292 157.297C180.283 155.117 178.569 153.641 176.196 153.641C173.823 153.641 172.091 155.117 172.1 157.297ZM173.454 157.297C173.436 155.838 174.588 154.81 176.196 154.818C177.787 154.81 178.938 155.838 178.938 157.297C178.938 158.747 177.787 159.767 176.196 159.758C174.588 159.767 173.436 158.747 173.454 157.297ZM174.473 168.213H184.633V162.588H174.473V168.213ZM175.827 167.088V163.713H183.28V167.088H175.827ZM204.4 152.814H203.012V155.732H199.364C199.496 155.179 199.566 154.59 199.566 153.975H192.447V155.135H198.064C197.791 157.842 195.427 159.96 191.656 161.076L192.236 162.166C195.585 161.173 197.993 159.354 199.022 156.84H203.012V158.949H198.863V160.092H203.012V162.201H204.4V152.814ZM194.064 165.348C194.056 167.22 196.086 168.354 199.285 168.354C202.449 168.354 204.488 167.22 204.488 165.348C204.488 163.484 202.449 162.359 199.285 162.359C196.086 162.359 194.056 163.484 194.064 165.348ZM195.418 165.348C195.427 164.17 196.93 163.458 199.285 163.467C201.606 163.458 203.108 164.17 203.117 165.348C203.108 166.525 201.606 167.237 199.285 167.229C196.93 167.237 195.427 166.525 195.418 165.348ZM211.129 153.746C208.791 153.737 207.059 155.267 207.068 157.455C207.059 159.626 208.791 161.155 211.129 161.146C212.447 161.155 213.572 160.654 214.293 159.828H218.388V162.061H219.777V152.797H218.388V155.064H214.293C213.563 154.238 212.447 153.737 211.129 153.746ZM208.386 157.455C208.386 155.97 209.529 154.933 211.129 154.941C212.676 154.933 213.836 155.97 213.836 157.455C213.836 158.905 212.676 159.978 211.129 159.969C209.529 159.978 208.386 158.905 208.386 157.455ZM209.353 165.4C209.344 167.299 211.348 168.389 214.592 168.389C217.826 168.389 219.83 167.299 219.83 165.4C219.83 163.52 217.826 162.43 214.592 162.43C211.348 162.43 209.344 163.52 209.353 165.4ZM210.707 165.4C210.698 164.214 212.192 163.511 214.592 163.502C216.991 163.511 218.485 164.214 218.476 165.4C218.485 166.578 216.991 167.29 214.592 167.281C212.192 167.29 210.698 166.578 210.707 165.4ZM214.952 156.189H218.388V158.686H214.961C215.092 158.308 215.172 157.895 215.172 157.455C215.172 156.998 215.092 156.576 214.952 156.189Z" fill="white"/>
<path d="M371.247 110.547V136H374.235V116.77H374.446L382.356 136H385.169L393.079 116.77H393.325V136H396.313V110.547H392.517L383.938 131.5H383.622L375.044 110.547H371.247ZM401.192 136H404.215V116.91H401.192V136ZM400.594 111.742C400.576 112.85 401.543 113.746 402.703 113.746C403.864 113.746 404.83 112.85 404.848 111.742C404.83 110.617 403.864 109.721 402.703 109.738C401.543 109.721 400.576 110.617 400.594 111.742ZM411.695 110.547H408.672V136H411.695V110.547ZM419.175 110.547H416.151V136H419.175V110.547Z" fill="white"/>
<path d="M366.852 152.797H365.464V168.424H366.852V152.797ZM354.126 164.363L354.882 165.488C360.12 162.975 362.212 158.993 362.229 154.502H354.846V155.627H360.823C360.515 159.362 358.353 162.359 354.126 164.363ZM372.579 153.43H371.208V159.67H375.743V161.34H369.309V162.482H383.547V161.34H377.114V159.67H381.684V153.43H380.313V155.416H372.579V153.43ZM371.155 168.09H381.965V166.93H372.543V163.73H371.155V168.09ZM372.579 158.562V156.506H380.313V158.562H372.579ZM398.08 152.797H396.744V168.424H398.08V152.797ZM384.879 159.547C384.888 162.869 386.206 164.987 388.236 164.979C390.161 164.987 391.471 163.08 391.603 160.039H393.615V167.633H394.934V153.131H393.615V158.896H391.594C391.418 155.952 390.135 154.124 388.236 154.115C386.206 154.124 384.888 156.225 384.879 159.547ZM386.18 159.547C386.162 157.007 386.971 155.416 388.236 155.416C389.511 155.416 390.319 157.007 390.311 159.547C390.319 162.078 389.511 163.678 388.236 163.66C386.971 163.678 386.162 162.078 386.18 159.547ZM418.638 160.531H404.4V161.639H410.834V163.229C407.854 163.353 406.114 164.24 406.123 165.805C406.114 167.483 408.118 168.389 411.519 168.389C414.903 168.389 416.88 167.483 416.898 165.805C416.88 164.24 415.158 163.344 412.187 163.229V161.639H418.638V160.531ZM405.226 158.615L405.666 159.688C408.25 159.424 410.561 158.492 411.519 156.91C412.468 158.492 414.789 159.424 417.373 159.688L417.794 158.615C414.894 158.343 412.424 157.183 412.284 155.451H417.197V154.326H412.187V152.762H410.834V154.326H405.876V155.451H410.754C410.596 157.183 408.135 158.343 405.226 158.615ZM407.529 165.805C407.511 164.82 408.988 164.267 411.519 164.258C414.024 164.267 415.501 164.82 415.509 165.805C415.501 166.789 414.024 167.334 411.519 167.316C408.988 167.334 407.511 166.789 407.529 165.805ZM432.661 152.797H431.308V160.9H432.661V152.797ZM419.882 159.652L420.603 160.742C422.457 160.074 423.925 158.642 424.628 156.822C425.331 158.51 426.781 159.819 428.618 160.443L429.304 159.371C426.984 158.606 425.296 156.655 425.314 154.449V153.254H423.907V154.449C423.907 156.743 422.238 158.835 419.882 159.652ZM422.519 162.799H431.308V164.363H422.554V168.248H433.241V167.123H423.907V165.436H432.679V161.691H422.519V162.799Z" fill="white"/>
<circle cx="500" cy="243" r="9" fill="#FF843F"/>
<circle cx="18" cy="51" r="9" fill="#FF843F"/>
<circle cx="4" cy="35" r="4" fill="#FF843F"/>
<path d="M565 146H597L588.5 136" stroke="#FF5F00" stroke-width="2"/>
</svg>
