<svg width="262" height="100" viewBox="0 0 262 100" fill="none" xmlns="http://www.w3.org/2000/svg">
<g clip-path="url(#clip0_976_26627)">
<path d="M9.97847 28.6721C9.31591 29.7556 8.70355 31.0497 8.13135 32.5445C7.55914 34.0393 7.06724 35.6545 6.63558 37.37C6.21395 39.0955 5.88268 40.8812 5.64175 42.7472C5.40082 44.6131 5.28036 46.449 5.28036 48.2448C5.28036 50.0405 5.40082 51.8162 5.64175 53.622C5.88268 55.4378 6.21395 57.1934 6.63558 58.8888C7.0572 60.5842 7.55914 62.1693 8.13135 63.6541C8.70355 65.1388 9.31591 66.4229 9.97847 67.5064H4.80854C4.22629 66.6537 3.65409 65.5401 3.08188 64.1557C2.50967 62.7612 1.9977 61.2062 1.53592 59.4907C1.07414 57.7752 0.702709 55.9394 0.421625 54.0132C0.140542 52.077 0 50.1609 0 48.2548C0 46.3487 0.140542 44.3322 0.431664 42.376C0.722786 40.4197 1.09422 38.5638 1.54596 36.8182C1.9977 35.0726 2.50967 33.4976 3.09192 32.0931C3.67416 30.6886 4.25641 29.5449 4.83865 28.6721H9.96843H9.97847Z" fill="black"/>
<path d="M43.274 51.0736C43.8061 51.0736 44.1374 51.2742 44.288 51.6655C44.4385 52.0668 44.5088 52.6486 44.5088 53.4111C44.5088 54.1735 44.4385 54.7554 44.288 55.1366C44.1474 55.5178 43.8061 55.7084 43.274 55.7084H30.0029V64.6069C30.0029 65.0583 29.762 65.3593 29.2901 65.5198C28.8083 65.6803 28.1256 65.7606 27.2222 65.7606C26.3789 65.7606 25.7164 65.6904 25.2345 65.5399C24.7627 65.3894 24.5218 65.0985 24.5218 64.647V55.7084H10.3672V51.0635H43.274V51.0736ZM38.8671 32.2935C39.3991 32.2935 39.7304 32.4941 39.881 32.8854C40.0315 33.2867 40.1018 33.8685 40.1018 34.631C40.1018 35.3934 40.0315 35.9753 39.881 36.3565C39.7404 36.7377 39.3991 36.9283 38.8671 36.9283H30.3643C30.7658 37.7208 31.3782 38.4733 32.2114 39.1956C33.0446 39.9078 33.9581 40.58 34.952 41.202C35.9458 41.824 36.9497 42.3958 37.9736 42.9074C38.9976 43.4191 39.8709 43.8505 40.6138 44.2016C40.9551 44.3621 41.1258 44.5928 41.1057 44.8938C41.0956 45.1948 40.8848 45.7265 40.4933 46.4588C40.2825 46.8501 40.1018 47.1711 39.9613 47.4119C39.8107 47.6526 39.6802 47.8232 39.5396 47.9235C39.4091 48.0339 39.2686 48.084 39.118 48.084C38.9674 48.084 38.8068 48.0439 38.6261 47.9636C37.803 47.7028 36.8694 47.3316 35.8253 46.8701C34.7813 46.4087 33.7272 45.8569 32.6631 45.2249C31.599 44.5928 30.5952 43.8806 29.6415 43.0981C28.6878 42.3155 27.9048 41.4929 27.2924 40.6201C26.6299 41.5431 25.8167 42.3958 24.8631 43.1783C23.9094 43.9608 22.9256 44.6731 21.9017 45.3051C20.8777 45.9371 19.8839 46.4989 18.9202 46.9704C17.9564 47.442 17.1132 47.8533 16.4004 48.2044C16.1896 48.3147 15.9989 48.3749 15.8282 48.385C15.6576 48.405 15.4869 48.3448 15.3163 48.2245C15.1456 48.1041 14.9549 47.9135 14.7641 47.6526C14.5634 47.3918 14.3325 47.0206 14.0715 46.5391C13.6498 45.7967 13.419 45.255 13.3989 44.9139C13.3688 44.5728 13.5796 44.2818 14.0313 44.0411C14.7742 43.6398 15.6275 43.1883 16.5912 42.6867C17.5549 42.1851 18.5186 41.6334 19.4723 41.0415C20.426 40.4496 21.2993 39.8075 22.0924 39.1153C22.8854 38.4231 23.4878 37.7008 23.8793 36.9283H14.7842V32.2834H38.8671V32.2935Z" fill="black"/>
<path d="M50.0321 28.6721C50.6144 29.5449 51.1966 30.6886 51.7789 32.0931C52.3611 33.4976 52.8731 35.0726 53.3248 36.8182C53.7766 38.5638 54.148 40.4197 54.4391 42.376C54.7302 44.3322 54.8808 46.2985 54.8808 48.2548C54.8808 50.211 54.7403 52.087 54.4592 54.0132C54.1781 55.9494 53.8067 57.7752 53.3449 59.4907C52.8831 61.2163 52.3611 62.7712 51.7989 64.1557C51.2267 65.5501 50.6545 66.6637 50.0723 67.5064H44.9023C45.5649 66.4229 46.1773 65.1388 46.7495 63.6541C47.3217 62.1693 47.8136 60.5842 48.2452 58.8888C48.6669 57.1934 48.9981 55.4378 49.2391 53.622C49.48 51.8062 49.6005 50.0104 49.6005 48.2448C49.6005 46.4791 49.48 44.6131 49.2391 42.7472C48.9981 40.8812 48.6669 39.0854 48.2452 37.37C47.8236 35.6545 47.3217 34.0393 46.7495 32.5445C46.1773 31.0497 45.5649 29.7556 44.9023 28.6721H50.0321Z" fill="black"/>
<path d="M63.3444 38.3233V50.3217C63.3444 50.9337 63.6355 51.2346 64.2178 51.2346H73.0016C73.4534 51.2346 73.7445 51.4353 73.875 51.8265C74.0055 52.2278 74.0758 52.7896 74.0758 53.532C74.0758 54.2744 74.0055 54.8863 73.875 55.2776C73.7445 55.6688 73.4534 55.8695 73.0016 55.8695H62.9027C62.3707 55.8695 61.7884 55.6688 61.156 55.2776C60.5235 54.8763 59.9814 54.4549 59.5297 54.0035C59.1081 53.5521 58.7166 53.0605 58.3753 52.5187C58.0339 51.977 57.8633 51.5055 57.8633 51.1143V33.6785H71.9677C72.4194 33.6785 72.7105 33.8791 72.841 34.2704C72.9715 34.6716 73.0418 35.2334 73.0418 35.9758C73.0418 36.7182 72.9715 37.3301 72.841 37.7214C72.7105 38.1227 72.4194 38.3133 71.9677 38.3133H63.3444V38.3233ZM89.3748 63.7045C89.3748 64.156 89.1439 64.4469 88.6821 64.5773C88.2203 64.7078 87.5577 64.778 86.7145 64.778C85.8712 64.778 85.2488 64.7078 84.7871 64.5773C84.3253 64.4469 84.0944 64.156 84.0944 63.7045V46.7804H81.0326V63.3434C81.0326 63.7647 80.8117 64.0456 80.3801 64.1761C79.9484 64.3065 79.2959 64.3767 78.4527 64.3767C77.6094 64.3767 76.997 64.3065 76.5453 64.1761C76.0936 64.0456 75.8727 63.7647 75.8727 63.3434V31.3309H81.0426V42.1355H84.1044V30.9397H89.3848V63.7045H89.3748Z" fill="black"/>
<path d="M92.0469 51.545V47.2211H124.954C125.486 47.2211 125.817 47.3917 125.968 47.7328C126.118 48.0738 126.188 48.6356 126.188 49.3981C126.188 50.1605 126.118 50.7123 125.968 51.0433C125.817 51.3744 125.486 51.5349 124.954 51.5349H92.0469V51.545ZM117.917 38.9145C117.917 39.9478 117.676 40.8708 117.204 41.6734C116.722 42.486 116.08 43.1681 115.256 43.7199C114.433 44.2717 113.469 44.7031 112.355 44.994C111.241 45.2849 110.036 45.4354 108.741 45.4354C107.446 45.4354 106.282 45.2849 105.167 44.994C104.053 44.7031 103.089 44.2817 102.266 43.7199C101.443 43.1681 100.801 42.486 100.319 41.6734C99.8469 40.8608 99.606 39.9478 99.606 38.9145C99.606 38.0718 99.7867 37.2693 100.158 36.5269H96.0624V32.2733H106.201V29.053H111.492V32.2733H120.948C121.48 32.2733 121.812 32.4338 121.962 32.7649C122.113 33.0959 122.183 33.6477 122.183 34.4101C122.183 35.1726 122.113 35.7243 121.962 36.0353C121.812 36.3563 121.48 36.5068 120.948 36.5068H117.375C117.746 37.2492 117.927 38.0417 117.927 38.8945L117.917 38.9145ZM119.312 60.6441C119.312 61.858 119.011 62.9314 118.419 63.8443C117.826 64.7572 117.033 65.5197 116.049 66.1316C115.066 66.7436 113.961 67.195 112.707 67.506C111.462 67.807 110.187 67.9675 108.892 67.9675C107.597 67.9675 106.322 67.817 105.077 67.506C103.832 67.2051 102.718 66.7436 101.734 66.1316C100.75 65.5197 99.9674 64.7572 99.3751 63.8443C98.7828 62.9314 98.4817 61.868 98.4817 60.6441C98.4817 59.4202 98.7828 58.3567 99.3751 57.4438C99.9674 56.5309 100.76 55.7685 101.734 55.1565C102.718 54.5445 103.822 54.0931 105.077 53.7821C106.322 53.4811 107.597 53.3307 108.892 53.3307C110.187 53.3307 111.462 53.4811 112.707 53.7821C113.951 54.0831 115.066 54.5445 116.049 55.1565C117.033 55.7685 117.816 56.5309 118.419 57.4438C119.011 58.3567 119.312 59.4202 119.312 60.6441ZM113.911 60.6441C113.911 59.8014 113.449 59.0891 112.516 58.5173C111.592 57.9454 110.398 57.6645 108.942 57.6645C107.486 57.6645 106.211 57.9454 105.288 58.5173C104.364 59.0891 103.893 59.7913 103.893 60.6441C103.893 61.4968 104.354 62.199 105.288 62.7709C106.211 63.3427 107.436 63.6236 108.942 63.6236C110.448 63.6236 111.592 63.3427 112.516 62.7709C113.439 62.199 113.911 61.4968 113.911 60.6441ZM112.556 38.9145C112.556 38.122 112.195 37.5201 111.482 37.1288C110.769 36.7275 109.856 36.5369 108.741 36.5369C107.547 36.5369 106.623 36.7376 105.961 37.1489C105.298 37.5602 104.967 38.1521 104.967 38.9145C104.967 39.677 105.318 40.309 106.021 40.7002C106.723 41.1015 107.627 41.2921 108.741 41.2921C109.856 41.2921 110.769 41.0915 111.482 40.7002C112.195 40.299 112.556 39.7071 112.556 38.9145Z" fill="black"/>
<path d="M139.881 48.7656H145.362V56.6307H158.633C159.165 56.6307 159.497 56.8314 159.647 57.2226C159.798 57.6239 159.868 58.2058 159.868 58.9682C159.868 59.7307 159.798 60.3125 159.647 60.6937C159.497 61.075 159.165 61.2656 158.633 61.2656H125.727V56.6207H139.881V48.7555V48.7656ZM153.945 50.0697C152.992 49.6986 151.988 49.227 150.924 48.6452C149.86 48.0633 148.836 47.4112 147.822 46.699C146.818 45.9867 145.884 45.2142 145.021 44.3916C144.158 43.5689 143.455 42.7363 142.893 41.8936C142.361 42.7463 141.648 43.589 140.744 44.4317C139.841 45.2844 138.867 46.087 137.823 46.8494C136.779 47.6219 135.715 48.3141 134.641 48.9361C133.567 49.5581 132.593 50.0597 131.72 50.4209C131.218 50.6315 130.786 50.5914 130.445 50.2804C130.103 49.9794 129.742 49.5481 129.371 48.9863C128.919 48.2941 128.668 47.7624 128.618 47.3811C128.568 46.9999 128.738 46.699 129.13 46.4883C131.248 45.4048 133.155 44.2511 134.832 43.0372C136.508 41.8234 137.753 40.5693 138.546 39.3053C139.078 38.4626 139.409 37.64 139.54 36.8675C139.67 36.085 139.741 35.3125 139.741 34.54V32.6741H145.463V34.7006C145.463 35.5232 145.533 36.2756 145.663 36.9678C145.794 37.66 146.125 38.4225 146.657 39.2752C147.129 39.9373 147.741 40.5994 148.484 41.2616C149.227 41.9237 150.02 42.5557 150.874 43.1677C151.717 43.7796 152.6 44.3414 153.494 44.8731C154.397 45.4048 155.24 45.8563 156.043 46.2274C156.495 46.4381 156.706 46.729 156.676 47.0802C156.646 47.4413 156.455 47.953 156.084 48.6051C155.712 49.2973 155.391 49.7688 155.13 50.0196C154.859 50.2704 154.467 50.2904 153.935 50.0798L153.945 50.0697Z" fill="black"/>
<path d="M194.891 56.6321C195.423 56.6321 195.755 56.8327 195.905 57.2239C196.046 57.6252 196.126 58.2071 196.126 58.9695C196.126 59.732 196.056 60.3138 195.905 60.6951C195.755 61.0763 195.423 61.2669 194.891 61.2669H161.984V56.622H194.891V56.6321ZM186.9 37.852V46.7906H191.157C191.689 46.7906 192.02 46.9812 192.171 47.3624C192.311 47.7436 192.392 48.3255 192.392 49.0879C192.392 49.8504 192.321 50.4222 192.171 50.7934C192.02 51.1646 191.689 51.3552 191.157 51.3552H165.638V46.7906H170.286V37.852H165.638V33.2874H191.157C191.689 33.2874 192.02 33.478 192.171 33.8592C192.311 34.2404 192.392 34.8223 192.392 35.5847C192.392 36.3471 192.321 36.919 192.171 37.2902C192.02 37.6613 191.689 37.852 191.157 37.852H186.9ZM181.61 37.852H175.567V46.7906H181.61V37.852Z" fill="black"/>
<path d="M231.161 56.6326C231.693 56.6326 232.024 56.8332 232.175 57.2245C232.325 57.6258 232.396 58.2076 232.396 58.9701C232.396 59.7325 232.325 60.3144 232.175 60.6956C232.034 61.0768 231.693 61.2674 231.161 61.2674H198.254V56.6226H231.161V56.6326ZM225.158 40.511C225.69 40.511 226.021 40.6916 226.172 41.0527C226.322 41.4139 226.392 41.9757 226.392 42.7381C226.392 43.5006 226.322 44.0624 226.172 44.4035C226.021 44.7445 225.69 44.9151 225.158 44.9151H208.503V47.1422C208.503 47.4332 208.554 47.6238 208.664 47.7141C208.774 47.8043 208.925 47.8545 209.146 47.8545H226.151C226.683 47.8545 227.015 48.0351 227.165 48.3962C227.316 48.7574 227.386 49.3192 227.386 50.0816C227.386 50.8441 227.316 51.4059 227.165 51.747C227.015 52.0881 226.683 52.2586 226.151 52.2586H208.072C207.57 52.2586 207.028 52.0479 206.466 51.6266C205.893 51.2052 205.381 50.7638 204.94 50.3124C204.548 49.9111 204.157 49.4596 203.785 48.938C203.414 48.4263 203.233 47.9548 203.233 47.5234V33.2678H225.569C226.101 33.2678 226.433 33.4484 226.583 33.7995C226.734 34.1607 226.804 34.7225 226.804 35.4849C226.804 36.2474 226.734 36.8092 226.583 37.1502C226.433 37.4913 226.101 37.6619 225.569 37.6619H208.523V40.4809H225.178L225.158 40.511Z" fill="black"/>
<path d="M236.723 47.2609C236.221 47.2609 235.658 47.0703 235.056 46.689C234.444 46.3078 233.912 45.8865 233.47 45.435C233.048 45.0137 232.667 44.5321 232.336 43.9804C232.004 43.4386 231.844 42.9471 231.844 42.4956V31.059H250.245V44.2412C250.245 45.1642 250.014 45.9065 249.552 46.4483C249.09 46.99 248.377 47.2609 247.424 47.2609H236.733H236.723ZM244.954 35.423H237.124V42.0542C237.124 42.606 237.405 42.8869 237.957 42.8869H244.954V35.423ZM241.772 67.1144C241.32 67.1144 240.869 66.9739 240.397 66.6931C239.935 66.4122 239.513 66.0911 239.142 65.7199C238.69 65.2685 238.309 64.8271 238.008 64.3857C237.706 63.9543 237.546 63.543 237.546 63.1718V56.38H255.435V54.1529H237.546V49.9495H259.129C259.761 49.9495 260.203 50.0498 260.434 50.2504C260.675 50.4511 260.795 50.8524 260.795 51.4643V60.5233H242.947V61.998C242.947 62.2388 243.017 62.4495 243.147 62.63C243.278 62.8106 243.519 62.9109 243.86 62.9109H261.026C261.448 62.9109 261.719 63.1116 261.819 63.5028C261.92 63.9041 261.98 64.4057 261.98 65.0077C261.98 65.6999 261.93 66.2215 261.819 66.5727C261.709 66.9338 261.448 67.1144 261.026 67.1144H241.752H241.772ZM261.207 47.2609C261.207 47.7324 260.966 48.0634 260.494 48.234C260.022 48.4045 259.36 48.4948 258.507 48.4948C257.653 48.4948 257.001 48.4045 256.519 48.234C256.047 48.0634 255.806 47.7324 255.806 47.2609V30.5374H261.207V47.2609Z" fill="black"/>
<path d="M19.6634 88.0006C19.6634 88.9738 19.4827 89.9268 19.1313 90.8498C18.7699 91.7727 18.278 92.5953 17.6456 93.3076C17.0132 94.0299 16.2502 94.6118 15.3769 95.0432C14.5035 95.4746 13.5398 95.6953 12.5058 95.6953H7.19531V80.2559H12.5058C13.4896 80.2559 14.4232 80.4665 15.2965 80.8879C16.1699 81.3092 16.9329 81.8811 17.5854 82.5933C18.2178 83.3056 18.7298 84.1283 19.1012 85.0612C19.4726 85.9942 19.6634 86.9774 19.6634 88.0006ZM9.15286 81.9112V94.04H12.4957C13.2386 94.04 13.9212 93.8694 14.5436 93.5384C15.1761 93.1973 15.7182 92.7458 16.19 92.174C16.6618 91.6122 17.0232 90.9701 17.2842 90.2478C17.5452 89.5255 17.6757 88.7731 17.6757 87.9906C17.6757 87.2081 17.5452 86.4557 17.2942 85.7234C17.0433 84.991 16.6919 84.3389 16.2301 83.7671C15.7583 83.2053 15.2162 82.7639 14.5738 82.4128C13.9413 82.0717 13.2486 81.9011 12.4957 81.9011H9.15286V81.9112Z" fill="black"/>
<path d="M26.8607 95.8767C26.1881 95.8767 25.5255 95.7463 24.883 95.4855C24.2406 95.2247 23.6784 94.8635 23.1765 94.392C22.6745 93.9205 22.2629 93.3687 21.9618 92.7367C21.6606 92.1047 21.5 91.4125 21.5 90.6801C21.5 89.9779 21.6405 89.3158 21.9317 88.6737C22.2127 88.0417 22.6043 87.4799 23.0962 86.9983C23.578 86.5168 24.1402 86.1356 24.7927 85.8647C25.4452 85.5838 26.1278 85.4434 26.8506 85.4434C27.1317 85.4434 27.4429 85.4835 27.7742 85.5637C28.1055 85.644 28.4267 85.7443 28.7379 85.8747C29.0491 86.0052 29.3402 86.1657 29.6113 86.3463C29.8823 86.5369 30.1132 86.7275 30.2939 86.9381V85.5337H32.2213V95.6861H30.2939V94.402C29.8924 94.8836 29.3703 95.2447 28.7178 95.4955C28.0653 95.7463 27.4429 95.8667 26.8506 95.8667L26.8607 95.8767ZM26.8607 87.0886C26.3989 87.0886 25.9471 87.1789 25.5255 87.3495C25.1039 87.52 24.7325 87.7708 24.4313 88.0818C24.1101 88.4028 23.8491 88.7841 23.6583 89.2255C23.4676 89.6669 23.3772 90.1484 23.3772 90.6801C23.3772 91.2118 23.4676 91.6934 23.6583 92.1247C23.8491 92.5561 24.1 92.9273 24.4313 93.2383C24.7425 93.5493 25.1039 93.7901 25.5255 93.9706C25.9471 94.1412 26.3888 94.2315 26.8607 94.2315C27.3325 94.2315 27.7943 94.1412 28.2159 93.9706C28.6375 93.8001 29.0089 93.5493 29.3302 93.2383C29.6414 92.9273 29.8924 92.5561 30.0831 92.1247C30.2738 91.6934 30.3642 91.2118 30.3642 90.6801C30.3541 90.1384 30.2437 89.6368 30.053 89.1954C29.8622 88.7439 29.6012 88.3727 29.29 88.0617C28.9688 87.7507 28.5974 87.51 28.1757 87.3394C27.7641 87.1689 27.3224 87.0886 26.8506 87.0886H26.8607Z" fill="black"/>
<path d="M39.2571 85.3521C40.0702 85.3521 40.793 85.4925 41.4154 85.7935C42.0378 86.0844 42.5598 86.4958 42.9915 87.0074C43.4031 87.5291 43.7243 88.141 43.9351 88.8533C44.1459 89.5656 44.2564 90.3481 44.2564 91.1908H36.2555C36.2555 91.582 36.3459 91.9532 36.5266 92.3043C36.7073 92.6655 36.9582 92.9765 37.2694 93.2474C37.5706 93.5182 37.9219 93.7389 38.3235 93.8994C38.725 94.06 39.1567 94.1402 39.6084 94.1402C40.1405 94.1402 40.6926 94.0098 41.2548 93.759C41.817 93.5082 42.2988 93.1169 42.7004 92.6053L43.8648 93.7289C43.3328 94.3509 42.7004 94.8425 41.9776 95.2137C41.2548 95.5848 40.4617 95.7654 39.5984 95.7654C38.9158 95.7654 38.2532 95.635 37.6107 95.3842C36.9783 95.1334 36.4061 94.7722 35.9142 94.3007C35.4123 93.8493 35.0107 93.2975 34.7096 92.6555C34.4084 92.0134 34.2578 91.3011 34.2578 90.5287C34.2578 89.8164 34.3783 89.1442 34.6092 88.5022C34.8401 87.8702 35.1713 87.3184 35.603 86.8469C36.0347 86.3854 36.5567 86.0142 37.169 85.7434C37.7814 85.4725 38.4741 85.332 39.237 85.332L39.2571 85.3521ZM42.2185 89.5756C42.2185 89.2245 42.1382 88.8934 41.9675 88.5724C41.7969 88.2514 41.576 87.9805 41.305 87.7498C41.0339 87.519 40.7227 87.3284 40.3613 87.198C39.9999 87.0576 39.6386 86.9974 39.2571 86.9974C38.8756 86.9974 38.4941 87.0676 38.1328 87.198C37.7714 87.3385 37.4501 87.519 37.1791 87.7498C36.898 87.9805 36.6671 88.2514 36.5065 88.5624C36.3459 88.8734 36.2656 89.2145 36.2656 89.5756H42.2185Z" fill="black"/>
<path d="M55.6239 95.6962H53.6764V89.6669C53.6764 88.8944 53.4254 88.2523 52.9335 87.7708C52.4416 87.2893 51.7691 87.0385 50.9258 87.0385C50.5845 87.0385 50.2532 87.1087 49.9219 87.2592C49.5907 87.4096 49.2995 87.6003 49.0385 87.831C48.7775 88.0818 48.5667 88.3627 48.4161 88.6737C48.2555 88.9947 48.1852 89.3157 48.1852 89.6568V95.6861H46.2578V79.8555H48.1852V86.7576C48.376 86.4967 48.6069 86.286 48.8578 86.1055C49.1088 85.9349 49.3698 85.7945 49.6308 85.6841C49.8818 85.5838 50.1227 85.5035 50.3636 85.4634C50.6046 85.4133 50.8154 85.3932 50.9961 85.3932C51.6687 85.3932 52.2911 85.5035 52.8633 85.7142C53.4355 85.9249 53.9274 86.2259 54.339 86.597C54.7405 86.9883 55.0517 87.4397 55.2826 87.9614C55.5135 88.4831 55.6239 89.0449 55.6239 89.6568V95.6861V95.6962Z" fill="black"/>
<path d="M58.3438 85.4941H60.2712V91.694C60.2712 92.4665 60.5221 93.0985 61.0341 93.56C61.5361 94.0315 62.1986 94.2622 63.0218 94.2622C63.3731 94.2622 63.7044 94.202 64.0357 94.0716C64.3569 93.9412 64.6481 93.7606 64.9091 93.5299C65.1701 93.2991 65.3708 93.0282 65.5315 92.7173C65.6921 92.4063 65.7624 92.0652 65.7624 91.704V85.5042H67.7099V95.7169H65.7624V94.5933C65.5817 94.834 65.3708 95.0447 65.1199 95.2153C64.8689 95.3858 64.6179 95.5162 64.3569 95.6266C64.0959 95.7269 63.845 95.8071 63.594 95.8473C63.343 95.8974 63.1322 95.9175 62.9515 95.9175C62.289 95.9175 61.6766 95.8172 61.1245 95.6065C60.5723 95.3958 60.0804 95.1149 59.6689 94.7538C59.2573 94.3826 58.926 93.9311 58.6951 93.4195C58.4642 92.9079 58.3438 92.3461 58.3438 91.714V85.5142V85.4941Z" fill="black"/>
<path d="M79.2835 95.6972H77.336V89.6077C77.336 89.2265 77.2758 88.8854 77.1453 88.5644C77.0148 88.2434 76.8241 87.9725 76.5831 87.7418C76.3322 87.5211 76.041 87.3505 75.7098 87.2301C75.3684 87.1098 75.007 87.0496 74.6055 87.0496C74.2642 87.0496 73.9329 87.1098 73.6016 87.2402C73.2703 87.3706 72.9792 87.5512 72.7182 87.7819C72.4572 88.0126 72.2564 88.2835 72.0958 88.5945C71.9352 88.9055 71.8649 89.2466 71.8649 89.6077V95.6972H69.9375V85.5447H71.8649V86.7486C72.0456 86.4978 72.2564 86.2871 72.5074 86.1166C72.7584 85.946 73.0093 85.8056 73.2703 85.6952C73.5314 85.5949 73.7823 85.5146 74.0333 85.4745C74.2843 85.4344 74.4951 85.4043 74.6758 85.4043C75.3383 85.4043 75.9507 85.5046 76.5129 85.7153C77.075 85.926 77.5669 86.2069 77.9785 86.568C78.3901 86.9492 78.7214 87.3907 78.9523 87.9023C79.1831 88.4139 79.3036 88.9858 79.3036 89.6077V95.6972H79.2835Z" fill="black"/>
<path d="M86.6888 95.8767C86.0162 95.8767 85.3536 95.7463 84.7112 95.4855C84.0687 95.2247 83.4965 94.8635 83.0046 94.392C82.5027 93.9205 82.0911 93.3687 81.7899 92.7367C81.4888 92.1047 81.3281 91.4125 81.3281 90.6801C81.3281 89.9779 81.4687 89.3158 81.7598 88.6737C82.0409 88.0417 82.4324 87.4799 82.9243 86.9983C83.4061 86.5168 83.9683 86.1356 84.6208 85.8647C85.2733 85.5838 85.956 85.4434 86.6888 85.4434C86.9699 85.4434 87.2811 85.4835 87.6124 85.5637C87.9436 85.644 88.2649 85.7443 88.5761 85.8747C88.8873 86.0052 89.1784 86.1657 89.4494 86.3462C89.7205 86.5369 89.9514 86.7275 90.1321 86.9381V85.5337H92.0595V94.9638C92.0495 95.7263 91.8989 96.4185 91.6178 97.0405C91.3367 97.6625 90.9452 98.1942 90.4734 98.6356C89.9815 99.067 89.3992 99.398 88.7367 99.6287C88.0641 99.8595 87.3413 99.9799 86.5483 99.9799C85.6347 99.9799 84.8216 99.7993 84.0888 99.4482C83.3559 99.087 82.6934 98.6055 82.1111 97.9835L83.3559 96.8198C83.7475 97.2311 84.2193 97.5922 84.7714 97.8932C85.3336 98.1942 85.9158 98.3547 86.5382 98.3547C87.0401 98.3547 87.512 98.2844 87.9436 98.154C88.3753 98.0236 88.7467 97.8029 89.068 97.522C89.3892 97.2411 89.6502 96.88 89.8409 96.4586C90.0317 96.0373 90.1321 95.5457 90.1421 94.9739V94.4121C89.7406 94.8936 89.2185 95.2548 88.566 95.5056C87.9135 95.7564 87.2911 95.8767 86.6988 95.8767H86.6888ZM86.6888 87.0886C86.217 87.0886 85.7753 87.1789 85.3536 87.3495C84.932 87.52 84.5706 87.7708 84.2594 88.0818C83.9382 88.4028 83.6772 88.7841 83.4864 89.2255C83.2957 89.6669 83.2054 90.1484 83.2054 90.6801C83.2054 91.2118 83.2957 91.6934 83.4864 92.1247C83.6772 92.5561 83.9282 92.9273 84.2594 93.2383C84.5706 93.5493 84.9421 93.7901 85.3536 93.9706C85.7753 94.1412 86.217 94.2315 86.6888 94.2315C87.1606 94.2315 87.6224 94.1412 88.044 93.9706C88.4656 93.8001 88.8371 93.5493 89.1583 93.2383C89.4695 92.9273 89.7205 92.5561 89.9112 92.1247C90.1019 91.6934 90.1923 91.2118 90.1923 90.6801C90.1823 90.1384 90.0718 89.6368 89.8811 89.1954C89.6904 88.7439 89.4294 88.3727 89.1182 88.0617C88.7969 87.7507 88.4255 87.51 88.0139 87.3394C87.6023 87.1689 87.1606 87.0886 86.6888 87.0886Z" fill="black"/>
<path d="M107.411 80.166C108.344 80.166 109.228 80.3667 110.071 80.778C110.904 81.1893 111.577 81.7812 112.069 82.5737L110.704 83.6471C110.513 83.3863 110.282 83.1455 110.011 82.9248C109.74 82.7041 109.459 82.5135 109.168 82.363C108.856 82.2025 108.535 82.0821 108.214 81.9919C107.893 81.9016 107.571 81.8514 107.26 81.8514C106.949 81.8514 106.668 81.9016 106.367 81.9919C106.066 82.0922 105.795 82.2326 105.554 82.4132C105.303 82.6138 105.112 82.8446 104.961 83.1154C104.811 83.3863 104.741 83.6973 104.741 84.0284C104.71 84.8008 104.921 85.4028 105.373 85.8241C105.825 86.2455 106.457 86.5364 107.29 86.7069C108.003 86.8273 108.686 87.0179 109.338 87.2788C109.991 87.5496 110.553 87.8807 111.055 88.302C111.537 88.7134 111.908 89.2049 112.189 89.7667C112.47 90.3285 112.591 90.9706 112.571 91.6829C112.541 92.2948 112.38 92.8566 112.079 93.3683C111.778 93.8799 111.376 94.3213 110.884 94.7025C110.392 95.0637 109.83 95.3546 109.188 95.5653C108.555 95.776 107.883 95.8863 107.18 95.8863C106.126 95.8863 105.132 95.6656 104.198 95.2242C103.255 94.7828 102.502 94.1207 101.93 93.2178L103.355 92.0942C103.767 92.7663 104.329 93.288 105.032 93.6592C105.734 94.0304 106.447 94.211 107.19 94.211C107.581 94.211 107.973 94.1508 108.364 94.0404C108.756 93.92 109.117 93.7595 109.449 93.5388C109.76 93.3181 110.021 93.0472 110.222 92.7362C110.422 92.4152 110.533 92.0541 110.563 91.6528C110.573 91.2114 110.493 90.8101 110.302 90.4489C110.111 90.0878 109.86 89.7667 109.549 89.4959C109.238 89.235 108.887 89.0244 108.495 88.8538C108.103 88.6833 107.712 88.5629 107.331 88.4826C106.638 88.3422 106.015 88.1716 105.453 87.971C104.891 87.7703 104.409 87.4995 104.028 87.1484C103.626 86.8173 103.315 86.3859 103.104 85.8843C102.893 85.3827 102.783 84.7507 102.783 83.9983C102.783 83.4264 102.913 82.9048 103.164 82.4333C103.415 81.9618 103.757 81.5504 104.188 81.2194C104.62 80.8783 105.112 80.6275 105.674 80.4469C106.236 80.2663 106.829 80.176 107.451 80.176L107.411 80.166Z" fill="black"/>
<path d="M119.708 95.8963C118.996 95.8963 118.313 95.7558 117.67 95.485C117.028 95.2141 116.466 94.8329 115.964 94.3614C115.472 93.8899 115.08 93.3481 114.789 92.7161C114.498 92.0841 114.348 91.4119 114.348 90.6796C114.348 89.9472 114.488 89.3152 114.769 88.6832C115.05 88.0512 115.432 87.4994 115.904 87.0179C116.386 86.5464 116.948 86.1752 117.61 85.8943C118.263 85.6134 118.965 85.4629 119.698 85.4629C120.431 85.4629 121.094 85.6033 121.736 85.8742C122.379 86.1451 122.951 86.5163 123.453 86.9777C123.955 87.4392 124.336 87.991 124.627 88.633C124.918 89.2651 125.069 89.9472 125.069 90.6796C125.069 91.4119 124.928 92.0439 124.637 92.676C124.356 93.308 123.975 93.8497 123.493 94.3212C123.001 94.8028 122.429 95.184 121.776 95.4649C121.124 95.7458 120.431 95.8963 119.698 95.8963H119.708ZM119.708 87.1082C119.236 87.1082 118.795 87.1984 118.373 87.369C117.952 87.5395 117.59 87.7903 117.279 88.1013C116.958 88.4123 116.697 88.7935 116.506 89.2249C116.315 89.6663 116.225 90.1479 116.225 90.6796C116.225 91.2113 116.315 91.6928 116.506 92.1342C116.697 92.5756 116.948 92.9468 117.279 93.2578C117.59 93.5688 117.962 93.8096 118.373 93.9902C118.795 94.1607 119.236 94.251 119.708 94.251C120.18 94.251 120.642 94.1607 121.064 93.9902C121.485 93.8196 121.857 93.5688 122.178 93.2578C122.489 92.9468 122.74 92.5656 122.931 92.1342C123.121 91.6928 123.212 91.2113 123.212 90.6796C123.212 90.1479 123.121 89.6663 122.931 89.2249C122.74 88.7835 122.489 88.4123 122.178 88.1013C121.857 87.7903 121.485 87.5496 121.064 87.369C120.642 87.1984 120.19 87.1082 119.708 87.1082Z" fill="black"/>
<path d="M130.221 86.0147H133.062V87.65H130.221V95.7057H128.274V87.65H126.758V86.0147H128.274V84.1688C128.274 83.587 128.374 83.0452 128.575 82.5537C128.776 82.0621 129.047 81.6407 129.398 81.2896C129.749 80.9385 130.171 80.6676 130.653 80.467C131.135 80.2663 131.667 80.166 132.239 80.166C132.811 80.166 133.353 80.2964 133.825 80.5472C134.297 80.798 134.708 81.1191 135.04 81.5103L133.654 82.5236C133.293 82.042 132.821 81.8012 132.229 81.8012C131.607 81.8012 131.115 82.0119 130.753 82.4333C130.392 82.8546 130.211 83.4365 130.211 84.1688V86.0147H130.221Z" fill="black"/>
<path d="M138.211 92.3148C138.211 92.7161 138.251 93.0471 138.342 93.2979C138.422 93.5487 138.542 93.7494 138.683 93.8898C138.824 94.0503 138.984 94.1507 139.155 94.2008C139.325 94.251 139.516 94.2811 139.707 94.2811C140.008 94.2811 140.289 94.1808 140.56 93.9801C140.831 93.7795 141.052 93.5889 141.223 93.4083C141.393 93.5889 141.564 93.7694 141.725 93.95C141.895 94.1306 142.066 94.3112 142.247 94.4918C142.116 94.6723 141.946 94.8429 141.735 95.0034C141.524 95.1639 141.293 95.3144 141.042 95.4448C140.781 95.5752 140.51 95.6755 140.239 95.7558C139.958 95.8361 139.687 95.8762 139.436 95.8762C138.281 95.8762 137.468 95.5752 136.986 94.9633C136.505 94.3513 136.264 93.3581 136.264 91.9737V87.4593H134.828V85.8441H136.264V80.9785H138.211V85.8441H140.741V87.4593H138.211V92.3248V92.3148Z" fill="black"/>
<path d="M158.298 95.6972H156.351V89.6479C156.351 88.8654 156.19 88.2434 155.869 87.7618C155.548 87.2803 155.036 87.0395 154.333 87.0395C153.992 87.0395 153.7 87.1098 153.449 87.2402C153.198 87.3806 152.988 87.5612 152.817 87.7919C152.646 88.0227 152.526 88.3036 152.436 88.6146C152.355 88.9356 152.305 89.2767 152.305 89.6378V95.6872H150.358V89.6378C150.358 89.2767 150.317 88.9356 150.227 88.6146C150.147 88.2935 150.026 88.0227 149.866 87.7919C149.695 87.5612 149.484 87.3706 149.233 87.2402C148.982 87.0997 148.681 87.0395 148.35 87.0395C148.019 87.0395 147.737 87.0997 147.486 87.2301C147.235 87.3606 147.025 87.5411 146.854 87.7719C146.683 88.0026 146.553 88.2735 146.463 88.5845C146.372 88.8955 146.322 89.2265 146.322 89.5777V95.6872H144.395V85.5347H146.322V86.257C146.854 85.6852 147.527 85.4043 148.35 85.4043C149.022 85.4043 149.605 85.5447 150.097 85.8357C150.588 86.1166 151 86.5279 151.321 87.0596C151.663 86.5379 152.074 86.1366 152.576 85.8457C153.078 85.5548 153.65 85.4043 154.313 85.4043C154.975 85.4043 155.517 85.5146 156.009 85.7253C156.501 85.936 156.913 86.237 157.254 86.6082C157.595 86.9994 157.846 87.4509 158.027 87.9725C158.198 88.4942 158.288 89.046 158.288 89.6479V95.6972H158.298Z" fill="black"/>
<path d="M161.662 83.5664C161.31 83.5664 161.019 83.456 160.798 83.2253C160.567 82.9945 160.457 82.7237 160.457 82.4127C160.457 82.1017 160.567 81.8408 160.798 81.6201C161.029 81.3994 161.31 81.2891 161.662 81.2891C162.043 81.2891 162.334 81.3994 162.545 81.6201C162.756 81.8408 162.866 82.1017 162.866 82.4127C162.866 82.7237 162.756 82.9945 162.545 83.2253C162.334 83.456 162.033 83.5664 161.662 83.5664ZM160.708 85.3922H162.656V95.6952H160.708V85.3922Z" fill="black"/>
<path d="M167.905 95.9882C167.403 95.9882 166.961 95.9381 166.6 95.8478C166.238 95.7475 165.937 95.587 165.706 95.3663C165.475 95.1455 165.305 94.8546 165.194 94.5035C165.084 94.1423 165.023 93.7009 165.023 93.1692V79.8867H166.971V93.0288C166.971 93.5103 167.051 93.8514 167.192 94.0621C167.342 94.2728 167.573 94.3731 167.905 94.3731V95.9882Z" fill="black"/>
<path d="M172.834 95.9882C172.332 95.9882 171.891 95.9381 171.529 95.8478C171.168 95.7475 170.867 95.587 170.636 95.3663C170.405 95.1455 170.234 94.8546 170.124 94.5035C170.013 94.1423 169.953 93.7009 169.953 93.1692V79.8867H171.901V93.0288C171.901 93.5103 171.981 93.8514 172.121 94.0621C172.272 94.2728 172.503 94.3731 172.834 94.3731V95.9882Z" fill="black"/>
<path d="M195.221 93.6194C194.559 94.2916 193.786 94.8433 192.892 95.2647C192.009 95.686 190.995 95.8967 189.871 95.8967C188.746 95.8967 187.753 95.686 186.859 95.2647C185.966 94.8433 185.203 94.2715 184.56 93.5592C183.908 92.8469 183.416 92.0143 183.074 91.0612C182.733 90.1082 182.562 89.105 182.562 88.0516C182.562 86.9982 182.723 86.0452 183.044 85.1022C183.366 84.1591 183.837 83.3265 184.46 82.6042C185.082 81.8919 185.845 81.3201 186.759 80.8787C187.662 80.4473 188.706 80.2266 189.871 80.2266C190.965 80.2266 191.939 80.4272 192.822 80.8185C193.695 81.2097 194.509 81.7715 195.241 82.4838L193.956 83.788C193.384 83.2061 192.752 82.7446 192.069 82.3935C191.387 82.0524 190.654 81.8819 189.871 81.8819C189.088 81.8819 188.365 82.0424 187.702 82.3634C187.03 82.6844 186.458 83.1258 185.976 83.6876C185.484 84.2394 185.102 84.8915 184.831 85.6439C184.56 86.3863 184.42 87.1888 184.42 88.0416C184.42 88.8943 184.56 89.6969 184.831 90.4392C185.102 91.1816 185.484 91.8337 185.956 92.3955C186.437 92.9673 187.01 93.4087 187.682 93.7398C188.355 94.0608 189.078 94.2213 189.871 94.2213C190.664 94.2213 191.376 94.0508 192.059 93.7097C192.742 93.3686 193.354 92.8971 193.896 92.3052L195.221 93.6094V93.6194Z" fill="black"/>
<path d="M202.517 95.8963C201.804 95.8963 201.122 95.7558 200.479 95.485C199.837 95.2141 199.274 94.8329 198.772 94.3614C198.281 93.8899 197.889 93.3481 197.598 92.7161C197.307 92.0841 197.156 91.4119 197.156 90.6796C197.156 89.9472 197.297 89.3152 197.578 88.6832C197.859 88.0512 198.24 87.4994 198.712 87.0179C199.194 86.5464 199.756 86.1752 200.419 85.8943C201.081 85.6134 201.774 85.4629 202.507 85.4629C203.24 85.4629 203.902 85.6033 204.545 85.8742C205.197 86.1451 205.759 86.5163 206.261 86.9777C206.753 87.4492 207.145 87.991 207.436 88.633C207.727 89.2751 207.878 89.9472 207.878 90.6796C207.878 91.4119 207.737 92.0439 207.446 92.676C207.165 93.308 206.783 93.8497 206.302 94.3212C205.81 94.8028 205.237 95.184 204.585 95.4649C203.932 95.7458 203.24 95.8963 202.507 95.8963H202.517ZM202.517 87.1082C202.045 87.1082 201.603 87.1984 201.182 87.369C200.76 87.5395 200.399 87.7903 200.088 88.1013C199.766 88.4123 199.505 88.7935 199.315 89.2249C199.124 89.6663 199.033 90.1479 199.033 90.6796C199.033 91.2113 199.124 91.6928 199.315 92.1342C199.505 92.5756 199.756 92.9468 200.088 93.2578C200.399 93.5688 200.77 93.8096 201.182 93.9902C201.603 94.1607 202.045 94.251 202.517 94.251C202.989 94.251 203.451 94.1607 203.872 93.9902C204.294 93.8196 204.665 93.5688 204.986 93.2578C205.298 92.9468 205.549 92.5656 205.739 92.1342C205.93 91.6928 206.02 91.2113 206.02 90.6796C206.02 90.1479 205.93 89.6663 205.739 89.2249C205.549 88.7835 205.298 88.4123 204.986 88.1013C204.665 87.7903 204.294 87.5496 203.872 87.369C203.451 87.1984 202.999 87.1082 202.517 87.1082Z" fill="black"/>
<path d="M212.174 94.744C212.174 95.0851 212.064 95.366 211.833 95.6067C211.602 95.8475 211.301 95.9679 210.909 95.9679C210.548 95.9679 210.247 95.8475 210.006 95.6067C209.765 95.366 209.645 95.075 209.645 94.744C209.645 94.4129 209.765 94.112 210.006 93.8712C210.247 93.6304 210.548 93.5 210.909 93.5C211.301 93.5 211.602 93.6204 211.833 93.8712C212.064 94.122 212.174 94.4129 212.174 94.744Z" fill="black"/>
<path d="M216.551 94.9042C216.541 95.4861 216.391 95.9977 216.11 96.4191C215.829 96.8505 215.387 97.1615 214.775 97.3521C214.654 97.3922 214.534 97.4022 214.413 97.3922C214.293 97.3822 214.202 97.332 214.152 97.2417C214.122 97.1414 214.152 97.0611 214.212 97.021C214.273 96.9708 214.343 96.9407 214.403 96.9106C214.654 96.7802 214.825 96.6197 214.925 96.4291C215.026 96.2385 215.046 96.068 214.965 95.9476C214.644 95.9074 214.383 95.777 214.172 95.5363C213.971 95.3055 213.871 95.0346 213.871 94.7337C213.871 94.4026 214.002 94.1117 214.253 93.8709C214.504 93.6302 214.825 93.5098 215.196 93.5098C215.648 93.5098 215.989 93.6502 216.21 93.9411C216.431 94.222 216.541 94.5531 216.541 94.9143L216.551 94.9042Z" fill="black"/>
<path d="M235.889 95.6766H226.102V80.2773H228.069V94.0414H235.889V95.6766Z" fill="black"/>
<path d="M240.735 92.3148C240.735 92.7161 240.775 93.0471 240.865 93.2979C240.945 93.5487 241.066 93.7494 241.206 93.8898C241.347 94.0503 241.508 94.1507 241.678 94.2008C241.849 94.251 242.04 94.2811 242.23 94.2811C242.532 94.2811 242.813 94.1808 243.084 93.9801C243.355 93.7795 243.576 93.5889 243.746 93.4083C243.917 93.5889 244.088 93.7694 244.248 93.95C244.419 94.1306 244.589 94.3112 244.77 94.4918C244.64 94.6723 244.469 94.8429 244.258 95.0034C244.047 95.1639 243.816 95.3144 243.566 95.4448C243.305 95.5752 243.033 95.6755 242.762 95.7558C242.481 95.8361 242.21 95.8762 241.959 95.8762C240.805 95.8762 239.992 95.5752 239.51 94.9633C239.028 94.3513 238.787 93.3581 238.787 91.9737V87.4593H237.352V85.8441H238.787V80.9785H240.735V85.8441H243.264V87.4593H240.735V92.3248V92.3148Z" fill="black"/>
<path d="M252.079 95.8767C251.407 95.8767 250.744 95.7463 250.102 95.4855C249.459 95.2247 248.887 94.8635 248.395 94.392C247.893 93.9205 247.482 93.3687 247.181 92.7367C246.879 92.1047 246.719 91.4125 246.719 90.6801C246.719 89.9478 246.859 89.2957 247.15 88.6536C247.431 88.0216 247.823 87.4598 248.315 86.9783C248.797 86.4967 249.359 86.1255 250.011 85.8547C250.664 85.5838 251.347 85.4433 252.079 85.4433C252.36 85.4433 252.672 85.4835 253.003 85.5637C253.334 85.644 253.655 85.7443 253.967 85.8747C254.278 86.0051 254.569 86.1657 254.84 86.3462C255.111 86.5368 255.342 86.7275 255.523 86.9381V79.8555H257.45V95.6861H255.523V94.402C255.121 94.8836 254.599 95.2447 253.947 95.4955C253.294 95.7463 252.672 95.8667 252.079 95.8667V95.8767ZM252.079 87.0886C251.608 87.0886 251.166 87.1789 250.744 87.3495C250.323 87.52 249.961 87.7708 249.65 88.0818C249.329 88.4028 249.068 88.784 248.877 89.2255C248.686 89.6669 248.596 90.1484 248.596 90.6801C248.596 91.2118 248.686 91.6934 248.877 92.1247C249.068 92.5561 249.319 92.9273 249.65 93.2383C249.961 93.5493 250.333 93.7901 250.744 93.9706C251.166 94.1412 251.608 94.2315 252.079 94.2315C252.551 94.2315 253.013 94.1412 253.435 93.9706C253.856 93.8001 254.228 93.5493 254.549 93.2383C254.86 92.9273 255.111 92.5561 255.302 92.1247C255.493 91.6934 255.583 91.2118 255.583 90.6801C255.573 90.1384 255.462 89.6368 255.272 89.1954C255.081 88.7439 254.82 88.3727 254.509 88.0617C254.188 87.7507 253.816 87.51 253.405 87.3394C252.993 87.1689 252.551 87.0886 252.079 87.0886Z" fill="black"/>
<path d="M261.998 94.744C261.998 95.0851 261.888 95.366 261.657 95.6067C261.426 95.8475 261.125 95.9679 260.734 95.9679C260.372 95.9679 260.071 95.8475 259.83 95.6067C259.589 95.366 259.469 95.075 259.469 94.744C259.469 94.4129 259.589 94.112 259.83 93.8712C260.071 93.6304 260.372 93.5 260.734 93.5C261.125 93.5 261.426 93.6204 261.657 93.8712C261.888 94.122 261.998 94.4129 261.998 94.744Z" fill="black"/>
<path d="M19.5252 16.7441C19.5252 16.9147 19.4348 17.025 19.2642 17.0752C19.0935 17.1253 18.8526 17.1554 18.5414 17.1554C18.2302 17.1554 17.9893 17.1253 17.8086 17.0651C17.6279 17.0049 17.5375 16.8946 17.5375 16.724V12.4203H8.60309V10.6847H13.0904V8.3673H6.46484V6.64178H17.2564V2.95999C17.2564 2.71922 17.2163 2.55871 17.1259 2.48849C17.0356 2.40823 16.885 2.3681 16.6842 2.3681H8.74363V0.642578H17.1862C17.3869 0.642578 17.6178 0.722835 17.8788 0.883349C18.1398 1.04386 18.3607 1.22444 18.5514 1.43511C18.7321 1.61569 18.8928 1.81633 19.0333 2.04707C19.1738 2.27781 19.2441 2.46842 19.2441 2.63897V6.64178H21.4727C21.7437 6.64178 21.8843 6.93271 21.8843 7.50454C21.8843 7.81553 21.8441 8.03624 21.7739 8.16666C21.7036 8.29707 21.6032 8.3673 21.4727 8.3673H15.078V10.6847H18.702C19.0032 10.6847 19.214 10.7349 19.3345 10.8452C19.4549 10.9556 19.5152 11.1663 19.5152 11.4773V16.7541L19.5252 16.7441Z" fill="#FF5F00"/>
<path d="M24.2132 11.7175C23.9622 11.7175 23.7514 11.6473 23.5707 11.5168C23.39 11.3864 23.2093 11.2159 23.0186 11.0152C22.8379 10.8347 22.6773 10.6441 22.5467 10.4434C22.4062 10.2428 22.3359 10.0522 22.3359 9.89164V1.90609H24.3336V9.4402C24.3336 9.65087 24.3838 9.80136 24.4742 9.87158C24.5746 9.9418 24.7051 9.98193 24.8657 9.98193H29.0317C29.3229 9.98193 29.4634 10.2729 29.4634 10.8648C29.4634 11.4567 29.3229 11.7275 29.0317 11.7275H24.2232L24.2132 11.7175ZM34.2318 0.662109H36.2094V15.4294C36.2094 15.7002 35.8781 15.8407 35.2256 15.8407C34.5731 15.8407 34.2418 15.7002 34.2418 15.4294V7.64445H32.3947V15.2488C32.3947 15.3792 32.3244 15.4795 32.1739 15.5498C32.0233 15.62 31.7723 15.6601 31.431 15.6601C30.7684 15.6601 30.4472 15.5197 30.4472 15.2488V0.842687H32.4048V5.9089H34.2519V0.662109H34.2318Z" fill="#FF5F00"/>
<path d="M48.437 15.9906C48.437 16.1311 48.3466 16.2414 48.1559 16.3016C47.9752 16.3618 47.7343 16.402 47.4431 16.402C47.152 16.402 46.9111 16.3719 46.7204 16.3016C46.5296 16.2314 46.4292 16.1311 46.4292 15.9906V11.6969H43.2169V15.9906C43.2169 16.1311 43.1265 16.2414 42.9358 16.3016C42.7551 16.3618 42.5141 16.402 42.223 16.402C41.9319 16.402 41.691 16.3719 41.5002 16.3016C41.3095 16.2314 41.2091 16.1311 41.2091 15.9906V11.6969H37.1836V9.96134H52.1814C52.4725 9.96134 52.6131 10.2523 52.6131 10.8442C52.6131 11.4361 52.4725 11.7069 52.1814 11.7069H48.4069V16.0007L48.437 15.9906ZM49.6717 4.47378C49.6717 5.09577 49.5513 5.6676 49.3003 6.18927C49.0594 6.71094 48.7181 7.15235 48.2864 7.52354C47.8547 7.89473 47.3428 8.18566 46.7605 8.39634C46.1783 8.60701 45.5358 8.70733 44.8532 8.70733C44.1705 8.70733 43.5381 8.60701 42.9458 8.39634C42.3636 8.18566 41.8516 7.89473 41.4199 7.52354C40.9883 7.15235 40.6469 6.71094 40.406 6.18927C40.1651 5.6676 40.0346 5.09577 40.0346 4.47378C40.0346 3.85179 40.155 3.27996 40.406 2.75829C40.6469 2.23662 40.9883 1.79521 41.4199 1.42402C41.8516 1.05283 42.3636 0.761904 42.9458 0.55123C43.528 0.340555 44.1705 0.240234 44.8532 0.240234C45.5358 0.240234 46.1682 0.340555 46.7605 0.55123C47.3428 0.761904 47.8547 1.05283 48.2864 1.42402C48.7181 1.79521 49.0594 2.23662 49.3003 2.75829C49.5412 3.27996 49.6717 3.85179 49.6717 4.47378ZM47.6941 4.47378C47.6941 4.12266 47.6238 3.80163 47.4833 3.49064C47.3428 3.18967 47.152 2.91881 46.9111 2.6981C46.6702 2.47739 46.369 2.29682 46.0176 2.1664C45.6663 2.03598 45.2848 1.96576 44.8532 1.96576C44.4215 1.96576 44.03 2.03598 43.6887 2.1664C43.3373 2.29682 43.0462 2.47739 42.7952 2.6981C42.5543 2.91881 42.3535 3.17964 42.223 3.49064C42.0825 3.7916 42.0122 4.12266 42.0122 4.47378C42.0122 4.82491 42.0825 5.14593 42.223 5.45693C42.3636 5.75789 42.5543 6.02876 42.7952 6.2595C43.0362 6.49024 43.3373 6.66078 43.6887 6.7912C44.04 6.92162 44.4215 6.98181 44.8532 6.98181C45.2848 6.98181 45.6763 6.92162 46.0176 6.7912C46.369 6.66078 46.6601 6.49024 46.9111 6.2595C47.152 6.02876 47.3528 5.76792 47.4833 5.45693C47.6238 5.15597 47.6941 4.82491 47.6941 4.47378Z" fill="#FF5F00"/>
<path d="M61.0553 4.38296C61.0553 4.90462 60.9549 5.40623 60.7542 5.86771C60.5534 6.32918 60.2623 6.7405 59.8908 7.09162C59.5194 7.44275 59.0777 7.72365 58.5758 7.92429C58.0638 8.12493 57.5016 8.22525 56.8792 8.22525C56.2568 8.22525 55.6846 8.12493 55.1726 7.92429C54.6607 7.72365 54.219 7.44275 53.8576 7.09162C53.4962 6.7405 53.2051 6.32918 53.0043 5.86771C52.8035 5.40623 52.7031 4.91466 52.7031 4.38296C52.7031 3.85125 52.8035 3.37975 53.0043 2.90824C53.2051 2.44676 53.4962 2.03544 53.8576 1.68432C54.219 1.3332 54.6607 1.0523 55.1726 0.851656C55.6846 0.651014 56.2568 0.550693 56.8792 0.550693C57.5016 0.550693 58.0638 0.651014 58.5758 0.851656C59.0877 1.0523 59.5194 1.3332 59.8908 1.68432C60.2623 2.03544 60.5534 2.44676 60.7542 2.90824C60.9549 3.37975 61.0553 3.86129 61.0553 4.38296ZM59.0777 4.38296C59.0777 3.78103 58.887 3.27942 58.4955 2.86811C58.1039 2.45679 57.5619 2.24612 56.8692 2.24612C56.1765 2.24612 55.6344 2.45679 55.2429 2.86811C54.8514 3.27942 54.6607 3.79106 54.6607 4.38296C54.6607 4.97485 54.8514 5.48649 55.2429 5.8978C55.6344 6.30912 56.1765 6.51979 56.8692 6.51979C57.5619 6.51979 58.1039 6.30912 58.4955 5.8978C58.887 5.48649 59.0777 4.97485 59.0777 4.38296ZM57.5016 17.0134C57.331 17.0134 57.1603 16.9532 56.9696 16.8328C56.7788 16.7124 56.6082 16.572 56.4375 16.4215C56.2468 16.2409 56.0862 16.0603 55.9757 15.8797C55.8553 15.6992 55.795 15.5186 55.795 15.3681V12.2983H64.0167V11.0242H55.795V9.38897H65.4724C65.6731 9.38897 65.8137 9.41907 65.894 9.4893C65.9743 9.55952 66.0144 9.68994 66.0144 9.89058V13.9335H57.7927V14.9969C57.7927 15.2578 57.9232 15.3882 58.1843 15.3882H66.1349C66.4059 15.3882 66.5465 15.659 66.5465 16.2108C66.5465 16.5218 66.5063 16.7325 66.4361 16.8529C66.3658 16.9632 66.2654 17.0234 66.1349 17.0234H57.5016V17.0134ZM64.1974 0.480469H66.1951V8.26538C66.1951 8.41586 66.0948 8.52621 65.904 8.58641C65.7133 8.6466 65.4824 8.67669 65.2013 8.67669C64.8901 8.67669 64.6492 8.63657 64.4685 8.56634C64.2878 8.49612 64.1974 8.3958 64.1974 8.26538V0.480469Z" fill="#FF5F00"/>
<path d="M67.7734 13.4731V11.7275H78.1334C78.4245 11.7275 78.565 12.0184 78.565 12.6103C78.565 13.2022 78.4245 13.4731 78.1334 13.4731H67.7734ZM68.4761 5.60794C68.4761 5.03611 68.5866 4.49437 68.8175 3.99277C69.0484 3.49116 69.3495 3.04975 69.741 2.67856C70.1325 2.29734 70.5943 2.00641 71.1264 1.77567C71.6584 1.55497 72.2306 1.44461 72.843 1.44461C73.4553 1.44461 74.0175 1.55497 74.5395 1.77567C75.0615 1.99638 75.5133 2.29734 75.8947 2.67856C76.2762 3.05978 76.5774 3.49116 76.7882 3.99277C76.999 4.49437 77.1094 5.03611 77.1094 5.60794C77.1094 6.17977 76.999 6.7215 76.7882 7.23314C76.5774 7.74477 76.2762 8.18619 75.8947 8.55737C75.5133 8.93859 75.0615 9.22952 74.5395 9.45023C74.0175 9.6609 73.4553 9.77126 72.843 9.77126C72.2306 9.77126 71.6584 9.6609 71.1264 9.45023C70.5943 9.23956 70.1325 8.93859 69.741 8.55737C69.3495 8.17615 69.0484 7.73474 68.8175 7.23314C68.5866 6.7215 68.4761 6.17977 68.4761 5.60794ZM75.1418 5.60794C75.1418 5.25681 75.0816 4.94582 74.9712 4.64485C74.8608 4.35392 74.7001 4.09309 74.4994 3.88241C74.2986 3.67174 74.0577 3.50119 73.7766 3.37078C73.4955 3.24036 73.1843 3.18017 72.853 3.18017C72.5217 3.18017 72.2005 3.24036 71.9094 3.37078C71.6183 3.50119 71.3573 3.66171 71.1464 3.88241C70.9356 4.09309 70.765 4.35392 70.6445 4.64485C70.524 4.93578 70.4638 5.25681 70.4638 5.60794C70.4638 5.95906 70.524 6.27005 70.6445 6.57102C70.765 6.86195 70.9356 7.12278 71.1464 7.33346C71.3573 7.54413 71.6183 7.71468 71.9094 7.84509C72.2005 7.97551 72.5217 8.0357 72.853 8.0357C73.1843 8.0357 73.4955 7.97551 73.7766 7.84509C74.0577 7.71468 74.2986 7.55416 74.4994 7.33346C74.7001 7.12278 74.8608 6.86195 74.9712 6.57102C75.0816 6.28009 75.1418 5.95906 75.1418 5.60794ZM81.3859 15.4193C81.3859 15.5598 81.2956 15.6701 81.1048 15.7303C80.9141 15.8006 80.6832 15.8306 80.3921 15.8306C80.101 15.8306 79.86 15.8006 79.6693 15.7303C79.4786 15.6601 79.3782 15.5598 79.3782 15.4193V0.662109H81.3759V15.4294L81.3859 15.4193Z" fill="#FF5F00"/>
<path d="M96.3632 0.842687H98.3208V15.2588C98.3208 15.3892 98.2505 15.4896 98.0999 15.5598C97.9494 15.63 97.6984 15.6701 97.3571 15.6701C96.6945 15.6701 96.3733 15.5297 96.3733 15.2588V7.71468H94.6667V10.8246C94.6667 11.1958 94.5764 11.4867 94.4057 11.6874C94.235 11.888 93.964 11.9884 93.5926 11.9884H89.8782C89.6775 11.9884 89.4466 11.9081 89.1856 11.7476C88.9246 11.5871 88.7037 11.4065 88.513 11.1958C88.3323 11.0152 88.1717 10.8146 88.0311 10.5839C87.8906 10.3531 87.8203 10.1625 87.8203 9.99197V1.8158H89.7979V5.29694H92.7092V1.8158H94.6868V5.97912H96.3934V0.842687H96.3632ZM92.679 10.2428V7.0325H89.7678V9.65087C89.7678 9.89164 89.808 10.0522 89.8983 10.1224C89.9786 10.2026 90.1292 10.2428 90.33 10.2428H92.679ZM99.9069 0.662109H101.885V15.4294C101.885 15.7002 101.553 15.8407 100.901 15.8407C100.248 15.8407 99.9169 15.7002 99.9169 15.4294V0.662109H99.9069Z" fill="#FF5F00"/>
<path d="M103.148 6.66131C103.148 5.95906 103.259 5.31701 103.49 4.74518C103.721 4.17335 104.032 3.6918 104.443 3.30055C104.845 2.9093 105.337 2.59831 105.899 2.38763C106.461 2.16693 107.074 2.0666 107.746 2.0666C108.419 2.0666 109.031 2.17696 109.593 2.38763C110.155 2.59831 110.637 2.9093 111.049 3.30055C111.45 3.6918 111.772 4.17335 112.003 4.74518C112.233 5.31701 112.344 5.94903 112.344 6.66131C112.344 7.37359 112.233 8.00561 112.003 8.57744C111.772 9.14927 111.46 9.63081 111.049 10.0221C110.637 10.4133 110.155 10.7243 109.593 10.935C109.031 11.1457 108.419 11.256 107.746 11.256C107.074 11.256 106.461 11.1457 105.899 10.935C105.337 10.7243 104.855 10.4133 104.443 10.0221C104.032 9.63081 103.721 9.14927 103.49 8.57744C103.259 8.00561 103.148 7.37359 103.148 6.66131ZM110.366 6.66131C110.366 5.76845 110.125 5.0662 109.633 4.5646C109.142 4.06299 108.509 3.81219 107.746 3.81219C106.983 3.81219 106.351 4.06299 105.859 4.5646C105.367 5.0662 105.126 5.76845 105.126 6.66131C105.126 7.55416 105.367 8.25641 105.859 8.75802C106.351 9.25962 106.973 9.51042 107.746 9.51042C108.519 9.51042 109.142 9.25962 109.633 8.75802C110.125 8.25641 110.366 7.55416 110.366 6.66131ZM116.49 15.4394C116.49 15.5798 116.4 15.6902 116.209 15.7504C116.028 15.8206 115.787 15.8507 115.496 15.8507C115.205 15.8507 114.964 15.8206 114.773 15.7504C114.583 15.6802 114.482 15.5798 114.482 15.4394V0.662109H116.48V15.4294L116.49 15.4394Z" fill="#FF5F00"/>
<path d="M119.621 13.1922C119.461 13.2624 119.33 13.2624 119.23 13.1922C119.119 13.122 118.989 12.9514 118.818 12.6705C118.627 12.3696 118.507 12.1589 118.457 12.0285C118.406 11.8981 118.457 11.7877 118.587 11.7075C119.049 11.4466 119.531 11.1657 120.013 10.8648C120.495 10.5638 120.956 10.2528 121.408 9.93177C121.85 9.61075 122.261 9.27969 122.633 8.93859C123.014 8.5975 123.315 8.24638 123.556 7.88522H118.758V6.14967H124.379C124.51 5.79855 124.61 5.45745 124.671 5.0963C124.731 4.74518 124.761 4.47431 124.761 4.29373C124.761 4.09309 124.721 3.93257 124.64 3.82222C124.56 3.71187 124.42 3.65168 124.199 3.65168H118.778V1.90609H124.651C124.881 1.90609 125.102 2.00641 125.313 2.19702C125.524 2.39766 125.755 2.64847 125.996 2.95946C126.427 3.53129 126.638 3.99277 126.638 4.34389C126.638 4.90569 126.588 5.44742 126.478 5.95906H129.349V0.662109H131.346V15.4294C131.346 15.5698 131.256 15.6802 131.065 15.7404C130.875 15.8006 130.644 15.8407 130.353 15.8407C130.061 15.8407 129.83 15.8106 129.63 15.7404C129.439 15.6701 129.339 15.5698 129.339 15.4294V7.69461H125.855L125.644 8.12599C125.323 8.68779 124.932 9.21949 124.49 9.70103C124.038 10.1926 123.546 10.6441 123.014 11.0654C122.482 11.4867 121.92 11.868 121.348 12.2191C120.766 12.5702 120.193 12.8912 119.611 13.1822L119.621 13.1922Z" fill="#FF5F00"/>
<path d="M135.421 12.3495C135.22 12.3495 134.989 12.2693 134.738 12.1087C134.487 11.9482 134.266 11.7676 134.075 11.557C133.895 11.3764 133.734 11.1758 133.594 10.945C133.453 10.7143 133.383 10.5237 133.383 10.3531V6.02929H138.984V3.37078H133.383V1.63522H140.35C140.771 1.63522 140.982 1.83587 140.982 2.22712V7.77487H135.381V10.002C135.381 10.2428 135.431 10.4033 135.511 10.4835C135.601 10.5638 135.752 10.614 135.953 10.614H142.237C142.367 10.614 142.478 10.6842 142.548 10.8146C142.628 10.945 142.669 11.1758 142.669 11.4968C142.669 11.8178 142.628 12.0285 142.548 12.1589C142.468 12.2893 142.367 12.3595 142.237 12.3595H135.431L135.421 12.3495ZM146.343 15.4394C146.343 15.5798 146.252 15.6902 146.062 15.7504C145.881 15.8206 145.64 15.8507 145.349 15.8507C145.058 15.8507 144.817 15.8206 144.626 15.7504C144.435 15.6802 144.335 15.5798 144.335 15.4394V0.662109H146.333V15.4294L146.343 15.4394Z" fill="#FF5F00"/>
<path d="M154.134 4.30376C154.134 4.10312 154.094 3.94261 154.014 3.82222C153.934 3.70184 153.793 3.64164 153.572 3.64164H148.432V1.90609H154.124C154.355 1.90609 154.576 2.00641 154.787 2.19702C154.998 2.39766 155.229 2.64847 155.469 2.95946C155.901 3.53129 156.112 3.99277 156.112 4.34389C156.112 4.90569 156.042 5.42736 155.901 5.9089C155.761 6.39044 155.57 6.84188 155.339 7.26323C155.098 7.68458 154.827 8.07583 154.516 8.44702C154.205 8.81821 153.873 9.16933 153.512 9.49036C152.94 10.0321 152.297 10.5638 151.584 11.0855C150.872 11.6172 150.129 12.0887 149.346 12.5201C149.215 12.5903 149.095 12.6003 148.974 12.5502C148.864 12.5 148.703 12.3194 148.503 12.0184C148.312 11.7476 148.181 11.5269 148.121 11.3764C148.061 11.2259 148.101 11.1055 148.232 11.0253C149.035 10.5337 149.778 10.0522 150.45 9.57062C151.123 9.08908 151.755 8.58747 152.327 8.04574C152.93 7.48394 153.371 6.91211 153.673 6.32022C153.974 5.73835 154.124 5.05617 154.124 4.29373L154.134 4.30376ZM160.81 15.4294C160.81 15.5698 160.71 15.6802 160.519 15.7404C160.328 15.8106 160.087 15.8407 159.796 15.8407C159.505 15.8407 159.274 15.8106 159.083 15.7404C158.903 15.6701 158.802 15.5698 158.802 15.4294V0.662109H160.8V15.4294H160.81Z" fill="#FF5F00"/>
<path d="M166.199 7.61436C166.49 7.19301 166.701 6.81179 166.852 6.45063C167.002 6.09951 167.103 5.77848 167.163 5.49758C167.223 5.21668 167.253 4.97591 167.263 4.77527C167.263 4.57463 167.263 4.41412 167.263 4.29373C167.263 4.09309 167.223 3.93257 167.143 3.81219C167.063 3.6918 166.922 3.63161 166.701 3.63161H162.716V1.90609H167.153C167.384 1.90609 167.605 2.00641 167.816 2.19702C168.026 2.39766 168.257 2.64847 168.498 2.95946C168.93 3.53129 169.141 3.99277 169.141 4.34389V4.38402H170.687V0.842687H172.644V15.2588C172.644 15.3892 172.564 15.4896 172.423 15.5598C172.273 15.63 172.022 15.6701 171.68 15.6701C171.018 15.6701 170.697 15.5297 170.697 15.2588V10.303H168.107V8.56741H170.697V6.12961H168.92C168.799 6.60111 168.639 7.04253 168.428 7.45384C168.217 7.87519 167.966 8.29654 167.685 8.70786C167.083 9.53049 166.44 10.2428 165.768 10.8447C165.085 11.4466 164.382 12.0084 163.65 12.5301C163.519 12.6304 163.389 12.6404 163.258 12.5702C163.128 12.5 162.957 12.3395 162.756 12.1087C162.555 11.8579 162.415 11.6573 162.355 11.5168C162.284 11.3764 162.324 11.256 162.455 11.1557C163.298 10.5237 164.021 9.93177 164.633 9.39004C165.246 8.84831 165.778 8.25641 166.199 7.62439V7.61436ZM174.24 0.672141H176.218V15.4294C176.218 15.7002 175.887 15.8407 175.234 15.8407C174.582 15.8407 174.25 15.7002 174.25 15.4294V0.662109L174.24 0.672141Z" fill="#FF5F00"/>
<path d="M181.953 9.62175V7.95642H188.579V5.40827H190.576V7.95642H196.971C197.242 7.95642 197.383 8.22729 197.383 8.77906C197.383 9.09005 197.342 9.31076 197.272 9.43114C197.202 9.56156 197.102 9.62175 196.971 9.62175H181.963H181.953ZM184.212 2.24816V0.552734H194.612C194.903 0.552734 195.044 0.833633 195.044 1.39543C195.044 1.95723 194.903 2.23813 194.612 2.23813H190.948C191.149 2.62938 191.42 2.9805 191.761 3.28147C192.102 3.58243 192.464 3.8533 192.845 4.09407C193.247 4.3549 193.678 4.58564 194.11 4.77625C194.552 4.96686 194.983 5.1675 195.435 5.36814C195.566 5.42833 195.616 5.50859 195.586 5.61894C195.556 5.7293 195.475 5.91991 195.345 6.21084C195.224 6.47167 195.134 6.65225 195.054 6.75257C194.983 6.85289 194.883 6.87296 194.752 6.81276C194.291 6.62215 193.829 6.42151 193.367 6.21084C192.915 6.00016 192.454 5.75939 192.002 5.48853C191.56 5.21766 191.118 4.89663 190.687 4.53548C190.255 4.17432 189.884 3.77304 189.572 3.31156C189.301 3.75297 188.96 4.15426 188.549 4.50538C188.147 4.8565 187.705 5.17753 187.244 5.46846C186.812 5.73933 186.34 6.00016 185.828 6.25097C185.316 6.49174 184.844 6.70241 184.413 6.87296C184.282 6.93315 184.182 6.91308 184.111 6.81276C184.041 6.71244 183.941 6.53187 183.82 6.27103C183.69 5.9801 183.61 5.77946 183.579 5.65907C183.549 5.53869 183.599 5.4484 183.73 5.38821C184.192 5.18756 184.654 4.98692 185.095 4.77625C185.537 4.57561 185.969 4.33484 186.39 4.05394C186.752 3.81317 187.093 3.55233 187.424 3.25137C187.755 2.96044 188.016 2.61935 188.207 2.23813H184.222L184.212 2.24816ZM193.909 13.9356C193.909 14.4974 193.789 14.9889 193.548 15.4203C193.307 15.8417 192.986 16.2028 192.584 16.5038C192.183 16.8047 191.721 17.0254 191.189 17.1759C190.667 17.3264 190.115 17.3966 189.552 17.3966C188.99 17.3966 188.448 17.3264 187.916 17.1759C187.384 17.0254 186.922 16.8047 186.521 16.5038C186.119 16.2028 185.798 15.8417 185.557 15.4203C185.316 14.999 185.196 14.4974 185.196 13.9356C185.196 13.3738 185.316 12.8922 185.557 12.4608C185.798 12.0295 186.119 11.6683 186.521 11.3673C186.922 11.0664 187.384 10.8457 187.916 10.6952C188.448 10.5447 188.99 10.4745 189.552 10.4745C190.115 10.4745 190.657 10.5547 191.189 10.6952C191.721 10.8457 192.183 11.0664 192.584 11.3673C192.986 11.6683 193.307 12.0295 193.548 12.4608C193.789 12.8922 193.909 13.3838 193.909 13.9356ZM191.932 13.9356C191.932 13.3738 191.711 12.9323 191.279 12.6113C190.837 12.2903 190.275 12.1298 189.583 12.1298C188.89 12.1298 188.288 12.2903 187.846 12.6113C187.404 12.9323 187.193 13.3738 187.193 13.9356C187.193 14.4974 187.414 14.9388 187.846 15.2598C188.278 15.5808 188.86 15.7413 189.583 15.7413C190.305 15.7413 190.837 15.5808 191.279 15.2598C191.711 14.9388 191.932 14.4974 191.932 13.9356Z" fill="#FF5F00"/>
<path d="M197.5 3.30056V1.66533H201.024V0H203.092V1.66533H206.324C206.615 1.66533 206.756 1.9362 206.756 2.48796C206.756 2.78892 206.726 2.9996 206.655 3.11998C206.585 3.24037 206.475 3.30056 206.324 3.30056H197.51H197.5ZM205.882 6.83186C205.882 7.26324 205.792 7.66453 205.601 8.03572C205.421 8.4069 205.16 8.72793 204.828 8.9988C204.497 9.26966 204.105 9.48034 203.644 9.63082C203.182 9.7813 202.68 9.85153 202.128 9.85153C201.576 9.85153 201.074 9.77127 200.612 9.63082C200.15 9.48034 199.759 9.26966 199.427 8.9988C199.096 8.72793 198.845 8.4069 198.654 8.03572C198.474 7.66453 198.373 7.26324 198.373 6.83186C198.373 6.40048 198.464 5.9992 198.654 5.63804C198.835 5.27689 199.096 4.95586 199.427 4.68499C199.759 4.41413 200.15 4.20345 200.612 4.04294C201.074 3.89246 201.576 3.8122 202.128 3.8122C202.68 3.8122 203.182 3.89246 203.644 4.04294C204.105 4.20345 204.497 4.41413 204.828 4.68499C205.16 4.95586 205.41 5.26685 205.601 5.63804C205.782 5.9992 205.882 6.40048 205.882 6.83186ZM202.007 17.0044C201.807 17.0044 201.586 16.9242 201.345 16.7737C201.104 16.6232 200.893 16.4426 200.702 16.2319C200.522 16.0514 200.361 15.8507 200.22 15.64C200.08 15.4294 200.01 15.2388 200.01 15.0682V10.7945H202.007V12.1388H208.241V10.7945H210.239V15.8407C210.239 16.2119 210.149 16.5028 209.978 16.7035C209.807 16.9041 209.536 17.0044 209.165 17.0044H202.037H202.007ZM203.985 6.8118C203.985 6.40048 203.824 6.05939 203.493 5.78852C203.162 5.51766 202.71 5.37721 202.138 5.37721C201.566 5.37721 201.114 5.51766 200.783 5.79856C200.451 6.07945 200.291 6.43058 200.291 6.85193C200.291 7.27327 200.451 7.60433 200.783 7.8752C201.114 8.1561 201.566 8.28652 202.138 8.28652C202.71 8.28652 203.162 8.14607 203.493 7.86517C203.824 7.58427 203.985 7.23315 203.985 6.8118ZM208.221 15.2588V13.8744H201.987V14.7873C201.987 15.0983 202.128 15.2488 202.399 15.2488H208.221V15.2588ZM208.402 0.471509H210.4V3.95265H213.04V5.67817H210.4V9.41011C210.4 9.55056 210.309 9.66091 210.119 9.72111C209.938 9.79133 209.697 9.82143 209.406 9.82143C209.115 9.82143 208.874 9.79133 208.683 9.72111C208.492 9.66091 208.392 9.55056 208.392 9.41011V0.481541L208.402 0.471509Z" fill="#FF5F00"/>
<path d="M212.98 1.90609H219.837V5.97912H221.543V0.842687H223.501V15.2588C223.501 15.3892 223.421 15.4896 223.28 15.5598C223.13 15.63 222.879 15.6701 222.537 15.6701C221.875 15.6701 221.554 15.5297 221.554 15.2588V7.71468H219.847V10.6441C219.847 11.0152 219.757 11.3062 219.586 11.5068C219.415 11.7075 219.144 11.8078 218.773 11.8078H215.058C214.858 11.8078 214.627 11.7275 214.366 11.567C214.105 11.4065 213.884 11.2259 213.693 11.0152C213.513 10.8347 213.352 10.634 213.211 10.4033C213.071 10.1725 213.001 9.98193 213.001 9.81139V1.90609H212.98ZM217.849 10.0722V3.64164H214.978V9.4703C214.978 9.71107 215.028 9.87158 215.109 9.9418C215.199 10.0221 215.35 10.0622 215.55 10.0622H217.849V10.0722ZM225.087 0.672141H227.065V15.4294C227.065 15.7002 226.733 15.8407 226.081 15.8407C225.428 15.8407 225.097 15.7002 225.097 15.4294V0.662109L225.087 0.672141Z" fill="#FF5F00"/>
<path d="M228.328 6.66131C228.328 5.95906 228.439 5.31701 228.669 4.74518C228.9 4.17335 229.212 3.6918 229.623 3.30055C230.025 2.9093 230.517 2.59831 231.079 2.38763C231.641 2.16693 232.253 2.0666 232.926 2.0666C233.598 2.0666 234.211 2.17696 234.773 2.38763C235.335 2.59831 235.817 2.9093 236.229 3.30055C236.63 3.6918 236.951 4.17335 237.182 4.74518C237.413 5.31701 237.524 5.94903 237.524 6.66131C237.524 7.37359 237.413 8.00561 237.182 8.57744C236.951 9.14927 236.64 9.63081 236.229 10.0221C235.817 10.4133 235.335 10.7243 234.773 10.935C234.211 11.1457 233.598 11.256 232.926 11.256C232.253 11.256 231.641 11.1457 231.079 10.935C230.517 10.7243 230.035 10.4133 229.623 10.0221C229.212 9.63081 228.9 9.14927 228.669 8.57744C228.439 8.00561 228.328 7.37359 228.328 6.66131ZM235.546 6.66131C235.546 5.76845 235.305 5.0662 234.813 4.5646C234.321 4.06299 233.689 3.81219 232.926 3.81219C232.163 3.81219 231.53 4.06299 231.039 4.5646C230.547 5.0662 230.306 5.76845 230.306 6.66131C230.306 7.55416 230.547 8.25641 231.039 8.75802C231.53 9.25962 232.153 9.51042 232.926 9.51042C233.699 9.51042 234.321 9.25962 234.813 8.75802C235.305 8.25641 235.546 7.55416 235.546 6.66131ZM241.67 15.4394C241.67 15.5798 241.579 15.6902 241.388 15.7504C241.208 15.8206 240.967 15.8507 240.676 15.8507C240.385 15.8507 240.144 15.8206 239.953 15.7504C239.762 15.6802 239.662 15.5798 239.662 15.4394V0.662109H241.66V15.4294L241.67 15.4394Z" fill="#FF5F00"/>
<path d="M244.793 13.1922C244.632 13.2624 244.502 13.2624 244.402 13.1922C244.291 13.122 244.161 12.9514 243.99 12.6705C243.799 12.3696 243.679 12.1589 243.629 12.0285C243.578 11.8981 243.629 11.7877 243.759 11.7075C244.221 11.4466 244.703 11.1657 245.185 10.8648C245.666 10.5638 246.128 10.2528 246.58 9.93177C247.022 9.61075 247.433 9.27969 247.805 8.93859C248.186 8.5975 248.487 8.24638 248.728 7.88522H243.93V6.14967H249.551C249.682 5.79855 249.782 5.45745 249.842 5.0963C249.903 4.74518 249.933 4.47431 249.933 4.29373C249.933 4.09309 249.893 3.93257 249.812 3.82222C249.732 3.71187 249.592 3.65168 249.371 3.65168H243.95V1.90609H249.822C250.053 1.90609 250.274 2.00641 250.485 2.19702C250.696 2.39766 250.927 2.64847 251.168 2.95946C251.599 3.53129 251.81 3.99277 251.81 4.34389C251.81 4.90569 251.76 5.44742 251.649 5.95906H254.521V0.662109H256.518V15.4294C256.518 15.5698 256.428 15.6802 256.237 15.7404C256.056 15.8106 255.815 15.8407 255.524 15.8407C255.233 15.8407 255.002 15.8106 254.802 15.7404C254.611 15.6701 254.51 15.5698 254.51 15.4294V7.69461H251.027L250.816 8.12599C250.495 8.68779 250.103 9.21949 249.662 9.70103C249.21 10.1926 248.718 10.6441 248.186 11.0654C247.654 11.4867 247.092 11.868 246.52 12.2191C245.937 12.5702 245.365 12.8912 244.783 13.1822L244.793 13.1922Z" fill="#FF5F00"/>
</g>
<defs>
<clipPath id="clip0_976_26627">
<rect width="262" height="100" fill="white"/>
</clipPath>
</defs>
</svg>
