<svg width="74" height="74" viewBox="0 0 74 74" fill="none" xmlns="http://www.w3.org/2000/svg">
<circle cx="21" cy="24" r="11.5" fill="white" stroke="black"/>
<path d="M41.7828 55.3576L41.7877 55.5321V61.5H0.5V55.5321L0.50496 55.3576C0.624991 51.1352 2.92193 47.5293 6.63316 44.962C10.3492 42.3914 15.4676 40.8784 21.1439 40.8784C26.8201 40.8784 31.9385 42.3914 35.6546 44.962C39.3658 47.5293 41.6627 51.1352 41.7828 55.3576Z" fill="white" stroke="black"/>
<circle cx="53" cy="24" r="11.5" fill="white" stroke="black"/>
<path d="M73.4937 55.3576L73.4986 55.5321V61.5H32.2109V55.5321L32.2159 55.3576C32.3359 51.1352 34.6329 47.5293 38.3441 44.962C42.0601 42.3914 47.1785 40.8784 52.8548 40.8784C58.5311 40.8784 63.6494 42.3914 67.3655 44.962C71.0767 47.5293 73.3737 51.1352 73.4937 55.3576Z" fill="white" stroke="black"/>
<mask id="path-5-inside-1_1615_26890" fill="white">
<path fill-rule="evenodd" clip-rule="evenodd" d="M31.7109 61.9987H42.2838V55.342H42.2786C42.1653 51.3538 40.1907 47.9145 36.9974 45.3423C33.8041 47.9145 31.8295 51.3538 31.7161 55.342H31.7109V61.9987Z"/>
</mask>
<path fill-rule="evenodd" clip-rule="evenodd" d="M31.7109 61.9987H42.2838V55.342H42.2786C42.1653 51.3538 40.1907 47.9145 36.9974 45.3423C33.8041 47.9145 31.8295 51.3538 31.7161 55.342H31.7109V61.9987Z" fill="#FF5F00"/>
<path d="M42.2838 61.9987V62.9987H43.2838V61.9987H42.2838ZM31.7109 61.9987H30.7109V62.9987H31.7109V61.9987ZM42.2838 55.342H43.2838V54.342H42.2838V55.342ZM42.2786 55.342L41.279 55.3704L41.3067 56.342H42.2786V55.342ZM36.9974 45.3423L37.6247 44.5635L36.9974 44.0582L36.3701 44.5635L36.9974 45.3423ZM31.7161 55.342V56.342H32.6881L32.7157 55.3704L31.7161 55.342ZM31.7109 55.342V54.342H30.7109V55.342H31.7109ZM42.2838 60.9987H31.7109V62.9987H42.2838V60.9987ZM41.2838 55.342V61.9987H43.2838V55.342H41.2838ZM42.2786 56.342H42.2838V54.342H42.2786V56.342ZM36.3701 46.1211C39.3764 48.5427 41.1754 51.7235 41.279 55.3704L43.2782 55.3136C43.1552 50.9841 41.005 47.2864 37.6247 44.5635L36.3701 46.1211ZM32.7157 55.3704C32.8194 51.7235 34.6184 48.5427 37.6247 46.1211L36.3701 44.5635C32.9897 47.2864 30.8396 50.9841 30.7165 55.3136L32.7157 55.3704ZM31.7109 56.342H31.7161V54.342H31.7109V56.342ZM32.7109 61.9987V55.342H30.7109V61.9987H32.7109Z" fill="black" mask="url(#path-5-inside-1_1615_26890)"/>
</svg>
