<svg width="320" height="250" viewBox="0 0 320 250" fill="none" xmlns="http://www.w3.org/2000/svg">
<g clip-path="url(#clip0_1076_11218)">
<path d="M28.8369 21.6939H27.9277V23.2156C27.0712 23.2443 26.2529 23.2491 25.5639 23.2539L25.6787 24.0004C27.21 24.0004 29.2915 23.986 31.2295 23.6271L31.1625 22.9572C30.416 23.0673 29.6217 23.1343 28.8369 23.1773V21.6939ZM25.7936 21.2824L26.2242 21.9715C27.253 21.6796 28.0091 21.024 28.3823 20.1675C28.7699 20.981 29.5355 21.603 30.5596 21.8949L30.9807 21.1867C29.6982 20.8422 28.8848 19.9761 28.8369 18.9664H30.7605V18.2295H28.8369V17.2055H27.9277V18.2295H26.0232V18.9664H27.9182C27.8703 20.0191 27.0712 20.914 25.7936 21.2824ZM31.6984 25.7326H32.6076V17.1385H31.6984V25.7326ZM41.2473 17.1385H40.3764V20.5359H39.2663V17.3107H38.4336V25.2732H39.2663V21.2824H40.3764V25.7135H41.2473V17.1385ZM34.1749 23.6559H34.7491C35.998 23.6463 36.888 23.6128 37.9168 23.3975L37.8499 22.651C36.9311 22.828 36.1368 22.8759 35.084 22.8807V18.909H37.3905V18.1721H34.1749V23.6559ZM44.6976 23.5506H48.0664V24.9H49.0617V23.5506H50.0091V22.6605H49.0617V17.9711H47.7601L44.6976 22.6988V23.5506ZM45.8078 22.6605V22.6031L47.9898 19.2248H48.0664V22.6605H45.8078ZM53.3851 24.9957C54.9882 24.9957 55.9261 23.7037 55.9309 21.4355C55.9261 19.1817 54.9738 17.8754 53.3851 17.8754C51.7917 17.8754 50.8394 19.1817 50.8394 21.4355C50.8394 23.7037 51.7821 24.9957 53.3851 24.9957ZM51.8922 21.4355C51.8922 19.7129 52.452 18.7702 53.3851 18.7654C54.3135 18.7702 54.8781 19.7129 54.8781 21.4355C54.8781 23.163 54.3183 24.0865 53.3851 24.0865C52.4473 24.0865 51.8874 23.163 51.8922 21.4355ZM58.4264 21.1006C59.3069 21.1054 60.0199 20.3924 60.0151 19.5119C60.0199 18.6314 59.3069 17.9185 58.4264 17.9137C57.5459 17.9185 56.8329 18.6314 56.8377 19.5119C56.8329 20.3924 57.5459 21.1054 58.4264 21.1006ZM57.6034 19.5119C57.6081 19.0573 57.9718 18.6937 58.4264 18.6984C58.881 18.6937 59.2447 19.0573 59.2399 19.5119C59.2447 19.9617 58.881 20.3302 58.4264 20.335C57.9718 20.3302 57.6081 19.9617 57.6034 19.5119ZM60.8955 21.4355C60.8955 23.6511 62.2115 24.9957 64.0155 24.9957C65.5419 24.9957 66.6569 24.0387 66.877 22.6701L65.8147 22.6605C65.6329 23.5458 64.8959 24.0339 64.025 24.0291C62.8335 24.0339 61.9435 23.1247 61.9387 21.4355C61.9435 19.756 62.8287 18.8372 64.025 18.842C64.9055 18.8372 65.6472 19.3349 65.8147 20.2297H66.877C66.6425 18.7415 65.4797 17.8754 64.0155 17.8754C62.221 17.8754 60.8955 19.22 60.8955 21.4355Z" fill="black"/>
<path d="M28.8369 225.394H27.9277V226.916C27.0712 226.944 26.2529 226.949 25.5639 226.954L25.6787 227.7C27.21 227.7 29.2915 227.686 31.2295 227.327L31.1625 226.657C30.416 226.767 29.6217 226.834 28.8369 226.877V225.394ZM25.7936 224.982L26.2242 225.671C27.253 225.38 28.0091 224.724 28.3823 223.867C28.7699 224.681 29.5355 225.303 30.5596 225.595L30.9807 224.887C29.6982 224.542 28.8848 223.676 28.8369 222.666H30.7605V221.929H28.8369V220.905H27.9277V221.929H26.0232V222.666H27.9182C27.8703 223.719 27.0712 224.614 25.7936 224.982ZM31.6984 229.433H32.6076V220.838H31.6984V229.433ZM41.7354 227.576H38.2231V225.538H37.3235V227.576H33.8877V228.322H41.7354V227.576ZM34.1557 224.944L34.5577 225.691C35.9406 225.418 37.2039 224.552 37.7685 223.384C38.3332 224.557 39.606 225.418 40.9985 225.691L41.3909 224.944C39.7352 224.667 38.2422 223.394 38.2422 222.035V221.384H37.2852V222.035C37.2804 223.394 35.8066 224.667 34.1557 224.944ZM47.9228 225.231H44.8507V226.112H47.9228V225.231ZM51.6816 221.671H50.648L48.9254 222.8V223.805L50.581 222.724H50.6193V228.6H51.6816V221.671ZM55.7563 228.696C57.3593 228.696 58.2972 227.404 58.302 225.136C58.2972 222.882 57.345 221.575 55.7563 221.575C54.1628 221.575 53.2106 222.882 53.2106 225.136C53.2106 227.404 54.1533 228.696 55.7563 228.696ZM54.2633 225.136C54.2633 223.413 54.8232 222.47 55.7563 222.465C56.6846 222.47 57.2493 223.413 57.2493 225.136C57.2493 226.863 56.6894 227.787 55.7563 227.787C54.8184 227.787 54.2585 226.863 54.2633 225.136ZM60.7975 224.801C61.678 224.805 62.391 224.092 62.3862 223.212C62.391 222.331 61.678 221.618 60.7975 221.614C59.9171 221.618 59.2041 222.331 59.2089 223.212C59.2041 224.092 59.9171 224.805 60.7975 224.801ZM59.9745 223.212C59.9793 222.757 60.343 222.394 60.7975 222.398C61.2521 222.394 61.6158 222.757 61.611 223.212C61.6158 223.662 61.2521 224.03 60.7975 224.035C60.343 224.03 59.9793 223.662 59.9745 223.212ZM63.2667 225.136C63.2667 227.351 64.5826 228.696 66.3866 228.696C67.9131 228.696 69.028 227.739 69.2481 226.37L68.1858 226.361C68.004 227.246 67.2671 227.734 66.3962 227.729C65.2047 227.734 64.3146 226.825 64.3099 225.136C64.3146 223.456 65.1999 222.537 66.3962 222.542C67.2766 222.537 68.0183 223.035 68.1858 223.93H69.2481C69.0137 222.442 67.8509 221.575 66.3866 221.575C64.5922 221.575 63.2667 222.92 63.2667 225.136Z" fill="black"/>
<path d="M74.4231 11.5378C74.2865 11.4012 74.0651 11.4012 73.9285 11.5378L71.7028 13.7635C71.5662 13.9001 71.5662 14.1216 71.7028 14.2581C71.8393 14.3947 72.0608 14.3947 72.1974 14.2581L74.1758 12.2797L76.1542 14.2581C76.2908 14.3947 76.5122 14.3947 76.6488 14.2581C76.7854 14.1216 76.7854 13.9001 76.6488 13.7635L74.4231 11.5378ZM73.9285 234.632C74.0651 234.769 74.2865 234.769 74.4231 234.632L76.6488 232.407C76.7854 232.27 76.7854 232.049 76.6488 231.912C76.5122 231.776 76.2908 231.776 76.1542 231.912L74.1758 233.891L72.1974 231.912C72.0608 231.776 71.8393 231.776 71.7028 231.912C71.5662 232.049 71.5662 232.27 71.7028 232.407L73.9285 234.632ZM73.826 11.7851L73.826 234.385L74.5255 234.385L74.5255 11.7851L73.826 11.7851Z" fill="#313131"/>
<path d="M198.101 -4.63651L198.101 250.321" stroke="url(#paint0_linear_1076_11218)" stroke-width="0.699476"/>
<path d="M319.233 -4.63651L319.233 250.321" stroke="url(#paint1_linear_1076_11218)" stroke-width="0.699476"/>
<path d="M1400.7 100.8L74.2002 100.8" stroke="#4A4A4A" stroke-width="0.699476" stroke-dasharray="2.1 2.8"/>
<path d="M1400.7 144.2L74.2002 144.2" stroke="#4A4A4A" stroke-width="0.699476" stroke-dasharray="2.1 2.8"/>
<path d="M1425.7 122.976L73.8281 122.976" stroke="#313131" stroke-width="0.699476"/>
<path d="M133.234 101.154C133.234 102.185 134.069 103.02 135.1 103.02C136.13 103.02 136.965 102.185 136.965 101.154C136.965 100.124 136.13 99.2892 135.1 99.2892C134.069 99.2892 133.234 100.124 133.234 101.154ZM135.449 101.154V67.2H134.75V101.154H135.449Z" fill="#FF5F00"/>
<path d="M104.497 58.2918H100.538V57.3458C102.364 57.2364 103.518 56.52 103.524 55.3715C103.518 54.152 102.146 53.4083 100.024 53.4028C97.8908 53.4083 96.5182 54.152 96.5236 55.3715C96.5182 56.52 97.6721 57.2364 99.5096 57.3458V58.2918H95.5611V59.145H104.497V58.2918ZM96.6877 62.7215H103.491V61.8793H97.7377V59.8778H96.6877V62.7215ZM97.5955 55.3715C97.59 54.6715 98.5197 54.2395 100.024 54.245C101.522 54.2395 102.457 54.6715 102.452 55.3715C102.457 56.1098 101.522 56.5145 100.024 56.52C98.5197 56.5145 97.59 56.1098 97.5955 55.3715ZM113.069 57.6465H107.284V54.7262H112.982V53.884H106.244V58.4778H109.077V60.8731H105.129V61.7262H114.098V60.8731H110.105V58.4778H113.069V57.6465ZM125.489 53.1293H124.45V54.945H122.919V55.7981H124.45V56.8262H122.919V57.7012H124.45V60.4028H125.489V53.1293ZM117.33 58.1387L117.461 59.0137C119.031 59.0083 121.24 58.97 123.116 58.6747L123.072 57.909C122.684 57.9528 122.285 57.9856 121.869 58.0184V54.7372H122.81V53.895H117.603V54.7372H118.522V58.1333C118.101 58.1333 117.696 58.1387 117.33 58.1387ZM119.102 62.7215H125.741V61.8793H120.152V59.8122H119.102V62.7215ZM119.528 58.1168V54.7372H120.874V58.0731C120.42 58.0895 119.971 58.1059 119.528 58.1168ZM130.244 56.2793V55.634H132.399V54.8028H130.266V53.3262H129.216V54.8028H127.062V55.634H129.227V56.2793C129.222 57.8926 128.259 59.5661 126.766 60.2497L127.346 61.0481C128.467 60.5286 129.32 59.4458 129.752 58.1497C130.168 59.3473 130.972 60.37 132.038 60.8731L132.629 60.0856C131.169 59.3856 130.244 57.7887 130.244 56.2793ZM133.482 62.9293H134.521V57.9528H136.096V57.0778H134.521V53.1293H133.482V62.9293ZM139.711 61.6497H144.852V60.6325H139.711V61.6497ZM139.711 58.4997H141.756V59.9981H142.806V58.4997H144.852V57.4934H142.806V55.995H141.756V57.4934H139.711V58.4997ZM149.18 62.109C151.012 62.109 152.084 60.6325 152.09 58.0403C152.084 55.4645 150.996 53.9715 149.18 53.9715C147.359 53.9715 146.271 55.4645 146.271 58.0403C146.271 60.6325 147.348 62.109 149.18 62.109ZM147.474 58.0403C147.474 56.0715 148.114 54.9942 149.18 54.9887C150.241 54.9942 150.887 56.0715 150.887 58.0403C150.887 60.0145 150.247 61.07 149.18 61.07C148.108 61.07 147.469 60.0145 147.474 58.0403ZM153.706 62.0762C154.127 62.0708 154.477 61.7262 154.482 61.2997C154.477 60.8731 154.127 60.5231 153.706 60.5231C153.279 60.5231 152.924 60.8731 152.929 61.2997C152.924 61.7262 153.279 62.0708 153.706 62.0762ZM158.33 62.109C159.981 62.109 161.152 60.9879 161.152 59.4293C161.152 57.9036 160.052 56.7989 158.559 56.7934C157.958 56.7989 157.4 57.0122 157.072 57.3293H156.995L157.258 55.109H160.747V54.0809H156.263L155.748 58.4887H156.886C157.154 58.002 157.641 57.7887 158.275 57.7887C159.27 57.7997 159.981 58.4997 159.981 59.4622C159.981 60.4028 159.292 61.0973 158.33 61.1028C157.531 61.0973 156.886 60.6051 156.82 59.9325H155.65C155.705 61.1958 156.831 62.109 158.33 62.109ZM164.036 57.6575C165.043 57.6629 165.858 56.8481 165.852 55.8418C165.858 54.8356 165.043 54.0208 164.036 54.0153C163.03 54.0208 162.215 54.8356 162.221 55.8418C162.215 56.8481 163.03 57.6629 164.036 57.6575ZM163.096 55.8418C163.101 55.3223 163.517 54.9067 164.036 54.9122C164.556 54.9067 164.972 55.3223 164.966 55.8418C164.972 56.3559 164.556 56.777 164.036 56.7825C163.517 56.777 163.101 56.3559 163.096 55.8418ZM166.858 58.0403C166.858 60.5723 168.362 62.109 170.424 62.109C172.168 62.109 173.443 61.0153 173.694 59.4512L172.48 59.4403C172.272 60.452 171.43 61.0098 170.435 61.0043C169.073 61.0098 168.056 59.9708 168.051 58.0403C168.056 56.1208 169.068 55.0708 170.435 55.0762C171.441 55.0708 172.289 55.6395 172.48 56.6622H173.694C173.426 54.9614 172.097 53.9715 170.424 53.9715C168.373 53.9715 166.858 55.5083 166.858 58.0403Z" fill="#FF5F00"/>
<path d="M608.999 121.798C608.999 121.798 596.546 100.8 584.668 100.8C572.791 100.8 560.338 121.798 560.338 121.798C560.338 121.798 547.884 142.796 536.007 142.796C524.13 142.796 511.676 121.798 511.676 121.798C511.676 121.798 499.223 100.8 487.345 100.8C475.468 100.8 463.015 121.798 463.015 121.798C463.015 121.798 450.977 142.473 439.292 142.796C427.228 143.129 414.353 121.798 414.353 121.798C414.353 121.798 401.9 100.8 390.022 100.8C378.145 100.8 365.692 121.798 365.692 121.798C365.692 121.798 353.238 142.796 341.361 142.796C329.484 142.796 317.03 121.798 317.03 121.798C317.03 121.798 304.577 100.8 292.699 100.8C280.822 100.8 268.369 121.798 268.369 121.798C268.369 121.798 255.915 142.796 244.038 142.796C232.161 142.796 219.707 121.798 219.707 121.798C219.707 121.798 207.254 100.8 195.376 100.8C183.499 100.8 171.046 121.798 171.046 121.798C171.046 121.798 158.382 142.961 146.411 142.796C134.629 142.633 122.384 121.798 122.384 121.798C122.384 121.798 109.93 100.8 98.0533 100.8C87.5455 100.8 76.5866 117.235 74.1992 121.025" stroke="url(#paint2_linear_1076_11218)" stroke-width="1.4" stroke-linecap="square"/>
<rect x="214" width="107" height="246" fill="url(#paint3_linear_1076_11218)"/>
</g>
<defs>
<linearGradient id="paint0_linear_1076_11218" x1="198.101" y1="232.609" x2="198.101" y2="4.62847" gradientUnits="userSpaceOnUse">
<stop stop-color="#BBBBBB" stop-opacity="0"/>
<stop offset="0.175076" stop-color="#BBBBBB" stop-opacity="0.7"/>
<stop offset="0.479167" stop-color="#BBBBBB"/>
<stop offset="0.787373" stop-color="#BBBBBB" stop-opacity="0.7"/>
<stop offset="1" stop-color="#BBBBBB" stop-opacity="0"/>
</linearGradient>
<linearGradient id="paint1_linear_1076_11218" x1="319.233" y1="232.609" x2="319.233" y2="4.62847" gradientUnits="userSpaceOnUse">
<stop stop-color="#BBBBBB" stop-opacity="0"/>
<stop offset="0.175076" stop-color="#BBBBBB" stop-opacity="0.7"/>
<stop offset="0.479167" stop-color="#BBBBBB"/>
<stop offset="0.787373" stop-color="#BBBBBB" stop-opacity="0.7"/>
<stop offset="1" stop-color="#BBBBBB" stop-opacity="0"/>
</linearGradient>
<linearGradient id="paint2_linear_1076_11218" x1="341.599" y1="100.8" x2="341.599" y2="142.8" gradientUnits="userSpaceOnUse">
<stop stop-color="#FF7C33"/>
<stop offset="1" stop-color="#A5A5A5"/>
</linearGradient>
<linearGradient id="paint3_linear_1076_11218" x1="280.526" y1="119.698" x2="208.044" y2="119.698" gradientUnits="userSpaceOnUse">
<stop stop-color="white"/>
<stop offset="1" stop-color="white" stop-opacity="0"/>
</linearGradient>
<clipPath id="clip0_1076_11218">
<rect width="320" height="250" fill="white"/>
</clipPath>
</defs>
</svg>
