<svg width="200" height="200" viewBox="0 0 200 200" fill="none" xmlns="http://www.w3.org/2000/svg">
<mask id="path-1-inside-1_578_27421" fill="white">
<path fill-rule="evenodd" clip-rule="evenodd" d="M112.522 100.369C112.522 100.238 112.52 100.108 112.515 99.9782C112.617 99.9524 112.719 99.9193 112.82 99.8788C121.78 96.2618 133.952 87.0595 123.929 73.8274C122.999 72.5995 121.174 72.641 120.191 73.8267L106.054 90.8724C104.898 90.4173 103.638 90.1674 102.32 90.1674C102.21 90.1674 102.1 90.1691 101.99 90.1726C101.968 89.9651 101.916 89.7581 101.835 89.5567C98.2179 80.5973 89.0152 68.4259 75.7826 78.4476C74.5545 79.3777 74.596 81.2033 75.7819 82.1866L92.92 96.3979C92.4038 97.6183 92.1183 98.9602 92.1183 100.369C92.1183 100.557 92.1234 100.744 92.1334 100.929C91.9249 100.952 91.717 101.003 91.5146 101.085C82.5545 104.702 70.3821 113.904 80.4048 127.136C81.3349 128.364 83.1603 128.323 84.1436 127.137L98.4535 109.882C98.468 109.864 98.4822 109.847 98.4961 109.829C99.6771 110.307 100.968 110.57 102.32 110.57C102.528 110.57 102.735 110.564 102.94 110.551C102.966 110.655 102.999 110.758 103.04 110.86C106.657 119.82 115.86 131.991 129.093 121.969C130.321 121.039 130.279 119.214 129.093 118.23L111.875 103.952C112.293 102.837 112.522 101.63 112.522 100.369ZM102.435 104.394C104.594 104.394 106.345 102.644 106.345 100.484C106.345 98.3243 104.594 96.5736 102.435 96.5736C100.275 96.5736 98.5245 98.3243 98.5245 100.484C98.5245 102.644 100.275 104.394 102.435 104.394Z"/>
</mask>
<path d="M112.515 99.9782L112.271 99.0083L111.485 99.2058L111.515 100.016L112.515 99.9782ZM112.82 99.8788L113.194 100.806L113.194 100.806L112.82 99.8788ZM123.929 73.8274L124.727 73.2236L124.727 73.2236L123.929 73.8274ZM120.191 73.8267L120.96 74.4651V74.4651L120.191 73.8267ZM106.054 90.8724L105.688 91.8029L106.362 92.0681L106.824 91.5108L106.054 90.8724ZM101.99 90.1726L100.996 90.2821L101.098 91.2014L102.022 91.1721L101.99 90.1726ZM101.835 89.5567L102.762 89.1824V89.1824L101.835 89.5567ZM75.7826 78.4476L75.1788 77.6505H75.1788L75.7826 78.4476ZM75.7819 82.1866L76.4202 81.4168L75.7819 82.1866ZM92.92 96.3979L93.841 96.7874L94.1306 96.1027L93.5583 95.6281L92.92 96.3979ZM92.1334 100.929L92.2416 101.923L93.1832 101.821L93.132 100.875L92.1334 100.929ZM91.5146 101.085L91.1403 100.158H91.1403L91.5146 101.085ZM80.4048 127.136L81.202 126.532L80.4048 127.136ZM84.1436 127.137L83.3739 126.499L84.1436 127.137ZM98.4535 109.882L99.2233 110.52L99.2233 110.52L98.4535 109.882ZM98.4961 109.829L98.8712 108.902L98.1743 108.62L97.7098 109.211L98.4961 109.829ZM102.94 110.551L103.91 110.309L103.709 109.504L102.88 109.553L102.94 110.551ZM103.04 110.86L102.113 111.234L102.113 111.234L103.04 110.86ZM129.093 121.969L129.696 122.766L129.093 121.969ZM129.093 118.23L129.732 117.46L129.093 118.23ZM111.875 103.952L110.939 103.601L110.688 104.267L111.236 104.722L111.875 103.952ZM111.515 100.016C111.52 100.133 111.522 100.25 111.522 100.369H113.522C113.522 100.225 113.519 100.083 113.514 99.9406L111.515 100.016ZM112.445 98.9515C112.388 98.9748 112.329 98.9937 112.271 99.0083L112.758 100.948C112.905 100.911 113.051 100.864 113.194 100.806L112.445 98.9515ZM123.132 74.4312C125.545 77.6163 126.566 80.4829 126.683 83.0177C126.8 85.5492 126.019 87.8473 124.659 89.9076C121.909 94.0706 116.842 97.1765 112.445 98.9515L113.194 100.806C117.757 98.964 123.256 95.6603 126.328 91.0098C127.877 88.6635 128.821 85.9539 128.681 82.9255C128.541 79.9003 127.325 76.6546 124.727 73.2236L123.132 74.4312ZM120.96 74.4651C121.573 73.7263 122.629 73.7667 123.132 74.4312L124.727 73.2236C123.37 71.4322 120.775 71.5557 119.421 73.1884L120.96 74.4651ZM106.824 91.5108L120.96 74.4651L119.421 73.1884L105.285 90.234L106.824 91.5108ZM102.32 91.1674C103.511 91.1674 104.646 91.393 105.688 91.8029L106.421 89.9418C105.149 89.4416 103.766 89.1674 102.32 89.1674V91.1674ZM102.022 91.1721C102.121 91.169 102.22 91.1674 102.32 91.1674V89.1674C102.199 89.1674 102.079 89.1693 101.959 89.1731L102.022 91.1721ZM100.908 89.9311C100.954 90.0466 100.983 90.1643 100.996 90.2821L102.984 90.0631C102.952 89.7658 102.878 89.4696 102.762 89.1824L100.908 89.9311ZM76.3863 79.2448C79.5715 76.8325 82.4383 75.8115 84.9732 75.6945C87.5049 75.5777 89.8031 76.3581 91.8636 77.7187C96.0267 80.4678 99.1328 85.5344 100.908 89.9311L102.762 89.1824C100.92 84.6196 97.6164 79.1208 92.9656 76.0497C90.6192 74.5003 87.9095 73.5569 84.881 73.6966C81.8558 73.8362 78.6099 75.0519 75.1788 77.6505L76.3863 79.2448ZM76.4202 81.4168C75.6814 80.8042 75.7218 79.7481 76.3863 79.2448L75.1788 77.6505C73.3873 79.0073 73.5107 81.6024 75.1436 82.9564L76.4202 81.4168ZM93.5583 95.6281L76.4202 81.4168L75.1436 82.9564L92.2817 97.1676L93.5583 95.6281ZM93.1183 100.369C93.1183 99.0964 93.376 97.8869 93.841 96.7874L91.999 96.0083C91.4316 97.3498 91.1183 98.8239 91.1183 100.369H93.1183ZM93.132 100.875C93.1229 100.708 93.1183 100.539 93.1183 100.369H91.1183C91.1183 100.575 91.1239 100.78 91.1349 100.983L93.132 100.875ZM91.8889 102.012C92.005 101.965 92.1233 101.936 92.2416 101.923L92.0253 99.9351C91.7265 99.9676 91.4289 100.041 91.1403 100.158L91.8889 102.012ZM81.202 126.532C78.7894 123.347 77.7683 120.481 77.6513 117.946C77.5345 115.414 78.3149 113.116 79.6756 111.056C82.4249 106.893 87.4919 103.787 91.8889 102.012L91.1403 100.158C86.5772 102 81.078 105.303 78.0067 109.954C76.4571 112.3 75.5137 115.01 75.6534 118.038C75.793 121.063 77.0089 124.309 79.6077 127.74L81.202 126.532ZM83.3739 126.499C82.7612 127.237 81.7053 127.197 81.202 126.532L79.6077 127.74C80.9645 129.531 83.5594 129.408 84.9134 127.775L83.3739 126.499ZM97.6838 109.243L83.3739 126.499L84.9134 127.775L99.2233 110.52L97.6838 109.243ZM97.7098 109.211C97.7013 109.222 97.6926 109.233 97.6838 109.244L99.2233 110.52C99.2434 110.496 99.2631 110.472 99.2825 110.447L97.7098 109.211ZM102.32 109.57C101.099 109.57 99.935 109.332 98.8712 108.902L98.1211 110.756C99.4192 111.281 100.837 111.57 102.32 111.57V109.57ZM102.88 109.553C102.695 109.564 102.508 109.57 102.32 109.57V111.57C102.548 111.57 102.775 111.563 103 111.55L102.88 109.553ZM103.967 110.486C103.944 110.427 103.925 110.368 103.91 110.309L101.97 110.794C102.007 110.942 102.054 111.09 102.113 111.234L103.967 110.486ZM128.489 121.172C125.304 123.584 122.437 124.605 119.902 124.722C117.37 124.839 115.072 124.059 113.012 122.698C108.849 119.949 105.743 114.882 103.967 110.486L102.113 111.234C103.955 115.797 107.259 121.296 111.91 124.367C114.256 125.917 116.966 126.86 119.994 126.72C123.019 126.581 126.265 125.365 129.696 122.766L128.489 121.172ZM128.455 119C129.194 119.613 129.153 120.669 128.489 121.172L129.696 122.766C131.488 121.409 131.365 118.814 129.732 117.46L128.455 119ZM111.236 104.722L128.455 119L129.732 117.46L112.513 103.182L111.236 104.722ZM111.522 100.369C111.522 101.508 111.315 102.597 110.939 103.601L112.811 104.304C113.271 103.078 113.522 101.752 113.522 100.369H111.522ZM105.345 100.484C105.345 102.091 104.042 103.394 102.435 103.394V105.394C105.147 105.394 107.345 103.196 107.345 100.484H105.345ZM102.435 97.5736C104.042 97.5736 105.345 98.8766 105.345 100.484H107.345C107.345 97.7721 105.147 95.5736 102.435 95.5736V97.5736ZM99.5245 100.484C99.5245 98.8766 100.828 97.5736 102.435 97.5736V95.5736C99.723 95.5736 97.5245 97.7721 97.5245 100.484H99.5245ZM102.435 103.394C100.828 103.394 99.5245 102.091 99.5245 100.484H97.5245C97.5245 103.196 99.723 105.394 102.435 105.394V103.394Z" fill="black" mask="url(#path-1-inside-1_578_27421)"/>
<path d="M58.4973 156.064C58.224 156.103 58.0341 156.356 58.0732 156.63L58.7104 161.084C58.7495 161.358 59.0028 161.548 59.2761 161.508C59.5495 161.469 59.7394 161.216 59.7003 160.943L59.1339 156.983L63.0936 156.417C63.3669 156.377 63.5568 156.124 63.5177 155.851C63.4786 155.577 63.2253 155.388 62.952 155.427L58.4973 156.064ZM156.16 58.8663C176.569 86.0883 174.395 124.878 149.637 149.635L150.344 150.343C175.459 125.228 177.664 85.8809 156.961 58.2665L156.16 58.8663ZM149.637 149.635C124.88 174.393 86.0901 176.568 58.8681 156.159L58.2682 156.959C85.8826 177.662 125.23 175.457 150.344 150.343L149.637 149.635Z" fill="#222222"/>
<path d="M142.913 44.355C142.952 44.6283 142.762 44.8816 142.489 44.9207L138.034 45.5579C137.761 45.597 137.507 45.4071 137.468 45.1338C137.429 44.8604 137.619 44.6071 137.893 44.568L141.852 44.0016L141.286 40.0419C141.247 39.7686 141.437 39.5153 141.71 39.4762C141.983 39.4371 142.237 39.627 142.276 39.9003L142.913 44.355ZM142.118 44.8258C114.896 24.4169 76.1064 26.5916 51.3489 51.3491L50.6418 50.642C75.7561 25.5277 115.103 23.3226 142.718 44.0257L142.118 44.8258ZM51.3489 51.3491C26.5914 76.1066 24.4167 114.896 44.8256 142.118L44.0255 142.718C23.3223 115.104 25.5275 75.7564 50.6418 50.642L51.3489 51.3491Z" fill="#222222"/>
</svg>
