<svg width="200" height="200" viewBox="0 0 200 200" fill="none" xmlns="http://www.w3.org/2000/svg">
<circle cx="100" cy="100" r="15.2778" stroke="#222222"/>
<path d="M161.093 100.454C161.093 134.675 133.644 162.407 99.7963 162.407C65.9483 162.407 38.5 134.675 38.5 100.454C38.5 66.2326 65.9483 38.5 99.7963 38.5C133.644 38.5 161.093 66.2326 161.093 100.454Z" stroke="#222222"/>
<path d="M140.261 100.655C140.261 123.26 122.229 141.572 100.001 141.572C77.7744 141.572 59.7422 123.26 59.7422 100.655C59.7422 78.0497 77.7744 59.7383 100.001 59.7383C122.229 59.7383 140.261 78.0497 140.261 100.655Z" stroke="#222222"/>
<path d="M100 29.0004L100 84.2227" stroke="#222222"/>
<path d="M100 115.778L100 171" stroke="#222222"/>
<path d="M171 100L115.777 100" stroke="#222222"/>
<path d="M84.2222 100L29 100" stroke="#222222"/>
<path d="M100 89.4786L100 110.516" stroke="#FF5F00"/>
<path d="M110.518 100H89.4805" stroke="#FF5F00"/>
</svg>
