<svg width="200" height="552" viewBox="0 0 200 552" fill="none" xmlns="http://www.w3.org/2000/svg">
<circle cx="100" cy="100" r="99.5" stroke="#4A4A4A"/>
<circle cx="173.5" cy="33" r="3.5" fill="#4A4A4A"/>
<path d="M60.4603 92.3438H58.9759V102.594H60.4603V92.3438ZM48.9291 99.4375L49.7259 100.609C51.3666 99.9766 52.5775 98.6797 53.1947 97.0547C53.8197 98.5703 55.015 99.7578 56.6322 100.359L57.3978 99.1719C55.2337 98.4219 53.9369 96.5469 53.9447 94.5V93.1094H52.4291V94.5C52.4212 96.6094 51.1244 98.625 48.9291 99.4375ZM51.3041 106.031H60.8822V104.828H52.8041V101.625H51.3041V106.031ZM74.5347 92.3281H73.1128V106.328H74.5347V92.3281ZM62.3159 102.469L63.2222 103.578C64.5894 102.727 65.5425 101.164 66.0425 99.3359C66.5347 101.023 67.4487 102.453 68.7847 103.25L69.6753 102.156C67.7066 101.023 66.7378 98.625 66.7378 96.2344V95.1094H69.1441V93.9062H62.7378V95.1094H65.3159V96.2344C65.3081 98.7266 64.3003 101.273 62.3159 102.469ZM68.1128 98.5H70.2847V105.625H71.6909V92.625H70.2847V97.2812H68.1128V98.5ZM88.9528 99.0312H76.1872V100.219H81.8278V101.719H77.7184V106.156H87.3903V101.719H83.2966V100.219H88.9528V99.0312ZM77.3591 93.9688H79.4059V96.6406H77.4216V97.8438H87.6872V96.6406H85.7184V93.9688H87.7497V92.7656H77.3591V93.9688ZM79.1872 104.953V102.891H85.9528V104.953H79.1872ZM80.8747 96.6406V93.9688H84.2341V96.6406H80.8747ZM105.273 92.3438H103.789V94.4531H100.297C99.6406 93.6719 98.6328 93.1953 97.4766 93.1875C95.3672 93.2031 93.7969 94.6797 93.8047 96.75C93.7969 98.8047 95.3672 100.281 97.4766 100.281C98.6406 100.281 99.6562 99.8047 100.312 99.0156H103.789V102.656H105.273V92.3438ZM95.2266 96.75C95.2188 95.4297 96.1641 94.5234 97.4766 94.5156C98.7344 94.5234 99.6953 95.4297 99.6953 96.75C99.6953 98.0703 98.7344 98.9766 97.4766 98.9688C96.1641 98.9766 95.2188 98.0703 95.2266 96.75ZM96.1797 106.031H105.648V104.828H97.6641V101.578H96.1797V106.031ZM100.953 95.6562H103.789V97.8125H100.961C101.062 97.4844 101.117 97.125 101.117 96.75C101.117 96.3594 101.062 96 100.953 95.6562ZM118.41 93.2031H108.832V94.4219H116.942V94.4375C116.934 95.7422 116.934 97.2031 116.52 99.2031H107.27V100.422H112.863V106.344H114.363V100.422H120.035V99.2031H118.02C118.41 97.2109 118.41 95.7656 118.41 94.4375V93.2031ZM136.668 92.3281H135.247V97.8594H133.512V92.7031H132.122V105.656H133.512V99.0625H135.247V106.328H136.668V92.3281ZM124.637 102.328L125.497 103.359C129.504 101.102 130.723 97.7891 130.731 94.1094H125.231V95.3281H129.286C129.051 98.1797 127.747 100.562 124.637 102.328ZM140.352 92.9219H138.899V99.0312H145.493V92.9219H144.024V94.8281H140.352V92.9219ZM140.305 101.312H147.883V102.578H140.337V106.188H149.837V105H141.79V103.672H149.352V100.141H140.305V101.312ZM140.352 97.8438V95.9688H144.024V97.8438H140.352ZM147.868 99.5312H149.352V96.4688H151.383V95.2656H149.352V92.3281H147.868V99.5312Z" fill="white"/>
<circle cx="100" cy="276" r="99.5" stroke="#4A4A4A"/>
<circle cx="7.5" cy="314" r="3.5" fill="#4A4A4A"/>
<path d="M53.9916 271.891V269.5H52.4916V271.891C52.4916 274.562 50.9447 277.242 48.7416 278.219L49.6478 279.469C51.3275 278.648 52.6166 276.961 53.265 274.906C53.9212 276.82 55.1947 278.391 56.8041 279.156L57.6947 277.984C55.5228 277.023 53.9759 274.445 53.9916 271.891ZM58.9603 282.359H60.4447V268.328H58.9603V282.359ZM74.5347 268.328H73.1128V282.328H74.5347V268.328ZM62.3159 278.469L63.2222 279.578C64.5894 278.727 65.5425 277.164 66.0425 275.336C66.5347 277.023 67.4487 278.453 68.7847 279.25L69.6753 278.156C67.7066 277.023 66.7378 274.625 66.7378 272.234V271.109H69.1441V269.906H62.7378V271.109H65.3159V272.234C65.3081 274.727 64.3003 277.273 62.3159 278.469ZM68.1128 274.5H70.2847V281.625H71.6909V268.625H70.2847V273.281H68.1128V274.5ZM88.9528 275.031H76.1872V276.219H81.8278V277.719H77.7184V282.156H87.3903V277.719H83.2966V276.219H88.9528V275.031ZM77.3591 269.969H79.4059V272.641H77.4216V273.844H87.6872V272.641H85.7184V269.969H87.7497V268.766H77.3591V269.969ZM79.1872 280.953V278.891H85.9528V280.953H79.1872ZM80.8747 272.641V269.969H84.2341V272.641H80.8747ZM98.5703 270.422V269.109H97.1016V270.484C97.0859 272.586 95.7891 274.453 93.5547 275.219L94.3516 276.406C96.0469 275.797 97.2656 274.539 97.8672 272.938C98.4766 274.344 99.6094 275.422 101.148 275.984L101.961 274.828C99.8359 274.133 98.5625 272.383 98.5703 270.422ZM95.8516 279.656C95.8438 281.344 97.6406 282.305 100.586 282.297C103.516 282.305 105.312 281.344 105.32 279.656C105.312 277.961 103.516 276.977 100.586 276.984C97.6406 276.977 95.8438 277.961 95.8516 279.656ZM97.3203 279.656C97.3125 278.695 98.5312 278.141 100.586 278.141C102.625 278.141 103.844 278.695 103.852 279.656C103.844 280.586 102.625 281.133 100.586 281.125C98.5312 281.133 97.3125 280.586 97.3203 279.656ZM100.836 272.391H103.789V276.594H105.273V268.328H103.789V271.172H100.836V272.391ZM118.582 272.109H110.442V268.578H108.973V273.312H118.582V272.109ZM107.27 276.016H120.051V274.797H107.27V276.016ZM108.785 279.703C108.785 281.344 110.606 282.266 113.645 282.266C116.66 282.266 118.465 281.344 118.473 279.703C118.465 278.07 116.66 277.148 113.645 277.156C110.606 277.148 108.785 278.07 108.785 279.703ZM110.285 279.703C110.278 278.797 111.504 278.32 113.645 278.312C115.754 278.32 116.988 278.797 116.988 279.703C116.988 280.602 115.754 281.117 113.645 281.125C111.504 281.117 110.278 280.602 110.285 279.703ZM129.825 271.891V269.5H128.325V271.891C128.325 274.562 126.778 277.242 124.575 278.219L125.481 279.469C127.161 278.648 128.45 276.961 129.098 274.906C129.754 276.82 131.028 278.391 132.637 279.156L133.528 277.984C131.356 277.023 129.809 274.445 129.825 271.891ZM134.793 282.359H136.278V268.328H134.793V282.359ZM150.024 268.328H148.54V272.531H146.352V273.766H148.54V276.812H150.024V268.328ZM138.368 270.906H146.571V269.719H143.212V268.203H141.743V269.719H138.368V270.906ZM139.18 274.047C139.18 275.555 140.555 276.555 142.477 276.562C144.399 276.555 145.758 275.555 145.758 274.047C145.758 272.578 144.399 271.547 142.477 271.547C140.555 271.547 139.18 272.578 139.18 274.047ZM140.602 274.047C140.602 273.227 141.36 272.68 142.477 272.688C143.579 272.68 144.337 273.227 144.337 274.047C144.337 274.898 143.579 275.43 142.477 275.438C141.36 275.43 140.602 274.898 140.602 274.047ZM140.79 282.156H150.024V277.5H140.79V282.156ZM142.258 280.953V278.672H148.571V280.953H142.258Z" fill="white"/>
<circle cx="100" cy="452" r="99.5" stroke="#4A4A4A"/>
<circle cx="173.5" cy="520" r="3.5" fill="#4A4A4A"/>
<path d="M56.7025 443.328H50.9681V440H49.4994V443.328H43.89V444.547H56.7025V443.328ZM44.3275 439.031L44.9837 440.25C47.2416 439.805 49.3041 438.391 50.2259 436.484C51.1478 438.398 53.2259 439.805 55.4994 440.25L56.14 439.031C53.4369 438.578 50.9994 436.5 50.9994 434.281V433.219H49.4369V434.281C49.4291 436.5 47.0228 438.578 44.3275 439.031ZM69.1519 432.328H67.6675V446.359H69.1519V432.328ZM58.3394 443H65.0581V433.5H63.5894V437.094H59.8237V433.5H58.3394V443ZM59.8237 441.781V438.266H63.5894V441.781H59.8237ZM76.1012 436.453V434.969H79.1481V433.734H71.4762V434.969H74.6325V436.453C74.6247 438.82 73.0856 441.461 70.9606 442.484L71.8356 443.656C73.4294 442.859 74.7419 441.133 75.3825 439.141C76.0153 440.969 77.2653 442.547 78.8356 443.297L79.6794 442.141C77.5544 441.133 76.0934 438.664 76.1012 436.453ZM80.6481 446.328H82.1325V439.125H84.3825V437.875H82.1325V432.328H80.6481V446.328ZM93.5 435.891V433.5H92.0156V435.891C92.0078 438.453 90.5547 441.141 88.4062 442.172L89.3281 443.375C90.9219 442.547 92.1484 440.867 92.7734 438.883C93.3906 440.75 94.5703 442.312 96.0938 443.109L97.0156 441.922C94.9297 440.906 93.4844 438.367 93.5 435.891ZM98.0625 446.328H99.5469V439.172H101.797V437.906H99.5469V432.328H98.0625V446.328ZM115.074 439.156H111.981V437.281C113.067 436.836 113.676 436.133 113.684 435.203C113.676 433.539 111.754 432.57 108.684 432.578C105.606 432.57 103.676 433.539 103.684 435.203C103.676 436.133 104.285 436.836 105.371 437.273V439.156H102.309V440.359H115.074V439.156ZM103.824 443.797C103.824 445.414 105.637 446.297 108.684 446.297C111.692 446.297 113.504 445.414 113.512 443.797C113.504 442.195 111.692 441.312 108.684 441.312C105.637 441.312 103.824 442.195 103.824 443.797ZM105.215 435.203C105.207 434.266 106.504 433.727 108.684 433.719C110.848 433.727 112.16 434.266 112.153 435.203C112.16 436.141 110.848 436.664 108.684 436.672C106.504 436.664 105.207 436.141 105.215 435.203ZM105.324 443.797C105.317 442.938 106.543 442.453 108.684 442.453C110.793 442.453 112.028 442.938 112.028 443.797C112.028 444.672 110.793 445.172 108.684 445.156C106.543 445.172 105.317 444.672 105.324 443.797ZM106.871 439.156V437.672C107.418 437.75 108.028 437.797 108.684 437.797C109.348 437.797 109.965 437.75 110.512 437.664V439.156H106.871ZM127.649 432.328H126.164V434.922H123.977V436.141H126.164V437.609H123.977V438.859H126.164V442.719H127.649V432.328ZM115.993 439.484L116.18 440.734C118.422 440.727 121.578 440.672 124.258 440.25L124.196 439.156C123.641 439.219 123.071 439.266 122.477 439.312V434.625H123.821V433.422H116.383V434.625H117.696V439.477C117.094 439.477 116.516 439.484 115.993 439.484ZM118.524 446.031H128.008V444.828H120.024V441.875H118.524V446.031ZM119.133 439.453V434.625H121.055V439.391C120.407 439.414 119.766 439.438 119.133 439.453ZM134.207 433.328C132.004 433.32 130.387 434.688 130.395 436.656C130.387 438.625 132.004 439.992 134.207 440C136.418 439.992 138.012 438.625 138.02 436.656C138.012 434.688 136.418 433.32 134.207 433.328ZM129.723 442.109L129.911 443.344C132.411 443.344 135.809 443.328 138.973 442.719L138.864 441.641C135.801 442.086 132.27 442.109 129.723 442.109ZM131.864 436.656C131.848 435.43 132.848 434.609 134.207 434.609C135.567 434.609 136.567 435.43 136.567 436.656C136.567 437.898 135.567 438.703 134.207 438.703C132.848 438.703 131.848 437.898 131.864 436.656ZM139.739 446.359H141.223V432.328H139.739V446.359ZM148.282 434.422V433.109H146.813V434.484C146.798 436.586 145.501 438.453 143.266 439.219L144.063 440.406C145.758 439.797 146.977 438.539 147.579 436.938C148.188 438.344 149.321 439.422 150.86 439.984L151.673 438.828C149.548 438.133 148.274 436.383 148.282 434.422ZM145.563 443.656C145.555 445.344 147.352 446.305 150.298 446.297C153.227 446.305 155.024 445.344 155.032 443.656C155.024 441.961 153.227 440.977 150.298 440.984C147.352 440.977 145.555 441.961 145.563 443.656ZM147.032 443.656C147.024 442.695 148.243 442.141 150.298 442.141C152.337 442.141 153.555 442.695 153.563 443.656C153.555 444.586 152.337 445.133 150.298 445.125C148.243 445.133 147.024 444.586 147.032 443.656ZM150.548 436.391H153.501V440.594H154.985V432.328H153.501V435.172H150.548V436.391ZM62.4681 470H64.1869V465.062H68.9837V463.594H64.1869V460.172H69.4837V458.688H62.4681V470ZM74.1362 470.172C76.0034 470.172 77.3081 469.25 77.6831 467.875H75.9956C75.7144 468.391 75.0972 468.797 74.1519 468.797C72.7612 468.797 71.8081 467.883 71.7612 466.266H77.7925V465.672C77.7925 462.602 75.9566 461.406 74.0269 461.406C71.6597 461.406 70.0972 463.203 70.105 465.812C70.0972 468.445 71.6362 470.172 74.1362 470.172ZM71.7691 465.016C71.8394 463.82 72.7066 462.773 74.0425 462.781C75.3159 462.773 76.1519 463.727 76.1519 465.016H71.7691ZM82.945 470.172C84.8122 470.172 86.1169 469.25 86.4919 467.875H84.8044C84.5231 468.391 83.9059 468.797 82.9606 468.797C81.57 468.797 80.6169 467.883 80.57 466.266H86.6012V465.672C86.6012 462.602 84.7653 461.406 82.8356 461.406C80.4684 461.406 78.9059 463.203 78.9137 465.812C78.9059 468.445 80.445 470.172 82.945 470.172ZM80.5778 465.016C80.6481 463.82 81.5153 462.773 82.8512 462.781C84.1247 462.773 84.9606 463.727 84.9606 465.016H80.5778ZM91.2694 470.172C92.8162 470.164 93.4256 469.227 93.7381 468.672H93.8631V470H95.4881V458.688H93.8162V462.891H93.7381C93.4334 462.359 92.8631 461.406 91.285 461.406C89.2459 461.406 87.7225 463.016 87.7225 465.781C87.7225 468.516 89.2225 470.164 91.2694 470.172ZM89.4256 465.75C89.4178 464.078 90.1678 462.82 91.6444 462.828C93.0819 462.82 93.8631 463.984 93.8631 465.75C93.8631 467.531 93.0662 468.742 91.6444 468.75C90.1834 468.742 89.4178 467.453 89.4256 465.75ZM102.5 464.5H97.4844V465.938H102.5V464.5ZM104.496 470H108.824C111.465 470 112.653 468.688 112.653 466.953C112.653 465.203 111.434 464.219 110.309 464.156V464.047C111.348 463.781 112.215 463.07 112.215 461.656C112.215 459.977 111.051 458.688 108.637 458.688H104.496V470ZM106.215 468.531V464.922H108.731C110.09 464.922 110.949 465.789 110.949 466.875C110.949 467.812 110.293 468.523 108.668 468.531H106.215ZM106.215 463.578V460.156H108.528C109.879 460.156 110.528 460.859 110.528 461.797C110.528 462.883 109.637 463.57 108.496 463.578H106.215ZM113.805 467.609C113.797 469.266 115.055 470.188 116.664 470.188C118.071 470.188 118.852 469.477 119.18 468.844H119.243V470H120.868V464.359C120.86 461.898 118.891 461.406 117.539 461.406C115.532 461.406 114.219 462.422 114.071 463.828H115.727C115.899 463.203 116.493 462.75 117.477 462.75C118.61 462.75 119.203 463.305 119.196 464.266L119.203 464.945C118.813 464.961 117.539 465.031 116.977 465.062C115.446 465.172 113.797 465.672 113.805 467.609ZM115.43 467.625C115.43 466.789 116.118 466.375 117.211 466.297C117.61 466.273 118.821 466.188 119.203 466.164L119.211 466.938C119.211 467.945 118.399 468.852 117.039 468.859C116.102 468.852 115.43 468.438 115.43 467.625ZM126.317 470.172C128.317 470.172 129.622 468.961 129.801 467.312H128.176C127.965 468.227 127.262 468.758 126.317 468.75C124.918 468.758 124.02 467.609 124.02 465.75C124.02 463.945 124.942 462.805 126.317 462.797C127.372 462.805 128.004 463.469 128.176 464.266H129.801C129.622 462.547 128.223 461.406 126.286 461.406C123.895 461.406 122.34 463.211 122.348 465.797C122.34 468.352 123.84 470.172 126.317 470.172ZM131.219 470H132.891V466.984L133.696 466.188L136.579 470H138.626L134.962 465.156L138.391 461.516H136.391L133.032 465.094H132.891V458.688H131.219V470Z" fill="white"/>
</svg>
